<!-- Generated by IcoMoon.io -->
<svg version="1.1" xmlns="http://www.w3.org/2000/svg" width="32" height="32" viewBox="0 0 32 32">
<title>dds__paint-palette</title>
<path d="M23.736 14.007l-0.006-0.006c-0.644-0.664-1.035-1.555-1.035-2.532 0-1.32 0.717-2.481 1.8-3.142v0.002c1.064-0.664 1.768-1.815 1.768-3.123 0-2.057-2.568-3.245-4.717-3.245-9.026 0-16.004 6.526-16.004 15.168 0 3.189 0.996 6.155 2.707 8.629l0.034 0.038c1.777 2.558 4.813 4.243 8.262 4.243 5.476 0 9.916-4.25 9.916-9.495 0.002-2.534-1.035-4.836-2.724-6.537zM16.545 28.156c-2.711 0-5.222-1.284-6.716-3.435l-0.092-0.122c-1.513-2.223-2.313-4.804-2.313-7.469 0-7.575 6.071-13.286 14.121-13.286 1.459 0 2.835 0.768 2.835 1.363 0 0.591-0.309 1.143-0.828 1.491l-0.040 0.024c-1.69 1.033-2.699 2.808-2.699 4.747 0 1.432 0.555 2.797 1.513 3.784l0.036 0.041 0.038 0.040c1.404 1.417 2.178 3.268 2.178 5.212 0.002 4.196-3.603 7.61-8.032 7.61z"></path>
<path d="M15.048 9.336c0 0.712-0.577 1.289-1.289 1.289s-1.289-0.577-1.289-1.289c0-0.712 0.577-1.289 1.289-1.289s1.289 0.577 1.289 1.289z"></path>
<path d="M20.76 6.562c0 0.712-0.577 1.289-1.289 1.289s-1.289-0.577-1.289-1.289c0-0.712 0.577-1.289 1.289-1.289s1.289 0.577 1.289 1.289z"></path>
<path d="M11.924 15.025c0-0.712-0.578-1.289-1.289-1.289s-1.289 0.578-1.289 1.289c0 0.712 0.578 1.289 1.289 1.289s1.289-0.576 1.289-1.289z"></path>
<path d="M17.977 25.308c0 0.712-0.577 1.289-1.289 1.289s-1.289-0.577-1.289-1.289c0-0.712 0.577-1.289 1.289-1.289s1.289 0.577 1.289 1.289z"></path>
<path d="M22.608 21.118c0 0.712-0.577 1.289-1.289 1.289s-1.289-0.577-1.289-1.289c0-0.712 0.577-1.289 1.289-1.289s1.289 0.577 1.289 1.289z"></path>
<path d="M11.348 20.032c-0.712 0-1.289 0.578-1.289 1.289s0.578 1.289 1.289 1.289c0.712 0 1.289-0.578 1.289-1.289s-0.578-1.289-1.289-1.289z"></path>
</svg>
