<?xml version="1.0" encoding="utf-8"?>
<svg version="1.1" id="Layer_1" xmlns="http://www.w3.org/2000/svg" xmlns:xlink="http://www.w3.org/1999/xlink" x="0px" y="0px"
	 viewBox="0 0 22 28.1" style="enable-background:new 0 0 22 28.1;" xml:space="preserve">
<style type="text/css">
	.st0{fill:#444;}
</style>
<path class="st0" d="M0,0v28.1h22V0C22,0,0,0,0,0z M20.1,26.2H1.9V1.9h18.2V26.2z"/>
<path class="st0" d="M13.5,13.3c0-1.4-1.2-2.6-2.6-2.6s-2.6,1.2-2.6,2.6s1.2,2.6,2.6,2.6S13.5,14.7,13.5,13.3z M10.3,13.3
	c0-0.4,0.3-0.7,0.7-0.7s0.7,0.3,0.7,0.7S11.4,14,11,14S10.3,13.7,10.3,13.3z"/>
<path class="st0" d="M4.4,22.7c0,1.2,0.9,2.1,2.1,2.1c1,0,1.8-0.6,2-1.5c0,0,0.1-0.2,0.1-0.3l0.9-6.2L5,21.2
	C4.7,21.6,4.4,22.1,4.4,22.7L4.4,22.7z M6,22.2l1.5-1.5l-0.3,2c0,0.1,0,0.1,0,0.1c-0.1,0.3-0.3,0.5-0.6,0.5c-0.4,0-0.7-0.3-0.7-0.7
	C5.9,22.5,5.9,22.3,6,22.2L6,22.2z"/>
<path class="st0" d="M6.7,17.1c-0.9-1-1.4-2.4-1.4-3.8c0-3.2,2.6-5.7,5.7-5.7s5.7,2.6,5.7,5.7s-2.6,5.7-5.7,5.7v1.9
	c4.2,0,7.6-3.4,7.6-7.6S15.2,5.7,11,5.7s-7.6,3.4-7.6,7.6c0,1.8,0.7,3.6,1.9,5C5.2,18.3,6.6,17.1,6.7,17.1z"/>
</svg>
