<svg version="1.1" xmlns="http://www.w3.org/2000/svg" width="32" height="32" viewBox="5 0 32 32">
<path style="fill:#006BBD;" d="M31.319 31.991c-0.146 0-0.323-0.004-0.446-0.103-0.009-0.002-9.568-6.959-9.568-6.959s-9.557 6.932-9.57 6.939c-0.225 0.17-0.533 0.177-0.761 0.009-0.24-0.175-0.26-0.463-0.153-0.739 0-0.006 3.613-11.227 3.613-11.227s-9.62-6.981-9.631-6.991c-0.232-0.164-0.332-0.451-0.243-0.721 0.096-0.304 0.4-0.508 0.721-0.455h11.791c0 0 3.617-11.278 3.623-11.292 0.083-0.267 0.332-0.452 0.616-0.452 0.295 0 0.538 0.169 0.612 0.455 0.004 0.009 3.669 11.29 3.669 11.29h11.788c0.28-0.048 0.584 0.134 0.682 0.438 0.090 0.27-0.009 0.565-0.24 0.729-0.009 0.009-9.57 6.954-9.57 6.954s3.667 11.262 3.669 11.275c0.090 0.269 0.002 0.559-0.229 0.728-0.111 0.083-0.243 0.122-0.374 0.122z"></path>
</svg>
