<svg width="20" height="20" viewBox="0 0 20 20" fill="none" xmlns="http://www.w3.org/2000/svg">
    <path d="M10.7651 1.17871C6.3132 1.17871 2.70508 4.78684 2.70508 9.23871C2.70508 9.68434 2.7507 10.1175 2.82008 10.5437H4.00945C3.9282 10.1212 3.88133 9.68496 3.88133 9.23871C3.88133 5.44371 6.96945 2.35496 10.7651 2.35496C14.5607 2.35496 17.6488 5.44309 17.6488 9.23871C17.6488 12.8787 14.8076 15.86 11.2276 16.0987V17.275C15.4626 17.0337 18.8251 13.5337 18.8251 9.23871C18.8251 4.78809 15.217 1.17871 10.7651 1.17871V1.17871Z" fill="black"/>
    <path d="M4.53301 12.1457L4.21176 11.7207H1.17676V18.8538H10.0511V12.5563H4.84426L4.53363 12.1457H4.53301ZM8.87426 13.7332V17.6782H2.35301V12.8982H3.62613L4.25801 13.7332H8.87426V13.7332Z" fill="black"/>
    <path d="M13.2457 9.24004C13.2457 7.86941 12.1351 6.75879 10.7645 6.75879C9.39383 6.75879 8.2832 7.86941 8.2832 9.24004C8.2832 10.1588 8.7882 10.9507 9.52883 11.38C9.89383 11.5919 10.3126 11.7213 10.7638 11.7213C10.9226 11.7213 11.077 11.7025 11.2263 11.6744C12.3757 11.4582 13.2451 10.4519 13.2451 9.24004H13.2457ZM9.46008 9.24004C9.46008 8.52129 10.0451 7.93504 10.7651 7.93504C11.4851 7.93504 12.0701 8.52004 12.0701 9.24004C12.0701 9.96004 11.4851 10.545 10.7651 10.545C10.0463 10.545 9.46008 9.95941 9.46008 9.24004V9.24004Z" fill="black"/>
</svg>
