<?xml version="1.0" encoding="utf-8"?>
<svg version="1.1" id="Layer_1" xmlns="http://www.w3.org/2000/svg" xmlns:xlink="http://www.w3.org/1999/xlink" x="0px" y="0px"
	 viewBox="0 0 28.2 28.2" style="enable-background:new 0 0 28.2 28.2;" xml:space="preserve">
<style type="text/css">
	.st0{fill:#444;}
</style>
<path class="st0" d="M17.3,10.8h-6.6v6.6h6.6C17.3,17.4,17.3,10.8,17.3,10.8z M15.4,15.5h-2.9v-2.9h2.9V15.5z"/>
<path class="st0" d="M28.2,10V8.1h-4V3.9h-4.1V0h-1.9v3.9h-3.3V0H13v3.9H9.7V0H7.8v3.9H3.8v4.2H0V10h3.8v3.3H0v1.9h3.8v3.3H0v1.9
	h3.8v3.9h3.9v4h1.9v-4H13v4h1.9v-4h3.3v4h1.9v-4h4.1v-3.9h4v-1.9h-4v-3.3h4v-1.9h-4V10H28.2z M22.3,22.4H5.7V5.8h16.6V22.4z"/>
</svg>
