<svg xmlns="http://www.w3.org/2000/svg" viewBox="0 0 32 32">
  <style>.st0{fill:#444}</style>
  <path class="st0" d="M11.509 16.471a6.392 6.392 0 0 0 6.393 6.392c1.056 0 2.037-.28 2.914-.733l.025.017.026-.045a6.353 6.353 0 0 0 3.386-5.221c.011-.006.032-.013.042-.019l-.034-.061c.006-.112.033-.217.033-.331a6.376 6.376 0 0 0-2.913-5.352l.002-.018h-.034a6.347 6.347 0 0 0-3.448-1.023c-3.458 0-6.258 2.751-6.371 6.181l-.04.02.033.056c-.001.046-.014.089-.014.135zm3.252 3.227a4.506 4.506 0 0 1-1.254-2.239 8.508 8.508 0 0 1 1.891-.402c.046.195.117.379.204.554a9.51 9.51 0 0 0-.842 2.087zm6.266-6.466a4.496 4.496 0 0 1 1.299 2.396 8.547 8.547 0 0 1-1.898.361 2.527 2.527 0 0 0-.228-.658c.377-.678.639-1.411.827-2.1zm-.986 4.67c.767-.005 1.525-.134 2.21-.305a4.495 4.495 0 0 1-1.361 2.225 8.547 8.547 0 0 1-1.276-1.442c.16-.143.307-.299.427-.478zm-2.14-5.942c.507 0 .986.103 1.441.258a8.578 8.578 0 0 1-.613 1.825 2.575 2.575 0 0 0-.744-.14 9.576 9.576 0 0 0-1.393-1.726 4.437 4.437 0 0 1 1.309-.217zm.693 4.511a.694.694 0 0 1-1.386 0 .694.694 0 0 1 1.386 0zm-1.522 2.427c.225.077.461.125.709.136a9.54 9.54 0 0 0 1.39 1.743c-.405.12-.826.204-1.269.204a4.43 4.43 0 0 1-1.457-.263 8.61 8.61 0 0 1 .628-1.821zm-2.189-5.755c.435.39.891.885 1.279 1.439-.177.163-.33.35-.456.557a9.543 9.543 0 0 0-2.204.359 4.496 4.496 0 0 1 1.38-2.355z"/>
  <path class="st0" d="M7.553 6.647V2.983H1.875v1.882h3.796v5.243H3.978v4.963h1.693v2.805H3.978v4.963h1.693v6.177h1.882v-2.722h22.572V6.647H7.553zm20.69 17.766H7.561V8.531h20.682v15.882z"/>
</svg>