<?xml version="1.0" encoding="UTF-8"?> <!-- Generator: Adobe Illustrator 25.0.1, SVG Export Plug-In . SVG Version: 6.00 Build 0) --> <svg xmlns="http://www.w3.org/2000/svg" xmlns:xlink="http://www.w3.org/1999/xlink" version="1.1" id="Layer_1" x="0px" y="0px" viewBox="0 0 2427.9 1905.9" style="enable-background:new 0 0 2427.9 1905.9;" xml:space="preserve"> <style type="text/css"> .st0{fill:#F0BC00;} .st1{fill:#1D1D1B;} .st2{fill:#0154D5;} .st3{fill:none;stroke:#000000;stroke-width:24;stroke-miterlimit:10;} .st4{fill:#FDF0E1;} .st5{fill:none;stroke:#FDF0E1;stroke-width:20;stroke-miterlimit:10;} .st6{fill:none;stroke:#E679A6;stroke-width:25;stroke-miterlimit:10;} .st7{fill:#E679A6;} .st8{fill:none;stroke:#FDF0E1;stroke-width:10;stroke-miterlimit:10;} .st9{fill:none;stroke:#E679A6;stroke-width:10;stroke-miterlimit:10;} .st10{fill:none;stroke:#0154D5;stroke-width:10;stroke-miterlimit:10;} </style> <path class="st0" d="M326.6,5.8c0,0-324.8,0.3-324.5,324.1l1.2,1248c0,0,0.3,323.8,325.1,323.5l1771.1-1.6 c0,0,324.8-0.3,324.5-324.2l-1.2-1248c0,0-0.3-323.7-325.1-323.5L326.6,5.8z"></path> <path class="st1" d="M296,737.4c0,0,135.1-91.7,264-85.9S724.3,746.2,730.2,784s-12.5,112.1-138.4,214s-143.5,107.8-143.5,107.8 l281.1,26.2l-2.9,148.5l-530-5.8l14.6-177.7c0,0,301.6-209.7,336.7-241.7c37.7-34.4,5.8-84.5-52.7-52.4l-93.7,55.3L296,737.4z"></path> <path class="st1" d="M1019.2,629.5c0,0-259.9,6.5-263.2,353.3s256.6,317.4,256.6,317.4s203.9,20.4,213.8-346.8 C1226.4,953.4,1246.2,641,1019.2,629.5z M1003.8,1123.6c-118.4,3-82.5-185.7-79.5-229.7c2-30.4,22.2-67.6,50.5-76.7 c34.6-11.1,74-6.2,93.6,35.5C1095.7,910.6,1102.4,1121.1,1003.8,1123.6z"></path> <path class="st1" d="M1534,632.9c0,0-259.9,6.5-263.2,353.4s256.6,317.4,256.6,317.4s203.9,20.4,213.8-346.8 C1741.3,956.8,1761,644.4,1534,632.9z M1518.5,1127.1c-118.4,3-82.5-185.7-79.5-229.7c2-30.4,22.2-67.6,50.5-76.7 c34.6-11.1,74-6.2,93.7,35.5C1610.5,914,1617.3,1124.5,1518.5,1127.1L1518.5,1127.1z"></path> <polygon class="st2" points="1993.4,1307.3 1945.9,1068.8 1800.1,1167.8 1938.1,694.5 2220.5,1056.9 2060.9,1038.1 2110.7,1277.1 "></polygon> <line class="st3" x1="1978.7" y1="667.2" x2="1999" y2="622.7"></line> <line class="st3" x1="1929.8" y1="668.2" x2="1916.9" y2="613.5"></line> <line class="st3" x1="1886.6" y1="690.7" x2="1846.8" y2="663.1"></line> <path class="st2" d="M1877.3,1633.9c34,44.4,106.4,40.2,149.2,11.6c22.8-15.2,39.1-41.7,39.3-69.4c0.2-28.9-16.6-56-43.9-66.4 c-24.2-9.3-51.3,1.4-63.5,24.2c-6.7,12.3-8.6,26.3-4.4,39.8s14.3,24.2,26.1,31.3c21.8,13.1,50.1,14.9,74.6,10.1 c25.4-5,49.5-16.9,68.3-34.9c22.5-21.5,36.4-49.8,41.4-80.5c5.1-31.4,0.4-64.1-15-92.1c-2.7-5-9.8-7.4-14.8-4.5 c-5.3,3.1-6.6,9.9-4.6,15.4s3.6,11,5.2,16.6c0.3,1,0.6,2,0.8,3c0-0.1,1.3,4.9,0.7,2.3c0.8,3.1,1.4,6.2,1.9,9.3 c1.9,10.2,2.5,20.6,1.8,31c-1.5,21.5-8,41.9-20.4,59.7c-22.6,32.4-64.8,52.8-103.8,47.6c-10.8-1.4-19.6-3.9-28.1-9.3 c-0.8-0.5-1.6-1-2.3-1.6c1.9,1.4-1.6-1.4-1.6-1.4c-0.9-0.8-1.7-1.6-2.5-2.4c-1.7-1.8,1.7,2.6-0.7-0.9c-0.8-1.1-1.6-2.3-2.3-3.4 c-0.3-0.5-1.1-2.5-0.1-0.3c-0.5-1.2-1-2.5-1.4-3.8c1,3.1,0-0.6-0.1-1.2s0-4.4-0.2-1.3c0.1-1.1,0.2-2.1,0.3-3.2c0-0.6,0.6-3.3,0-0.9 c0.3-1.2,0.7-2.5,1.1-3.7c0.3-0.8,0.7-1.6,1-2.4c1.4-3.5-1.2,1.6,0.8-1.6c1.4-2.2,2.9-4.3,4.6-6.3c-1.2,1.3,0.2-0.3,0.4-0.5 c0.9-0.9,1.9-1.8,2.9-2.6c1.7-1.4,3.5-2.6,5.3-3.7c-2.1,1.1,1.8-0.7,1.8-0.7c0.8-0.3,1.6-0.7,2.4-0.9c1.2-0.4,2.5-0.8,3.7-1.1 c-2.1,0.4,1.9-0.1,1.9-0.1c5-0.4,7.9,0,13.2,1.8c0.2,0.1,2.3,0.9,0.8,0.2c1.3,0.5,2.5,1.2,3.8,1.8c0.8,0.4,1.6,0.9,2.4,1.4 s1.6,1,2.3,1.5c-0.9-0.7-0.8-0.5,0.5,0.5c1.8,1.6,3.5,3.2,5.2,4.8c3.1,3.1-0.7-1.1,0.8,1c0.7,0.9,1.4,1.9,2.1,2.9 c0.8,1.2,1.5,2.4,2.3,3.6c0.2,0.4,1.3,2.5,0.2,0.3c1.2,2.6,2.2,5.2,3,7.9c-0.9-3,0.3,1.7,0.3,1.9c0.2,1,0.3,2,0.4,3 c0.3,2,0.4,4.1,0.2,6.2c-0.2,5.2-1.2,10.3-3.1,15.1c-3.3,9-8.7,17.2-15.6,23.9c-18.1,17.2-43.5,24.6-68.1,25.6 c-11.9,0.5-22.2-0.4-33.8-3.9c-4.9-1.5-9.5-3.6-13.9-6.2c-1.9-1.1-3.7-2.3-5.3-3.7c-0.9-0.8-1.8-1.5-2.6-2.4 c-0.4-0.4-3.5-3.7-2.6-2.6c-4.1-4.9-10.8-8.6-16.6-3.9C1873.7,1619.6,1873.2,1628.7,1877.3,1633.9L1877.3,1633.9z"></path> <path class="st4" d="M1592.5,412.6c-21-6.5-42.9,1.8-60.2,13.8s-32.3,28.9-39.7,48.6s-6.4,44.2,6.6,61.5 c12.8,16.9,35.4,24.3,55.6,17.2c19.1-6.8,30.4-26.3,28.7-46.2c-1.8-22.3-21-37.2-43-35.1c-39.3,3.8-72.5,40.6-82,77.4 c-5.7,22.1-4.5,45.5,4.5,66.6c8.9,20.7,23.9,39.9,44.8,49.3c5.3,2.4,11.2,1.5,14.1-4.2c2.6-5.1,1.7-13.2-3.2-16.9 c-5.9-4.4-11.5-9.2-16.7-14.5c-1.4-1.4-2.7-2.8-4-4.3c-0.2-0.2-1.7-2.1-0.4-0.5c-0.5-0.6-0.9-1.2-1.4-1.7c-2.4-3.1-4.6-6.3-6.5-9.7 c-0.3-0.6-2.5-4.6-1.3-2.3c-0.8-1.5-1.5-3.1-2.1-4.7c-1.5-3.6-2.8-7.3-3.8-11.1c-0.7-2.4,0.4,2-0.1-0.5c-0.2-0.7-0.3-1.5-0.4-2.2 c-0.4-2-0.7-3.9-0.9-5.9c-0.2-1.7-0.4-3.5-0.5-5.2c0-0.3-0.1-3.3-0.1-1.9c0,1,0.1-2.7,0.1-2.7c0.5-13.4,4.5-26.4,11.5-37.9 c7.5-12.7,18-23.2,30.6-30.8c2.5-1.4,5.1-2.7,7.8-3.9c3.4-1.5,7-2.7,10.7-3.5c3.2-0.7,6.5-0.8,9.8-0.5c1.4,0.3,2.7,0.6,4.1,1.1 c-0.9-0.4,1.2,0.7,1.1,0.6c3.8,2.1-0.8-0.8,0.7,0.5c0.4,0.3,1.9,2.2,0.7,0.7s0.3,0.5,0.5,0.9c0.6,1.6-0.4-0.9-0.5-0.9 c0.2,0.7,0.5,1.5,0.8,2.1c-1.1-2.6-0.1,0,0.2,1.4c0.1,0.4,0.1,2.9,0.1,1.1s-0.2,1.8-0.2,1.8c-0.1,0.6-0.2,1.2-0.3,1.8 c-0.3,2.1,0.6-1.8,0,0.2c-0.4,1.4-0.9,2.8-1.5,4.1c-1,1.7-2.1,3.4-3.4,4.9c-9.1,8.2-21.7,8.5-31.4,2.3c1.5,1-1.7-1.5-2.4-2.1 c-0.2-0.2-1.7-2-0.5-0.5c-0.4-0.6-0.9-1.2-1.3-1.8c-1.6-2.2-2.7-4.6-3.4-7.2c0.4,1.4-0.2-0.9-0.2-1c-0.2-1-0.3-2-0.5-2.9 s-0.2-2-0.3-3c0-0.2-0.1-2.7-0.1-0.9c0-3.5,0.4-7,1.1-10.4c3.8-15.7,16.1-29.9,29.4-40.2c12.8-10,30-19,46.2-15 c6.7,1.6,12.4-3.6,13.1-10.1C1603.6,421.5,1599.3,414.8,1592.5,412.6L1592.5,412.6z"></path> <polyline class="st5" points="2219.6,707.5 2209.1,708.7 2211.1,701.4 2211.8,694.9 2202.1,695.5 2199,691.7 2200.5,684.6 2197.9,680.4 2197.3,674.9 2194.6,670.7 2187.9,669.3 2189.1,662.5 2184.4,659.7 2184.1,653.9 2177.9,652.2 2181,644.1 2171.7,644.4 "></polyline> <polyline class="st6" points="2094.1,296 2097.5,292.3 2098.3,287.4 2105.6,285.5 2104.6,279.7 2102,273.1 2109.2,271.2 2114.2,268.2 2105.7,259 2117.6,259.2 2118,254.1 2115.2,247.4 2117.1,243 2124,240.9 2120.9,234.2 2126.7,231.5 "></polyline> <path class="st7" d="M198.8,458.7c35,46.1,109.1,42.4,153.5,12.8c23.4-15.6,40.2-43.1,40.5-71.6c0.3-30.8-17.5-59.6-46.7-70.7 c-25.2-9.6-53.6,1.6-66.4,25.2c-7.3,13.5-9.4,28.5-4.8,43.3c4.4,14.3,15.2,25.8,27.9,33.4c22.3,13.4,51.1,15.4,76.2,10.5 c26-5.1,50.6-17.1,69.9-35.4c23.2-22.2,37.4-51.1,42.5-82.7c2.5-15.6,2.6-31.5,0.4-47.2c-2.3-16.7-7.8-32.8-16.3-47.4 c-3.5-6.2-12.2-9.3-18.4-5.7c-6.7,3.9-8.2,12.3-5.7,19.3c1.9,5.5,3.4,11.1,5,16.7c0.3,1,0.5,2,0.8,3.1c0.2,0.6,1.4,5.8,0.4,1.4 c0.7,3.1,1.4,6.2,1.9,9.3c0.9,5.2,1.5,10.4,1.9,15.7c0.1,1.6,0.2,3.2,0.2,4.8c0.1,3.5,0,0.8,0,0.1c0,3.2-0.1,6.3-0.3,9.5 c-0.4,5.8-1.2,11.5-2.3,17.2c-0.2,1-0.4,2.1-0.6,3.1c0.8-3.6-0.4,1.5-0.5,1.8c-0.8,3-1.7,6-2.8,9c-1.7,4.9-3.7,9.8-6,14.5 c-2.2,4.6,1.6-2.6-1,1.8c-0.5,0.9-1,1.8-1.6,2.7c-1.6,2.7-3.3,5.3-5.1,7.9c-3.1,4.5-6.5,8.7-10.2,12.7c0.5-0.5,2-2-0.2,0.2 c-1.1,1-2.1,2.1-3.2,3.1c-2.2,2-4.4,3.9-6.7,5.8c-3.8,3.1-7.8,6-12,8.6c-1.3,0.8-2.5,1.5-3.8,2.3c2.4-1.4,0.2-0.1-0.2,0.1 c-2.6,1.4-5.3,2.7-8,4c-4.9,2.2-10,4.2-15.2,5.8c-2.4,0.7-4.7,1.4-7.1,2c-1,0.2-1.9,0.5-2.9,0.7c3.3-0.7-2.6,0.4-3.2,0.5 c-4.8,0.8-9.7,1.2-14.6,1.4c-2.5,0.1-4.9,0-7.4,0c-1.5,0-2.9-0.2-4.4-0.3c-3.7-0.2,1.6,0.3-1.8-0.2c-5.3-0.7-10.5-1.9-15.6-3.4 c-0.9-0.3-1.8-0.6-2.8-0.9c-4.4-1.5,2.8,1.4-1.4-0.6c-2.6-1.2-5.1-2.6-7.6-4.1c-0.8-0.5-1.6-1-2.4-1.6c3.3,2.3-0.4-0.5-0.8-0.9 c-0.9-0.8-1.6-1.7-2.5-2.4c-2-1.7,2.2,3.4-0.1-0.1c-0.8-1.2-1.5-2.3-2.3-3.5c-1.3-2-0.8-0.1,0.3,0.6c-0.7-1.2-1.1-2.4-1.4-3.8 c0.6,2.5,0.7,3,0.4,1.6c-0.1-0.6-0.2-1.2-0.3-1.9l-0.1-1.2c-0.1-2-0.1-1.7,0,0.8c-0.4-0.5,0.2-2.5,0.3-3.1c0.1-1.1,0.9-3.8-0.1-0.1 c0.4-1.2,0.7-2.5,1.1-3.6c0.3-0.8,0.7-1.6,1-2.4c1.4-3.8-1.9,2.6,0.4-0.8c1.5-2.2,3-4.2,4.6-6.3c-1.7,2.4-0.8,0.8-0.1,0.1 c1-0.9,1.9-1.8,2.9-2.6c1.7-1.4,3.5-2.6,5.4-3.7c-3.3,1.9,2.4-0.9,3.5-1.2c1.2-0.4,2.5-0.8,3.7-1.1c-3.6,0.9,0.4,0.1,1.1,0 c1.4-0.1,2.8-0.1,4.2-0.1c2.9,0,0.8,0,0.1-0.1c2.7,0.4,5.4,1.1,8.1,1.9c0.7,0.2,2.7,1.2,0-0.1c1.3,0.6,2.5,1.2,3.8,1.8 c0.8,0.5,1.6,0.9,2.4,1.4s1.6,1,2.4,1.5c-1.6-1.2-1.7-1.2-0.2,0c1.8,1.6,3.4,3.2,5.1,4.8c3.2,3.1-1.3-2,0.3,0.2 c0.7,1,1.4,1.9,2.1,2.9c0.8,1.2,1.5,2.4,2.3,3.6c0.6,1,2.1,2.4-0.2-0.6c0.4,0.5,3.6,7.4,3,7.9l-0.5-2c0.2,1,0.4,1.9,0.5,2.9 s0.3,2,0.4,3c0.2,1.5,0.3,3,0.3,4.5c-0.1-3.6-0.1-0.2-0.1,0.7c-0.2,2.8-0.6,5.5-1,8.3c0.4-2.9,0.1-0.5,0,0.2c-0.6,2-1.1,3.9-1.8,5.8 c-0.9,2.4-1.9,4.8-3,7.1c1.3-2.6-0.2,0.4-0.6,1c-0.6,1.1-1.3,2.2-2,3.3c-1.4,2.2-2.9,4.2-4.5,6.3c-1,1.2-2,2.4-3,3.5 c2-2.1-1.4,1.3-1.5,1.4c-4.7,4.4-9.9,8.3-15.5,11.6c2.5-1.5-2.1,1.1-2.1,1.1c-1.5,0.7-2.9,1.4-4.4,2.1c-3,1.4-6,2.6-9.1,3.6 s-6.2,2-9.4,2.9c-1.6,0.4-3.2,0.8-4.8,1.2c-0.8,0.3-1.6,0.4-2.4,0.5c-6.2,1-12.5,1.7-18.9,2.1c-5.9,0.3-11.8,0.1-17.7-0.4 c3.3,0.4-1.5-0.3-1.8-0.3c-1.5-0.2-2.9-0.5-4.3-0.8c-3.1-0.6-6.2-1.4-9.2-2.3c-1.1-0.4-2.3-0.8-3.4-1.1c-1.7-0.6-1.8-0.7-0.2,0 c-0.7-0.3-1.3-0.6-2-0.9c-2.6-1.1-5.1-2.4-7.6-3.9c-1-0.6-2-1.2-3-1.9c-1.5-1.1-1.5-1.1,0,0c-0.6-0.4-1.1-0.9-1.6-1.3 c-0.9-0.7-1.8-1.5-2.6-2.3c-0.5-0.5-4.5-4.9-2.1-1.9c-5.1-6.1-13.4-10.7-20.8-4.9c-6.6,5.2-7.1,16.6-2.2,23.1L198.8,458.7z"></path> <polyline points="311.6,1616.7 299.1,1611.8 306.7,1606.9 312.4,1602 301.2,1597.2 300.6,1592.3 307.6,1587.4 307.9,1582.5 311.3,1577.7 311.5,1572.8 305.1,1567.9 311.5,1563 308.4,1558.2 312.5,1553.3 306.8,1548.4 316.4,1543.5 305.8,1538.7 315.3,1533.8 309.4,1528.9 "></polyline> <polyline class="st8" points="311.6,1616.7 299.1,1611.8 306.7,1606.9 312.4,1602 301.2,1597.2 300.6,1592.3 307.6,1587.4 307.9,1582.5 311.3,1577.7 311.5,1572.8 305.1,1567.9 311.5,1563 308.4,1558.2 312.5,1553.3 306.8,1548.4 316.4,1543.5 305.8,1538.7 315.3,1533.8 309.4,1528.9 "></polyline> <polyline class="st8" points="238.9,715.8 239.1,705.8 244.3,705.4 247.4,700.8 255.2,705.4 258.1,700.5 263.4,700.3 263.5,690 270.3,692.7 276.5,694.2 277,684.7 281.1,682.1 287.7,684.3 292,682.3 297.5,682.3 301.8,680.2 "></polyline> <path class="st4" d="M1251.2,1533.5c-12.2-22.2-36.1-34.8-60.2-39.6c-26.5-5.3-56.5-3.7-81.2,8.2c-24.3,11.7-43.1,33.5-47.9,60.5 c-4.5,25.6,7.6,52.3,29.4,66.2c22.4,14.3,51.5,8,66.8-13.5c7.5-10.4,10.7-23.7,7.7-36.3c-3.2-13.8-12-24.8-23.4-33 c-20-14.4-46.6-19.4-70.9-17.7c-25.5,1.8-49.9,10.8-70.5,25.8c-47.6,34.8-67.3,102.5-48.5,157.9c1.4,4.1,5.8,7.5,10.2,6.5 c4.3-1.1,7-5.4,6.1-9.8c-9.4-42.1-2.6-86.9,26.2-120.2c26.8-30.9,72.1-45.7,111.8-36.1c16.1,3.9,40,13.9,41.1,33 c1,17.3-19.2,31.9-35.4,29.9c-18.4-2.3-31.7-20-32.7-37.5c-1.2-20.2,12.3-39.1,28.3-50.1c20.7-14.3,48.9-17.6,73.3-14.2 c21.6,3,44.3,11.2,55.8,30.9c2.4,4.2,8.5,6.1,12.5,2.9C1254.3,1543.9,1253.5,1537.8,1251.2,1533.5L1251.2,1533.5z"></path> <polyline class="st9" points="669.9,1669.9 678,1660.6 679.3,1654.6 677,1650.3 661.7,1652.3 668.3,1643.7 667.8,1638.6 667.3,1633.4 655.1,1634 655.3,1628.4 650.1,1625.6 657,1616.8 651.4,1614.2 652,1608.5 639.2,1609.3 643.5,1601.8 646.3,1595 634.6,1595.3 632,1591.2 635.8,1583.9 "></polyline> <polyline class="st8" points="1491.6,1657.9 1485.5,1649.8 1489.4,1646.3 1489,1640.8 1498.2,1639.8 1497.4,1634.1 1501.6,1630.8 1495.2,1622.4 1502.3,1620.5 1508.3,1617.9 1502.7,1610 1504.3,1605.4 1511,1603.3 1513.3,1599 1517.7,1595.7 1519.8,1591.4 "></polyline> <polyline class="st10" points="1000.2,167.4 1000.4,157.4 1005.6,157 1008.7,152.4 1016.5,157 1019.4,152.1 1024.7,152 1024.8,141.6 1031.6,144.3 1037.8,145.8 1038.3,136.3 1042.3,133.7 1049,136 1053.3,133.9 1058.8,133.9 1063.1,131.8 "></polyline> <polyline class="st5" points="1573.8,183.7 1571.2,179.4 1570.6,173.9 1567.9,169.7 1561.2,168.3 1562.4,161.6 1557.7,158.8 1557.5,152.9 1551.2,151.2 1554.3,143.1 1545,143.4 1548.1,135.4 1541.7,133.8 1542.9,126.9 1538,124.3 1535.4,120 1525.4,120.8 "></polyline> </svg> 