<?xml version="1.0" encoding="UTF-8"?> <!-- Generator: Adobe Illustrator 25.0.1, SVG Export Plug-In . SVG Version: 6.00 Build 0) --> <svg xmlns="http://www.w3.org/2000/svg" xmlns:xlink="http://www.w3.org/1999/xlink" version="1.1" id="Layer_1" x="0px" y="0px" viewBox="0 0 2427.9 1905.9" style="enable-background:new 0 0 2427.9 1905.9;" xml:space="preserve"> <style type="text/css"> .st0{fill:#1D1D1B;} .st1{fill:#1D1D1B;stroke:#FFFFFF;stroke-width:8.46;stroke-miterlimit:10;} .st2{fill:none;stroke:#FFFFFF;stroke-width:8.46;stroke-miterlimit:10;} </style> <path class="st0" d="M327.2,6.3c0,0-324.8,0.4-324.4,324.3l1.6,1248c0,0,0.4,323.8,325.2,323.4l1771.1-2.3 c0,0,324.8-0.4,324.4-324.3l-1.6-1248c0,0-0.4-323.8-325.2-323.4L327.2,6.3z"></path> <path class="st1" d="M296.8,697.1c0,0,133.1-87.9,260-82.3s161.9,90.7,167.7,127s-12.4,107.4-136.4,205.1s-141.3,103.3-141.3,103.3 l276.8,25.1l-2.9,142.4l-522-5.6l14.4-170.3c0,0,297-201,331.6-231.7c37.1-32.9,5.8-81-51.9-50.2l-92.3,53L296.8,697.1z"></path> <path class="st1" d="M1758.5,678.1c0,0,133.1-87.9,260-82.3s161.9,90.7,167.7,127s-12.3,107.4-136.4,205.1s-141.3,103.3-141.3,103.3 l276.8,25.1l-2.9,142.4l-522-5.6l14.4-170.3c0,0,297-201,331.6-231.7c37.1-32.9,5.8-81-51.9-50.2l-92.3,53L1758.5,678.1z"></path> <path class="st1" d="M1029.5,606.2c0,0-256,6.3-259.2,338.7s252.7,304.2,252.7,304.2s200.9,19.6,210.6-332.4 C1233.6,916.7,1253,617.2,1029.5,606.2z"></path> <path class="st1" d="M1078,820.2c26.8,55.4,33.5,257.2-63.7,259.6c-116.7,2.9-81.2-178-78.3-220.1c2-29.1,21.9-64.8,49.8-73.5 C1019.8,775.5,1058.6,780.2,1078,820.2z"></path> <polygon class="st2" points="1616.2,959.8 1585.2,1227.2 1438.2,1221.8 1453.5,608.7 1634.3,603.8 "></polygon> <polyline class="st1" points="1459,761.7 1452.1,760.9 1259.1,738 1260.1,595.7 1634.9,601.3 1625.9,775.6 "></polyline> </svg> 