<?xml version="1.0" encoding="UTF-8"?> <!-- Generator: Adobe Illustrator 25.0.1, SVG Export Plug-In . SVG Version: 6.00 Build 0) --> <svg xmlns="http://www.w3.org/2000/svg" xmlns:xlink="http://www.w3.org/1999/xlink" version="1.1" id="Layer_1" x="0px" y="0px" viewBox="0 0 2427.9 1905.9" style="enable-background:new 0 0 2427.9 1905.9;" xml:space="preserve"> <style type="text/css"> .st0{fill:#FFFFFF;} .st1{fill:#1D1D1B;} .st2{fill:#DC0816;} .st3{fill:#E679A6;} .st4{fill:#F0BC00;} .st5{fill:#E9E7C4;} .st6{fill:#EA7AAC;} .st7{fill:none;stroke:#0154D5;stroke-width:24.06;stroke-miterlimit:10;} .st8{fill:none;stroke:#000000;stroke-width:24;stroke-miterlimit:10;} .st9{fill:none;stroke:#E679A6;stroke-width:24;stroke-miterlimit:10;} </style> <g> <path class="st0" d="M328.3,1893.8c-72.7,0-134.6-16.6-183.9-49.4c-39.4-26.2-71-62.7-94-108.6c-39.4-78.6-39.8-158-39.8-158.8 l0.1-1248c0-72.3,16.6-134,49.4-183.1c26.2-39.3,62.8-70.8,108.7-93.8C247.6,12.5,327.7,12,328.5,12l1771.1,0.2 c72.6,0,134.3,16.6,183.6,49.3c39.4,26.1,71,62.6,94.1,108.3c39.5,78.6,40.1,158.4,40.1,159.2l-0.1,1248 c0,72.3-16.6,134-49.4,183.1c-26.2,39.3-62.8,70.8-108.7,93.8c-78.8,39.4-158.9,39.9-159.7,39.9h0L328.3,1893.8z"></path> <path class="st1" d="M328.5,19L328.5,19l1771.1,0.2c71,0,131.4,16.1,179.5,48c38.3,25.4,69.2,60.8,91.7,105.4 c20.3,40.2,30,80.5,34.5,107.2c5,29.2,5,49.1,5,49.3l-0.1,1248c0,70.8-16.2,131-48.1,179c-25.4,38.2-61,69-105.7,91.4 c-40.3,20.2-80.8,29.9-107.6,34.4c-29.3,4.9-49.2,5-49.4,5l-1771.1-0.2c-71,0-131.5-16.1-179.5-48c-38.3-25.4-69.2-60.8-91.7-105.4 c-20.3-40.2-29.9-80.5-34.5-107.2c-4.9-29.2-5-49.1-5-49.3l0.1-1248c0-70.8,16.2-131,48.1-179c25.4-38.2,61-69,105.7-91.4 c40.3-20.2,80.7-29.9,107.6-34.4C308.4,19.1,328.3,19,328.5,19 M328.5,5c0,0-324.8,0-324.8,323.9l-0.1,1248 c0,0,0,323.8,324.8,323.9l1771.1,0.2c0,0,324.8,0,324.8-323.9l0.1-1248c0,0,0-323.8-324.8-323.8L328.5,5L328.5,5z"></path> </g> <path class="st1" d="M345.8,681.2c0,0,128.7-87.8,251.4-82.2s156.6,90.6,162.1,126.9s-11.9,107.3-131.9,204.9S490.8,1034,490.8,1034 l267.7,25.1l-2.8,142.2l-504.8-5.6l13.9-170.1c0,0,287.2-200.8,320.7-231.5c35.9-32.9,5.6-80.9-50.2-50.2l-89.2,53L345.8,681.2z"></path> <path class="st1" d="M1331.9,688.4c0,0,128.7-87.8,251.4-82.2s156.6,90.6,162.1,126.8s-11.9,107.3-131.8,205 S1477,1041.1,1477,1041.1l267.7,25.1l-2.8,142.2l-504.8-5.6l13.9-170.1c0,0,287.2-200.8,320.7-231.5c35.9-32.9,5.6-80.9-50.2-50.2 l-89.2,53L1331.9,688.4z"></path> <polygon class="st1" points="2120.9,984.9 2090.8,1252.1 1948.7,1246.7 1963.5,634.1 2138.4,629.2 "></polygon> <polyline class="st1" points="1968.8,787 1962.1,786.2 1775.5,763.3 1776.5,621.1 2138.9,626.7 2130.2,800.9 "></polyline> <polygon class="st2" points="879.1,598.4 906.8,672.6 928.7,661.8 899.5,586.1 "></polygon> <polygon class="st2" points="678.1,1080.4 743.7,1044.9 755.3,1066.5 689.8,1105.2 "></polygon> <polygon class="st2" points="1090.3,1199.4 1112.2,1187 1139.9,1264.3 1116.6,1276.6 "></polygon> <polygon class="st2" points="1271,828.6 1282.6,850.2 1352.5,827.1 1346.7,802.4 "></polygon> <polygon class="st3" points="897.2,795.2 811.3,705.3 796,721.5 885.4,815.2 "></polygon> <polygon class="st3" points="891.3,1042.3 906.6,1058.6 819.5,1150.9 805.4,1133.4 "></polygon> <polygon class="st3" points="1103.1,1062.3 1117.3,1042.3 1206.7,1139.7 1192.6,1154.7 "></polygon> <polygon class="st3" points="1143.2,826.4 1129,810.2 1219.7,720.3 1234.9,737.8 "></polygon> <polygon class="st4" points="991.6,721 990.3,852.2 1012.9,852.2 1014.2,719.6 "></polygon> <polygon class="st4" points="919.8,915.7 919.8,943.9 780.1,943.9 780.1,921.3 "></polygon> <polygon class="st4" points="995.6,1003.2 1015.6,1003.2 1014.2,1137.2 991.6,1137.2 "></polygon> <polygon class="st4" points="1078.1,924.2 1078.1,949.6 1205.8,948.2 1203.2,924.2 "></polygon> <polygon class="st2" points="1008.5,907.3 986.9,921.2 986.9,945.3 1000.1,952.9 1028.8,939 1031.2,916.1 "></polygon> <path class="st5" d="M1075.5,751.7l13.5,7.7c0,0-9,7.1-7.3,11.9s15.1,19,15.1,23.2s-10.1,22.6-10.1,22.6l-17.4-8.3l5.6-14.3 l-8.4-11.9l-5.6-16.7L1075.5,751.7z"></path> <polygon class="st5" points="1128.8,1019.1 1120.3,1008.3 1140.7,993 1155.1,1003.8 1169.5,1002 1175.4,1017.3 1156.8,1027.2 1143.2,1015.5 "></polygon> <polygon class="st5" points="1048.2,1056 1062.6,1058.7 1059.2,1072.2 1067.7,1082.1 1065.1,1104.6 1047.3,1101 1054.1,1086.6 1049,1079.4 1041.4,1069.5 "></polygon> <polygon class="st5" points="946.4,1049.7 959.9,1058.7 956.5,1069.5 963.3,1083 959.9,1101 943,1100.1 949.8,1083 941.3,1074 937.9,1057.8 "></polygon> <polygon class="st5" points="874.2,998.4 885.3,990.3 878.5,976.8 867.5,971.4 858.1,975.9 844.5,968.7 836.9,982.2 847.9,992.1 864.1,988.5 "></polygon> <polygon class="st5" points="938.7,802.2 952.3,807.6 962.5,789.6 954.8,777.9 964.2,768 955.7,759 939.6,769.8 941.3,782.4 "></polygon> <polygon class="st5" points="1130.5,891.3 1123.7,885.9 1133.9,867.9 1144.9,867.9 1152.5,876.9 1163.6,879.6 1169.5,876.9 1172.9,891.3 1155.1,898.5 1148.3,893.1 1144.1,886.8 "></polygon> <polygon class="st3" points="1160.6,593.7 1124,662.1 1143.1,669.5 1181.5,606.6 "></polygon> <polygon class="st3" points="1282.5,1039.1 1343.5,1077.9 1333.1,1101.9 1270.3,1061.2 "></polygon> <polygon class="st3" points="920.1,1190.6 887,1262.7 866.1,1249.7 897.5,1185.1 "></polygon> <polygon class="st3" points="749.3,821 754.6,798.8 688.4,771.1 681.4,797 "></polygon> <path class="st4" d="M1293.4,1155.1c12.6,9.1,27.4,16.5,43,18.3c7.6,1,15.3,0.4,22.7-1.6c5.5-1.6,13.2-4.3,14.9-10.5 c3.5-12.4-16.4-17.8-25.2-14.6c-12.9,4.6-11.7,21.2-7.6,31.5c5.5,13.9,16.5,24.8,30.4,30.2c4,1.5,4.2-5.5,0.7-6.8 c-11.7-4.6-20.9-13.8-25.5-25.5c-2.1-5.4-3.7-12.3-1.1-17.8c3.2-6.6,11.1-6.5,17-4.2c4.1,1.5,7.3,3.9,2.7,7.4c-2.7,2-6.5,3.1-9.7,4 c-7.2,1.8-14.7,2.1-22.1,0.9c-14.1-2.3-26.4-9.2-38.3-16.6C1291.8,1147.6,1290.7,1153.2,1293.4,1155.1L1293.4,1155.1z"></path> <path class="st4" d="M711.1,1141.3c-6.3,15.4-16.1,29.1-28.6,40c-5.7,5-13.5,12-21.2,13.1c-10.9,1.6-11-11.9-5.7-17.9 c4.7-5.3,13.5-8.7,20.1-4.9c7.5,4.2,6.3,14.5,4.3,21.5c-4.7,16.4-15.1,31.2-26.4,43.7c-2.2,2.4,1.8,7.6,4.3,5.1 c12.2-12.5,23-28.7,27.8-45.6c3.7-13,1.8-31.1-14.8-33c-14.3-1.6-28.5,12.1-24.5,26.6c1.8,6.6,7.2,11.8,14.3,11.7 c8-0.2,15.5-6.2,21.5-10.9c15.6-12.3,26.4-28.3,34.2-46.4C717.7,1141,712.6,1137.5,711.1,1141.3L711.1,1141.3z"></path> <path class="st4" d="M634,597.4c3.3,19,8.3,38.8,17.9,55.7c3.8,6.8,8.8,13,15.3,17.4c5.7,3.8,14.2,7,20.6,3.1 c13.5-8.2,1.1-31.7-10-36c-6.8-2.6-13.3,1-16.6,7.1c-4.1,7.6-2.2,16.8,1.3,24.3c8.2,17.4,23.1,30.8,41.3,37c4.1,1.4,4.3-5.6,0.7-6.8 c-15.2-5.2-27.9-16-35.4-30.2c-3.8-7-7.5-18.7,0.7-24.2c8-5.4,15.3,7,17,13.4c1.2,4.7,0.2,9.5-5.2,10.3c-4,0.6-8.4-1.5-11.7-3.6 c-6.1-3.9-10.5-9.9-13.9-16.1c-8.8-15.6-13.5-34.2-16.4-51.7C638.9,593.3,633.2,593.2,634,597.4L634,597.4z"></path> <path class="st4" d="M1386.8,581.7c0.3,12.9-9.1,23.7-17.8,32.2c-4.2,4.2-11.9,10.6-18.2,6.4c-4.8-3.2-3.8-11.4,1.4-13.5 c7.5-3,11,4.7,10.4,10.9c-0.6,6-2.9,12.2-5.3,17.7c-5,11.3-12.4,21.4-21.8,29.4c-2.9,2.5,0.8,8.5,3.9,5.8 c11-9.5,19.6-21.5,24.9-35.1c4.1-10.3,9.4-28.6-3.7-34.9c-11-5.3-20.9,5.3-18.5,16.2c1.1,5.2,4.8,9.7,10,11.1 c6.7,1.8,13.3-1.5,18.2-5.8c11.3-10,23.4-24.6,21.7-40.6C1391.5,577.8,1386.7,577.8,1386.8,581.7L1386.8,581.7z"></path> <path class="st4" d="M923.2,912.7c-0.3,11,0.5,22.1,2.4,32.9c-3.4,1.3-7,1.9-10.6,1.9c-14.5,0.7-29-0.3-43.5,0.4 c-6.7,0.3-13.4,0.7-20,1.5c-5.9,0.8-11.9,0.2-17.8-0.2c-1.9-0.1-3.7,0-5.6,0.2c-2,0.2-4.2,1.6-5.8,0.5c-1.9-1.4-3.2,1.1-5.1,0 c-1.1-0.7-3.3,0.9-4.9,0.6c-4.8-1-9.7,0.3-14.4-1c-2.9,1.7-6,0.2-9,0.8c-3.7,0.7-7.5,0.5-10.3-3c-0.5-0.5-0.8-1-1.2-1.5 c-2.5-6.7-3.6-13.5-1.9-20.5c0.6-2.5,2.2-4.7,4.4-6c3.5-2.3,7.5-1.9,11.2-2.4c7-0.8,14-0.8,20.9-2c7.6-1.4,15.2-0.7,22.9-1.2 c5.5-0.3,11.1-0.5,16.6-0.4c8.7,0.2,17.3-1.2,26-0.6c5.1,0.4,10.3-0.7,15.4-0.7c7.9-0.1,15.8-0.1,23.7,0.6 C918.7,912.7,920.5,911.9,923.2,912.7z M787.3,940c2.3-0.9,4.1-1.5,6.2-0.6c1.4,0.6,3.1,0.2,4.6-0.1c4.5-0.6,9-0.8,13.5-0.3 c1.4,0.1,2.7,1,4.1,0.7c5.8-1,11.7-0.7,17.6-0.9c2.8-0.1,5.7,0.6,8.3,0.4c6.2-0.7,12.3-1.2,18.5-1.5c2.3,0.1,4.7,0,7-0.3 c5.9-1.2,11.8-0.6,17.7-0.2c8,0.5,15.8-0.3,23.7-0.7c2.7-0.1,5.5,1.3,8.3-0.2c-0.8-4.9-2.6-9.6-2.2-14.4c-2.2-1.6-4.1-0.8-5.9-0.7 c-10.8,0.6-21.7,1.2-32.5,2.1c-2.2,0.2-4.2-0.8-6.5-0.4c-10.8,2-21.6,1.3-32.5,1.4c-4.8-0.1-9.6,0.1-14.3,0.6 c-4.3,0.6-8.7,0.4-13,0.9c-7.5,0.9-15.2,1-22.8,1.4c-1.8,2.9-0.1,6.2-1.1,9.1C785.7,937.1,786.7,938.4,787.3,940z"></path> <path class="st4" d="M1075.1,952c-0.2-6.6-0.5-12.9-0.7-19.1c-0.1-2.6-0.3-5.3-0.8-7.9c-0.5-2.9-0.1-3.8,2.5-4.3 c3.8-0.8,7.6-1.5,11.4-1.9c4.4-0.5,8.9-0.6,13.4-0.9c0.9,0,1.9,0.1,2.8,0.4c1.2,0.4,2.5,0.5,3.7,0.3c2.6-0.5,5.3-0.5,7.9,0 c3.8,0.6,7.7-0.2,11.6,0.1c4.9,0.3,9.9-0.2,14.9,0.1c5.4,0.3,10.8-0.1,16.2,0.2c7.8,0.4,15.5,0.5,23.3,0.7c4.8,0.1,9.7,0.4,14.5,0.1 c3.1-0.2,6.1,1,9.3,0.7c2.3-0.2,4.5,2.1,5.2,5c0.7,2.5,1.2,5.2,1.3,7.8c0.2,4.1,0.3,8.2,0.4,12.3c0.1,4.3-2.7,7.8-6.7,7.9 c-5.1,0.1-10.2,0.6-15.3,1.2c-6.3,0.9-12.7,0.7-19.1,1.1c-4.6,0.3-9.3-0.3-13.9-0.3c-3.7-0.1-7.4,0.1-11.1,0.5 c-2.4,0.3-4.8-0.7-7.2-0.6c-4.6,0.2-9.3-0.1-13.9,0.2c-6,0.3-12.1,0-18.1,0.2c-6.3,0.2-12.5-0.7-18.7-1.3 C1083.8,954.1,1079.2,954.7,1075.1,952z M1081.8,931.3c-0.3,3.5,0.4,6.8,0.9,10c0.3,2.5,1,3,3.3,3.3c5.2,0.6,10.4,1,15.7,1.5 c9,0.9,18,0.8,27-0.4c2.8-0.4,5.5-0.6,8.3-0.6c3.2,0.1,6.5,0,9.7-0.4c3.2-0.5,6.4-0.8,9.6-1c8.1-0.1,16.2-0.7,24.2-1.1 c1.2-0.1,2.6,0.2,3.7-0.1c3.7-1,7.6-1.4,11.4-1c1.2,0.1,2.5,0.3,3.9-0.7c-0.7-3.2,1.9-6.5-0.2-9.9c-4-1.1-8-0.8-12.1-1 c-7.7-0.5-15.5-1-23.2-0.7c-5.9,0.2-11.8,0.1-17.6,0.1c-9.6,0.1-19.2,0.4-28.9,0.3c-3.6-0.1-7.1,1-10.7,0.5 c-6.2-0.9-12.5-0.3-18.7-0.8C1085.9,929,1083.5,929.8,1081.8,931.3L1081.8,931.3z"></path> <path class="st3" d="M812.3,700.9c2.3,0.4,4.4,1.5,6,3.2c4.7,5.5,10.4,9.9,14.8,15.6c3.1,1.3,4,5.6,7.6,6.3c1.7,2.8,4.3,4.6,6.3,7 c0.4,0.5,0.8,1,1.2,1.5c5.5,4.7,9.8,10.6,14.9,15.7c4.5,4.5,8.6,9.5,12.9,14.2c2.2,2.5,4.7,4.7,6.9,7.3c6.5,7.3,12.9,14.8,19.1,22.4 c0.4,0.5,0.8,1,1.2,1.5c1.3,2,1.3,3.1-0.1,4.9c-0.8,1-1.7,2-2.7,2.8c-4.4,4-8.5,8.4-12,13.3c-1.5,2.1-2.3,2.3-4.3,1 c-1.8-1-3.5-2.2-5-3.6c-6-5.8-12.3-11.1-18.4-16.7c-6.7-6.2-13.1-12.6-19.7-18.9c-2.3-2.2-4.5-4.6-6.7-7c-4.3-4.7-8.9-9.3-12.9-14.3 c-5.6-6.9-12.5-12.4-17.9-19.4c-1.2-1.5-2.4-3.1-3.5-4.7c-1.2-1.7-2.6-3.3-4.3-4.6c-3.8-3-4.5-6.9-1.3-10.5 c3.8-4.3,7.1-9.1,10.7-13.7C807,702,810,700.6,812.3,700.9z M893.7,798.9c-1.6-3.7-4.9-6-7.1-9.1c-4.4-6.3-10.4-10.9-15.2-16.8 c-2.4-2.9-5.5-5.4-8.1-8.2s-6.5-4.6-8.1-8.6c-5.4-5.2-10.8-10.4-16.2-15.5c-8.2-7.8-16.6-15.5-24.4-23.7c-1-1-1.8-2.4-3.6-2.2 c-2.5,3.4-5.9,6.2-8.1,10.1c1.2,1.6,2.3,3.3,3.9,4.4c4.2,2.8,7.5,7,11,10.7c3.8,3.9,7.5,7.9,11.2,11.9c2.3,2.5,4.2,5.4,6.8,7.5 c4.8,3.8,8.2,9,12.7,13.1c4.2,3.9,7.7,8.5,11.7,12.7c5.1,5.3,10.4,10.4,15.8,15.4c3.2,3,6.8,5.5,10.5,8.4 C889.2,805.4,892.4,803,893.7,798.9L893.7,798.9z"></path> <path class="st4" d="M991.7,856c-2.2-3.2-2.1-6.6-2.5-9.8c-0.2-1.8-0.2-3.6-0.5-5.4c-0.9-5.6-0.8-11.2-1.2-16.8 c-0.4-7.1-0.8-14.2-1.2-21.2c-0.4-7.9-0.2-15.8-0.2-23.6c0-5.1,0-10.2,0.5-15.3c0.7-7.9-0.1-15.8,0.2-23.7c0.1-2.5,0.4-4.9,0.7-7.4 c0.3-3,0.9-5.8,0.3-8.9c-0.9-5.3,2.1-8.1,5.8-8.3c5.9-0.2,11.8-1.5,17.6-1.6s8.3,3.5,8.7,8.7c0.2,2.8,0,5.6,0,8.4 c-0.1,7.2,0.1,14.4,0.4,21.6c0.2,5.7,0,11.3,0.3,16.9c0.5,12.4-0.2,24.7-0.2,37.1c0,10.9-0.8,21.7-1.1,32.6c-0.1,4-0.5,7.9-0.8,11.8 c-0.3,3.7-1.3,4.5-4.8,4.6c-1.1,0-2.2,0-3.3-0.1c-5-0.7-10-0.6-15,0.2C994.4,855.9,993,856,991.7,856z M995.4,726.5 c-0.1,2.6-0.4,4.5-0.1,6.5c0.8,5.2,0.6,10.5,0.5,15.8c0,5.9,0,11.9-0.2,17.8c-0.3,3.1-0.3,6.3-0.1,9.4c0.7,6.6-0.2,13.2-0.1,19.8 c0.1,6.8-0.4,13.6,0,20.3c0.3,6.1,0.4,12.1,0.7,18.2c0.2,4.9,1.1,9.7,1.8,15.2c4-1.6,8,0.2,11.5-2.3c1-2.8,1.5-5.8,1.2-8.7 c-0.1-1.2-0.1-2.3,0-3.5c1.3-7.7,0.1-15.5,0.6-23.2c0.4-4.6,0.3-9.3-0.2-13.9c-0.6-4.7-0.3-9.5-0.2-14.1c0.2-8.1-0.9-16-0.9-24.1 c-0.1-9.9-1-19.8-1.1-29.7c0-1.4,0.3-3-1.2-4.3L995.4,726.5z"></path> <path class="st3" d="M1143.4,831.3c-4.4-6.7-9.7-11.8-15-17c-3.1-3.1-3.2-4.2-0.5-7.5c4-4.9,8-9.7,12.1-14.4c3.1-3.7,6-7.6,9.5-10.9 c7.2-6.8,12.9-15.2,20.5-21.5c0.1-0.1,0.2-0.2,0.3-0.3c3.1-5,7.8-8.6,11.7-12.8c3.1-3.3,5.9-6.9,9.7-9.5c2.1-1.4,3.7-3.6,5.3-5.4 c4.9-5.3,10.3-10,15-15.5c0.4-0.5,0.8-1,1.3-1.4c4.2-2.3,7.7-3,11.7,1.8c3.6,4.3,6.6,9.1,10.4,13.3c3.5,3.7,2.8,7.8-1.2,11 c-1.1,0.7-2,1.6-2.8,2.6c-4.4,6.4-9.4,12.3-15.1,17.6c-4.7,4.6-8.5,10.1-13.1,14.7c-5.8,5.8-11,12.1-16.9,17.8 c-4.3,4.1-8.1,8.8-12.7,12.5c-6.7,5.3-12.3,12.1-19.3,17.2c-2.6,1.8-4.8,4-7.3,6C1145.9,830.1,1144.7,830.7,1143.4,831.3z M1219.2,727.3c-1.2,0.1-2.3,0.7-3,1.7c-3.3,4-7.3,7.2-10.9,10.8c-8.8,9.1-18.5,17.1-27.2,26.3c-1.8,2-4.3,3.3-5.3,6.1 c-3.1,1.2-4.7,4.2-7.1,6.3c-2.8,2.4-5.4,5-7.8,7.8c-4.7,6-10.5,10.7-15.2,16.8c-2.1,2.8-4.8,5.1-6.1,8.3c1.6,4,4.7,6.5,7.2,9.5 c9.4-6,16.5-14.3,24.5-21.6c5.9-5.6,11.5-11.5,16.8-17.8c4.4-5,9.2-9.3,13.5-14.3c6.5-7.5,13.6-14.5,20.5-21.7 c1.3-1.4,2.7-2.7,4.3-3.9c1.7-1.2,3.2-2.8,4.2-4.7C1225,733.6,1222.2,730.4,1219.2,727.3L1219.2,727.3z"></path> <path class="st3" d="M1193.8,1158c-3.9-0.5-6.3-3-8.5-5c-4.7-4.2-9.6-8.3-14.3-12.6c-11.4-10.5-22.5-21.3-33-32.7 c-3.4-3.7-6.9-7.1-10-11c-5.6-7.1-12.7-12.6-18.1-19.8c-1.2-1.6-2.3-3.1-3.4-4.7c-1-1.5-2.2-2.8-3.6-3.8c-5.1-3.5-4-8-1.5-10.8 c3.9-4.3,7-9.3,10.7-13.6c4.4-5.1,8.7-4,12.3-0.8c2.2,1.9,4,4.2,6,6.3c4.6,4.8,9.2,9.8,14.1,14.1c5.9,5.2,10.6,11.7,16.8,16.6 c1,0.8,1.8,1.8,2.5,2.9c1.3,1.8,2.8,3.5,4.5,5c3.6,3.6,7,7.5,10.4,11.3c4.5,4.8,9,9.5,13.4,14.3c2.7,3,5.2,6.2,7.7,9.3 c3.1,3.9,6.7,7.3,9.6,11.4c2.2,3.1,2.3,4.2-0.3,6.8C1203.5,1146.3,1198,1151.4,1193.8,1158z M1200.4,1138.2c-1.2-1.7-2-3.6-3.4-4.9 c-4.8-4.5-8.2-10.4-13.3-14.5c-2.2-1.8-3.6-4.6-5.7-6.5c-3.4-3.1-6.3-6.9-9.9-9.8s-6.5-6.5-9.6-9.8c-5.9-6.3-12.6-11.6-18.6-17.8 s-12.1-11.9-18.1-17.8c-1.1-1.1-2.1-2.5-3.9-3c-3.1,3.2-5.9,6.6-8.5,10.3c1.5,1.8,3.1,3.4,4.8,4.9c3.7,3,7.1,6.4,10.2,10 c3.5,4.2,7.5,7.9,11.1,12c2.1,2.4,4,5.2,6.5,7.1c4.9,3.7,8.2,9,12.7,13.1c4.3,4,8,8.8,12,13c4.9,5.2,10.3,9.9,15.3,15 c3.2,3.3,7.1,5.7,10.9,8.6C1195.6,1145,1198.8,1142.6,1200.4,1138.2L1200.4,1138.2z"></path> <path class="st3" d="M818.1,1153.8c-4.2-6.5-9.7-11.7-15-17c-2.8-2.8-2.9-4-0.3-7.1c4.1-5,8.2-9.8,12.4-14.7c3-3.5,5.9-7.3,9.2-10.5 s6.5-7.1,9.8-10.5c3.9-4,7.8-8,11.4-12.3c4.1-4.8,8.7-9,12.9-13.6c2.6-2.8,4.9-6.1,8.3-8.1c2.1-1.2,3.6-3.6,5.3-5.4 c5-5.4,10.5-10.3,15.3-15.9c0.4-0.5,0.9-0.9,1.5-1.2c4.3-2.3,7.7-2.2,11.2,2.2s6.6,9.1,10.4,13.2c3.4,3.8,2.8,7.8-1.3,10.9 c-1.5,1.2-2.8,2.6-3.9,4.2c-5,6.9-10.7,13.3-17,18.9c-2.2,2-3.9,4.6-5.8,7c-4.7,5.8-10,10.8-15,16.2c-6,6.5-12.2,12.7-18.6,18.8 c-2.4,2.3-5.1,4.2-7.5,6.6c-4.8,4.6-9.7,9.2-15,13.4C824.1,1150.8,821.9,1153.2,818.1,1153.8z M894,1049.8c-1.1,0.6-2,1.3-2.9,2.1 c-3.3,3.8-7.1,6.9-10.6,10.5c-8.9,9.1-18.7,17.3-27.5,26.6c-1.8,2-3.6,4.2-5.4,5.9c-2.2,2-4.4,4.1-6.6,6.2c-3.2,3.1-6.3,6.3-9.3,9.7 c-4.7,5.3-9.7,10.2-14.3,15.6c-2.2,2.6-4.5,4.9-5.8,7.8c1.5,4.2,4.8,6.5,7,9.5c0.5,0,0.7,0,0.8-0.1c9.7-7,17.8-15.9,26.5-24.1 c1.4-1.3,2.4-2.9,3.8-4.3c3.6-3.4,6.4-7.6,10.4-10.6c3.5-6,9.3-9.8,13.7-14.9c6.2-7.3,13.2-14,19.8-21c1.4-1.6,2.9-3,4.6-4.2 c1.6-1.2,3-2.7,4.1-4.4c-0.6-1.2-1.4-2.4-2.3-3.4C898,1054.6,896.1,1052.2,894,1049.8L894,1049.8z"></path> <path class="st4" d="M1018.5,997.8c1.9,1.6,2.5,3.4,2.3,5.8c-0.3,5.4,0.3,10.9-0.4,16.3c-1,7.4-0.5,14.8-1,22.2 c-0.2,3.3-0.6,6.8-0.2,10.3c0.4,3-0.2,6.2-0.2,9.4c-0.3,10.3-0.4,20.6,0,30.8c0.5,12.4,1,24.8,1.5,37.2c0.3,2.7,0.2,5.3-0.1,8 c-1.9,1.4-4.2,2.1-6.5,2c-2.7,0.1-5.3,0.5-7.9,1.3c-4.3,1.1-8.8,1-13-0.3c-1.5-0.3-2.6-1.5-2.8-3c-0.3-1.3-0.7-2.6-0.8-3.9 c-0.7-6.1-1.3-12.1-1.8-18.2c-1.1-12-0.8-24.1-0.8-36.1c0-7.6,1.1-15.1,1.5-22.7c0.4-8.1,0.4-16.2,0.7-24.3 c0.1-4.1,0.5-8.2,0.6-12.3c0.1-3,0.2-6,0.1-8.9c-0.1-2.6,0.3-5.3,1-7.8c0.8-2.8,2.3-4.1,5.1-4.2c5.6-0.2,11.2-0.6,16.8-1 C1014.5,998.3,1016.4,998,1018.5,997.8z M997.4,1132c3.8-0.4,7.1-0.7,10.5-1c1.2,0,2.2-0.9,2.2-2.1c0.3-5.1,0.9-10.2,0.7-15.3 c-0.5-10.7,0.5-21.4,0.3-32.2c-0.2-10-0.1-20.1-0.3-30.2c-0.3-12.4-0.5-24.7,0.4-37c0.2-2.1,0.5-4.3-1.1-6.8 c-3.2,1.7-6.9,0.2-10.3,0.5c-0.6,0.9-1,1.9-1,3c-0.4,3.3,0.4,6.6,0.1,9.8c-0.5,6.1-0.7,12.1-0.6,18.2c0.1,3.8,0,7.6-0.2,11.4 c-0.1,2.5-1,4.9-1.1,7.3c-0.2,9.1-1.2,18.1-0.9,27.2c0.2,8.4,0.1,16.8,0.1,25.2C996.2,1117.3,997.6,1124.4,997.4,1132z"></path> <path class="st2" d="M978.6,936.5c1.1-2-0.7-3.8-0.4-5.7c0.7-4.3,0.5-8.8,2.5-12.9c0.5-1.5,1.5-2.7,2.7-3.7c1.5-1,1.4-3.2,2.8-4.5 c3.2-3.1,7-5.4,11.1-6.9c1.1-0.3,2.1-0.6,3.1-1.1c5.2-3,10.8-2.1,16.3-1.8c0.9,0.1,1.8,0.4,2.5,1c3.5,2.5,7.1,4.7,10.6,7.2 c1.9,1.4,3.1,3.7,4.3,5.8c2.3,4.2,3.9,8.7,4.7,13.4c0.7,3.7,0.7,7.8-1.2,11.5c-0.9,1.5-1.5,3.2-1.8,5c-0.6,4.1-2.8,7-5.4,9.5 c-2.7,2.7-5.7,5.1-9.1,7c-3.1,1.7-6.6,2.6-10.1,2.7c-4.7,0.2-9.2-0.9-13.6-1.8c-2.9-0.7-5.5-2.2-7.5-4.3c-2-1.9-5-2.8-5.6-6.2 c-0.1-0.5-0.5-0.9-0.9-1c-2.9-0.9-3.6-3.6-4-6.1C979.1,941.2,977.2,939,978.6,936.5z M1007.8,946.8l4.5-0.7 c7.7-1.1,11.8-9,10.9-16.2c-0.4-3-2-5.3-2.6-8.2c-0.5-2.2-2.9-2.8-4.2-4.4c-1-1.2-2.3-0.6-3.5-0.6c-3.2,0.1-6.5,0.3-9.6,0.2 s-4.5,1.3-6,3.3c-0.7,0.9-0.9,2.1-1.6,3c-3.4,3.9-2.8,8.7-1.8,12.9c0.8,3.4,3,6.8,6.9,7.7c0.6,0.1,1.2,0.4,1.6,0.9 C1003.5,947.1,1005.8,946.4,1007.8,946.8z"></path> <path class="st2" d="M747.7,1038.5c4.9,9.9,10.2,19.4,16.8,27.9c-1.6,2.3-3.7,4.2-6.1,5.6c-7.6,4.8-15.3,9.3-23.1,13.6 c-7.2,4-14.3,8.2-21.2,12.5c-6.6,4.1-13,8.5-19.5,12.8c-0.3,0.2-0.5,0.4-0.7,0.6c-3.3,2-5.4,1.6-7.4-1.9 c-3.9-6.7-7.7-13.5-11.6-20.3c-0.9-1.7-1.4-3.7-1.5-5.7c-0.1-1.9,0.6-2.9,2.4-3.6c3.2-1.2,6-3.5,9.1-5c8.2-4,15.3-10,23.5-14.2 c5.9-3,11.2-7.1,17-10.5c4.7-2.9,9.6-5.5,14.6-7.8C742.3,1041.6,744.4,1039.8,747.7,1038.5z M692.8,1098.3c4.3-2.2,8.5-4.6,12.6-7.3 c2.7-1.8,5.2-4.3,8.2-5.5c5.2-2.1,9.6-6,15-7.8c1-0.4,2-0.9,2.9-1.6c6.5-4.5,13.2-8.6,20.1-12.3c0.4-0.2,0.6-0.7,0.9-1 c-1-2.3-3-3.7-4.4-5.5c-1.5-2-2.8-4.3-4.5-7c-19.1,12.3-38,24.3-57,36.6C687.9,1091.1,690.8,1094.3,692.8,1098.3L692.8,1098.3z"></path> <path class="st2" d="M1115.8,1181.6c1.7,2,3.1,4.3,4,6.8c3.3,8.7,6.2,17.6,9.2,26.4c3.2,9.5,6,19.1,10.2,28.2 c2.9,6.2,5.1,12.8,7.6,19.2c1.3,3.5,0.6,5.7-2.7,7.2c-6.9,3.1-13.8,6.1-20.7,9.1c-1.3,0.6-2.7,0.9-4.1,0.9c-3.3-0.1-3.7-0.5-4.8-4 c-1.7-5.8-3.9-11.4-5.8-17.2c-2.1-6.4-5.3-12.3-6.9-19c-1.2-4.3-2.7-8.4-4.7-12.4c-3.2-7.1-4.6-14.7-7.3-22 c-0.9-2.4-1.3-5.1-2.2-7.5c-0.8-2.1-0.3-3.3,1.6-3.9c8.9-2.6,17.2-7,25.3-11.6C1115,1181.6,1115.4,1181.6,1115.8,1181.6z M1134.1,1261.2c-0.7-4.2-2-8.2-3.8-12c-3.7-7.2-6-14.9-8.2-22.6c-2-6.8-4.5-13.4-6.7-20.1c-1.4-4.5-3.3-8.8-4.9-13.2 c-1.5,0.3-2.8,0.5-3.6,1.6c-1.6,2.1-3.8,2.8-5.9,3.8c-3.7,1.7-3.7,1.7-2.1,5.8c3.2,8.1,6.3,16.2,9.5,24.3c1.4,3.5,3.4,6.8,4.2,10.4 c0.9,3.6,2.3,7.2,4.1,10.5c0.5,1,0.9,2.1,1.3,3.2c1.4,4.4,3.1,8.7,5,12.9c1.1-0.2,2.2-0.5,3.2-0.9 C1128.8,1263.7,1131.5,1262.4,1134.1,1261.2L1134.1,1261.2z"></path> <path class="st2" d="M934.6,665.1c-9.9,3.4-19.3,7.9-28.1,13.6c-1.7-2-3-4.2-4-6.7c-3.2-8-6.2-16.1-8.9-24.3c-3-9-6.1-18.1-9.7-26.9 c-3-7.4-6.2-14.8-9.1-22.3c-0.4-0.9-0.7-1.8-0.9-2.8c-0.2-1.8,0.1-3.3,1.8-4.2c0.4-0.2,0.8-0.6,1.2-0.8c7.2-3.3,14.3-6.5,21.5-9.7 c2.4-1.1,5.2-1,7.5,0.4c0.9,5.7,3.5,11,5.3,16.6c1.2,3.7,2.8,7.3,4.3,11c4.4,10.9,8.6,22,12.6,33.2c1.8,5.1,3.2,10.3,4.6,15.5 C933.2,660,934.8,661.8,934.6,665.1z M911.2,666.8c4.5-2.2,7.5-5.8,11.8-6.8c0.8-0.2,1.1-1.2,0.9-2.1c-0.2-1-0.5-1.9-0.9-2.8 c-3.2-8-6.4-16.1-9.7-24.1c-1.5-3.6-3.5-7-4.5-10.8c-0.6-2.7-1.6-5.3-2.8-7.8c-1.6-3.1-2.9-6.2-4-9.5c-1.1-3-2.4-6-3.6-9 c-4.3,0.8-7.7,3.2-11.6,5c1.1,3.3,2,6.5,3.3,9.4c3.7,8,6.8,16.2,9.3,24.7c2,6.8,4.6,13.3,6.9,20C907.9,657.4,910,661.6,911.2,666.8 L911.2,666.8z"></path> <path class="st2" d="M1268.1,827c2.9-2.7,6.3-3.9,9.6-5.3c9.8-4.3,20-7.1,30-10.8c5.1-1.9,10.3-3.6,15.4-5.8 c7.1-3.1,14.1-6.1,21.3-9c1-0.5,2-0.8,3.1-1c1.6-0.2,3.2,0.7,3.8,2.2c0.6,1.3,1.1,2.7,1.5,4.1c2.3,6.3,5.2,12.4,7.1,18.9 c0.4,1.2,0.8,2.5,0.9,3.8c0.3,4-0.5,4.9-4.3,6.1c-2.8,0.9-5.6,2.2-8.4,2.9c-8.6,2.4-16.4,6.9-25,9.5c-5.7,1.7-11.2,4.2-16.7,6.5 c-6.2,2.6-12.8,4-19.2,6.2c-1.5,0.5-2.9,1.2-4.4,1.6c-2.3,0.7-3.3,0.3-3.9-2.1c-1.4-6.5-4-12.5-6.5-18.6 C1271.1,833,1269.5,830,1268.1,827z M1343.8,808.8c-4.7,1.4-8.9,2.6-12.8,4.7c-3.2,1.8-6.5,3.2-10,4.2c-5.4,1.4-10.5,4.2-16.1,5 c-0.8,0.2-1.5,0.4-2.2,0.8c-7.2,3-14.5,6-21.9,8.5c-0.6,0.2-1.5,0.4-1.3,1.1c1.2,4.4,4.8,7.5,5.6,12.2c0.1,0.8,1.2,1,2,0.9 c0.9-0.2,1.8-0.5,2.7-0.9c7.6-3.1,15.1-6.2,22.7-9.3c3.5-1.4,6.8-3.4,10.3-4.4c2.6-0.6,5.1-1.5,7.4-2.8c2.9-1.6,6-2.9,9.1-3.9 c2.9-1.1,5.7-2.3,8.8-3.5C1347.4,816.8,1345.3,813.1,1343.8,808.8L1343.8,808.8z"></path> <path class="st3" d="M1148.7,678.1c-4.7-2.8-9.2-5.7-13.8-8.3c-4.5-2.6-9.2-4.8-14.1-6.7c0.4-2.9,1.3-5.6,2.7-8.2 c4.4-8.3,9.2-16.4,13.8-24.5c4.8-8.3,9.9-16.4,13.8-25.3c2.1-4.9,4.9-9.6,7.1-14.5c1.2-2.7,2.2-2.8,4.9-1.5c2.3,1.1,4.6,2.1,6.9,3 c5.2,1.9,9.8,5.2,14.6,8c1,0.6,1.8,1.3,2.5,2.2c2.3,2.6,2.4,4.1,0.7,7c-4.4,7.6-8.3,15.4-12.5,23.1c-4.8,8.7-9.3,17.6-14.3,26.2 C1157.3,665.2,1153,671.4,1148.7,678.1z M1145.7,666.3c3.9-4.6,5.5-10,8.2-14.5c2.9-4.6,5.3-9.4,7.3-14.3c2-5.3,5.8-9.3,7.7-14.5 s5-9.4,7.2-14.4c-3.1-2.8-6.5-5.1-10.2-7c-1.3,0.9-2.3,2.1-2.9,3.6c-2.4,5-4.4,10.2-7.4,14.8c-3.2,4.9-5.4,10.4-9.3,14.8 c-0.5,0.7-0.9,1.4-1.2,2.1c-3.6,7.1-7.3,14.2-11.4,20.9c-0.5,0.7-0.7,1.6-0.6,2.5C1137.2,662.2,1141.9,662.4,1145.7,666.3 L1145.7,666.3z"></path> <path class="st3" d="M1281.2,1032.9c4,1.1,7.1,3.3,10.4,5.2c9.6,5.5,18.3,12.5,27.4,18.8c7.2,5,14.9,8.9,22,14.1 c2.2,1.6,4.7,2.5,7,3.9c2.6,1.6,2.7,2.4,1.5,5.1c-1.2,2.3-2.2,4.8-3.1,7.2c-1.8,5.3-5.1,9.9-7.6,14.8c-0.8,1.4-1.8,2.7-3.1,3.7 c-2.4,1.8-3.4,1.9-5.9,0.1c-7-4.9-14.3-9.3-21.4-14c-8.2-5.4-16.7-10.5-24.6-16.3c-5.9-4.3-11.7-8.6-17.2-12.9 c-0.4-0.9-0.3-1.9,0.2-2.7c5.4-7.8,9.9-16.2,13.3-25C1280.4,1034.2,1280.8,1033.5,1281.2,1032.9z M1283.4,1045.7 c-1.9,4.4-2.5,9-5.2,12.4c-0.6,0.9-0.3,2.1,0.6,2.6c0,0,0,0,0,0c0.7,0.6,1.5,1.1,2.3,1.6c7,4.4,13.9,8.8,20.9,13.1 c3.3,2.1,7,3.7,10,6.2c1.9,1.6,4,3,6.3,4.1c3.4,1.7,6.6,3.7,9.7,6c0.9,0.6,1.7,1.6,3.1,1c2.4-3.1,4.6-6.5,6.4-10 c-0.7-1.5-1.9-2.7-3.3-3.4c-4.5-2.6-9.2-4.9-13.3-8.1c-4.5-3.4-9.6-6.1-13.7-10.2c-0.6-0.5-1.3-1-2-1.3c-6.6-4.3-13.4-8.3-19.7-13 C1284.8,1046.3,1284.1,1045.9,1283.4,1045.7L1283.4,1045.7z"></path> <path class="st3" d="M898.8,1176.9c8.8,5.4,18.3,9.6,28.1,12.7c-0.1,2.9-0.8,5.8-2,8.5c-3.8,8.7-8,17.1-12.1,25.6 c-4.2,8.7-8.8,17.1-12,26.3c-1.8,5.1-4.3,9.9-6.1,15c-0.8,2.2-2.1,2.7-4,2.1c-7.6-2.6-15.1-5.3-22.2-9.2c-1.7-0.9-3.2-2.1-4.4-3.6 c-1.2-1.4-1.4-3.4-0.4-5c4.2-8.3,7.7-16.9,11.6-25.4s7.5-16.8,11.4-25.1c2.5-5.1,5.2-10.2,8-15.1 C895.9,1181.7,896.1,1179,898.8,1176.9z M915.4,1193.8c-4.5-1.8-9.3-1.8-13.7-5.3c-3.6,6.7-5.8,13.6-8.9,20 c-3.2,6.6-5.2,13.8-8.8,20.2c-0.6,1.1-7.6,18.2-8,19.9c3,2.8,6.6,4.8,10.5,6c1.2-0.9,2-2.1,2.4-3.6c3-8.5,6.7-16.8,11-24.7 c2.5-4.9,5.3-9.7,7.5-14.8C910,1205.6,912.7,1199.9,915.4,1193.8L915.4,1193.8z"></path> <path class="st3" d="M763.3,797.6c-4.5,9.9-8,20.3-10.2,31c-3.8-0.3-7-1.7-10.4-2.9c-10.3-3.7-19.9-9.2-30-13.4 c-5.2-2.2-10.2-4.9-15.6-6.7c-5.7-1.9-11-4.6-16.7-6.2c-3-0.9-3.3-1.9-2.2-5.1c0.6-1.6,0.5-3.2,0.9-4.8c1.6-6.5,3.6-13,6.1-19.2 c0.6-1.3,1.4-2.6,2.4-3.6c1.3-1.7,3.6-2.2,5.5-1.1c7.7,3.8,15.8,6.7,23.7,10.1c8.8,3.8,17.7,7.3,26.5,11.3c4.7,2.1,9.3,4.7,13.8,7.2 C758.8,795.2,761.2,795.2,763.3,797.6z M748,816.3c2.3-2.5,0.8-5.2,1.8-7.5s1.5-4.6,2.2-7.2c-4.4-3.1-9.6-4-14.2-6.2 c-4.6-2.3-9.5-4.2-14.4-5.7c-5.2-1.3-9.6-4.7-14.7-6.1c-5-1.3-9.5-3.7-14.3-5.6c-2.1,3.8-3.8,7.7-5.2,11.8c0.9,1.3,2.3,2.2,3.8,2.5 c8.4,2.6,16.5,6,24.2,10.1c5.9,3.1,12,5.5,18,8.2C739.4,812.7,743.7,814.5,748,816.3z"></path> <path class="st5" d="M1085.4,822.9c-1.1,0.2-2.2-0.2-3-1.1c-2.8-3.2-6.4-4.6-10.2-5.8c-1.8-0.6-3.6-1.3-5.2-2.2 c-3.5-1.9-4-4.8-1.6-8c1.7-2.2,3.3-4.5,4.6-6.9c1.1-2.3,1.1-4.5-0.4-6.5c-1.4-2-2.9-3.8-4.6-5.5c-1.7-1.7-3.2-3.6-4.3-5.7 c-4.4-7.6-2.4-14.6,1.2-21.5c1.7-3.4,4.2-6.2,7.9-7.3c1.5-0.4,2.1-1.8,3-3c1.6-2.4,3.2-2.9,5.6-1.7c4,1.8,7.8,4.2,11.2,7 c1.8,1.6,2,3.6,2.4,5.7c0,0.8-0.4,1.6-1.2,2c-1.2,0.8-2.2,1.9-2.8,3.2c-1,2-3,3.8-2.4,6.2c0.6,2.9,2.2,5.5,4.5,7.3 c3.9,3.1,6.9,7.3,8.6,12c0.6,1.5,0.9,3.2,0.8,4.8c-0.3,7.5-2.2,14.3-6.7,20.3c-1.1,1.4-2,2.9-3.1,4.3S1087.3,823.1,1085.4,822.9z M1081.8,760.8c-0.3-2.3-2-2.2-3.1-3.1c-1.8-1.5-3.6-1-5.1,0.5c-2.2,2.1-4.1,4.6-5.4,7.4c-1.2,2.7-0.5,5.2-0.5,7.8 c-0.1,2.1,1.7,3,3.1,4c3.6,2.8,6.3,6.5,8,10.7c2.7,6.5,3.1,12.8-2.2,18.3c-0.7,0.7-1.9,1.2-1.6,2.9c3.9-0.1,6.7,2.9,10.2,4.3 c3.2-2.3,4-6,5.6-9.1c1-2.1,1.5-4.4,1.5-6.7c0.1-2.8-0.8-5.6-2.5-7.8c-2-2.3-4.1-4.6-6.3-6.7c-3.2-3.4-5.7-7.2-5.6-12.5 C1078.1,767,1079.4,763.6,1081.8,760.8L1081.8,760.8z"></path> <path class="st5" d="M858.6,879c-1,2.5-3.3,3.4-5.5,4.6c-2.5-1.8-5.7-2.7-8.8-2.4c-0.9,0-1.9-0.1-2.8-0.5c-2-0.5-3.2-2.4-3.1-4.4 c0-1,0.2-2,0.4-2.9c1.1-4,1.9-8,2.8-12s2.8-7.6,6.8-9.5c3.1-1.5,5.7-3.7,9.5-3.6c3.2,0.1,6.1,0.8,8.6,3.1c1.6,1.5,3.3,3,5.1,4.3 c2.6,1.9,3.4,1.9,5.9,0c1.5-1.2,3-2.3,4.5-3.6c1.1-0.9,2.4-1.6,3.8-1.9c1.2-0.4,2.6,0,3.4,1.1c3.3,4,6.1,8.4,8.2,13.1 c0.3,0.6,0.6,1.5,0.3,1.9c-1.2,1.6-0.4,2.6,0.5,3.9c1.9,2.8,1.5,4.2-0.8,6.8c-3,3.3-6.7,5.5-10.3,7.5c-2.2,1.2-4.2,2.7-6.4,4 c-3.7,2.2-7.1,2.4-10.8,0.1c-2.9-1.9-5.5-4.3-7.6-7C861.4,880.4,860.1,879.4,858.6,879z"></path> <path class="st5" d="M1171.5,993.7c3.6,1.8,3.6,5.8,4.6,8.9c1.4,4,1,8.5,2.3,12.5c0.4,1.3-0.5,2.6-1.5,3.4c-3.3,2.8-6.6,5.5-9.9,8.3 c-2.6,2.1-5.7,2.9-8.7,3.6c-3.8,0.9-9.3-2.1-11.4-6c-0.8-1.7-2-3.3-3.5-4.6c-1.9-1.5-3.5-1.9-5.5-0.7c-1.3,0.7-2.4,1.4-3.5,2.3 c-1.5,1.5-2.8,1.5-4.6,1.7c-1.3,0.4-2.8,0-3.8-1c-3.2-3.6-6.7-6.9-8.1-11.8c-0.5-1.7-0.7-3,0.6-4.5c4.2-4.8,8-10,13.6-13.2 c3.7-2.3,8.1-3.2,12.4-2.5c3.4,0.4,6.4,2.2,8.5,5c1.5,1.8,2.9,3.7,5.3,4.7c2,1.1,4.5,0.7,6-1c1.9-1.7,3.3-4,5.9-4.8L1171.5,993.7z"></path> <path class="st5" d="M964.9,793.6c0.1,3.8-2,6.7-3.2,9.9c-0.9,2.6-2.6,4.8-3.2,7.6s-3.3,4.3-6.2,3.4c-5.5-1.7-11-3.6-16.3-5.7 c-2.9-1.2-4.4-4.5-3.2-7.4c0.2-0.4,0.4-0.8,0.6-1.1c0.3-0.6,0.7-1.1,1.1-1.6c3.7-3.5,4-8,3.3-12.8c-0.3-2.1-0.7-4.2-1.1-6.3 c-1.3-6.9,1.1-12.1,5.5-17.3c4.2-5,10.2-5.2,15-8.2c1.1-0.7,2.2,0.1,2.9,0.9c3,3.5,6.1,7,8.9,10.7c1.9,2.5,1.2,5.2-1.2,7.3 c-1,0.8-1.9,1.7-2.8,2.6c-4.1,3.9-4.1,4.2-2.1,9.6C964,787.9,965.3,790.6,964.9,793.6z M956.1,763.3c-2,0.8-3.7,1.9-5.4,2 c-2.2,0.1-3.3,1.2-4.3,3c-2.2,3.5-2.6,7.8-1.1,11.6c2.8,7.2,2.2,15.3-1.8,21.9c2.7,1.8,5.8,2.9,9,3.2c0.7-1.6,1.2-3,1.9-4.2 c2.5-4.7,2.7-9.2-0.5-13.8c-2.5-3.7-2.4-7.7,0.1-11.5c1.3-2,2.4-4.2,4.7-5.3c1.4-0.7,1.4-2.1,0.4-3.3S957.2,764.6,956.1,763.3z"></path> <path class="st5" d="M1141.1,862.3c5.1-0.6,8.2,2.8,11,6.7c1,1.5,2,3,3.1,4.3c3.3,4,7.1,3.8,10.2-0.3c0.7-0.9,1.2-2,1.9-2.8 c1.6-1.8,3.7-1.7,5.2,0.2c0.3,0.4,0.6,0.8,0.8,1.2c2.4,5.2,3.9,10.8,4.4,16.6c0.1,1.3-0.3,2.5-1.3,3.4c-3.5,3.9-7.8,7-12.6,9.1 c-3.8,1.7-8,2.1-12,1.2c-3-0.6-5-3.1-6.3-6.1c-0.7-1.7-1.5-3.3-2.4-4.8c-0.6-1.3-2.2-1.9-3.5-1.3c-0.3,0.2-0.6,0.4-0.9,0.7 c-1.1,1.2-2.1,2.5-3,3.8c-2.1,2.5-3.3,2.7-5.9,0.7c-0.4-0.3-0.7-0.8-1.1-0.9c-2.6-0.9-4.7-3.1-5.4-5.8c-1-3.4-1.3-7,0-10.2 c2.3-5.5,4.8-11,10.4-14C1136.3,862.8,1138.4,861.9,1141.1,862.3z M1132.6,887.5c1.3-1.1,2.5-2.1,3.8-3c5.8-4.2,8.8-2.7,12.2,2.4 c0.3,0.5,0.5,1.2,0.8,1.7c1,1.6,2.1,3.3,3.1,4.9c0.8,1.2,2.2,1.9,3.6,1.8c4.9,0.3,8.7-2.2,12.2-5.3c0.9-0.8,1.7-1.8,1.4-3 c-0.6-2-0.1-4.3-1.6-6.1c-2.6,0.6-4.5,2.6-7,3.2c-2.4,0.7-5,0.3-7.1-1.1c-2.3-1.7-5-3.3-5.9-6.6c-0.3-1.1-0.9-2.1-1.7-2.9 c-1.6-1.5-2.8-4.1-5.1-4s-4.8,0.6-6.4,2.6c-2.9,3.6-5.8,7.4-6.2,12.5L1132.6,887.5z"></path> <path class="st5" d="M890.1,992.9c-3.8,2.8-7.5,5.2-11,8c-3.1,2.5-6.9,1.1-9.1-2.5c-0.4-0.7-0.8-1.4-1.2-2.1 c-2.6-4.3-6.5-5.7-10.7-3c-3.1,2-6.3,2.3-9.8,2.2c-2.6-0.1-4.7-0.7-6.5-3.1c-1.4-1.9-3.6-3.2-5.3-4.8c-2.8-2.7-3.1-5-0.9-8.3 c2-3,3.7-6.1,5-9.5c0.4-1.1,0.9-2.1,1.7-2.9c2.9-3.4,6-3.4,8.5,0.4c2.7,4.1,9.2,5.9,13.2,3.5c3.2-2,7.2-2.4,10.7-0.9 c2.8,1.2,5.2,3.1,6.9,5.7c3.2,4.7,5.9,9.7,8.1,15C890.1,991.4,890.1,992.2,890.1,992.9z M842.1,982.1c3.5,5.7,8,5.8,13,3.7 c0.6-0.3,1.2-0.5,1.8-0.7c3.4-0.9,6.7-1.4,10.1,0s6.9,2.4,8.2,6.6c0.2,0.5,0.5,1,0.9,1.4c1.4-0.3,2.6-0.9,3.7-1.8 c1.2-0.6,1.7-2.1,1.1-3.3c0-0.1-0.1-0.1-0.1-0.1c-1.5-2.3-1.7-5.3-3.4-7.6c-0.8-1.2-1.8-2.2-3-3c-2.9-1.9-5.7-1.3-8.4,0.3 c-4.6,2.6-9.3,2.2-14,0.4c-2.1-0.8-3.5-2.6-5.5-4L842.1,982.1z"></path> <path class="st5" d="M958.8,1106c-2.6-0.5-5.6-1-8.7-1.8c-2-0.5-3.9-1.1-5.8-1.8c-2.7-1.1-3.4-2.7-2-5.3c1.2-2.5,2.3-5,3.4-7.6 c1.6-3.6,0.5-6.4-1.8-9c-0.9-0.9-1.8-1.8-2.8-2.6c-5.3-4.5-7.1-14.2-3.8-21.3c0.7-1.5,1.7-2.8,2.8-3.9c1.3-1.3,2.8-2.3,3.7-4.2 c1-2.1,5.8-2.8,7.1-1.1c2.7,3.5,7,4.1,10,6.9c0.5,0.4,1,0.7,1.5,1.2c2.3,2,2.5,3.1,1.3,6c-0.6,1.3-1.5,2.5-2.2,3.8 c-0.9,1.8-1.3,3.7,0.2,5.5c0.9,1.1,1.5,2.6,2.5,3.6c3.8,4,4.3,9.2,4,14.2s-2.1,9.6-4.3,14.1C963,1104.7,961.6,1106.1,958.8,1106z M956.6,1058.8c-3-1.5-5.5-2.9-8-4.1c-1.3-0.8-2.9-0.4-3.8,0.8c-3.9,5-3.5,14.1,0.8,17c1,0.8,1.9,1.8,2.7,2.8 c4.7,4.7,6,10.2,3.6,16.6c-0.6,1.3-0.8,2.8-0.5,4.3c2,2.5,4.8,0.6,6.8,1.7c1.9-1.4,1.3-3.7,2.2-5.5c2.2-4.4,1.6-9.7-1.5-13.4 c-1.9-2.5-3.5-5.1-4.9-7.9c-0.8-1.4-0.9-3.2-0.3-4.7C954.5,1063.9,955.5,1061.5,956.6,1058.8z"></path> <path class="st5" d="M1052.5,1052.2c3.2,0.7,6.5,1.2,9.6,2.1c2.9,0.9,3.7,3,2.5,6.2c-0.8,1.8-1.3,3.7-1.5,5.7 c-0.1,1.9,0.2,3.6,2.1,4.6c0.7,0.3,1.2,1.1,1.8,1.5c4.9,3.1,5.8,8.1,5.9,13.6c0.1,7.1-2.4,13.5-5.1,19.9c-1.2,3-1.7,3.2-4.7,2.4 c-5.1-1.3-10.2-2.8-15.3-4.3c-1.9-0.6-2.7-2.6-1.7-4.8c0.7-1.7,1.7-3.2,2.5-4.8c0.8-1.4,1.5-2.9,2.1-4.4c1.3-3.7,0.4-6.9-2.8-9 c-2-1.3-3.8-2.9-5.3-4.7c-1.5-1.7-2.3-4-2.1-6.3c0.1-3.8,1-7.5,2.5-11C1044.4,1054.9,1048.2,1052.2,1052.5,1052.2z M1062.2,1100.8 c2.8-4.6,3.5-9.7,3.5-14.8c0.1-3.3-1.7-6.4-4.6-8c-3.8-2.1-5.9-6.4-5.1-10.7c0.1-1.9,0.1-3.8,0-5.8c-1.4-0.2-2.5-0.3-3.6-0.5 c-4-0.8-4.4-0.6-5.1,3.8c-0.2,1-0.2,2-0.3,3c-0.4,2.1,0.5,4.3,2.3,5.5l1.9,1.4c6.3,4.7,7.5,10.4,4,17.6c-0.9,1.8-2.7,3.3-2.5,5.8 C1055.8,1099.4,1059,1099.8,1062.2,1100.8L1062.2,1100.8z"></path> <path d="M774.8,1030.6c-4-6-6.7-12.3-10.2-18.3c1-1.3,2.2-2.4,3.6-3.1c8.5-5.9,17.5-11.2,26.9-15.8c0.5-0.3,1.1-0.6,1.7-0.8 c1.2-0.6,2.6,0,3.2,1.2c0,0,0,0,0,0c1.8,3.2,3.9,6.3,5.5,9.7c1,2.2,2.8,4,3.1,7C798,1017.9,786.1,1022.9,774.8,1030.6z"></path> <path d="M1078.4,1136.9c4.3,12.7,6.4,26.1,10.6,39.2c-6.4,2.8-12.8,4-18.8,6.3c-1.9-1.5-2.1-3.7-2.7-5.5c-3.3-9.8-6-19.8-8-30 c-0.1-0.7-0.2-1.3-0.3-2c-0.4-1.4,0.5-2.9,1.9-3.3c0,0,0.1,0,0.1,0c3.6-1.2,7-2.6,10.7-3.6 C1073.9,1137.6,1075.9,1136.2,1078.4,1136.9z"></path> <path d="M1066.8,852.5c-9.6,10.1-16.8,21.4-25.9,30.7c-2.6-0.7-3.7-2.8-5.4-4.2c-2.8-2.3-5.5-4.9-7.8-7.8c-1.8-2.2-1.9-2.5-0.3-4.7 c3.4-4.5,6.8-9,10.4-13.4c4.3-5.3,8.9-10.4,13.9-15.1L1066.8,852.5z"></path> <path d="M1231.4,1068.1c-4.7-1-9.2-3.2-13.6-5.2c-6.5-2.9-12.7-6.4-18.9-9.8c-2.8-1.6-2.9-1.9-1.8-5.1c1.9-5.6,4.2-11.1,6.9-16.4 c12.3,4.7,23.2,11.9,35.1,16.6C1238.6,1051.9,1234.2,1063.2,1231.4,1068.1z"></path> <path d="M1149.2,708.1c-7.4,10.6-13.1,21.2-20.4,31.1c-5.7-2.9-11.4-5.8-17.1-8.7c-1.8-1-1.9-1.8-1.2-4c1.3-3.5,4-5.8,5.7-9 c2.6-4.9,5.7-9.5,8.6-14.1c1.2-1.9,2.3-4,4.3-5.2c1-0.6,2-1.2,3-0.5C1137.7,701.4,1143.4,704.9,1149.2,708.1z"></path> <path d="M972.7,1000c-8.2,9.1-17.3,16.8-25.4,25.3c-1.8-0.5-2.4-1.7-3.1-2.8c-2.6-3.9-5.5-7.6-8.5-11.2c-2.3-2.6-2.3-4.2-0.1-6.9 c1.4-1.6,2.8-3.1,4.4-4.5c5.2-4.9,10.5-9.8,15.6-15c3.4-3.4,4.4-5.4,8.1,0.7C966.5,990.7,969.7,995.3,972.7,1000z"></path> <path d="M949.9,965.1c-2.1,3.3-5.1,4.7-7.6,6.5c-5.8,4.3-11.6,8.6-17.8,12.3c-1.7,0.9-3.2,2.1-4.5,3.5c-1.2,1.4-2.5,1.3-3.6-0.1 c-2.4-2.8-4.9-5.6-7.2-8.5c-1.4-1.7-2.8-3.5-4.3-5.5c1.4-2.6,3.5-4.7,6.1-6.1c9-5.2,18.4-9.6,27-15.6c0.5-0.3,1.1-0.5,1.7-0.6 L949.9,965.1z"></path> <path d="M1092.5,720.1l-13.9-8.3c-0.4-1-0.3-2,0.3-2.9c2.5-4.8,3.7-10.1,5.6-15.2c2.1-5.7,3.8-11.5,5.5-17.4 c0.6-2.1,3.1-2.2,3.3-4.7c5.5,3.2,10.8,6.7,15.8,10.6c1,0.7,1.2,2.1,0.5,3.1c-4.1,7.6-6.8,15.9-10.5,23.6c-1.4,2.9-2.8,5.9-4.1,8.9 C1094.4,718.9,1093.6,719.7,1092.5,720.1z"></path> <path d="M1092.6,877.3c-0.7,1.5-1.9,2.8-3.3,3.8c-5.1,4.4-9.9,9.2-14.2,14.5c-2.9,3.4-6.7,5.4-10.2,7.9c-0.9,0.7-2.3,0.6-3-0.3 c0,0,0,0,0,0c-3-2.9-6.1-5.7-9-8.7c-1.7-1.7-1.7-3.5,0.2-5c6.3-5,11.3-11.4,17-17c2.2-2,4.7-3.8,7.3-5.4c1.2-0.8,2.7-1.3,3.9,0.1 C1084.8,870.9,1089,873.7,1092.6,877.3z"></path> <path d="M1107.1,1128.1c2.7,3.7,5.1,7.2,6.4,11.3c2.4,8,5.2,15.9,8.5,23.6c0.5,0.8,0.6,1.8,0.2,2.8c-2.9,0.8-6.1,1.7-9.2,2.6 c-1,0.3-2.1,0.5-3.2,0.8c-3.4,1.1-4.2,0.8-6.1-2.4c-2.5-4.2-4.5-8.8-5.7-13.6c-1.4-5.1-3.4-10-5.2-14.9c-0.2-0.5-0.5-0.8-0.7-1.3 c-1-2.7-0.5-4.1,2.1-4.9C1098.3,1130.8,1102.5,1129.5,1107.1,1128.1z"></path> <path d="M1253.7,1014.7c-1.4,3.1-2.8,6.2-4.2,9.3c-0.4,0.9-0.9,1.7-1.3,2.6c-1.7,4.1-2.1,4.4-6.2,3.8c-4.5-0.7-8.8-2-12.9-4 c-4.7-2.1-9.6-3.9-14.5-5.4c-0.8-0.2-1.5-0.4-2.2-0.7c-1.4-0.5-2.1-2.1-1.5-3.5c0-0.1,0.1-0.1,0.1-0.2c1.7-4.1,3.4-8.1,5.1-12.2 c0.7-1.8,2-1.8,3.5-1.5c4.5,0.7,8.9,1.5,13.1,3.5c5.5,2.7,11.2,4.8,17.2,6.4C1251.2,1013,1252.6,1013.7,1253.7,1014.7z"></path> <path d="M791.9,1062.7c-2.4-4.7-4.7-9.2-7.1-13.6c-0.9-1.8-0.2-3.3,1-4.5c2.1-2.4,4.5-4.6,7-6.5c4.9-3.5,10.2-6.3,14.8-10.2 c1.2-1,2.4-2.1,3.7-3c2.2-1.7,3.6-1.5,5,1c1.9,3.4,3.7,6.9,5.5,10.3c1.2,2.3,1.1,2.8-0.8,4.7c-3.1,3.2-6.2,6.4-10.1,8.7 c-5.3,3.1-10.4,6.7-15.1,10.8C794.9,1061.5,793.5,1062.3,791.9,1062.7z"></path> <path d="M940.7,680.3l19.8-2.9c1.3,3.4,1.6,6.9,2.1,10.2c1.2,7.2,2.1,14.4,3.1,21.6c0.5,3.5,0.3,3.5-2.9,4.1 c-4.3,0.8-8.5,1.9-12.7,2.9c-0.9,0.3-1.9,0.3-2.8-0.2c-1.3-5.5-1.9-11.6-3.1-17.5S942,686.9,940.7,680.3z"></path> <path d="M945.8,847.2l17.7-10.2c6.3,9.8,11.1,20.4,16.9,30.9l-16,11c-3.5-5.1-5.9-10.6-9-15.7L945.8,847.2z"></path> <path d="M1051.1,1027.8c-6.4-10.9-12.2-22.1-17.3-33.7c4.1-3.5,8.4-6.7,13-9.5c4.7,3.9,6.8,10,10.4,14.7c3.8,5,7.2,10.4,10.1,16 C1061.9,1019.1,1057,1024,1051.1,1027.8z"></path> <path d="M952.2,1174.4l-18.4-2.8c-1.2-1.3-0.8-2.5-0.6-3.6c2-10.5,4-21.1,6-31.6c0.2-0.4,0.4-0.8,0.6-1.2c6,0.5,11.7,2.8,17.7,3.8 C958,1143.4,954.2,1168.3,952.2,1174.4z"></path> <path d="M798.6,868.8c-11.9-2.4-23.7-5.6-35.2-9.5c2-6.9,5.5-13,7.3-19.8c6.1,1.8,12,4.1,17.7,6.8c3.5,1.7,7.2,2.8,10.8,4.2 c5,1.9,5.2,2.4,3.4,7.5C801.3,861.4,800,864.9,798.6,868.8z"></path> <path d="M1218.2,872c0.8-1,2-1.6,3.3-1.7c8.6-1.5,16.9-4.2,25.4-5.9c1.7-0.3,3.4-0.3,5.5-0.5c1,7,3.7,13.4,4.4,20.6 c-12.1,1.8-23.7,3.8-35.4,3.7C1219.4,883.6,1218,876.1,1218.2,872z"></path> <path d="M1213.9,849.6c-0.9-4.6-1.8-8.9-2.7-13.3c-0.6-3.1-0.4-3.8,2.2-5.2c3.8-2.2,7.7-4.3,11.7-6.2c3.7-1.8,7.5-3.3,11.2-4.9 s4.9-1,6.1,3.2c1.4,5.2,2.6,10.5,3.9,15.7c-1,2-2.8,2.3-4.4,2.7c-7.3,1.9-14.4,4.5-21.2,7.7C1218.6,850.4,1216.1,850.5,1213.9,849.6 z"></path> <path d="M779.8,816.5c2.3-5.6,4.3-10.9,6.6-16.2c1.3-3.1,2.7-3.4,5.5-1.8c7.4,4.3,14.4,9.1,21.2,14.4c2.9,2.2,3,2.9,1.7,6.6 c-1.4,4-2.8,8-4.2,12c-2.6,1.1-4.7,0-6.7-1.2c-6.3-4.1-13-7.7-19.9-10.8C782.4,818.8,781,817.8,779.8,816.5z"></path> <path d="M1086.2,1000.4c-2.6-1.7-3.8-4-5.4-6.1c-4.1-5.4-8.4-10.6-13.1-15.5c-1.8-1.6-2.8-3.9-2.7-6.4l11.3-8.4 c1.7-1.3,3.3-0.7,4.7,0.6c3,2.7,6,5.3,8.8,8.1c3.5,3.5,6.9,7.2,10.2,10.8c2,2.2,2,3.8-0.3,5.7 C1095.3,993.2,1090.8,996.7,1086.2,1000.4z"></path> <path d="M909.5,884c1.3-3.3,8-12.6,11.6-16.2c8.8,6.5,17.8,12.9,27,18.8c-2.1,5.2-8.2,11.1-14.5,14.3 C929.5,899,912.8,887.4,909.5,884z"></path> <path d="M886.4,1149.6c4.7-9.1,11.9-15.9,16.7-24.2c7.1,0.5,14.5,3.6,18.9,7.9c-6.5,9.1-13.2,18.1-19.2,27.5 C897.9,1158.8,888.8,1152.6,886.4,1149.6z"></path> <path d="M930.3,718.6c-6,4.1-11.8,6.9-18.5,7.6c-1.4-1.1-2.5-2.4-3.3-4c-2.1-3.6-4.6-7-7.4-10.2c-2.1-2.7-4-5.5-5.6-8.5 c-1.2-2-1.1-2.8,0.8-4.1c4.6-3.1,9.1-6.4,14.4-9.1C916.9,699.8,923.2,709.2,930.3,718.6z"></path> <polygon class="st5" points="996.5,628.6 996.6,627.7 996.8,626.8 997,626 997.2,625.1 997.4,624.2 997.7,623.3 998.1,622.5 998.5,621.7 999,620.9 999.5,620.2 1000.1,619.5 1000.7,618.8 1001.4,618.3 1002.1,617.7 1002.9,617.3 1003.8,617.1 1004.6,616.7 1005.5,616.5 1006.4,616.5 1007.3,616.5 1008.2,616.6 1009.1,616.8 1010,616.9 1010.9,617.2 1011.8,617.4 1012.6,617.9 1013.4,618.3 1014.3,618.7 1015,619.3 1015.8,619.7 1016.5,620.3 1017.1,621 1017.7,621.6 1018.2,622.3 1018.8,623 1019,623.9 1019.3,624.7 1019.7,625.5 1019.7,626.4 1019.8,627.3 1019.7,628.2 1019.5,629.1 1019.5,630 1019.1,630.8 1018.7,631.5 1018.3,632.3 1017.9,633.2 1017.4,633.8 1016.9,634.7 1016.5,635.5 1015.9,636.3 1015.2,636.9 1014.6,637.6 1013.9,638.1 1013.1,638.5 1012.3,638.8 1011.5,639 1010.7,639.3 1009.8,639.3 1009,639 1008.2,638.7 1007.4,638.4 1006.7,638.2 1005.9,638.2 1005.1,638.1 1004.2,637.9 1003.2,637.8 1002.3,637.8 1001.4,637.6 1000.5,637.2 999.9,636.4 999.3,635.8 998.8,635.1 998.4,634.3 997.9,633.7 997.6,632.8 997.3,632 996.9,631.2 996.7,630.4 996.6,629.5 "></polygon> <polygon class="st5" points="1312.8,934.9 1312.8,934 1312.8,933.1 1312.7,932.2 1313.1,931.4 1313.2,930.5 1313.3,929.6 1313.6,928.7 1313.9,927.9 1314.4,927.1 1314.6,926.2 1315,925.4 1315.4,924.6 1316,923.9 1316.4,923.1 1316.9,922.4 1317.6,921.8 1318.4,921.4 1319.2,921.1 1320,920.8 1320.9,920.5 1321.7,920.2 1322.6,920 1323.5,920 1324.5,920 1325.3,920.4 1326.1,920.9 1326.9,921.4 1327.7,922 1328.2,922.8 1328.8,923.5 1329.3,924.3 1329.7,925.1 1330.2,925.9 1330.4,926.8 1330.9,927.6 1330.9,928.5 1331.2,929.4 1331.4,930.3 1331.5,931.2 1331.6,932.1 1331.6,933 1331.3,934 1331.3,934.9 1331.2,935.8 1331.2,936.7 1330.7,937.6 1330.5,938.5 1330.3,939.4 1329.9,940.2 1329.5,941.1 1328.9,941.8 1328.4,942.5 1327.9,943.4 1327.2,944 1326.4,944.5 1325.7,945.1 1325.1,945.7 1324.2,946.2 1323.4,946.7 1322.6,947.1 1321.7,947.2 1320.7,947.1 1319.8,947.2 1318.9,947.2 1318,947 1317.1,946.8 1316.3,946.5 1315.5,946.1 1314.9,945.4 1314.5,944.6 1314.1,943.8 1313.7,943 1313.4,942.1 1313,941.3 1312.8,940.4 1312.8,939.5 1312.7,938.6 1312.7,937.7 1312.6,936.8 1312.6,935.8 "></polygon> <polygon class="st5" points="683.7,934.9 682.8,934.9 681.9,934.8 681,934.7 680.2,934.5 679.3,934.3 678.5,933.9 677.8,933.4 677,933 676.3,932.4 675.8,931.7 675.1,931.1 674.7,930.4 674.4,929.6 674.1,928.8 674,928 673.8,927.1 673.5,926.3 673.2,925.5 673,924.7 672.6,923.9 672.7,923 672.6,922.1 672.6,921.2 672.9,920.4 673.2,919.6 673.7,918.9 674,918 674.6,917.3 675.2,916.7 675.9,916.2 676.5,915.6 677.2,915.1 678,914.7 678.8,914.4 679.6,914.1 680.5,913.9 681.3,913.8 682.2,913.7 683,913.6 683.9,913.7 684.8,913.7 685.6,913.8 686.5,914 687.4,914 688.2,914.2 689,914.7 689.7,915.2 690.3,915.9 690.7,916.7 691.3,917.4 691.7,918.2 692.1,918.9 692.3,919.8 692.6,920.7 692.9,921.5 693,922.4 693.1,923.3 693.1,924.2 693,925.1 693,926 692.9,926.9 692.9,927.8 692.5,928.6 692.3,929.5 692.1,930.4 691.7,931.2 691.3,932 690.7,932.6 690.1,933.2 689.5,933.9 688.7,934.2 687.9,934.3 687,934.4 686.2,934.6 685.4,934.7 684.5,934.8 "></polygon> <path class="st6" d="M859.7,636.7c4.4-0.2,9.1,3.3,10.7,8.8c0.7,2.2-0.3,4.4-1.2,6.2c-1.9,3.7-3.9,7.4-8.9,7.6 c-5,0.1-9.2-3.8-9.3-8.8c0-0.2,0-0.4,0-0.6c0.1-2.3,0.5-4.6,1.1-6.8C853.1,638.6,855.4,636.8,859.7,636.7z"></path> <polygon class="st5" points="757.7,661.1 758.5,661.1 759.4,661.4 760.2,661.5 761.1,661.6 761.9,661.8 762.7,662.2 763.6,662.4 764.3,662.8 765.1,663.2 765.8,663.6 766.5,664.1 767.3,664.5 767.9,665.2 768.3,665.9 768.9,666.6 769.2,667.4 769.4,668.3 769.6,669.1 769.7,670 769.7,670.9 769.7,671.8 769.5,672.6 769.1,673.4 768.7,674.2 768.3,675 767.9,675.8 767.6,676.7 767,677.4 766.5,678.2 766,678.9 765.3,679.5 764.7,680.1 763.8,680.5 763.1,681.1 762.3,681.4 761.4,681.6 760.5,681.7 759.6,681.8 758.8,682 757.8,682 757,681.8 756.1,681.7 755.2,681.5 754.3,681.3 753.4,681.1 752.6,680.8 751.9,680.2 751.2,679.6 750.9,678.8 750.6,677.9 750.3,677.1 750.2,676.2 750.2,675.3 750.1,674.4 750.2,673.5 750.3,672.6 750.4,671.7 750.6,670.8 750.7,669.9 751.1,669.1 751.4,668.2 751.6,667.4 752,666.6 752.4,665.8 752.9,665 753.5,664.3 754.1,663.6 754.6,662.9 755.2,662.2 756,661.7 756.7,661.2 "></polygon> <polygon class="st4" points="770.8,574 771.6,574.1 772.5,574.1 773.3,574.4 774.2,574.6 775,574.8 775.9,575 776.7,575.3 777.4,575.8 778.2,576.1 779,576.5 779.8,576.9 780.3,577.6 781.1,578 781.5,578.8 781.9,579.6 782.3,580.4 782.5,581.2 782.8,582 782.9,582.9 782.8,583.8 782.8,584.7 782.5,585.5 782.1,586.3 781.8,587.2 781.4,587.9 781,588.7 780.7,589.6 780.2,590.4 779.6,591.1 779,591.7 778.4,592.3 777.7,592.9 777,593.5 776.2,593.9 775.4,594.3 774.6,594.6 773.7,594.7 772.8,594.8 771.9,594.8 771,594.9 770.1,594.8 769.2,594.7 768.3,594.4 767.4,594.3 766.5,594.1 765.7,593.7 765,593.1 764.5,592.5 764,591.7 763.8,590.8 763.5,590 763.4,589.1 763.4,588.2 763.3,587.3 763.4,586.4 763.5,585.5 763.5,584.6 763.6,583.7 763.9,582.8 764.1,582 764.5,581.1 764.9,580.3 765.2,579.5 765.7,578.7 766.1,577.9 766.7,577.3 767.2,576.5 767.7,575.8 768.3,575.1 769,574.4 769.8,574 "></polygon> <polygon class="st4" points="974.7,565.5 975.5,565.6 976.4,565.7 977.2,565.9 978.1,566.1 978.9,566.3 979.8,566.5 980.5,566.9 981.4,567.2 982.1,567.6 982.9,568 983.6,568.4 984.2,569.1 984.9,569.7 985.5,570.3 985.9,571.1 986.2,571.9 986.4,572.7 986.6,573.6 986.8,574.5 986.9,575.3 986.6,576.2 986.5,577 986,577.8 985.6,578.7 985.3,579.5 984.9,580.3 984.6,581.1 984,581.9 983.4,582.5 983,583.3 982.3,583.9 981.6,584.5 980.9,585 980.1,585.4 979.2,585.7 978.4,586.1 977.5,586.3 976.7,586.3 975.8,586.3 974.9,586.3 974,586.2 973,586.2 972.2,586 971.3,585.9 970.4,585.7 969.6,585.2 968.8,584.7 968.3,584 967.8,583.3 967.5,582.4 967.3,581.5 967.4,580.6 967.2,579.7 967.2,578.8 967.2,577.9 967.3,577 967.5,576.1 967.6,575.2 967.8,574.4 968.1,573.5 968.3,572.7 968.8,571.9 969,571 969.5,570.2 970,569.5 970.5,568.7 971,568 971.6,567.3 972.2,566.6 972.9,566 973.7,565.6 "></polygon> <polygon class="st4" points="1250.7,579 1251.6,579 1252.4,579.3 1253.3,579.3 1254.1,579.6 1254.9,579.8 1255.8,580.1 1256.6,580.3 1257.4,580.7 1258.2,581 1258.9,581.5 1259.6,582 1260.3,582.5 1261,583 1261.4,583.8 1261.9,584.5 1262.2,585.4 1262.5,586.2 1262.8,587 1262.7,587.9 1262.7,588.8 1262.7,589.7 1262.5,590.5 1262.2,591.4 1261.7,592.1 1261.3,593 1261,593.8 1260.6,594.6 1260,595.3 1259.6,596.1 1258.9,596.8 1258.3,597.3 1257.6,598 1256.9,598.5 1256.2,599 1255.3,599.3 1254.4,599.5 1253.6,599.8 1252.7,599.8 1251.8,599.8 1250.9,599.8 1250,599.7 1249.1,599.6 1248.2,599.6 1247.3,599.4 1246.4,599.1 1245.7,598.7 1244.9,598.1 1244.4,597.5 1243.8,596.7 1243.7,595.8 1243.4,595 1243.2,594.1 1243.2,593.2 1243.2,592.3 1243.3,591.4 1243.2,590.5 1243.4,589.6 1243.6,588.7 1243.9,587.9 1244.1,587 1244.3,586.1 1244.7,585.3 1245.2,584.5 1245.6,583.8 1246.1,583 1246.6,582.3 1247.1,581.5 1247.6,580.8 1248.3,580.2 1248.9,579.5 1249.8,579.1 "></polygon> <polygon class="st5" points="1412.2,885.8 1413.1,886 1413.9,886.1 1414.8,886.2 1415.6,886.5 1416.5,886.6 1417.3,886.8 1418.1,887.1 1418.8,887.6 1419.7,887.8 1420.4,888.4 1421.2,888.8 1421.8,889.4 1422.5,889.9 1423,890.6 1423.5,891.4 1423.7,892.2 1424,893 1424.2,893.9 1424.4,894.8 1424.3,895.6 1424.3,896.5 1424,897.4 1423.7,898.2 1423.3,899 1422.8,899.8 1422.4,900.6 1422.1,901.4 1421.6,902.2 1421.1,902.9 1420.4,903.5 1419.8,904.2 1419.2,904.8 1418.5,905.4 1417.6,905.7 1416.8,906.2 1416,906.3 1415.1,906.5 1414.2,906.6 1413.3,906.6 1412.4,906.7 1411.5,906.6 1410.6,906.4 1409.7,906.4 1408.8,906.2 1408,905.8 1407.2,905.5 1406.5,904.9 1405.9,904.3 1405.3,903.6 1405,902.7 1404.9,901.8 1404.9,900.9 1404.8,900 1404.8,899.1 1404.7,898.2 1404.9,897.3 1404.9,896.4 1405,895.5 1405.3,894.7 1405.6,893.8 1406,893 1406.2,892.1 1406.6,891.3 1407.1,890.5 1407.6,889.8 1408.1,889.1 1408.6,888.3 1409.1,887.6 1409.8,887 1410.5,886.4 1411.3,886 "></polygon> <polygon class="st5" points="1420.2,1085 1421.1,1085 1421.9,1085.1 1422.8,1085.2 1423.6,1085.5 1424.5,1085.8 1425.3,1086 1426.1,1086.2 1426.9,1086.6 1427.7,1087.1 1428.4,1087.4 1429.1,1087.9 1429.9,1088.4 1430.5,1089 1431.1,1089.7 1431.3,1090.5 1431.9,1091.3 1432,1092.1 1432.2,1093 1432.3,1093.9 1432.4,1094.7 1432.3,1095.6 1432.1,1096.5 1431.6,1097.3 1431.3,1098.1 1430.9,1098.9 1430.6,1099.8 1430,1100.5 1429.7,1101.3 1429.1,1102 1428.5,1102.7 1427.9,1103.4 1427.2,1103.9 1426.4,1104.4 1425.7,1104.9 1424.8,1105.2 1424,1105.5 1423.1,1105.6 1422.2,1105.7 1421.3,1105.8 1420.4,1105.8 1419.5,1105.6 1418.6,1105.6 1417.8,1105.4 1416.9,1105.2 1416,1104.9 1415.2,1104.6 1414.4,1104.1 1413.8,1103.4 1413.5,1102.6 1413.1,1101.8 1412.9,1100.9 1412.9,1100 1412.8,1099.1 1412.8,1098.2 1412.9,1097.3 1412.8,1096.4 1412.9,1095.5 1413.1,1094.6 1413.4,1093.8 1413.7,1092.9 1414,1092.1 1414.2,1091.2 1414.7,1090.5 1415.1,1089.6 1415.5,1088.8 1416.1,1088.1 1416.6,1087.4 1417.3,1086.8 1417.7,1086 1418.4,1085.4 1419.3,1085 "></polygon> <polygon class="st5" points="617.9,854 618.8,854.1 619.7,854.1 620.5,854.3 621.3,854.6 622.2,854.8 623,855 623.8,855.3 624.6,855.6 625.4,856.1 626.2,856.4 626.8,857 627.5,857.5 628.2,858.1 628.8,858.8 629.2,859.5 629.4,860.4 629.8,861.2 629.9,862 630.1,862.9 630.1,863.8 630,864.7 629.6,865.5 629.5,866.4 628.9,867.1 628.6,868 628.2,868.8 627.8,869.6 627.3,870.3 626.8,871.1 626.2,871.7 625.6,872.4 624.9,873 624.2,873.6 623.4,873.9 622.6,874.3 621.7,874.5 620.8,874.7 619.9,874.9 619,874.8 618.1,874.7 617.2,874.8 616.3,874.7 615.5,874.5 614.6,874.2 613.7,874 612.9,873.7 612.1,873.2 611.7,872.4 611.1,871.7 610.9,870.8 610.8,870 610.6,869.1 610.5,868.2 610.4,867.3 610.5,866.4 610.7,865.5 610.6,864.6 610.8,863.7 611.1,862.8 611.3,862 611.7,861.2 612.1,860.3 612.3,859.5 612.7,858.7 613.3,857.9 613.8,857.2 614.4,856.5 615,855.8 615.5,855.1 616.2,854.5 617,854 "></polygon> <polygon class="st5" points="592,1104.3 592.9,1104.2 593.7,1104.3 594.6,1104.6 595.4,1104.8 596.3,1104.9 597.1,1105.2 597.9,1105.5 598.7,1105.9 599.5,1106.3 600.3,1106.6 601,1107.1 601.6,1107.7 602.3,1108.3 602.8,1108.9 603.2,1109.7 603.6,1110.5 603.8,1111.4 604.1,1112.2 604.1,1113.1 604.1,1114 604,1114.8 603.8,1115.7 603.5,1116.5 603,1117.3 602.7,1118.2 602.2,1118.9 601.9,1119.8 601.4,1120.5 600.9,1121.3 600.2,1121.9 599.7,1122.7 598.9,1123.1 598.3,1123.7 597.4,1124.1 596.7,1124.5 595.8,1124.7 594.9,1124.9 594,1125 593.1,1125 592.2,1125 591.3,1125 590.4,1124.8 589.5,1124.8 588.6,1124.5 587.8,1124.2 586.9,1123.9 586.3,1123.3 585.7,1122.6 585.2,1121.9 584.9,1121 584.7,1120.2 584.7,1119.2 584.7,1118.3 584.5,1117.4 584.5,1116.6 584.8,1115.7 584.7,1114.8 585,1113.9 585.2,1113 585.4,1112.2 585.8,1111.3 586,1110.5 586.4,1109.7 587,1108.9 587.3,1108.1 587.9,1107.4 588.5,1106.7 589,1106 589.6,1105.4 590.3,1104.8 591.1,1104.2 "></polygon> <polygon class="st4" points="1360.6,710 1361.5,710.1 1362.3,710.2 1363.2,710.3 1364.1,710.5 1364.9,710.6 1365.7,711 1366.6,711.2 1367.4,711.5 1368.1,712.1 1368.8,712.5 1369.6,712.9 1370.3,713.4 1370.9,714 1371.4,714.7 1371.8,715.5 1372.3,716.2 1372.5,717.1 1372.6,718 1372.7,718.8 1372.8,719.7 1372.6,720.6 1372.4,721.4 1372.1,722.3 1371.8,723.1 1371.3,723.9 1370.9,724.7 1370.5,725.5 1370.1,726.3 1369.5,727 1368.9,727.6 1368.3,728.3 1367.6,728.9 1366.9,729.5 1366.1,729.9 1365.3,730.3 1364.4,730.3 1363.5,730.7 1362.6,730.6 1361.7,730.8 1360.8,730.7 1359.9,730.7 1359.1,730.6 1358.2,730.5 1357.3,730.2 1356.4,729.9 1355.6,729.6 1354.8,729.1 1354.3,728.4 1353.8,727.6 1353.5,726.8 1353.4,725.9 1353.2,725 1353.3,724.1 1353.3,723.2 1353.2,722.3 1353.3,721.4 1353.3,720.5 1353.6,719.7 1353.8,718.8 1354,717.9 1354.3,717 1354.8,716.3 1355,715.4 1355.6,714.7 1356.1,713.9 1356.5,713.2 1357.1,712.5 1357.6,711.7 1358.2,711 1359,710.5 1359.7,709.9 "></polygon> <polygon class="st4" points="1368.9,990.8 1369.7,990.8 1370.6,991 1371.5,991.1 1372.3,991.3 1373.1,991.6 1374,991.8 1374.7,992.2 1375.5,992.5 1376.3,992.9 1377.1,993.3 1377.8,993.8 1378.5,994.2 1379.1,994.9 1379.7,995.5 1380.2,996.3 1380.3,997.2 1380.6,998 1380.9,998.8 1381,999.7 1381,1000.6 1380.9,1001.4 1380.6,1002.3 1380.4,1003.1 1379.9,1003.9 1379.5,1004.7 1379.1,1005.5 1378.7,1006.3 1378.2,1007.1 1377.8,1007.9 1377.2,1008.5 1376.6,1009.2 1375.8,1009.7 1375.1,1010.2 1374.3,1010.7 1373.5,1011.1 1372.6,1011.3 1371.7,1011.4 1370.9,1011.6 1370,1011.5 1369.1,1011.6 1368.2,1011.5 1367.3,1011.5 1366.4,1011.2 1365.5,1011.2 1364.7,1010.8 1363.8,1010.5 1363.1,1009.9 1362.4,1009.3 1362.1,1008.5 1361.7,1007.6 1361.6,1006.7 1361.5,1005.8 1361.4,1005 1361.3,1004 1361.5,1003.2 1361.4,1002.2 1361.6,1001.4 1361.8,1000.5 1361.9,999.6 1362.3,998.8 1362.6,997.9 1362.9,997.1 1363.3,996.3 1363.7,995.5 1364.3,994.8 1364.8,994 1365.3,993.3 1365.8,992.5 1366.5,992 1367.1,991.2 1368,990.9 "></polygon> <polygon class="st4" points="1324.8,1228.5 1325.6,1228.6 1326.5,1228.9 1327.3,1229 1328.2,1229.1 1329,1229.3 1329.8,1229.6 1330.7,1229.9 1331.4,1230.3 1332.2,1230.7 1333,1231.1 1333.7,1231.5 1334.4,1232 1335,1232.7 1335.6,1233.4 1335.9,1234.2 1336.2,1235 1336.5,1235.8 1336.7,1236.7 1336.8,1237.5 1336.9,1238.4 1336.7,1239.2 1336.6,1240.1 1336.2,1241 1335.7,1241.7 1335.4,1242.6 1335.1,1243.4 1334.6,1244.2 1334.1,1244.9 1333.6,1245.7 1333,1246.3 1332.5,1247.1 1331.7,1247.6 1330.9,1248 1330.2,1248.5 1329.4,1248.9 1328.5,1249.1 1327.6,1249.3 1326.7,1249.4 1325.8,1249.5 1324.9,1249.4 1324.1,1249.3 1323.2,1249.2 1322.3,1249.2 1321.4,1248.9 1320.6,1248.6 1319.7,1248.3 1319,1247.7 1318.3,1247.1 1317.9,1246.3 1317.6,1245.5 1317.6,1244.6 1317.3,1243.7 1317.4,1242.8 1317.3,1241.9 1317.4,1241 1317.3,1240.1 1317.5,1239.2 1317.6,1238.3 1317.9,1237.4 1318.2,1236.6 1318.5,1235.7 1318.7,1234.9 1319.2,1234.1 1319.6,1233.3 1320.1,1232.5 1320.6,1231.8 1321.1,1231.1 1321.8,1230.4 1322.4,1229.8 1323,1229.1 1323.8,1228.7 "></polygon> <polygon class="st4" points="1051.7,1257.3 1052.6,1257.5 1053.4,1257.6 1054.3,1257.7 1055.1,1258 1055.9,1258.2 1056.8,1258.4 1057.6,1258.6 1058.4,1258.9 1059.1,1259.4 1059.9,1259.9 1060.6,1260.3 1061.4,1260.8 1062,1261.4 1062.5,1262.1 1062.9,1262.9 1063.3,1263.7 1063.6,1264.5 1063.8,1265.4 1063.9,1266.3 1063.8,1267.1 1063.7,1268 1063.4,1268.8 1063.1,1269.7 1062.7,1270.5 1062.3,1271.3 1062,1272.1 1061.6,1272.9 1061,1273.6 1060.6,1274.5 1060,1275.2 1059.3,1275.7 1058.6,1276.3 1057.9,1276.9 1057.2,1277.3 1056.3,1277.6 1055.5,1277.8 1054.6,1278 1053.7,1278.2 1052.8,1278.2 1051.9,1278.1 1051,1278.1 1050.1,1278 1049.2,1277.8 1048.3,1277.7 1047.5,1277.4 1046.6,1277.1 1046,1276.5 1045.4,1275.8 1044.9,1275.1 1044.6,1274.2 1044.4,1273.3 1044.4,1272.4 1044.2,1271.5 1044.3,1270.6 1044.2,1269.7 1044.3,1268.8 1044.4,1267.9 1044.7,1267.1 1044.7,1266.2 1045.2,1265.3 1045.4,1264.5 1045.8,1263.7 1046.1,1262.8 1046.6,1262.1 1047,1261.2 1047.6,1260.6 1048.1,1259.9 1048.7,1259.2 1049.2,1258.4 1050,1257.9 1050.8,1257.3 "></polygon> <polygon class="st4" points="783.9,1246.3 784.8,1246.4 785.6,1246.4 786.5,1246.7 787.3,1246.8 788.2,1246.9 789,1247.2 789.8,1247.6 790.6,1247.9 791.4,1248.3 792.1,1248.8 792.8,1249.3 793.5,1249.8 794.2,1250.3 794.8,1251 795.1,1251.8 795.4,1252.6 795.7,1253.4 795.9,1254.3 796,1255.2 796.1,1256 795.9,1256.9 795.7,1257.8 795.4,1258.6 795,1259.4 794.6,1260.2 794.2,1261 793.8,1261.8 793.2,1262.5 792.7,1263.3 792.1,1263.9 791.5,1264.6 790.9,1265.2 790.2,1265.8 789.3,1266.1 788.5,1266.6 787.7,1266.8 786.8,1266.8 785.9,1267 785,1267.1 784.1,1267.1 783.2,1267 782.3,1266.9 781.4,1266.7 780.5,1266.7 779.7,1266.3 778.9,1265.8 778.1,1265.4 777.5,1264.7 777.1,1263.9 776.8,1263.1 776.6,1262.2 776.5,1261.3 776.5,1260.4 776.5,1259.5 776.5,1258.6 776.5,1257.7 776.7,1256.8 776.9,1256 777,1255.1 777.3,1254.2 777.6,1253.4 777.9,1252.5 778.3,1251.7 778.9,1251 779.2,1250.1 779.8,1249.5 780.3,1248.7 780.9,1248.1 781.4,1247.3 782.2,1246.7 783,1246.2 "></polygon> <polygon class="st4" points="635.8,999.5 636.6,999.6 637.5,999.8 638.3,999.9 639.2,1000 640,1000.2 640.8,1000.6 641.7,1000.9 642.5,1001.2 643.2,1001.6 644,1002 644.7,1002.5 645.4,1003 646.1,1003.5 646.6,1004.2 647,1005.1 647.3,1005.9 647.7,1006.7 647.7,1007.6 647.8,1008.4 647.9,1009.3 647.9,1010.2 647.6,1011 647.2,1011.8 646.8,1012.6 646.5,1013.5 646.1,1014.3 645.7,1015.1 645.2,1015.9 644.6,1016.5 644.1,1017.3 643.5,1017.9 642.8,1018.5 642,1019 641.2,1019.4 640.4,1019.8 639.5,1019.9 638.7,1020.1 637.8,1020.2 636.9,1020.3 636,1020.3 635.1,1020.3 634.2,1020 633.3,1020.1 632.4,1019.9 631.6,1019.5 630.8,1019.1 630,1018.7 629.4,1018 629,1017.2 628.7,1016.3 628.5,1015.5 628.3,1014.6 628.3,1013.7 628.4,1012.8 628.4,1011.9 628.4,1011 628.6,1010.1 628.7,1009.2 628.9,1008.3 629.1,1007.5 629.5,1006.7 629.9,1005.8 630.2,1005 630.6,1004.2 631.1,1003.5 631.7,1002.8 632.2,1002 632.8,1001.3 633.3,1000.6 634,1000 634.8,999.5 "></polygon> <polygon class="st4" points="612,767.6 612.9,767.8 613.7,767.9 614.6,767.9 615.5,768.1 616.3,768.4 617.1,768.7 617.9,769 618.7,769.3 619.5,769.6 620.2,770.1 620.9,770.7 621.6,771.2 622.2,771.7 622.7,772.4 623.2,773.2 623.5,774 623.8,774.8 624.1,775.7 624.2,776.5 624.1,777.4 624,778.3 623.8,779.1 623.4,779.9 623,780.7 622.7,781.6 622.4,782.4 621.9,783.2 621.3,783.9 620.8,784.6 620.3,785.4 619.7,786 619,786.6 618.3,787.2 617.5,787.5 616.6,787.9 615.8,788.2 614.9,788.3 614,788.5 613.1,788.4 612.2,788.5 611.3,788.3 610.4,788.2 609.5,788 608.7,787.9 607.8,787.7 607,787.3 606.3,786.7 605.6,786.2 605.1,785.3 605,784.4 604.8,783.6 604.6,782.7 604.6,781.8 604.5,780.9 604.6,780 604.7,779.1 604.7,778.2 604.9,777.3 605.2,776.5 605.4,775.6 605.7,774.7 606.1,773.9 606.4,773.1 606.9,772.3 607.3,771.5 607.9,770.9 608.5,770.1 609,769.4 609.5,768.7 610.3,768.1 611.1,767.8 "></polygon> <polygon class="st5" points="1253.7,1195.4 1253.8,1194.4 1253.8,1193.4 1254.1,1192.5 1254.1,1191.5 1254.4,1190.7 1254.5,1189.8 1255,1189.1 1255.7,1188.5 1256.4,1188.1 1257.3,1187.6 1258.1,1187.1 1258.8,1186.5 1259.4,1185.8 1260.2,1185.2 1261,1184.8 1261.8,1184.3 1262.7,1184 1263.5,1183.8 1264.3,1183.5 1265.1,1183.5 1265.9,1183.8 1266.7,1183.9 1267.5,1184.2 1268.3,1184.6 1269,1185.1 1269.5,1185.8 1270,1186.5 1270.6,1187.2 1271,1188 1271.2,1188.8 1271.6,1189.7 1271.9,1190.5 1271.9,1191.4 1272.1,1192.3 1272.2,1193.1 1272.3,1194 1272.2,1194.9 1271.8,1195.7 1271.4,1196.5 1271,1197.3 1270.6,1198.1 1270.1,1198.8 1269.7,1199.6 1269.1,1200.3 1268.7,1201.1 1268.2,1201.9 1267.6,1202.6 1267,1203.3 1266.3,1203.9 1265.6,1204.6 1264.8,1205 1263.9,1205.4 1263,1205.7 1262.1,1205.9 1261.2,1205.9 1260.3,1205.9 1259.4,1205.5 1258.4,1205.4 1257.6,1205 1257,1204.3 1256.4,1203.7 1255.8,1203.1 1255.3,1202.3 1254.9,1201.5 1254.5,1200.7 1254.2,1199.9 1253.9,1199 1253.8,1198.1 1253.8,1197.2 1253.7,1196.3 "></polygon> <polygon class="st5" points="1283.1,670.9 1283.2,671.8 1283.2,672.8 1283.1,673.7 1282.7,674.6 1282.6,675.5 1282.4,676.4 1282.1,677.3 1281.8,678.2 1281.5,679 1281.1,679.8 1280.6,680.5 1280.1,681.2 1279.3,681.7 1278.5,682.1 1277.7,682.5 1276.8,682.5 1275.9,682.8 1275,682.8 1274.1,682.9 1273.2,682.8 1272.4,682.5 1271.5,682.2 1270.7,681.8 1270,681.2 1269.3,680.7 1268.6,680.2 1268.1,679.4 1267.7,678.6 1267.3,677.8 1267,677 1266.7,676.2 1266.3,675.3 1266.2,674.4 1266.3,673.5 1266.2,672.6 1266.2,671.8 1266.2,670.9 1266.2,670 1266.4,669.1 1266.5,668.2 1266.6,667.3 1266.8,666.5 1267.3,665.7 1267.7,664.9 1268.1,664.2 1268.8,663.6 1269.5,663.1 1270.3,662.5 1271,662 1271.9,661.7 1272.8,661.6 1273.8,661.5 1274.7,661.5 1275.6,661.6 1276.5,661.8 1277.4,662 1278.2,662.4 1279.1,662.7 1279.9,663.1 1280.6,663.6 1281.3,664.2 1281.7,665 1282.2,665.7 1282.4,666.6 1282.7,667.4 1282.8,668.3 1282.9,669.2 1283.1,670 "></polygon> <path class="st6" d="M1262.8,1106.8c0.3,6.3-2.4,9.9-6.1,12.6c-4.1,3-9.7,0-11.2-5.1c-1.7-5.4,2.1-11.8,7.6-13.9 c2.9-1.1,7.4,0.6,9.2,3.3C1262.8,1104.6,1263,1105.7,1262.8,1106.8z"></path> <polygon class="st5" points="1016.6,1229 1016.6,1230 1016.6,1230.9 1016.5,1231.9 1015.9,1232.8 1015.6,1233.6 1015.1,1234.5 1014.7,1235.3 1014.1,1236 1013.6,1236.7 1013,1237.3 1012.5,1238 1011.8,1238.6 1011.1,1239.2 1010.5,1239.7 1009.8,1240.3 1009,1240.9 1008.1,1241.2 1007.2,1241.4 1006.3,1241.5 1005.3,1241.4 1004.5,1240.9 1003.7,1240.6 1003.1,1240 1002.4,1239.4 1001.8,1238.9 1001.2,1238.2 1000.7,1237.5 1000.3,1236.8 999.9,1236 999.5,1235.3 999.3,1234.4 999.3,1233.5 999.1,1232.6 999.1,1231.7 999,1230.8 999.3,1229.9 999.3,1229 999.3,1228 999.4,1227.1 999.5,1226.2 999.6,1225.3 1000.1,1224.5 1000.5,1223.7 1001,1222.9 1001.8,1222.3 1002.5,1221.7 1003,1220.9 1003.7,1220.2 1004.3,1219.6 1005.3,1219.7 1006.2,1219.7 1007.1,1220 1007.9,1220.3 1008.7,1220.7 1009.5,1221.2 1010.2,1221.7 1011,1222.2 1011.8,1222.6 1012.5,1223.1 1013.1,1223.8 1013.8,1224.4 1014.4,1225 1015,1225.7 1015.8,1226.2 1016.3,1227.1 1016.5,1228.1 "></polygon> <path class="st6" d="M1297.1,793.3c-1.9,0.1-3.7-0.6-4.9-2.1c-4.9-5.3-5.3-8.3-1.3-14.3c0.5-0.6,0.9-1.3,1.3-2 c0.7-1.5,2.4-2.3,4-1.6c2.8,1,5.5,2.3,8.1,3.7c1.1,0.7,1.9,1.8,2.2,3.1C1307.7,784.6,1304,794,1297.1,793.3z"></path> <path class="st6" d="M758.3,1137.7c-0.9,0-1.8-0.4-2.5-1.1c-5.2-4.3-4.7-12-2.1-16.7c1.9-3.4,5-3.9,8.5-2.2c3.8,1.8,5.3,5.5,6.8,9.1 c0.9,2.1-1.5,7.4-3.5,8.8C763.2,1136.7,760.8,1137.4,758.3,1137.7z"></path> <path class="st6" d="M1202.7,687.4c-2.5,1.3-5.5,1.6-8.2,0.8c-1-0.5-0.8-1.8-1.6-2.4c-2-1.6-3-4-2.7-6.5c0.2-3.1,0.6-6.2,2.7-8.7 c1.7-2,3.6-3,6.1-2c1.4,0.6,3,0.9,4.3,1.8c3.2,2.2,4,7.1,2.1,11.4C1204.6,683.7,1203.1,685.2,1202.7,687.4z"></path> <polygon class="st5" points="766.1,1211.8 765.2,1211.7 764.3,1211.5 763.4,1211.4 762.5,1211 761.6,1210.8 761,1210.1 760.3,1209.5 759.6,1208.9 759.2,1208.1 758.8,1207.2 758.7,1206.3 758.5,1205.4 758.5,1204.5 758.5,1203.6 758.3,1202.7 758.4,1201.8 758.5,1200.8 758.7,1199.9 758.8,1199 759,1198.2 759.2,1197.2 759.6,1196.3 760.2,1195.6 760.9,1195 761.7,1194.5 762.6,1194.1 763.5,1193.8 764.4,1193.8 765.2,1193.7 766.1,1193.7 767,1193.6 767.8,1193.7 768.7,1193.5 769.5,1193.4 770.4,1193.3 771.3,1193.7 772,1194.3 772.7,1194.8 773.2,1195.5 773.8,1196.3 774.1,1197.1 774.3,1198 774.5,1198.8 774.5,1199.7 774.6,1200.6 774.6,1201.4 774.4,1202.3 774.3,1203.2 774.1,1204 773.8,1204.8 773.5,1205.6 773.2,1206.4 772.8,1207.2 772.5,1208 771.9,1208.7 771.6,1209.5 771,1210.2 770.3,1210.7 769.6,1211.2 768.7,1211.4 767.9,1211.7 767,1211.8 "></polygon> <path class="st6" d="M1192.4,1223.1c-0.8,3.7-3,7.1-6,9.4c-1,0.9-2.7,0.6-4.1,0.1c-4.8-1.9-7.8-8.8-5.9-13.9 c0.4-1.4,1.5-2.5,2.9-2.9c0.9-0.2,1.8-0.6,2.6-1C1187.2,1212.2,1192.4,1217.2,1192.4,1223.1z"></path> <path class="st6" d="M766.1,748.6c0,5.7-2,8.7-5.8,9.9c-2.9,0.9-4.3,0.3-6.3-2.2c-3.3-3.8-3.6-9.4-0.9-13.6c1.6-2.6,2.5-2.8,5.4-2.3 c3.5,0.6,5.3,3.3,7.2,5.8C766.3,746.9,766,748.4,766.1,748.6z"></path> <path class="st6" d="M828,1192.7c2.1,0.1,4.2,0.7,6.1,1.7c5.6,2.8,4.6,9.3,1.9,12.4c-0.6,0.7-1.3,1.4-2.1,2c-2.3,2.2-4.7,2-7.3,0.5 c-2.5-1.3-4-4-3.8-6.8c0.1-2.6,0.8-5.2,2.1-7.5C825.8,1193.5,827,1192.6,828,1192.7z"></path> <path class="st5" d="M2039.7,515c-0.6-18.9-12.7-34.8-27.3-45.7c-16.4-12.2-37.4-20.7-58.2-19c-17.6,1.5-35.1,10.9-43.7,26.7 c-7.8,14.4-6.7,33.6,3.5,46.7c9.8,12.7,27.1,16.7,41.5,9.7c16.2-7.9,20.6-26,13.7-42c-14.6-33.9-57.7-49.6-92.3-44 c-40.1,6.6-72.9,40.6-79.6,80.5c-0.8,4.9,7.2,9.3,8.7,3.5c7.4-28.7,25.7-54.6,53.4-66.8c26.8-11.8,60.1-8.4,83.3,9.7 c10.7,8.3,24.9,24.1,18.2,38.8c-4.9,10.9-20,15.2-30.7,10.8c-12.4-5.1-16.9-20.7-13.9-32.9c3.5-14.4,16.9-24.1,30.6-27.9 c19.1-5.2,39.6,1.7,55.7,12c14.2,9,26.9,22.8,27.8,40.3C2030.8,522,2039.9,522,2039.7,515L2039.7,515z"></path> <path class="st4" d="M427.4,605.5c-16-10.6-36.4-9.2-53.8-2.9c-17,6.2-33.4,16.9-43.3,32.3s-13,35.8-4.8,52.5 c7,14.4,23.2,24.6,39.4,22.8c14.9-1.6,25.9-13.8,27.7-28.5c1.9-15.9-8.9-28.5-24-32.1c-33.8-8-69.7,16.8-85.2,45.4 c-19.8,36.5-11.5,84,17.1,113.5c3,3.1,5.6-2,3.3-4.7c-21-24.2-31-58.4-21.4-89.6c8.6-27.8,32.4-50.6,60.9-57.2 c13.1-3,32.1-3.3,40.5,9.5c7,10.8,1.1,26.4-9,33c-12.5,8.1-29.6,2.7-39-7.7c-11.2-12.5-10.6-31.6-3.8-46.1 c7.7-16.4,23.5-27.8,39.8-34.7c16.9-7.1,37.4-10.1,53.6,0.3C428.8,613.6,430.4,607.5,427.4,605.5L427.4,605.5z"></path> <path class="st2" d="M1437.6,468.1c-14.2-36.3-66.6-47.5-100-34.5c-16.4,6.4-30.7,20.2-35.2,37.6c-4.3,16.9,1.2,35.9,15,46.9 c13.8,11,33.1,10.7,45.9-1.8c13.8-13.5,12.4-33.2,0-47.1c-12-13.5-30.8-20.2-48.3-21.9c-18.1-1.8-36.4,1.8-52.5,10.2 c-36.8,19.5-58,64.1-50.2,105c1.4,7.5,11.8,8,11.1-0.5c-2.5-29.2,6.2-59.7,28.4-79.8c21.9-19.9,54.4-26.8,82.4-16.8 c11.2,4,27.1,13.1,27,26.8c-0.1,12.5-15.1,21.8-26.5,19.8c-12.7-2.2-21.3-15.2-21.4-27.6c0-14.2,10.1-26.8,21.8-33.9 c16.1-9.7,36.9-9.6,54.6-5.2c15,3.7,31.1,11.7,37.4,26.7C1430.2,479.8,1440.7,476,1437.6,468.1L1437.6,468.1z"></path> <path class="st2" d="M1979.7,1321c16.8,10.9,38,9.4,56.1,2.5c17.1-6.5,33.6-17.7,43.7-33.2c10.7-16.6,13.8-38.6,4.8-56.6 c-7.6-15.4-24.8-26.6-42.3-24.8c-16.4,1.7-28.5,14.9-30.5,31c-2.2,17.9,9.9,32.8,27.1,36.6c35,7.8,71.7-17.8,87.4-47.7 c20-37.9,11.4-88.4-19.6-117.9c-2-2-5.3-2.1-7.3-0.1c-0.2,0.2-0.3,0.4-0.5,0.6c-2.1,2.9-0.8,6.5,1.2,8.9 c19.6,23,30.1,54.8,21.7,84.6c-7.8,27.3-30.2,49.8-57.8,56.9c-11.6,3-31.4,4.3-38.3-8.2c-5.2-9.4,0.6-22.3,9.2-27.6 c11.2-6.9,26.4-2.1,34.8,7.1c10.4,11.4,9.4,29.4,3.2,42.5c-7.3,15.3-22.1,26.2-37.3,32.9c-16,7-35.6,10.6-51.3,0.9 C1976.6,1304.9,1973.6,1317,1979.7,1321L1979.7,1321z"></path> <path class="st5" d="M756.5,1402.9c4.4-19.9-5.2-39.4-18-54.1c-12.5-14.2-29.5-26.1-48.4-29.6c-17.1-3.1-36.3,1.1-48.7,13.7 c-12,12.1-15.9,31.7-8.8,47.3c6.5,14.5,22.3,22.6,37.9,19.4c17.6-3.5,26.3-19.9,23.5-37c-5.9-36.4-43.4-61.8-78.1-65.4 c-40.6-4.2-81.5,21-97.7,58.1c-1.9,4.4,5.1,10.9,7.9,5.8c14.3-26,38.7-47.1,68.7-51.9c28.8-4.6,60.3,6.8,78.1,30.3 c8.3,10.9,17.6,29.7,7.1,42.1c-7.4,8.8-22.4,9.6-31.5,3.1c-11.3-8-11.6-24.9-5.4-36.1c7.2-13,22.5-19.2,36.9-19.2 c18-0.1,34.4,9.6,47,21.8c13.1,12.7,23.9,30.3,20.2,49.2C746,1406.7,755.1,1409.7,756.5,1402.9L756.5,1402.9z"></path> <polyline class="st7" points="745.7,435.9 748.8,463.2 766,479 771.5,504.4 799.8,511.1 806.6,535.3 "></polyline> <polyline class="st7" points="2143.2,551.7 2123.4,565.8 2124.9,595.7 2091.7,599.9 2082.1,621.5 2089.6,655.8 "></polyline> <polyline class="st7" points="1612.2,494.1 1625.2,517 1632.1,542.5 1638.9,568 "></polyline> <polyline class="st8" points="1481.7,1260.8 1484.1,1289.8 1512.8,1293.9 1517.8,1320.3 1533.4,1336.8 "></polyline> <polyline class="st8" points="1019.3,1322.9 994.6,1335.2 997.3,1363.2 955,1365.3 961.9,1395.9 "></polyline> <polyline class="st8" points="1038.8,445.2 1023.5,462.9 1035.6,496.5 998.6,501.6 1010.9,535.2 "></polyline> <polyline class="st9" points="583,483.5 576.3,506.1 568.1,527.9 538.1,537.1 534.2,561.4 "></polyline> <polyline class="st7" points="311.2,1265.2 302,1245.8 317.7,1219.7 303.5,1201.6 302.5,1180 "></polyline> <polyline class="st9" points="316.5,915.5 331.7,948.7 303.9,957.1 296.6,977.3 290.4,998.2 "></polyline> <polyline class="st9" points="1740.6,1379.3 1748.7,1359.2 1758,1339.8 1785.9,1333.6 1791.5,1311.6 "></polyline> <polyline class="st9" points="1292.2,1396.9 1257.2,1397.7 1258.7,1369.5 1242.7,1355.2 1225.8,1341.6 "></polyline> <polyline class="st9" points="2177.4,877.3 2142.4,878.2 2143.8,850 2127.9,835.7 2111,822 "></polyline> <path class="st5" d="M232.3,1434.4c0.7,23.3,16.1,42.8,34.3,56c19.6,14.3,44.6,24.2,69.3,22.1c21.4-1.8,42.6-13.2,52.9-32.6 c9.2-17.3,7.7-40.2-4.6-55.7c-12-15.1-32.9-19.6-50-10.7c-19.6,10.1-23.6,32.4-14.6,51.5c18.8,39.8,69.9,58,111.3,51 c48.6-8.1,88-49.4,96.4-97.5c0.9-4.9-7.3-9.3-8.7-3.5c-8.9,35.7-32.2,68-66.5,82.8c-33.6,14.5-75.5,9.7-104.1-13.7 c-13.3-10.9-30.4-31.6-20.2-49.7c7.1-12.7,25.4-17.5,38.4-11.9c15.3,6.6,21.1,25.6,17.7,40.9c-4,18.3-20.8,30.9-38.1,35.7 c-23.4,6.5-48.4-1.7-68.4-14.1c-18-11.3-34.6-28.8-35.6-51C241.3,1427.5,232.1,1427.5,232.3,1434.4L232.3,1434.4z"></path> <path class="st4" d="M2207.3,1322.9c18.9,12.6,42.8,11.2,63.5,4.1c21.1-7.2,41.5-20.4,54.1-39.1c12.4-18.5,16.5-43.5,6.6-64 c-8.5-17.6-28.3-30.2-48.2-27.8c-18.1,2.2-31.5,17.5-33.1,35.5c-1.7,20.1,13.3,34.7,32.4,37.9c41.3,6.8,82.9-22.6,101.3-57.9 c23-44.1,12.3-100.8-21.7-136.2c-2.9-3.1-5.6,2-3.3,4.7c26.1,29.6,38.3,72,26.6,110.4c-10.5,34.3-39.7,62.5-74.7,70.7 c-16.7,3.9-41.6,4.2-51.4-13c-7.9-13.9-0.4-33.2,12.7-41c15.7-9.4,36.6-2.5,48,10.4c13.9,15.7,13,39.5,4.5,57.5 c-9.7,20.5-29.9,34.8-50.4,43.2s-45.3,11.6-64.8-1.1C2205.9,1314.8,2204.3,1320.9,2207.3,1322.9L2207.3,1322.9z"></path> <path class="st2" d="M970.3,1491.5c8,20.5,26.3,33.5,46.5,40.6c22.6,8,49.1,9.5,71.9,1.6c20.4-7.1,38.4-23.6,44.4-44.7 c5.7-20.1-0.5-43.2-16.9-56.6c-16.2-13.2-39.1-13.2-54.5,1.3c-16.7,15.8-15.3,39.2-0.6,55.8c14.6,16.5,37.5,24.5,58.9,26.5 c22.1,2,44.4-2.5,64-12.9c44.2-23.8,69.2-77.5,60.2-126.8c-1.4-7.5-11.9-7.9-11.1,0.5c3.6,36.9-8.1,75.5-36.5,100.4 c-27.8,24.4-69.7,32.6-104.1,18.3c-14-5.8-33.9-18.8-30.6-36.7c2.9-15.3,21.2-25.5,35.9-21.7c15.4,4,25.6,20.4,25.2,35.9 c-0.4,17.8-13,33.5-27.8,42.2c-20.4,11.9-46.3,11.6-68.6,5.8c-18.5-4.8-38-15-45.7-33.5C977.8,1479.8,967.3,1483.6,970.3,1491.5 L970.3,1491.5z"></path> <path class="st2" d="M304.4,448.1c-20.1-13.1-45.6-11.2-67.2-3.1c-21.2,7.9-41.6,21.7-53.9,41c-12.6,19.8-16.1,46.2-5.3,67.6 c9.3,18.4,30.5,31.7,51.5,28.8c19.5-2.6,33.9-19.2,35.2-38.6c1.5-21.9-14.5-38.4-35.6-41.6c-42.7-6.5-84.8,24-103.4,60.6 c-23.1,45.5-11.7,105.2,24.6,140.5c2,2,5.2,2.1,7.3,0.1c0.2-0.2,0.3-0.4,0.5-0.6c2.1-2.8,0.8-6.5-1.2-8.9 c-24.7-28.4-37.6-68.2-27.2-105.3c9.6-34.1,37.7-62.2,72.2-70.8c14.9-3.7,38.3-4.9,47.6,10.2c7.4,12,0.6,28.7-10.3,36.2 c-13.9,9.6-33.5,3.6-44.4-7.6c-13.5-13.8-13.1-36-5.9-52.8c8.6-20.2,27.8-34.5,47.4-43c19.9-8.8,44.4-13,63.9-1 C307.4,464.3,310.4,452.1,304.4,448.1L304.4,448.1z"></path> <path class="st5" d="M1804.8,346.7c-5.3,23.7,6.1,47.1,21.3,64.7c15.1,17.4,35.6,31.8,58.5,36.2c21.1,4,44.7-1.2,59.9-17 c14.1-14.7,18.6-38.2,9.7-56.7c-8.3-17.3-27.1-26.2-45.8-22.1c-21.4,4.6-30.8,25.5-26.7,45.9c8.8,43.4,53.5,73.1,95.4,77 c49,4.6,97.7-26.1,117.5-70.6c2-4.4-5.1-10.9-7.9-5.8c-17.6,32.8-48.7,58.8-86.2,64.3c-35.8,5.2-74.4-9.6-96.1-38.9 c-10.3-13.9-21.3-37.6-7.6-52.9c9.7-10.8,28.7-11.5,40.1-3c13.8,10.2,14.3,31.1,6.8,45.1c-8.7,16.5-28.1,24.5-46,24.6 c-22.7,0.2-43.5-12.1-59.2-27.5c-16.1-15.8-29.3-37.8-24.6-61C1815.4,342.9,1806.3,339.9,1804.8,346.7L1804.8,346.7z"></path> <polyline class="st7" points="1817,1531.5 1816.2,1501.6 1798.1,1485.9 1794.4,1458.4 1762.7,1453.9 1757.3,1427.8 1757.3,1397.3 "></polyline> <polyline class="st7" points="104.5,1389.5 126,1376.1 121.3,1343.2 159.1,1341.9 168.1,1319.2 156.2,1281 185.6,1273.4 "></polyline> <polyline class="st7" points="755.2,1460 742.3,1439.4 737.1,1415.6 731.8,1391.7 733.6,1364.9 "></polyline> <polyline class="st8" points="915,520.6 916,489.1 884.7,488.1 882.3,459.7 867,443.5 833,445.1 "></polyline> <polyline class="st8" points="1481.7,444.5 1509.1,434.3 1503.1,404.8 1552.1,407.1 1540.8,374.5 1575.3,368.5 "></polyline> <polyline class="st8" points="1457.9,1519.9 1473.8,1503.2 1456.2,1467 1498.7,1465.5 1480.8,1429.2 1507.6,1418.6 "></polyline> <polyline class="st9" points="2016.3,1473.1 2021.8,1450.3 2029,1428.5 2063,1422.1 2064.9,1397.1 2080.8,1380.3 "></polyline> <polyline class="st7" points="2349.5,515.1 2360.8,538.9 2341.4,570.9 2358.8,593.1 2360.1,619.6 "></polyline> <polyline class="st9" points="2342.9,943.7 2324.3,903 2358.4,892.7 2367.4,867.9 2375,842.4 "></polyline> <polyline class="st9" points="597.8,375.3 587.9,400 576.6,423.7 542.3,431.4 535.5,458.3 "></polyline> <polyline class="st9" points="1147.3,353.8 1190.2,352.8 1188.4,387.3 1208,404.9 1228.7,421.6 "></polyline> <polyline class="st9" points="62.5,990.5 105.5,989.4 103.7,1024 123.3,1041.5 143.9,1058.2 "></polyline> </svg> 