<?xml version="1.0" encoding="UTF-8"?> <!-- Generator: Adobe Illustrator 25.0.1, SVG Export Plug-In . SVG Version: 6.00 Build 0) --> <svg xmlns="http://www.w3.org/2000/svg" xmlns:xlink="http://www.w3.org/1999/xlink" version="1.1" id="Layer_1" x="0px" y="0px" viewBox="0 0 2427.9 1905.9" style="enable-background:new 0 0 2427.9 1905.9;" xml:space="preserve"> <style type="text/css"> .st0{fill:#EE8019;} .st1{fill:#1D1D1B;} .st2{fill:#F0BC00;} .st3{fill:#0154D5;} .st4{fill:none;stroke:#E9E7C4;stroke-width:10;stroke-miterlimit:10;} </style> <path class="st0" d="M326.9,6.5c0,0-324.8,0.5-324.3,324.4l1.9,1248c0,0,0.5,323.8,325.3,323.3l1771.1-2.8 c0,0,324.8-0.5,324.3-324.4l-1.9-1248c0,0-0.5-323.8-325.3-323.3L326.9,6.5z"></path> <path class="st1" d="M278.6,742.5c0,0,124.4-88.4,242.9-82.8S672.8,751,678.1,787.4s-11.5,108-127.4,206.2s-132,103.9-132,103.9 l258.7,25.3l-2.7,143.2l-487.7-5.6l13.5-171.2c0,0,277.5-202.1,309.9-233c34.7-33.1,5.4-81.4-48.5-50.5L375.6,859L278.6,742.5z"></path> <polygon class="st1" points="1976.5,819.4 1789.7,795.5 1790.6,652.3 2142.5,655.3 2134,826.6 "></polygon> <polygon class="st1" points="2123.3,1018.6 2094.3,1287.5 1957,1282.1 1971.3,774.2 2135.4,791.4 "></polygon> <polygon class="st1" points="2045.6,1051.3 1858.8,1027.4 1859.8,884.3 2211,887.6 2203.1,1034 "></polygon> <polygon class="st1" points="1701.3,1013.6 1672.3,1282.6 1535,1277.1 1549.3,660.5 1718.3,655.6 "></polygon> <polyline class="st1" points="1554.5,814.4 1548,813.6 1367.7,790.5 1368.6,647.4 1718.8,653 1710.4,828.3 "></polyline> <path class="st1" d="M1070.4,636.2c0,0-239.1,6.3-242.2,340.6s236.1,305.9,236.1,305.9s187.7,19.7,196.8-334.3 C1261.2,948.4,1279.3,647.2,1070.4,636.2z M1061,1112.5c-109,2.9-75.9-179-73.2-221.4c1.9-29.3,20.5-65.1,46.5-73.9 c31.8-10.7,68.1-6,86.2,34.2C1145.6,907.1,1151.8,1110.1,1061,1112.5z"></path> <path class="st2" d="M926.1,672.1c0,0-1.5-34.3,63.8-33.8C989.9,638.3,968.3,691.2,926.1,672.1z"></path> <path class="st2" d="M898.4,699.9c0,0,15.4-30.4,71.5,4.5C969.9,704.4,925.6,738.6,898.4,699.9z"></path> <path class="st2" d="M849,734.4c0,0,15.4-30.4,71.5,4.5C920.5,738.9,876.2,773.1,849,734.4z"></path> <path class="st2" d="M805.4,787.6c0,0,8.5-33.2,70.6-12.2C876,775.4,840.2,819,805.4,787.6z"></path> <path class="st2" d="M774.4,852.9c0,0-1.8-39.3,68.2-40.8C842.7,812.1,819.8,873.4,774.4,852.9z"></path> <path class="st2" d="M756.5,926.7c0,0-12.3-40.8,61-62.5C817.5,864.3,809.7,935.3,756.5,926.7z"></path> <path class="st2" d="M753.3,993.5c0,0-17-39,53.2-69.8C806.6,923.7,807.1,995.2,753.3,993.5z"></path> <path class="st2" d="M768.1,1066.2c0,0-26.4-36.6,37-85C805.2,981.2,822.7,1055.4,768.1,1066.2z"></path> <path class="st2" d="M796.8,1125.9c0,0-32.2-31.1,22.1-90.4C818.8,1035.4,848.7,1105.2,796.8,1125.9z"></path> <path class="st2" d="M844.4,1188.9c0,0-42.7-24.8-2.7-100.7C841.7,1088.2,892.9,1154.3,844.4,1188.9z"></path> <path class="st2" d="M905.7,1239.4c0,0-46.1-16.8-19.2-98.7C886.4,1140.7,947.8,1196.6,905.7,1239.4z"></path> <path class="st2" d="M978.3,1270.8c0,0-48.4-6.7-38.2-92.6C940.1,1178.2,1011.2,1219.9,978.3,1270.8z"></path> <path class="st2" d="M886.6,687.8c0,0-20.4-27,33.1-66.1C919.7,621.7,931.6,677.8,886.6,687.8z"></path> <path class="st2" d="M839.5,730.1c0,0-25.3-22.1,19.4-71.8C858.9,658.3,881.6,710.6,839.5,730.1z"></path> <path class="st2" d="M795.7,777.2c0,0-27.5-19,11.4-73.6C807.1,703.6,835.3,752.9,795.7,777.2z"></path> <path class="st2" d="M762,847.3c0,0-35.6-12.4-7.2-85.3C754.8,762,799.3,807.9,762,847.3z"></path> <path class="st2" d="M742.7,922c0,0-39.3-3.4-27.6-85.8C715.1,836.1,771.5,871.6,742.7,922z"></path> <path class="st2" d="M743,998.3c0,0-38.3,9.9-52.6-72.1C690.4,926.2,754.8,941,743,998.3z"></path> <path class="st2" d="M752.3,1071.4c0,0-36.8,14.7-60.7-64.8C691.6,1006.7,757.2,1013,752.3,1071.4z"></path> <path class="st2" d="M784.5,1137.9c0,0-32.4,23.4-73.8-47.8C710.7,1090.1,775.9,1079.9,784.5,1137.9z"></path> <path class="st2" d="M835.1,1199.6c0,0-28,35.7-94.4-29.5C740.7,1170.1,808.3,1138.9,835.1,1199.6z"></path> <path class="st2" d="M898.6,1256.9c0,0-24.2,38.6-96.9-19C801.7,1237.9,865.7,1199.4,898.6,1256.9z"></path> <path class="st2" d="M980.6,1291.2c0,0-14.2,43.6-98.3,6.8C882.3,1297.9,935,1244,980.6,1291.2z"></path> <path class="st2" d="M1146.2,670.4c0,0-0.2-34.4-65.4-30.2C1080.7,640.2,1105,691.8,1146.2,670.4z"></path> <path class="st2" d="M1175.2,696.6c0,0-16.9-29.5-71.1,8.5C1104.1,705.1,1150.1,736.8,1175.2,696.6z"></path> <path class="st2" d="M1226.3,728.4c0,0-16.9-29.5-71.1,8.5C1155.2,736.8,1201.2,768.5,1226.3,728.4z"></path> <path class="st2" d="M1272.6,779.1c0,0-10.2-32.7-71.1-8.3C1201.4,770.8,1239.4,812.4,1272.6,779.1z"></path> <path class="st2" d="M1306.8,842.6c0,0-0.2-39.3-70.2-37C1236.6,805.6,1262.5,865.5,1306.8,842.6z"></path> <path class="st2" d="M1328.5,915.3c0,0,10.2-41.5-64.1-59C1264.4,856.3,1275.9,926.8,1328.5,915.3z"></path> <path class="st2" d="M1335.1,981.8c0,0,15-39.8-56.7-66.8C1278.4,915,1281.5,986.4,1335.1,981.8z"></path> <path class="st2" d="M1324,1055.2c0,0,24.5-38-41.3-82.8C1282.7,972.4,1268.9,1047.5,1324,1055.2z"></path> <path class="st2" d="M1298.4,1116.4c0,0,30.6-32.9-26.6-89.1C1271.8,1027.3,1245.5,1098.7,1298.4,1116.4z"></path> <path class="st2" d="M1254.1,1182c0,0,41.3-27.1-2.4-100.7C1251.7,1081.3,1203.8,1150.1,1254.1,1182z"></path> <path class="st2" d="M1195.5,1235.8c0,0,45.2-19.3,14.2-99.7C1209.6,1136.1,1151.2,1195.4,1195.5,1235.8z"></path> <path class="st2" d="M1124.5,1271.1c0,0,48-9.3,33.4-94.6C1157.9,1176.6,1089.1,1222.2,1124.5,1271.1z"></path> <path class="st2" d="M1186.4,683.9c0,0,18.9-28.1-36.4-64.2C1150,619.7,1141,676.4,1186.4,683.9z"></path> <path class="st2" d="M1235.6,723.5c0,0,24.1-23.5-23-70.6C1212.6,652.9,1192.6,706.4,1235.6,723.5z"></path> <path class="st2" d="M1281.8,768.2c0,0,26.5-20.5-15.1-72.9C1266.6,695.3,1240.9,746.1,1281.8,768.2z"></path> <path class="st2" d="M1319,836.3c0,0,34.8-14.4,2.8-85.6C1321.8,750.7,1279.8,799,1319,836.3z"></path> <path class="st2" d="M1342,909.8c0,0,39.1-5.6,23.2-87.2C1365.2,822.5,1310.7,861.1,1342,909.8z"></path> <path class="st2" d="M1345.6,986c0,0,38.8,7.8,48.9-74.9C1394.5,911.2,1330.9,929.5,1345.6,986z"></path> <path class="st2" d="M1340,1059.6c0,0,37.5,12.7,57.4-68C1397.4,991.6,1332.1,1001.5,1340,1059.6z"></path> <path class="st2" d="M1311.3,1127.7c0,0,33.6,21.6,71.2-51.8C1382.6,1075.9,1316.9,1069.4,1311.3,1127.7z"></path> <path class="st2" d="M1263.9,1192.2c0,0,29.8,34.1,92.8-34.7C1356.6,1157.5,1287.6,1130,1263.9,1192.2z"></path> <path class="st2" d="M1203.4,1252.8c0,0,26.2,37.2,95.8-24.3C1299.2,1228.6,1233.3,1193.7,1203.4,1252.8z"></path> <path class="st2" d="M1123.2,1291.6c0,0,16.4,42.8,98.6,1.3C1221.8,1292.9,1166.3,1242,1123.2,1291.6z"></path> <path class="st3" d="M1748.4,378.4c2.7,5.3,2.9,5.8,0.7,1.3c-0.8-2.1-2-3.9-3.6-5.4c-2.2-2.6-4.7-4.9-7.6-6.7 c-2.8-1.6-5.7-2.8-8.9-3.4c-7.9-1.7-16,0.4-22.1,5.6c-1.7,1.5-3.2,3.1-4.5,4.9c-1.8,2.4-3,5.3-3.4,8.2c-1,4.4-0.9,4,0.2-1.3 c-0.9,1.7-1.3,4.9-1.6,6.8c0,7.2,0,8.6,0.1,4.1c0-3.4,0-3.1,0.1,0.9c-0.2,3.3,0.4,6.7,1.7,9.8l-1.2-4.9c1.6,6.4,1.1,5.8,3.5,10.4 c3,5.9,6.7,9.7,12.3,13.6l-9.1-8.6c5.3,8.1,14,13.4,23.6,14.3c2.4,0.2,4.9,0.2,7.3-0.1c2.6-0.2,5-0.8,7.4-1.8 c1.7-0.7,11.1-5.8,2.4-1c2.2-1.1,4.2-2.2,6.2-3.6c1.8-1,3.4-2.6,4.4-4.5c-3.3,3.8-3.5,4.1-0.6,1c4-4.2,2-2.1-0.2,0.1 c1.9-1.7,3.5-3.6,5.1-5.6c1-1.6,6.7-10.9,1.3-2.3c1.4-2.2,2.5-4.5,3.4-6.9c0.9-2.5,2.6-10.7,1.3-4.7c-0.9,4.2-0.6,2.9,0.9-3.9 c0.1-1.4,0.1-2.8,0-4.1c0-4.8,0-4.3-0.1,1.5l-0.1-6.5c-0.4-2.8-1-5.7-1.9-8.4c-1-2.9-2-4.3-3.7-7.8c2.5,5,4.7,6.7-1.1-1.9 c-4.8-7.2-12.4-13-20.8-15c-17.6-4.3-34,10-35.7,27.3l4.1-11.3c-2.4,4.5-4.2,7.9-4.6,13.1l4.1-11.3c-1.2,2-2.2,4-3.2,6.1 c-1.1,2.9-2,20.6-0.8,7.6c1-11.1-1,0.5-1.2,3.8c-0.7,12.3,6.2,27.5,19.5,30.1c11.1,2.3,21.9-4.7,24.3-15.8c0.2-1.1,0.4-2.1,0.4-3.2 c0-0.6,0.1-1.2,0.2-1.8c-1.3,5.3-1.4,5.7-0.4,1.2c0.8-3.7,1-7.6,0.7-11.4l-4,17.8c2.4-4.5,4.2-7.9,4.6-13.1l-4.1,11.3 c2-3.8,3.6-7.9,4.6-12.1c-0.3,2.8-1.2,5.6-2.7,8l0.4-0.8c2.2-3-4.2,3.9-1.5,1.6s-5.2,2.5-1.9,1.3c-8,2.9-11.8-0.6-7.2,0.8 c-2.8-0.7-5.4-2.2-7.4-4.2l0.7,0.5c3.2,3.1,1.4,0.4-5.2-8.2l3.1,6.1c-1.9-2.9-3.1-6.1-3.7-9.4c0-5.8,0.1-6.3,0.1-1.5 c-0.1,6.5,0.3,4.3,1.2-6.6c-1.5,6.8-1.8,8.1-1,3.9c0.6-3,4.2-9.3,0.7-2.4c-2,3.9-1.8,3.5,0.5-1.1c-1,1.2-0.7,1,0.9-0.7 c5.4-5.7-6.4,7.4-1.8,1.9c2.6-3,1.7-2.1-2.7,2.7c0.9-1.9,2.4-3.3,4.4-4.1c3.5-1.9,2.4-1.3-3.3,1.9c3.6-2.1,4.7-2.8,3.1-2 c-2.2,0.8,6.5-0.6,2.3-0.4c-2.7,0.3-5.3,0.7-7.9,1.4l11.4-0.5c-5.1-0.7,4.2,2.5,1.3,0.8c8.4,8.6,9.4,9.2,3,1.9 c-1.8-1.5-3.7-2.9-5.7-4.1l9.1,8.6c-2.4-3.8-1.3-0.7,3.3,9.4c-0.3-2.5-1-5-2-7.4l1.7,13c0-3.9,0.5-13.1-0.6-2.4 c-1.1,11.4,0.7,0.4,1-2l-4.1,11.2c-1.5,2.2-3.7,3.8-6.2,4.6c0.4-0.3,0.8-0.4,1.3-0.5c3.2-0.8,0.5-0.6-8.2,0.5 c3.8,1.1,1.4-0.3-7.1-4.2l-7.2-10.9c1,2.7,2.3,5.2,3.9,7.6c6.5,9.3,20.8,15.9,30.7,7.3S1755.4,388.9,1748.4,378.4L1748.4,378.4z"></path> <path class="st3" d="M2275.9,766.7c-4.4-9.8-10.8-17.3-21.4-20.1c-7.2-1.9-16.7-0.2-22.3,4.9c-7.1,6.6-11.6,16.7-9.9,26.6l1.6,6.6 c-1.5-5.9-1.6-6.5-0.4-1.6c0.4,1.7,0.9,3.3,1.4,4.9c1.9,5,4.8,9.5,8.6,13.2c2.3,2.3,4.9,4.2,7.9,5.6l5.5,2.2l-3.9-1.4 c2.5,1.6,5.4,2.5,8.4,2.5c4.2,0.4,3.8,0.4-1.1,0c6,1.1,12.3,0.5,18-1.7c0.7-0.3,1.3-0.7,2-1c5.7-3.2,6.8-3.8,3.3-1.9 c-2.6,1.5-2.4,1.3,0.8-0.5c3.1-1.8,4.8-3.6,7.3-6.1c-6.6,6.8-0.8,1.1-0.1,0.2c2.9-3.1,2.6-2.8-0.9,0.7l4-4.2c-4.1,3-3.4,4.8,1.3-1.8 c2.9-4.2,4.7-9.1,5.2-14.2L2287,791c3.8-7.1,5.8-14,5-22.2c-0.3-3.2-0.9-6.3-2-9.3c-3.9-7.6-4.1-8.1-0.8-1.6l-0.4-0.8 c-1.5-3.7-4.9-10-8.1-12.6c-1.7-1.8-0.9-0.8,2.3,3c-2.3-3.6-5.5-6.5-9.2-8.6c-1-0.6-2.1-1.2-3.1-1.7c-3.4-2-7.3-2.9-11.3-2.8 c5,0.4,5.4,0.3,1.1-0.1c-4.7-0.5-9.4,0.2-13.8,2c-2.7,1.1-5.1,2.7-7.1,4.7c-4.9,5.2-5.3,5.6-1.2,1.4c-1.7,1.2-3.2,2.8-4.2,4.6 c-1.6,2.2-2.9,4.7-3.9,7.3c-1.6,7.5-1.8,8.1-0.5,1.7c-1.6,7.5-1.8,8.1-0.6,1.7c-1.7,7.5-1.8,8.1-0.4,1.8c-1.7,7.4-1.9,8-0.3,1.8 c-0.9,2.8-1.5,5.8-1.6,8.8c-0.4,12.3,6,27.4,19.5,30.1c12,2.4,24.3-6.1,24.7-19c0.1-2,0.7-5.2-0.9,2.5l1.4-6 c-1.3,5.3-1.5,5.7-0.4,1.2c1-4.4,1-4-0.1,1.3l1.4-6c-1.1,5.3-1.1,5.8-0.1,1.3c1.5-6,0.7-4.1-2.4,5.8l-2.9,2.8 c4.4-4.7,5.3-5.6,2.6-2.8c-1.6,1.6-1.9,1.9-0.7,0.9l-3.6,1.9c3-1.2-5.4,0.2-2.3,0.3l-4-0.3c2.2,0.3,4.4,0.5,6.7,0.7l-11.3-2.8 c1.1,0.5,2.1,1.1,3.1,1.7l-9.2-8.6c1.5,1.9,3.1,3.8,4.8,5.7c1.9,1.6,1.1,0.6-2.5-3c-2.3-4.8-3-6.1-2-3.7c1,2.4,2.2,4.7,3.6,6.9 l-4.8-12.8c1,5.4,0.5-5.8,0-2.1c4.1-9.5,4.7-11.6,2-6.1c-1.6,2.6-2.6,5.6-2.8,8.7c0.4-4.5,2.6-8.7,6.1-11.5 c-4.5,4.7-5.3,5.6-2.5,2.8c2.8-2.8,2-1.8-2.5,2.8c3.2-2.9,3.9-3.7,2.1-2.3c-6.2,6.2-5.2,5.8,3-1.2l-5.1,2.9c5.3-2.9,4.8-2.6-1.5,0.9 c3.8-2.1,4.7-2.7,2.7-1.7l4-0.8c-2.2,0.3-4.4,0.8-6.6,1.3c2.6-0.9,5.3-1.1,7.9-0.5c-2.2-0.5-4.4-0.7-6.7-0.6l11.2,2.8 c-2.2-1.3-9.8-4.1-4.3-1.9c3.5,1.4,6.4,3.9,8.4,7.1c-0.1-0.1,2.9,6.8,1.8,3.7c1.5,6,1.6,6.5,0.4,1.6c-0.2-1.4-0.6-2.8-1.1-4.1 l1.7,13c0.1-0.9,0.3-1.8,0.4-2.7l-4.1,11.2c3.8-5.5-9.8,5-5,3.5c-2.5,0.9-5.2,1-7.7,0.2c3.7,1.3,1.3,0-7.1-4.1l-7.2-10.9 c0.3,0.5,0.5,1.1,0.8,1.7c4.9,10.3,16.2,21.5,28.8,16.1C2276.1,792.8,2281,778.1,2275.9,766.7L2275.9,766.7z"></path> <path class="st3" d="M1751.1,1241.2c-0.9-2.7-2.1-5.3-3.7-7.7c-1.6-2.7-3.9-5-6.6-6.7c-3.6-2.6-3.3-2.4,1,0.7 c-5.1-4.1-11.3-6.5-17.7-7c8.8,1,0.3-0.3-2.8-0.1c-6.3,1.2-7.5,1.5-3.7,0.8s2.6-0.4-3.7,0.8c-4.6,1.9-8.5,5.1-11.3,9.1 c-2.8,4-3.2,7.1-4.4,11.5c2.6-10.2-0.4,0.5-0.6,2.6c-0.6,6.4,0.6,12.9,3.4,18.7c2.3,4.5,2,4-0.8-1.4l3.1,6c0.4,0.8,0.9,1.5,1.4,2.3 c4.3,6.3,9.7,9.6,16.7,12.3l-10.4-5.8c6,5.5,15.2,9,23.4,7.8c4.9-0.5,9.6-2.2,13.8-4.8c-9.8,5.4,2.7-1.3,2.4-1.2 c1.4-1,4.4-3.3-2.2,0.8l5.1-2.9c4.9-5.2,5.3-5.6,1.2-1.3c2.2-2.6,4.4-4.4,6-7.5c4.3-8.3-2.5,3.7,0.1,0.4c1.5-2.1,2.7-4.4,3.7-6.8 c1-2.5,1.7-5,2.1-7.7c-1.8,10.5,0.2-0.7,0.5-2.6l0.1-0.9c-0.2-8.1-0.1-8.7,0.2-1.8c0.4-4.8-0.3-9.5-2-14l1.7,13.2 c0.1-6.4-0.6-12.2-3.5-18c-0.7-1.4-1.4-2.8-2.2-4.2c-1.1-1.8-0.5-0.4,2,4.2l-3.1-6.1c-5-7.1-12.2-12.3-20.5-14.8l-5.8-0.6l4,0.5 c-4.9-0.7-5.4-0.9-9.5-0.1c-9.8,2,8-1.5-1.8,0.4c-3,0.3-5.8,1.5-8,3.5l3.4-2.2c-1.8,1.4-4.1,2-5.9,3.4c-4,3-6.4,7.2-8.5,11.6 l6.7-9.5c-1.8,1.6-3.5,3.3-4.9,5.2c-0.3,0.4-5,9.2-2,3.8c2.7-4.9-1.8,3.4-2.2,4.3c-0.3,0.7-0.5,1.4-0.7,2.2c0,0-1.3,9.1-1.9,9.2 l1-4.2l-1.4,6c-0.2,2.8-0.2,5.5,0.1,8.3c0.5,11.9,12.8,25.4,25.2,24.2c14-1.4,19.4-13.5,18.8-26.1c-1.7,11.8-1.6,13.1,0.3,3.8 c0.1-0.6,0.2-1.2,0.3-1.8l0.2-0.9c-1.3,4.5-1.6,5.6-0.8,3.4c-5.8,12.6,1.9-6.2,1.1-2.5c-6.7,8.6-7.1,9.6-1.2,3c1.1-2,2.2-4,3.1-6.1 l-6.7,9.5c0.8-0.7,3.2-2.3-0.4-0.2c-4.9,3,3.4-1.8,4.2-2.3l-10.8,4c2.2-0.4,4.4-0.8,6.6-1.3l-8.9,0.4c8.7,1.2,7.7,0.7-3-1.6 c0.4,0.2,0.8,0.4,1.2,0.6c1.6,1.1,0.5,0.3-3.2-2.4c-6-10.1-7.4-12.1-4.1-5.9c0.6,1.3,1.3,2.6,2,3.8c1.3,2.2,0.7,1-1.9-3.7l-1.7-13.1 c-0.1,5.5,0.1,9.6,2,14.9l-1.7-13.1c-0.4,1.4-0.4,2.8-0.2,4.1c0.1,4.8,0,4.3-0.1-1.5c1.3-5.3,1.5-5.7,0.4-1.3c-1.1,4.4-1,4,0.2-1.3 c0.5-1.2,3.2-5.4,1-2.2c-1.4,2.1-2.7,4.4-3.7,6.8l6.7-9.5c-2.1,1.9-4.1,3.9-5.9,6.1l9.1-7.1c-2.4,1.3-4.8,3.3-7.3,4.4 c12.6-5.4-11.6,4.9,1.2-0.8c-2.1,0.7-1.1,0.6,3.1-0.5c-7,1.4-7.6,1.5-1.8,0.3c6.2-0.4,4,0.4,1.4-0.3l10.4,5.8 c-3.5-3.1-7.6-5.4-12-6.8l10.4,5.8c-2.8-2.3,3.7,5.3,1.9,2.2l2.3,4.5c-1-2.4-2.2-4.6-3.5-6.8l4.7,12.6c-0.2-2.3,0.1-5.2-0.7,3.2 c-1,11.4,0.7,0.4,1.1-2l-4.1,11.2c2.2-2.8-4.3,3.5-1.3,1.6l-10.7,4c2.2-0.4,4.4-0.8,6.6-1.3c-4.1,0.3-5.2,0.6-3.4,0.7 c5,0.5,0.9-1.1-12.2-5.1c1.8,1.6,3.7,2.9,5.7,4.1l-12.1-14.5c0.3,0.5,0.5,1.1,0.7,1.7c3.3,10.9,17.3,21,28.8,16.1 c12.7-5.5,14.6-19,11.2-31L1751.1,1241.2z"></path> <path class="st3" d="M250.5,161.4c-2.4-5-4.8-9.6-9-13.4c-1.8-1.7-3.8-3.1-6-4.4l-5.5-2.2l-3.8-0.4c5.6,0.6-2.3-0.6-4.7-0.5 c-2.5,0.1-5,0.6-7.4,1.4c-1.5,0.5-2.9,1.2-4.2,2.1c-2.7,1.2-4.9,3.1-6.4,5.6l2.6-2.9c-4.8,4.5-7.9,10.4-9,16.9 c1.8-10.4-0.1,0.7-0.3,2.6c-0.3,3.6,0,7.2,0.9,10.6c1.2,4.9,1.1,4.4-0.3-1.6l1.6,6.6c0.9,2.6,2.2,5,3.7,7.2c1.9,2.9,4.2,5.6,6.8,7.9 c3.7,3.2,8.1,5.6,12.8,7.1c0.6,0.2,1.5,0.4,2.1,0.6c7.5,1.7,7.2,1.1,2.2,0.1c4.1,1,8.4,0.8,12.4-0.6c4.1-1.2-9.4,1.8-0.2,0 c3.6-0.7,5.5-2.4,8.8-3.7c-4.3,2.6-4.6,2.9-0.9,0.7c1-0.5,2-1.1,2.9-1.7c0.6-0.4,1.2-0.8,1.8-1.3c1.6-1.2,8.4-9,2-1.8 c1.5-1.7,3-4.1,4.9-5.2c1.1-1.4,0.3-0.5-2.5,2.5l4-4.2c3.1-5.9,3.6-7,1.8-3.4c-1.9,3.6-1.3,2.5,1.8-3.4c1.8-1.9-1.4,2.6-1.5,2.9 c3.7-6.9,5-12.3,4.5-20.5l-1.3,12.5c2.1-6.6,2.3-13.6,0.5-20.3c-1.3-5.1-2.1-5.6-4.5-11.1c3.3,6.6,3,6.1-0.9-1.5 c-1.4-2-3-3.9-4.7-5.7c3.7,4.5,4,4.8,0.9,1.2c-1.8-2.6-4.3-4.7-7.1-6.1c-2-1.2-1.1-0.5,2.9,2.1c-3-2.8-6.6-4.8-10.5-5.9 c-3.5-1.3-7.2-1.9-10.9-1.7c-2.3,0-4.5,0.4-6.6,1.2c-5.6,3.3-6.8,3.9-3.4,1.8c2-1.2,2.3-1.4,0.9-0.7c-2.1,0.9-4,2.1-5.9,3.4 c-4.3,3.4-7.6,7.8-9.7,12.9c-0.2,0.6-0.4,1.2-0.6,1.7c2.8-5.4,2.5-4.9-0.8,1.6c-1.7,7.5-1.8,8.1-0.5,1.8l-1.4,6 c-0.4,2.1-1.4,6.7,0.7-1.5c-1.5,5.8-1.5,8.2-1.4,14.3c0.2,11.9,13,25.4,25.2,24.2c5.8-0.6,11.5-3.2,14.8-8.3 c3.6-5.6,4.1-11.2,4-17.8c-1.6,11.8-1.5,13.1,0.4,3.8c0.1-0.6,0.2-1.2,0.2-1.8c0.2-2.4-0.1-1.2-0.7,3.4c0.8-2.2,1.3-4.6,1.4-7 l-4.1,11.3c1.4-2.2,2.6-4.5,3.6-6.9c1.2-3.3-3.2,4.9-1.1,2.1l-2.7,2.9c1.9-1.2,0.9-0.8-2.8,1.4c2-1.3,4.6-2.3,6.8-3.6l-10.8,4 c3.9-0.1-1.1,0.8-2.3-0.4c0.4,0.4,2,0.6,2.5,0.8l-10.5-5.9c2.2,2,4.6,3.7,7.1,5.2l-9.2-8.6c1.5,1.8,3,4.2,4.8,5.6l-5.8-8.9 c3.4,6.9,4.1,8.2,2,3.8c-0.9-1.5-1.5-3.1-1.8-4.7c-0.7-2.6-0.9-3.3-0.6-2c0,0.7,0.1,1.5,0.2,2.2l1.3-12.5c-1.7,5-1.9,9-1.5,14.3 l1.3-12.5c-0.6,2.2,0,1.3,1.8-2.8c-1.1,1.8-2.1,3.7-2.9,5.7c-0.7,1.7-0.2,0.6,1.7-3.4c-1.2,1.9-2.2,4-3.1,6.1l6.7-9.5 c-1.6,1.6-3.1,3.2-4.6,4.9c-2.2,2.5,3.6-2.8,1.9-2c-0.5,0.2-6.9,7.5-3,3c2.6-3,0.8-1.1-0.1-0.4l3.5-2.2l-5.1,2.9l8.3-3.1l-5.7,1.2 c-5.2,1.4,15.2,0.6,5.1-0.4c-3.4-0.4-6.2,0.3-9.5,1l11.4-0.6c-0.6-0.1-1.2-0.3-1.7-0.5l3.8,1.7c-1.5-0.7-1.1-0.4,1,0.9 c4.4,3.2-1.2-1.8,2.6,2.5c2.9,3.3,1.2,1.4,0.6,0.2l4.7,12.6c-0.4-2.5-1-5-1.8-7.5c0.9,5.2,1.3,6.5,1.2,4l-1.3,12.4 c0.9-2.5,1.4-5.1,1.6-7.7l-4.1,11.2c1.4-2.2,2.6-4.4,3.6-6.8l-6.6,9.4c1.7-1.8,3.5-3.6,5.2-5.5L230,190c3.7-1.6-1,1.2-2.1,0.1 c0.4,0.3,2.3,0.2,2.7,0.2l-11.1-2.8c-4.2-2.6-7.4-6.6-9-11.3c3,5.9,6,11.1,12,14.4c4.7,2.6,11.6,3.9,16.7,1.6 C250.4,187.5,255.8,172.6,250.5,161.4L250.5,161.4z"></path> <path class="st3" d="M2139.1,156.6c-2.9-3.5-5.4-7-9.6-9.2c-1.9-1-11.7-3.9-2.5-0.9c-3.3-1.1-5.7-2.3-9.1-2.7 c-4.1-0.4-3.8-0.4,1,0.2c-2.8-0.9-5.7-0.9-8.5,0c-5.6,1.1-2.9,0.6,0.2,0c-2.2,0.4-5.1,0.7-7.3,1.8l-5,2.8c5.1-2.9,4.6-2.7-1.6,0.9 c-1.2,1-2.3,2-3.4,3.2c-3.9,4.1-2.1,2.1,0.2-0.1c-3,2.5-5.3,5.7-6.6,9.4l1.9-3.6c-3.6,6.1-5.2,13.2-4.5,20.2l-0.2-4.6 c-0.4,2.3-0.4,4.6,0.2,6.9c0.1,0.7,0.3,1.5,0.5,2.2c1.3,5.7,2.9,8.2,5.3,13.4c-2.8-5.4-3.1-5.9-0.8-1.4c1.3,3.1,3.2,5.8,5.7,8 c1.1,1.2,2.3,2.4,3.5,3.5c3.7,3.2,6.5,4.4,10.8,6.2c-7.3-3-3.8-1.4-2.2-0.7c4.7,2.1,9.2,3.5,14.4,3.3c2.4-0.1,10.9-2.2,5.1-0.7 c-5.6,1.4,2.3-0.3,4.6-1.1c0.9-0.3,1.7-0.6,2.6-0.9c5.7-3.1,6.8-3.8,3.3-2s-2.4,1.1,3.3-2c1.9-1.5,7.3-7.5,3.3-3.4s1.8-1.5,3.2-3.5 c5.3-7.4,7.8-16.3,7.1-25.3l-1.3,12.6c3.2-11.4,1.8-21.2-4-31.5l4.8,12.8c-1.1-5.1-2.5-10-5.4-14.4c-1.4-2-3-4-4.7-5.7l3.1,3.5 l-4.2-5l-5-3.7l3.6,2.6c-2-1.1-3.8-3-5.7-4.3s-11.8-5.4-5.9-2.8c5.6,2.5-3.6-1.4-4.1-1.5c-0.6-0.2-1.2-0.3-1.8-0.4 c-3.6-0.8-7.3-0.8-10.9,0c-9.8,2,8.1-1.4-1.7,0.6c-3,0.6-5.9,1.9-8.3,3.8c-2.4,1.8-4.1,4.3-6.1,6.5c-3.6,4-4.9,12.7-4,17.8 c0.8,5.6,3.2,10.8,6.8,15.2c6.6,7.8,20.4,13.2,29.1,4.9c1.6-1.5,3.2-3.1,4.6-4.8c-3.1,3-3.7,3.8-1.9,2.5l-10.9,4 c2.2-0.3,4.5-0.7,6.7-1.3l-4,0.6c-4.3-0.5-5.3-0.6-3.1-0.2c-4.8-2-5.1-2.2-1.1-0.5s3.7,1.5-1.1-0.4c1.4,0.9,1,0.6-1-0.9 c-1.9-1.6-2.3-1.8-1.2-0.7c1.8,1.5,3.8,2.9,5.8,4.2l-9.2-8.6c1.3,2.1,2.9,4,4.7,5.7c-3-4-3.9-4.9-2.6-2.8l-4.8-12.8 c1,5.1,2.8,10,5.4,14.5l-4.8-12.8c0.6,2.4-0.1,6.9,0.9-2.2c0.9-7,0.6-6.6-0.9,1.1c-0.1,2.5-0.1,5,0.1,7.4l1.3-12.6 c-0.4,0.9-1.3,2.5-1.3,3.4c2.2-3.9,2.6-4.8,1.4-2.9s-0.4,1.3,2.3-2.1c-6.2,6.1-5.2,5.8,3-1.1c-6.3,3.5-6.8,3.8-1.5,1 c-2.4,1.4-5.1,2.5-7.6,3.9l10.8-4c24.6-2.3,46.4,15.8,48.7,40.4s-15.8,46.4-40.4,48.7c-24.6,2.3-46.4-15.8-48.7-40.4 c-2.1-22.8,13.3-43.5,35.7-48c1.2-0.5,2.7-0.6,3.9-0.2c2.3,0.4,2.6,0.4,1.1,0.1c-2.3-0.5,5.7,2.4,3,1.3c-2.4-0.9-4.7-2-7.2-2.9 l10.4,5.8c-1.4-1.2-2.7-2.4-3.9-3.7l7.2,11c-1.1-3-2.6-5.8-4.4-8.4l4.7,12.6c-0.5-2.3-0.8-5.4-1.8-7.5l1.4,10.3l-0.1-6.4 c-0.4-4.5-1.1,10-0.8,8.9c0.7-3.2-2.4,4.5-1.1,2.6c0.7-0.9,0.3-0.5-1.1,1.1c-0.8,1.1-1.8,1.9-3.1,2.4l0.8-0.4 c3.1-1.7,3.4-1.9,0.8-0.4c-1.4,0.4-9.7,2.5-2.8,1.1c1.6-0.3,3-0.7,4.6-1l-11.3,0.5c3.5,0.5,11.6,2.1,2.3-0.4c-5.2-1.6-5.7-1.6-1.6,0 c5.5,2.4,3.8,1.2-5.3-3.5c7.2,8.5,21.4,8,28.6,0.3c7.5-8,8.5-23.4,1.3-32.1L2139.1,156.6z"></path> <path class="st3" d="M1259.2,134.9c-5.3,0.4-10.4,2.3-14.6,5.5c-0.9,0.8-1.8,1.6-2.7,2.4l-3.8,4.1c-3.2,6.3-3.5,6.8-0.9,1.6 c-0.4,0.5-0.7,1-1,1.5c-2.2,3.3-3.6,7.1-4,11l0.8-4.2c-1.7,7.3-1.8,7.9-0.3,1.8c-0.8,2.7-1.4,5.4-1.6,8.2c-0.5,6.6,0.5,8,1.8,14.3 c-2.2-10.7-0.6-1.1,0.8,2.6c1.8,4.7,4.5,9,8,12.5c1.1,1.3,0.8,0.9-0.9-1.1c-2.9-3.4-2-2.3,2.7,3.2c1.8,1.5,3.7,2.9,5.7,4.1 c6.8,2.6,7.3,2.9,1.6,0.8c4.7,2.5,9.9,3.7,15.2,3.6c1.1,0,2.1-0.1,3.1-0.2c7-1.3,7.6-1.5,1.8-0.5c2.1-0.1,4.2-0.5,6.1-1.3 c5.3-1.9,8.7-5.2,12.5-9.1c-6.6,6.8,0.7-0.2,2.3-2.8c1.4-2.2,2.6-4.5,3.3-7c2.6-7.3,2.8-15.2,0.3-22.6c-0.9-2.4-0.6-1.1,0.9,4 c-0.3-3.4-1.4-6.7-3.2-9.6c-0.9-1.8-1.9-3.6-3.1-5.2c-6.5-8.9-16.7-15.6-27.9-15.7c-3.7-0.1-7.5,0.5-11,1.8 c-2.3,1.1-4.5,2.3-6.7,3.7c-4.8,5.2-5.2,5.6-1.3,1.2c-1.7,1.4-3.2,3.1-4.4,4.9c-7.3,10.3-4.7,26.9,4.8,35.1 c9.8,8.4,22.3,8.5,30.7-1.8c-1.7,2.1-3.5,3.9-6.2,4.8l-4,0.7l5.7-1.1c0,0-6,1-3.1,0.7c3.2-0.3-5-0.9-2.7-0.2s-5.2-2.4-3-1.2 c1,0.5,2.8,1.8-0.6-0.7c-4.4-3.3,1.1,1.9-2.7-2.5c-3.1-3.6-1.1-1.3-0.5-0.3l-4.7-12.7c0.6,3.1,1.3,6.2,2.4,9.2l-1.7-13 c-0.2,2.8-1.2,2.7,0.8-2.5c-1,2.7,1.6-2.7,1.7-2.8c3.3-3.6,3.6-3.8,0.7-0.8s-2.7,2.7,0.6-0.9l-0.7,0.5c1.5-1.3,3.4-2.1,5.5-2.2 c2.9-0.5,2.6-0.4-0.9,0.2c-4.2,0.8-3.8,0.8,1.1-0.1c-0.8-0.1-1.5,0-2.2,0.1c-2.3,0.4,5.7,1.2,2.6,0.2l3.8,1.4 c-6.7-2.6-7.3-2.9-1.6-0.8l9.1,8.5c-1.4-2-3-3.9-4.7-5.7c-3.7-4,6.6,12,4.9,7.6c-1.6-4.1,1,7.1,0.6,1.7l-1.3,12.3 c0.7-3,2.5-13,0.7-3.6l1.3-5.9c-3.5,8.7-4.3,11.2-2.6,7.7c2.9-5.7,3.5-6.9,1.8-3.4c-0.7,1.8-1.9,3.4-3.4,4.6c4.7-5,5.1-5.5,1.3-1.3 c-2,1.7-4.5,2.6-7.1,2.5c5.9-1,10.6-2.8,14.2-7.9c3.3-5,4.7-11.1,3.9-17.1C1281.5,146.8,1272.2,133.8,1259.2,134.9L1259.2,134.9z"></path> <path class="st3" d="M746.1,65.9c-11.5,2.2-20.6,8.6-24.6,20c-0.4,1.1-0.7,2.3-1,3.4c-1.4,3.9-1.8,8.1-1.3,12.2c0-4.8,0-6-0.2-3.6 c-0.4,5,0.3,9.9,1.9,14.6c1.2,3.5,6.8,13.5,1.5,3.3c2.5,4.8,4.6,8.4,8.5,12.1c2.4,2.2,10.8,8.6,2.8,2.3c2.9,2.8,6.5,4.8,10.4,5.8 c-5.5-2.3-5-2.1,1.7,0.6c-5.5-2.4-5-2.2,1.7,0.6c2.2,0.3,4.4,0.5,6.6,0.7c1.2,0,2.4,0,3.6-0.1c2.7-0.2,12.7-2,3.5-0.9 c2.2-0.2,4.4-0.7,6.5-1.4c6.2-3.5,6.7-3.8,1.5-1c3.6-1.4,6.8-3.8,9-7c-2.9,2.8-3.7,3.7-2.2,2.7c0.3-1.6,4-3.9,5.4-5.9 c1.5-2.4,2.8-5,3.8-7.8c0.9-2.4,3-6.7,2-8.6c0.2-2.3-0.2-1.2-1.1,3.3c1.4-4,1.9-8.3,1.3-12.4c-0.4-2.6-1-5.1-1.8-7.6 c1.3,5.1,1.7,6.4,1.1,3.9c-2-8.2-2.2-8.8-0.6-1.7c-0.6-4.5-2.2-8.9-4.7-12.7c-1.3-2.2-0.8-1,1.7,3.7c-0.9-2.4-2.1-4.7-3.6-6.8 c-1.5-2-3-3.9-4.7-5.7c4.3,5.3,3.9,4.8-1.2-1.3c-4.4-4-9.6-6.8-15.3-8.4c-2.8-0.8-5.4-1.5-8.4-1.3c-2.2,0.1-1.2,0.2,3,0.5 c-2.1-0.7-4.4-0.9-6.7-0.5c-2.8,0.1-5.8,1.6-8.4,1.7c5.8-1.1,5.3-1-1.8,0.4c-2,1-4,2.1-5.9,3.3c8.5-4.8-0.7,0-3.1,1.8 c-2.2,1.8-4.1,3.9-5.8,6.2c-3.6,4.2-4.9,12.5-4,17.7c0.8,5.6,3.2,10.8,6.8,15.1c6.3,7.5,20.7,13.6,29,4.9c1.5-1.6,3.1-3.2,4.6-4.9 c-3.1,2.9-3.7,3.8-1.8,2.6l-3.5,2c7.8-4,6.7-4-3.2,0.1c2.1-0.2,4.1-0.7,6.2-1.3c1.7-0.5,0.5-0.3-3.5,0.5c2.2-0.2,1.2-0.4-3-0.7 c2,0.5,4.2,0.7,6.3,0.6c1.4,1-6.2-1.9-1.7,0c-1.4-0.6-5.3-2.9-2.2-0.8c-8.4-8.5-9.4-9.1-2.9-1.8l-2.9-3.6c-3.2-6.5-2.9-6,0.9,1.6 c0.3,0.5,0.7,1,1,1.5l-4.7-12.7c0.5,2.2,3.5,14.3,0.8,2.6c0.9,3.8,2.3,13.6,0.5,2.7L745,88c-0.6,2.4-2.5,5.5-1.6,7.8 c-0.1,2.3,0.2,1.2,1-3.3c-0.1,0.4-0.2,0.9-0.5,1.3c-1.4,3.9,1.9-2.8,2.7-3.8c1.6-1.6,1.8-1.9,0.6-0.9c-1.6,1.6-3.1,3.2-4.5,4.9l9-7 c-2,0.9-4,2-5.9,3.2c3.9-1.7,4.8-2.3,2.6-1.8c-3.2,1.2,5.8-0.1,2.2-0.3c-0.9-0.1-1.8-0.1-2.7,0c2.7-0.3,5.4,0.3,7.7,1.8 c-1.9-1.3-4.1-2.1-6.4-2.3l10.4,5.8c-1.5-1.3-10.4-8.1-2.2-1.6l-0.6-0.6c-6.1-4.4-6.5-4.8-1.4-1.2l7.2,10.9 c-1.2-2.7-5.4-10.7-2.3-4.6c3.2,6.2-1.9-3.8-2.3-4.6l4.6,12.5c-0.4-3.6-0.1,6-0.2,3.2c-0.1-2.1,0.8-13,0.1-2.2 c0.2-3-0.6,3.4-0.6,3.3c0-2.3,1.4-5.3,1.9-7.6l-4,11c1.4-2.3,3.8-3.1-1,0.7c-5.1,2.7-4.5,2.4,1.5-1c-3.7,1.7-4.6,2.3-2.5,1.7 c4.9-1.2,9.9-7.4,11.3-11.9c1.6-4.9,1.7-10.2,0.4-15.3C767.3,76.7,757.5,63.7,746.1,65.9L746.1,65.9z"></path> <path class="st3" d="M939.6,392.9c-4.7-0.7-9.3-0.8-13.9,0.9c-5.6,3.1-6.7,3.8-3.3,1.8c3.4-1.9,2.3-1.3-3.3,1.8 c-1.7,1.4-3.2,2.9-4.7,4.6c-1.6,1.8-3,3.9-4.1,6.1c-0.8,1.4-1.4,2.8-2,4.2c-0.9,2.4-2.5,10.6-1.1,4.7s-0.7,2.1-1,4.7 c-0.3,3.5,0,7.1,0.9,10.5c1.5,6.7,1.3,4.3-0.6-7l0.1,6.4c0.3,3.4,1.4,6.6,3.2,9.5c1.9,3.7,2,4,0.4,0.8c-3.1-6,1.7,3.7,2.3,4.6 s1,1.5,1.5,2.2c3,4.1,6.9,7.6,11.4,10c5.6,3,12,4.3,18.3,3.7c3.1-0.3,6.2-1.1,9.2-2.2c-4.5,1.8,10.9-6,4-2.5c-5.1,2.6,2-0.9,4-2.5 s3.3-3.6,5.4-5.3l-2.8,2.8l4-4.2c2.1-2.6,3.6-5.6,4.7-8.8c0.5-1.7,3.3-12.5,0.6-2.2c0.9-3.3,1.4-6.7,1.4-10.2c0-4.8-0.1-4.3-0.1,1.5 l-0.1-6.5c-0.3-2.9-1-5.7-2-8.4l1.7,13.1c0.2-7.8-1.1-14.3-5.3-21l4.8,12.8c-0.9-4.8-2.6-9.4-4.9-13.6l2.4,4.4l-3.1-6.1 c-1.6-2.2-3.4-4.4-5.3-6.4c3.5,4.3,5.3,4.6-1.5-1.7c-2.4-2.2-5.1-4.1-8-5.6c-2.2-1.1-4.4-2.1-6.7-2.9c-6.4-0.6-7.7-0.8-3.8-0.5 s2.7,0.2-3.8-0.5c-4.2,0.3,9.3,1.2,0.2,0.2c-2.9-0.6-5.9-0.3-8.6,0.9l4-0.8c-3.5,0.8-6,1.1-9.1,2.9c-3.7,2.1-3.4,1.9,0.9-0.6 l-5.1,2.9c-0.8,0.4-1.5,0.9-2.2,1.5c-0.7,0.6-6.8,7.5-3.2,3.4c2-2.2,1.8-2-0.7,0.6c-2.2,2-3.8,4.5-4.7,7.4l-0.4,0.8 c-1.6,7.5-1.8,8-0.6,1.7c-2.6,5-1.7,14.1,0.3,19.1c2,5.1,5.3,9.5,9.7,12.8c8.8,6.5,21.8,6.2,28.4-3.6c1.6-2.4,2.6-5.1,3.9-7.7 l-6.7,9.5c1.8-1.5,3.5-3.3,5-5.1c0.7-0.9,0.4-0.5-1,1.2c-1.2,1.7-2.9,2.9-4.9,3.5c1.5,0.1,4.8-2.4,5.9-3.2c-9.3,3-11.1,3.9-5.4,2.6 l3.8-0.8l-11.5,0.5c2.5,0.4,5.1,0.5,7.6,0.8l-4-0.4c2.2,0.3,4.4,0.6,6.7,0.6l-11.3-2.8c0.6,0.4,1.3,0.8,2,1.1c1,0.6,0.6,0.2-1.3-1.1 c-1.9-1.3-3.5-3-4.7-5l4.2,5l-3-3.6c-2.8-5.5-3.1-6-0.7-1.4c0.6,1.3,1.3,2.6,2,3.9l-4.8-12.7c1.1,5.6,2.3,9.6,5.4,14.4l-4.8-19.2 c-0.2,3.6,0.1,7.2,0.9,10.7c1.1,5.1,1.2,4.4,0.1-1.9c-0.8-7.4-1-7-0.6,1.2l1.2-9.8l-1.4,6c2.7-10.1-0.2,0.6-0.7,2.7l4.1-11.3 c-0.5,0.7-1.1,1.5-1.5,2.3c-1.7,3.1,4.2-3.5,1.4-1.6c7.4-5,0.9,0-2.3,1.5c3.9-1.8,4.7-2.4,2.7-1.6c-1.5,0.4-1.2,0.3,1.1-0.2 c4-0.9,0.8-0.5-0.3-0.4c-1.8,0-0.6,0.1,3.5,0.3c3.8,1.8,4.9,2.3,3.3,1.4c-3.2-1.9-1,0.3,6.5,6.6c-0.9-1.5-0.7-1,0.6,1.5 c2.8,5.7-1.4-3-2.8-5.4l4.8,18.9c0.1-5,0.2-10-1.8-14.7c-0.8,17.2-0.3,20.4,1.7,9.4c-1.3,4.4-1.5,5.5-0.7,3.4 c-2.6,6.4-1.4,3.6-0.3,1.5c-8.5,6.3-9.1,7.1-1.7,2.6c-3.8,1.8-4.7,2.4-2.5,1.8l-11.2,0.5l0.9,0.1c5.9,0.8,11.3,0.5,16.2-3.4 c4.5-3.8,7.4-9.3,7.9-15.2C959.5,410.8,952.6,394.9,939.6,392.9L939.6,392.9z"></path> <path class="st3" d="M478.1,368.1c-8.5,1.9-14.3,12-16.1,19.8c-0.8,3.7-0.9,4-0.2,0.9c0.9-4.1,0.6-2.8-0.9,3.8 c-0.1,2.6,0,5.2,0.3,7.7c0.4,5.6,2.3,10.9,5.3,15.6l-4.7-12.6c0.4,2.5,1,5,1.8,7.5c3.4,6.8,4.1,8,1.9,3.8c-2.1-4.2-1.5-3,1.9,3.8 c1.3,2.1,2.9,4,4.8,5.5l-3-3.5c2.3,3.5,5.4,6.5,9.1,8.5c2.2,1.3,4.6,2.3,7,3.1c-9.5-2.9,0.8,0.5,2.5,1c7,0.8,7.6,0.8,1.8,0.1 l0.9,0.1c3.8,1,7.8,0.8,11.4-0.5c-4.1,0.7-5.2,1-3.4,0.9c2.1,0,4.2-0.4,6.1-1.2c-4.9,1-5.2,1-1.1,0.2c4.2-0.9,5.4-1.7,9.6-4.1 l-3.5,2c2.1-0.9,4-2,5.9-3.2c2.7-2.1,5.2-4.5,7.4-7.1c1.7-2.1,3.2-4.5,4.4-7c0.6-1.1,1.2-2.3,1.7-3.5c2.3-9,1.7-8.1-1.8,2.8 c2.2-3.7,3.6-7.9,4.1-12.2c1.3-7.5,0.6-15.2-2-22.3c-0.8-2.2-6.9-13.5-1.3-2.8c-1.2-2.6-2.6-5.1-4.1-7.6c-3.1-4.5-7.2-8.2-11.9-10.9 c-2-1.2-4.1-2.1-6.4-2.4l3.9,1.6c-1.9-1.3-4.1-2.1-6.4-2.3c-6.5-0.7-7.7-0.8-3.8-0.4c3.9,0.4,2.7,0.3-3.8-0.4 c-7.1,1.4-7.7,1.5-1.7,0.2c-2.9,1-11.9,2-2.6,0.5c-3,0-5.9,0.9-8.3,2.6c-3.7,2.1-3.4,1.9,1-0.6c-5.7,3.2-6.8,3.8-3.4,1.9 c3.5-2,2.4-1.4-3.3,1.9c-1.7,1.5-3.2,3.1-4.6,4.8l2.8-2.9c-4,4.2-5.2,5.6-7.7,11l6.7-9.5c-3.2,3.1-5.8,5.8-7.4,10.2 c-1.5,6.8-1.8,8.1-0.9,3.9c0.9-4.2,0.6-2.9-0.9,3.9l1.1-4.3c-1.4,4-1.9,8.3-1.4,12.6c0.4,2.9,1.1,5.7,2,8.4 c3.2,11.2,17.8,21.5,29.4,16.4c13-5.6,15-19.4,11.5-31.6l1.3,4.9l-1.3,12.6c0.6-2.6,2.4-10.9,1.1-4.8s0.9-3.9,1-4.8l-8.1,15.6 c2.4-2.2,4.4-4.7,6-7.5c2.2-3.9,1.8-3.6-1.2,1.1c-3.8,5.2-3.3,5.1,1.4-0.5l-7,5.5l5.1-2.9c-8.8,4.5,0.6-0.2,2.3-1.3l-10.9,4 c2.1-0.4,11.8-3.3,2.6-0.5c2.3-0.7,5-0.8,7.5-1.4l-11.5,0.5c2,0.3,12.1,2.2,2.6,0.3c1.8,0.4,5.7,3-2.4-1.8c-4.1-2.8-5.2-3.4-3.4-1.7 l-3-3.6c-2.7-5.6-3-6.1-0.6-1.5c0.6,1.3,1.2,2.6,2,3.8c-1.5-2.6-3.4-7.5-3.5-9c0.4,4.1,0.3-3.3,0.2-3.4c0.1,0-0.4,2.5-0.4,2.6 c-0.2,2.7-0.2,5.5,0,8.3l4-17.8c-1.4,2.2-2.6,4.5-3.5,6.9c-2,7.5-1.9,8,0.2,1.6c2.1-4.5,2.4-5.7,1.1-3.7c-0.5,0.6-0.8,1.2-1.2,1.9 c-0.7,1.4,4.8-3.8,1.4-1.8c-3.1,1.9,2-0.7,2.5-1c-1.2,0.4-2.4,1-3.4,1.7c-3.7,2.1-3.4,1.9,1-0.5l3.9-0.7c-7,1.4-7.6,1.5-1.8,0.4 c-2.5,0.5-5,0.9-7.5,1.4l11.4-0.5c-3.2-0.5-13.2-2.3-3.2,0.2c6.1,1.7,5.7,1.4-1.2-1.1c4,1.7,5,2.1,3,1.1l9.1,8.5 c-1.7-2.5-3.7-4.8-6-6.9l7.2,11c-1.1-2.6-2.4-5.2-3.9-7.6l4.7,12.6c-1-5.4-2.3-9.6-5.4-14.3l4.7,12.6c0-1.2-0.2-2.4-0.4-3.5 l-1.3,12.4c0.6-1.2,0.9-2.5,1-3.8c1.5-6,0.6-4.1-2.7,5.7c3-4.5-1.9,3.1-5.9,4c5.2-1.2,9.9-7.5,11.6-12.2c2.1-6.1,2-12.8-0.3-18.9 c-2.4-5.8-6.3-11.6-12.1-14.5S484.3,366.7,478.1,368.1L478.1,368.1z"></path> <path class="st3" d="M129.6,673.2c-1.9,2.4-6.7,11.4-2,3c-2.2,3.7-3.7,7.7-4.2,12c-0.4,3.7-0.3,7.5,0.1,11.2c0.5,5.5,2.6,9,4.8,13.9 c-0.4-0.8-3.4-6.8-1.4-2.9c2.3,4.5,4,8.2,7.5,11.8c-4.2-5.3-3.8-4.9,1.3,1.3c1.9,1.4,3.7,2.8,5.7,4.1l-9-8.5 c4.3,5.5,9,9.8,15.9,11.8l-3.8-1.4c1.9,0.8,3.9,1.6,5.9,2.3c2.3,0.5,4.6,0.8,7,0.9l-3.9-0.4l5.7,0.6c0.8-0.1,1.5-0.2,2.2-0.3 c6.3-1,8.2-1.6,13.7-5l-10.8,4c2.2-0.2,4.5-0.6,6.6-1.3c6.2-3.5,6.8-3.8,1.6-0.9c3.5-2,4.7-2.5,7.1-4.7c2.1-1.9,3.8-4.2,5.9-6.1 c-4.1,4.3-3.7,3.8,1.2-1.3c3.4-6.5,3.6-7,0.7-1.7c3.3-6.5,3.6-7,0.9-1.6c2.3-3.4,3.7-7.2,4.1-11.3c-1.4,6.3-1.2,5.7,0.4-1.8 c-1.5,6.3-1.4,5.7,0.4-1.8c-0.1-8-0.1-8.6-0.1-1.8c0.5-2.4,0.5-4.9,0.1-7.4c-2.1-8.3-2.2-8.9-0.4-1.8c-0.3-2.6-1-5.1-2-7.5l1.7,13.2 c0.1-6.7-0.6-12.1-3.6-18c-5-9.8,2.5,5,0.4,0.6c-1.9-4.1-4-8-7.3-11.1c2.3,2.2,5.1,5.5,0.6,0.2c-7.2-8.5,6.1,7.1-1.1-1.4 c-1-1.3-2.2-2.6-3.4-3.7l-5-3.7l3.5,2.7c-2.9-2-5.2-4-8.5-5.4c-9.4-3.8,7.8,3.1-1.7-0.7c-4.1-1.6-3.7-1.5,1.1,0.5l-5.5-2.3 c-0.6-0.2-1.1-0.3-1.7-0.4c-3.1-0.7-6.2-0.9-9.4-0.5c-2.2,0.3-4.5,0.7-6.6,1.3c-2.4,0.7-9.3,4.9-4.1,2.3s-2,1-1.6,0.8 c-1.8,0.7-3.4,1.9-4.6,3.6c-2.9,3.1-2.7,2.8,0.8-0.8c-1.4,1.7-3,3.4-4.6,4.8c3.9-3.7,2.6-4.4-1.5,1.7c-1.7,2.5-3,5.3-4.1,8.2 c-0.8,2.2-1,4.6-1.8,6.9c1.6-5.1,0.6-6.4-0.3,2.2c-1.6,15.3,5,30.4,18.7,38.1c10.6,6,24.8,1.3,28.6-10.7c4.3-13.4-1.5-26-12.5-33.7 c7,7.3,9.2,9.4,6.6,6.1c-1.3-2.1-3-4-4.9-5.6l7.3,11.1c-0.3-0.5-0.5-1.1-0.7-1.7c-1.1-3.1,1.2,4.2,1.1,4c0,0.2-0.5,6.7,0.1,3.8 l-1.1,4.3c1.5-6.8,1.8-8.1,0.9-3.9c-0.9,4.2-0.4,1.9,0,0.9c0.6-1.8-0.2-0.8-2.4,3.2c-3.3,4.3-3.5,4.8-0.6,1.5 c2.5-2.6,2.7-2.8,0.6-0.7c-1.5,1.6-1.9,1.9-1.1,1.2c1.8-1.6,3.4-3.4,4.9-5.3l-9.1,7.1c2.4-0.9,4.7-2.1,6.8-3.6 c-8.9,2.2-11.4,3.1-7.5,2.9c1.6-0.1,1.2-0.3-1.1-0.4c-2.3-0.3-2.7-0.4-1.1-0.1c-4.8-2-5.1-2.1-1.1-0.5c4.1,1.6,3.7,1.5-1.1-0.5 c2.1,0.9,4.2,1.7,6.4,2.5l-10.5-5.9c1.3,1.1,2.5,2,3.9,3c3.1,2.3,3.3,2.5,0.8,0.5c-1.9-1.3-3.6-2.9-4.9-4.9l4.2,5l-3.1-3.6 c1.9,1.7,3.6,4.5,5.2,6.4l-7.3-11.1c0.2,0.6,0.4,1.1,0.6,1.7c3.9,7.6,4.1,8.2,0.9,1.6l-1.7-13.2c0,4.8,0.6,9.5,1.8,14.2l-1.2-5 c0.5,2.5,1.1,5,1.9,7.5l-1.7-13.2c-0.5,3.1-0.4,6.2,0.1,9.2l1.3-12.5c-0.7,2.6-2.4,10.8-1.2,4.8s-0.9,3.9-0.9,4.8l4.1-11.3 c-1.8,2.7-3.2,5.5-4.3,8.6l6.7-9.5c-1.9,1.5-3.2,4-4.9,5.2s4.3-4.4,1.9-1.9l-3.9,4.3l2.7-2.9c4.3-2.5,4.6-2.7,0.9-0.6 c-1.2,0.4-2.4,1.1-3.2,2.1l10.8-4c-4.4,0.6-7.9,1.4-11.7,4.1c3.2-2.3,2.5-2.5,6.5-2.7l3.9,0.5c-7-0.8-7.6-0.8-1.8-0.1l3.8,1.5 c-6.7-2.7-7.3-2.9-1.6-0.7l9.1,8.5c-2.9-3.8-6.4-7.1-10.4-9.7l9.1,8.5c-2.9-3.8-6.4-7.1-10.3-9.7l12.1,14.5 c-1.1-2.6-2.5-5.1-3.8-7.6l2.3,4.5c-0.8-2.4-2-4.7-3.6-6.8l4.7,12.5c-0.2-1.2-0.3-5.4-0.3-0.3s0.1,0.8,0.3-0.3l-4,11.1 c1.1-1.9,2.2-3.9,3.1-6c-2.1,3.8-2.5,4.8-1.2,2.9c7.5-10.1,4.5-26.8-4.8-34.8C150.6,663.3,137.7,662.8,129.6,673.2L129.6,673.2z"></path> <path class="st3" d="M151.5,1389.2c-3.9-3-7.7-5.7-12.7-6.8c-7.2-1.7-14.9,0.5-20,5.9c-2.4,2.6-2.6,2.8-0.6,0.6 c2.6-2.8,1.8-1.9-2.6,2.7l2.8-2.8c-2.3,1.7-4.2,4.1-5.2,6.8c-2.9,5.3-4,11.4-3.3,17.5l1.3-12.3c-3.4,13.5-0.4,24.4,8.6,34.8 l-7.2-10.9c3.4,7.5,7,13.2,14.2,17.3l-9.1-8.5c4.1,6.2,10.2,10.8,17.3,12.8l-10.4-5.8c2,1.7,4.2,3.2,6.5,4.6l5.5,2.2 c7.1,1,7.6,0.9,1.4-0.4c-6.2-1.7-5.8-1.3,1.2,1.2l5.7,0.6c-4.9-0.6-5.3-0.6-1.1-0.2c4.2,0.5,3.8,0.5-1.1,0l5.7,0.6 c6.4-1.3,7.6-1.5,3.7-0.8c-5.4,1,3.7-0.6,4.6-0.8c-11.4,2.4,3.6-0.9,2.6-0.5c2.1-0.8,4.1-2,5.8-3.5l-10.8,4 c9.5-1.2,15.7-6.2,20.9-13.8c0.5-0.7,1-1.5,1.5-2.2c1.2-1.8,2.2-3.7,3-5.7c1.6-6.7,1.9-8,0.9-3.9c-1.1,4.5-0.1,1,0.3,0 c1.6-4.4,2.1-9.2,1.4-13.9l-1.3,12.5c1.4-4.6,1.9-9.5,1.5-14.3l-1.3,12.5c1.2-3.3,1.7-6.7,1.7-10.2c0.1-1.2,0-2.5-0.1-3.7 c-0.2-2-0.2-0.6,0,4.2c-0.2-5.6-0.1-10.4-2.3-15.8l1.7,13.1c0.7-7.8-1.8-18.6-6.9-25.1l4.7,12.7c-0.7-7.1-4.2-14.7-9.8-19.3 l8.9,17.7c-1.6-7.7-4.3-14.1-10-19.7c-4.1-4.1,6.6,8.1-0.1,0.1c-2.4-2.9-5.3-5.4-8.6-7.2l9.2,8.6c-2.5-3.9-5.8-7.1-9.7-9.4l-5.5-2.2 l3.8,1.6l-5.5-2.2l3.9,1.4l-5.5-2.2l-5.8-0.6l4,0.4l-5.8-0.6l4,0.6l-5.8-0.6l-5.7,1.2l4-0.6c-2.1,0.4-4.6,0.4-6.7,1.2l-5.1,2.9 l3.5-2l-5.1,2.9l3.5-2c-1.9,1.2-4.1,2-5.8,3.5l-4,4.2l2.7-2.9c-1.1,0.1-4.1,4-4.7,4.8l-2.7,5.3l1.8-3.8c-0.6,2.1-5.1,9.5-2.4,4.1 s-1.8,3.4-2,3.9c-0.5,1.4-0.9,2.8-1.1,4.3c-0.9,3.7-0.9,4-0.2,0.9c0.6-2.3,0.7-2.8,0.4-1.7c-1,3.1-1.5,6.4-1.5,9.7 c0.1,11.1-0.1-9.3,0.1,1.8c0.1,4,0.1,4.3,0,0.9c0-2.5,0-3.1-0.1-1.9c-0.8,3.8,0.2,8.3,1.1,12.1c-0.2-0.6,2.2,8.8,0.4,1.8 s1,4.1,1.2,4.6c0.6,1.5,1.2,2.9,2,4.3c2.2,4.7,2.1,4-0.3-2.1c-2-6.3-2.4-6.9-1-1.8c1,4.4,3.1,8.5,6,11.9c3.1,3.9,2.9,3.3-0.8-1.9 c-3.3-5.5-3.8-5.9-1.3-1.4c1.9,3.8,2.1,4.1,0.4,0.8l-0.9-1.8c1.4,2.3,2.2,5.1,3.9,7.2c4,4.9,8.2,9.2,14.6,10.8 c5.3,1.3,12.3,0.3,16.5-3.4c9.5-8.3,11-24.5,3.2-34.7c2.2,4.8,2.8,6.1,1.8,3.7c-3.9-7.6-4.1-8.1-0.8-1.6c-2.7-5.5-4.1-8-8.4-12.5 l8.9,17.7c-0.6-6.8-2.8-8.5-5.2-14.5c1.4,3.5,6.4,18,1.6,2.3c-0.7-2-0.3-0.5,1.1,4.4c-0.1,5-0.1,6.3,0,3.8 c-1.2-18.4,1.4,10.8-0.2-9.2l-1.3,12.5c0.5-1.6,0.9-3,1.3-4.7c1.8-7.7-1.5,3.8-2.2,5l2.7-5.3l-1.9,3.7c0.7-2.2,2.6-4.7,3.7-6.8 l-6.7,9.5c0.5-0.4,0.9-0.8,1.4-1.1c6.2-6.2,5.2-5.8-3,1.3c6.3-3.5,6.8-3.8,1.5-1c2-1,4-2.1,5.9-3.4l-10.8,4c2.9-0.1,5.7-0.7,8.4-1.8 l-11.5,0.6c2.4,0.3,10.4,1,4.7,0.6s3.8,0.4,4.7,0.3l-11.3-2.8c2.2,1.3,9.9,4.1,4.4,2s3.6,1.5,4.5,1.7l-14.7-10.8 c0.2,0.3,0.4,0.5,0.6,0.8l4.2,5c6.1,4.9,6.6,4.9,1.4,0.2c-8.4-8.2-0.5,0.2,0.9,1.8s2.4,3.4-2-2.6l-4.7-12.7 c1.7,7.5,3.9,14.1,9.9,19.3l-8.9-17.7c0,0.3,0.1,0.7,0.1,1l1.6,6.6c3.4,6.9,4.1,8.1,2,3.8c-2.4-4.9-0.3-0.1,0.1,1.2l-1.7-13.1 c-0.2,2.5-0.2,5,0,7.4c2,8.3,2.2,8.8,0.5,1.7c-1.3-10.8-0.1,0,0.2,3.6l1.3-12.5c-1.8,5-1.9,9.1-1.6,14.3l1.3-12.5 c-1.4,5.1-2.1,9-1.4,14.3l1.3-12.5c-1.6,3.2-2.5,6.8-2.7,10.4l4.1-11.3c-0.9,1.4-1.9,2.7-2.8,4.1c-1.7,2.7-0.2-1.4,1.9-1.8 c-0.5,0.1-1.7,1.3-2.1,1.6l10.8-4c-4.5,0.7-9,1.6-12.4,4.8l10.8-4c-2.2,0.4-11.6,2.2-5.5,1c2.3-0.4,2.7-0.5,1.1-0.2 c-2.2,0.2-4.5,0.7-6.6,1.4l11.4-0.6c-2.4-0.7-10.3-1.2-4.6-0.6s-3.8-0.4-4.6-0.3l11.2,2.8c-4.2-2.3-9-3.5-13.8-3.5l11.2,2.8 c-1.5-0.7-2.6-1.3-4.3-2c-3.4-1.3-3.6-1.5-0.8-0.4c2.1,1,2.5,1,1.2,0.2l9.1,8.5c-1.4-2-2.9-3.9-4.7-5.7c-6.1-4.5-6.6-4.8-1.5-1.1 l7.2,10.9c-1.9-4.9-4.8-9.5-8.5-13.3l7.2,10.9c-0.3-0.8-0.5-1.7-0.8-2.5l1.7,12.9c0.3-3,0.3-6,0.1-9.1l-1.3,12.3 c0.2-0.6,0.5-1.1,0.7-1.6l-6.6,9.3c1.7-1.7,6.7-7.7,3.1-3.4s2.5-2.8,3.1-3.5l-8.9,7c0.5-0.3,1.1-0.4,1.7-0.5l-11.3,0.5 c2.2,0.5,1.2,0.1-3-1.2c9.2,6.6,22.2,1.2,26.9-7.9c5-9.7,3.1-25.3-6.1-32.2L151.5,1389.2z"></path> <path class="st3" d="M341.1,1677.8c-7.9-8-22.4-10.3-31.4-2.4c-2.4,2.1-4.4,4.6-5.8,7.4c-4.2,8.1,2.7-3.3-0.1-0.4 c-4.4,4.6-5.1,13.5-4.2,19.3l1.3-12.3c-2.1,7.6-2.5,15,0.5,22.3c0.9,2.2,7,12.6,1.1,2.4c1.5,4.1,4,7.9,7.2,10.9 c1.9,1.4,3.8,2.8,5.7,4.2l-9.1-8.5c3.7,6.6,9.5,10.1,16.4,12.6l-10.4-5.8c2.7,2.8,6,5,9.7,6.5c9.3,3.7-7.7-3,1.6,0.7 c3,1.1,6.2,1.7,9.4,1.8l-11.2-2.8c4,2,8.4,3.2,12.8,3.6c2.9,0.2-3-0.3-3.1-0.3c2.2,0.5,4.4,0.7,6.6,0.5l5.7-1.2l-4,0.9l5.7-1.2l-4,1 c2.8-1,5.8-1,8.6-2.2c1.1-0.5,5.3-2.2,5.9-3.2c0.9-0.6,0.5-0.4-1.4,0.7c-2.7,1.4-2.4,1.2,0.7-0.5c3.2-1.7,6-4.2,8.1-7.2 c0.7-1,2-2.1-0.6,0.3c-4.3,3.9,2.4-2.7,2.8-3.2c2.7-4,4.4-8.6,4.9-13.4l-4.1,11.3c1.2-2,2.2-4,3.2-6.1c1.1-2.4,2.7-10.7,1.3-4.7 c-1.5,6.2,0.6-2.3,0.4-1.8c0.7-3.4,0.9-6.9,0.5-10.4l-1.3,12.4c0.9-3.7,2-7.1,1.9-11c-0.1-4-0.8-7.9-2-11.7l0.3,19.2 c1.8-8,2.5-15-0.6-22.7l1.7,13.1c0.1-2.8,0.1-5.5-0.2-8.3l-1.6-6.6c-3.7-7.8-4.1-8.1-1.1-1c2.2,6.2,2.6,6.8,1.2,1.7 c-0.6-3.4-1.9-6.6-3.9-9.4l2.3,4.5c-1.1-2.3-2.3-4.6-3.5-6.9l4.7,12.7c-0.8-4.8-2.4-9.5-4.9-13.7c-5.2-6.1-5.6-6.6-1.2-1.4 c-0.6-1.3-1.5-2.4-2.5-3.3c-6.7-7.9,5.9,6.7-1.6-2.2c-2.1-2.8-4.9-5-8-6.6l9.2,8.6c-7.2-12.2-26.7-19.4-39.5-12.2 c-3.1,1.8-3.4,1.9-0.8,0.4c1.9-1,2.4-1.3,1.4-0.8c-0.7,0.2-1.4,0.5-2.1,0.8c-3.9,1.9-5.9,4.4-9.1,7.1l2.7-3 c-4.4,4.8-5.2,5.7-2.7,2.7c3.9-4.5-2.6,2.7-2.9,3.1c-0.4,0.6-0.9,1.3-1.3,1.9c-2.6,4.2-4.3,8.9-5.1,13.8l4.1-11.3 c-4.1,5.7-6.6,16.7-4.9,24l1.3-12.5c-2.3,6.5-2.7,14.6,0.4,21l-0.3-19.2c-1.8,7.7-2.3,13.7,0.5,21.4c2,5.5-2.5-11,0.1-0.3 c1,3.9,2.6,7.6,4.7,11l-4.8-12.8c0.2,7,4.3,13.8,9,18.7c-2.2-2.4-4-5-5.5-7.9c2.4,4.3,4.1,8.5,8,11.7l-7.3-11 c1.9,5.3,4.6,8.4,8.2,12.6l-7.3-11l0.4,0.8c4.9,10.4,16.5,21.8,29.2,16.3c11.6-5,16.5-19.9,11.4-31.4c-0.9-2.1-6.8-13-1.2-2.4 c-2.3-4.4-4-8.2-8-11.7l7.3,11.1c-0.9-3.4-2.6-6.6-4.8-9.3l4.8,12.8c0-0.3,0-0.7,0-1c-0.6-4.6-2.2-8.9-4.7-12.8l3.7,10.2 c-0.5-2.5-1.2-5-1.9-7.5c-1.2-3.4-1.3-1-0.3,7.4c-0.6,10.2-0.1,11,1.4,2.2c0.5-4.8-0.2-9.6-2.1-14l0.3,19.2c0.1-0.3,0.2-0.6,0.3-0.9 l1.4-6c0-7.3-0.1-8.7-0.1-4.1c-0.1,5.1,0.2,0,0.4-1.2l-4.1,11.3c0.8-1,1.5-2.2,1.9-3.4c1.6-2.6,2.6-5.6,2.7-8.7 c0.7-0.8-5.8,12.2-2.3,7.7c0.6-1,0.2-0.6-1.1,1.1c-2.6,2.9-1.8,2,2.6-2.7l-2.7,3c1.7-1.5,3.2-3.2,4.5-5l-9.1,7.1 c3.3-1.1,6.4-2.8,9.2-4.8l-10.8,4c3-0.2,6,1.2-0.4-0.4c2.9,0.7-2.9-1.3-2.9-1.4c0.3-0.1,2.1,1.3,2.4,1.4l-9.2-8.6 c2.5,4.2,6.2,7.6,10.5,9.9l-9.2-8.6c1.4,2.2,8.2,10,3.6,4.8c-1.7-2-2-2.4-1-1c1.5,2,3.1,3.9,4.8,5.6l-8.9-17.7 c0.9,4.8,2.5,9.4,4.9,13.7l-2.4-4.4c1,2.4,2.2,4.7,3.6,6.9l-4.7-12.7c0.3,5.6,2.7,10.6,5.5,15.3l-4.7-12.7v-4.7 c-0.5,3.3-0.2,6.6,0.9,9.8c1,4.1,1.1,4.4,0.2,0.9c-0.5-2.7-0.7-3.3-0.6-1.5l1.3-12.5c-0.9,3.3-1.5,6.7-1.5,10.2 c-0.2,2.2,0.1,4.5,0.9,6.6c1.3,4.9,1.1,4.4-0.5-1.5l1.3-12.5c-1.8,4.9-2.4,10.1-1.8,15.2l1.3-12.5c-1,3.4-3.9,13.6-0.3,3.4 c2.4-6.2,2-5.9-1.2,0.9c-0.8,2.3-1.3,4.6-1.5,7l4.1-11.3c-1.8,3,6.5-6.4,0.4,0.1c-0.9,1.3-1.9,2.5-3,3.6l2.8-2.8 c4.4-2.3,4.8-2.5,1-0.4c-2.2,1.3-6.7,3.2,0.3-0.1c-0.5,0.3-1.1,0.5-1.6,0.7c4.9-1,5.3-1.1,1.1-0.3c-3.5,0.7-3.8,0.8-0.9,0.1 c3.9-0.9,2.6-0.6-3.7,0.7l8.8-0.5c-2-0.8-5.3-0.6-7.5-0.6l11.2,2.8c-4.3-2.1-9-3.3-13.7-3.6l11.2,2.8c-1.9-1.3-4-2.2-6.2-2.7 c7.9,5.3,10.4,6.6,7.5,3.9c-3.4-3.3-6.9-4.5-11.3-6.1l14.5,10.7c-3-4.1-6.7-7.7-10.8-10.5l12.1,14.6c-0.7-2.5-1.8-4.8-3.3-6.9 c3.7,5.9,4.4,12.6,2.2,19.9c1.7-4.3,1.6-8.7,1.2-13.3l-1.3,12.3c-2,3.8-2.5,4.8-1.2,3c3.3-6.4,3.6-6.9,0.9-1.6l-8.9,7 c4.5-2.2,0.5,2.8-7.1-0.2l-10.3-5.8l0.6,0.6c8.4,8.1,23.6,8.9,30.4-1.7c7.2-11.2,4.4-25.6-4.8-34.8L341.1,1677.8z"></path> <path class="st3" d="M800.1,1690.1c-2.1-0.3-4.3-0.5-6.4-0.7l3.7,0.4c-3.6-1-7.5-0.8-11,0.5l3.7-0.8c-2.4,0.4-4.8,1-7.2,1.8 c-2.2,0.4-4.2,1.5-5.8,3l3.4-1.7c-6.3,2-10.8,8.2-13.4,13.8c3.9-8.4-0.4,0.7-1.3,2.4c2.7-5.2,2.4-4.7-0.8,1.6 c-0.6,2.1-1.1,4.2-1.4,6.3c-0.6,4.6-0.2,9.2,0.9,13.7c1.2,4.8,1.1,4.3-0.3-1.5c0.4,2.4,1,4.7,1.8,7c1,2.7,2.3,5.2,3.9,7.7 c4.9,7.7,12.4,13.5,21.2,16.1l-10.4-5.8c4,3.1,7.6,5.5,12.5,6.6c2.3,0.5,4.6,0.8,7,0.9c2.9,0.1-2.8-0.5-3-0.6 c3.4,1.1,6.2,0.7,9.4,0.1c-1.1,0.2,4.3-1.2,4.5-1.2l-3.9,0.8l5.7-1.2c2.4-0.7,9.1-4.9,4.1-2.1c-3.5,2-1.4,0.8-0.6,0.4 c2.1-1,4.2-2.2,6.1-3.6c1.7-1.3,9-8.9,4.6-4.4c-4.1,4.2,1.6-1.7,1.2-1.3c2.2-2,3.8-4.5,4.7-7.3l-5.1,7.2c5.6-3.6,7.3-11.2,8.7-17.1 l-4.1,11.2c1.7-2.8,3-5.8,3.8-9c0.8-3.7,0.9-4,0.2-0.9c-0.6,2.2-0.7,2.8-0.3,1.7c0.3-3,1.6-6.1,1.7-9.2c0.3-6.6-0.7-13.1-2.9-19.3 c-2.3-6.2-5.9-11.8-10.7-16.4c-1.9-1.7-3.9-3.2-6.2-4.3c-1.5-0.8-11.1-5.3-2-1c-5.1-2.4-10.2-3.8-15.9-2.6c-3.5,0.8-3.8,0.8-0.9,0.1 c2.1-0.4,2.7-0.6,1.5-0.5c-0.8-0.6-6,1.1-7,1.5c-0.6,0.2-1.2,0.3-1.7,0.6l-5.1,2.9c3.8-1.9,4.9-2.4,3.2-1.7c-2,1-4,2.1-5.8,3.4 c-1.5,1.5-2.9,3-4.3,4.6l2.8-2.9c-1.6,1.6-3.1,3.2-4.5,4.9c-1.5,2-5,9.4-2.4,4.1c2.7-5.4-1.2,2-0.9,1.5c-1.6,2.6-2.6,5.6-2.7,8.7 l3-8.9c-2.7,3.1-3,7.6-4.1,11.3c0-2.2,0.6-4.3,1.9-6.1c1.5-2.7,1.4-2.4-0.3,0.8c-1.4,2.9-2.3,5.9-2.8,9.1c-0.1,1.9,0.2,0.6,0.9-3.8 l-1.4,6c0.1-0.5,0.5-6,0.7-3.4c-1.2,2.9-1.6,6.1-1.3,9.2c-0.1,1.4-0.1,2.8,0.2,4.2l1.3-12.4c-1,2.5-1.6,5.1-1.7,7.7 c-0.3,12.2,5.9,27.1,19.3,29.8c12.5,2.5,23.3-6.1,24.4-18.8c-1.3,6.3-1.2,5.7,0.5-1.7c0.1-2.5,0.1-4.9-0.2-7.4l-1.3,12.4 c0.8-2.3,3-11.9,1.5-5.5s1-3.2,1.2-5.7l-4.1,11.3c3-5,4.1-8.9,5.4-14.6l-4.1,11.3c1.3-1.9,2.4-3.9,3.3-6c1.4-3.1-2.8,3.9-1.4,2.5 c0.4-0.4,4.8-9.3,2.1-3.8c-0.4,1.3-1.2,2.5-2.3,3.4c-2.7,2.9-1.8,2,2.6-2.7c1.5-0.2-10.5,6.8-6.3,4.9l5.1-2.9l-3.6,2 c2.9-1.5-5.1,0.7-2.7,0.6c2.4-0.2,4.7-0.7,7.1-1.3l-11.5,0.6c2.9,0.5-2.8-1.3-2.9-1.4c11.9,5,2.2,1.1-0.1-0.5 c-1.3-0.8-2.4-1.8-3.3-3c-1.6-1.9-2.1-2.3-1.3-1.4c1.3,2-3-6.9-1.7-3.3c1.1,3-1-4-0.9-4s0.2,1.6,0.3,1.8c0.5,4.6,0-10.8,0.1-0.5 c0,1.7,0,3.4,0.1,5.1l1.3-12.4c-1.1,2.8-1.8,5.7-2.1,8.7l4.1-11.2c-2.3,4-3.9,8.4-4.7,13l4.1-11.2c-1.5,2.8-3.5,5.1-4.6,8.3l6.6-9.4 c-1.9,1.8-3.2,3.2-5.3,5.4c0.2-0.2,4.3-3.7,2.1-2.3c-3.1,2,5.6-2.2,2.1-0.9c-3.2,1.3-10.8,4.9-1.7,1.6c9.8-3.5-0.4-0.8-2.4-0.1 c-5,1.6,15.1,0.7,5.1-0.4c-5.7-0.6-2.9,0.2,0.1,0.3c-2.4,0-5-0.7-7.5-1l16.1,6.4c-1.9-1.4-3.8-2.8-5.7-4.2c-6.7-2.7-7.3-2.9-1.7-0.7 c-3.2-1.7,4.7,4.2,1.9,1.5c5.8,5.8,2.8,3.9,1.8,2.1c4.1,12.2,4.8,13.3,2.1,3.4c-1.2-2.3-2.3-4.6-3.5-6.8l4.6,12.5 c-0.3-3.1-1-6.2-2-9.2l1.7,12.8c0.1-0.6,0.1-1.2,0.2-1.8l-4,11c1.1-2.2,4.5-9.4,2.1-4.2c-2.6,5.6,2.1-4.1,2.1-4.2l-4.9,7l3.8-4.1 c-3.1,3.6-3.3,3.8-0.5,0.9c0.9-0.9,1.7-1.8,2.5-2.7l-8.7,6.8c1-0.3,2.1-0.7,3-1.2c1.7-0.4,0.6-0.2-3.3,0.8c0.6,0,1.2,0,1.8,0 c11.4,0.5,18.1-12,18-21.7C818.6,1705.7,811.6,1691.5,800.1,1690.1L800.1,1690.1z"></path> <path class="st3" d="M1216.2,1619.2c3.8,1.7,5,2.2,3.3,1.4c-1.9-0.9-3.8-1.7-5.8-2.4c-4.4-0.9-7.8-0.2-12.2,0.8l11.3-0.6 c-2.1-0.6-4.3-0.9-6.6-0.8c-6.9,1.4-7.5,1.5-1.8,0.4c-2.4,0.6-5,0.7-7.4,1.6c-1.2,0.5-6.2,2.4-6.6,3.6c5.2-2.8,4.7-2.5-1.5,1 c-1.6,1.5-3.1,3.2-4.5,4.8l8.9-7c-3.6,1.9-6.9,4.4-9.7,7.4c3.7-3.8,2.8-4.2-1.4,1.7c-3.1,4.4-4.3,8.8-5.3,14l4.1-11.2 c-2.3,3.8-4.1,7.4-4.5,12c-0.2,2-0.7,13.9-0.2,2.7c-0.4,8.2,1.6,14.3,5.4,21.7l-4.7-12.6c0.6,2.5,1.2,5,1.8,7.5 c3.9,7.5,4.1,8.1,0.7,1.7c3.7,5.6,3.5,7.5,8.3,12.4l-7.2-11c3.4,7.1,6.9,11.6,13.4,16l-9.1-8.6c2,3.2,4.7,6,7.8,8.1 c3.7,2.7,3.3,2.4-1.1-0.7c1.6,1.5,3.4,2.8,5.4,3.9c3.2,1.7,6.6,3.1,10.1,4c6.4,0.7,7.7,0.8,3.8,0.4c-2.3-0.4-2.6-0.3-1.1,0.1 c2.8,0.9,5.8,0.9,8.6,0c4.2-0.9,3.8-0.8-1,0.4c7-1.5,7.6-1.6,1.8-0.2l5.7-1.2c2.2-0.5,4.3-1.6,6-3.1c-3.7,1.9-4.7,2.5-3,1.9 c5-1,9.6-5.2,12.8-8.9l-2.7,2.9c1.9-1.2,3.5-2.8,4.7-4.7l-2.7,2.9c1.6-1.6,3.1-3.2,4.6-4.9c2.2-2.8,3.3-6.2,5.2-9.1 c-4.9,7.8-0.1,0.9,1-2.5c1.7-7.5,1.9-8.1,0.4-1.7c0.9-2.2,1.3-4.6,1.4-6.9l-4.1,11.3c1.6-3.1,3.1-5.8,3.9-9.2 c0.5-2.1,1.5-16.5,0.7-4.8c0.4-5.4-0.3-10.7-2.1-15.8l1.7,13.2c0.1-2.8,0.1-5.5-0.1-8.3c-0.2-2.6-0.9-5.1-2-7.5 c-3.5-6.9-4.1-8.2-2-3.8c2.9,6-1.6-3.6-2.5-5.1c-2.9-4.3-5.9-6.7-10.2-9.5l9.2,8.6c-3.4-4.6-6.9-8.4-12-11 c-1.7-0.9-11.8-4.9-2.6-1.1l-5.5-2.2c-7.1-0.7-7.7-0.8-1.8-0.2c-5.1-0.2-7.2-1-12.4,0.4c1.1-0.3,5.8-0.6,2.5-0.9 c-2.1,0.4-4.1,0.8-6.2,1.2c4.9-0.8,5.3-0.8,1.1,0c-3,0.3-5.8,1.5-8,3.5c3.7-1.9,4.7-2.5,3-1.9c-1.2,1.6-4.3,2.2-6.2,3.7 c-2,1.6-3.8,3.3-5.4,5.3c-1,1.2-0.8,0.9,0.9-0.8c2.8-2.8,2-1.9-2.5,2.8c7.2-6-0.1,0.2-1.5,2.2c1.2-1.7-7.3,13.7-1.2,2.3 c-2.2,3.8-3.7,7.9-4.4,12.2c0.9-5.1,0.6-6.8-0.6,2.1c-0.4,2.9-0.4,5.8-0.1,8.7c1.2,11.8,12.2,25.4,25.1,24.1 c14.1-1.4,19-13.4,18.8-26v-0.9l-1.3,12.5c1-3,4.4-14.2,0.7-4.1c-3.9,10.8,0.9,0.4,1.3-1.2c0.8-1.7,0-0.7-2.5,3.3 c-4,5.1-3.5,4.9,1.3-0.6l-2.9,2.9l4-4.2c1.9-2.2-2.2,2.4-2.2,2.4c2.4-2.4-4.9,2.3-2.6,1.2c2.2-1,4.3-2.2,6.3-3.6l-10.9,4 c2.2-0.4,4.5-0.8,6.7-1.3c-4.1,0.3-5.3,0.5-3.5,0.6c2.3-0.8,5.5-0.6,8.1-1.3l-11.5,0.6c2.8,0.7,5.7,1,8.5,1l-11.3-2.8 c2,1.2,4.1,2.1,6.3,2.7c-2.7-0.8-5.2-2.3-7.2-4.3c-4.4-5.2-4-4.8,1.2,1.4c1.8,1.5,3.8,2.9,5.8,4.2l-9.2-8.7 c-1.7-2.7-3.8-7.3-0.4-0.6c2.5,5.6,2.4,3.9-0.4-4.9c-1.8-10.1-2.5-10.6-1.9-1.4l1.6,6.7l-1.4-10.5c-1,1.6-0.1,6.5,0.1,8.3l4-17.8 c-1,2-2.1,4.1-3.2,6.1c-1.8,7.5-1.9,8.1-0.3,1.8c-6.6,19.9,8.1-15.8-0.9,2.5c-1.7,3.4,3.6-5.3,0.7-1.7c-1,1.5-0.1,0.7,2.5-2.5 c-1.8,1.3-3.4,3-4.7,4.8c6.2-7.2-0.6,0.5-2,1.8c1.5-2.3,3.6-4,6.1-5.1c-0.5,0.3-1.1,0.5-1.7,0.7l-0.8,0.4c-7.8,4.1-6.7,3.9,3.1-0.4 c-7,1.5-7.6,1.6-1.8,0.2c-2.2,0.4-4.5,0.8-6.6,1.4l11.5-0.6c-2.4-0.8-5-0.6-7.5-1c2.7-0.2,5.5,0.5,7.8,2l-3.6-1.4 c-5.6-2.4-3.8-1.2,5.4,3.3c-6.1-4.8-6.6-4.9-1.4-0.3c5,5,4.8,4.5-0.6-1.5c-1.8-1.5-3.7-2.9-5.7-4.1l12.2,14.6 c-1.2-2.3-2.3-4.6-3.5-6.9c-6.2-7.7-5.7-6.5,1.7,3.7c-3.9-7.5-4.1-8.1-0.7-1.7c-1.1-2.3-2.3-4.6-3.5-6.9l4.7,12.6 c-0.2-2.4-0.2-1.2,0,3.7c-0.1-8-0.1-8.6,0-1.8l-4.1,11.2c0.7-1.1,1.2-2.3,1.8-3.4c1.6-2.6,2.5-5.5,2.7-8.6l-3.1,8.7 c1.1-2,2.1-4,3.1-6l-6.6,9.4c1.4-1.1,8.8-8.6,2-1.8l3.9-4.2c-2.9,2.9-3.6,3.8-2.2,2.7c1.7-1.3-5.5,2.7-2.2,1.5l-3.9,0.8 c2.2-0.2,4.4-0.7,6.5-1.4l-11.3,0.5c5,1.2,8.2,0.6,13.1-0.6l-16.7-1.6c2.5,1.3,5.2,2.3,7.9,3.1c12,3.2,23.3-6.7,24.2-18.6 C1236.2,1635.7,1229,1622.8,1216.2,1619.2L1216.2,1619.2z"></path> <path class="st3" d="M1554.1,1787.8c-1.7-1.2-11.6-4.3-2.4-1.1c-4.3-1.5-6.7-2.6-11.6-2.8c-5.3-0.2-9.2,1.8-13.8,4.4l10.7-4 c-7.7,1.2-15.6,5.2-20.1,11.8c-1.4,2-4.2,10.7-1.2,1.9c-0.7,2.2-2.6,4.1-3.4,6.4c-2.9,7.8-1.5,7.5-0.7,2.2c-0.8,4.8-2,8.2-1.1,13.3 l1.3-12.4c-1.5,6-2.1,11.4-0.6,17.5c2.8,11.3-2.5-9.5,0.3,1.8c0.3,2.3,1.1,4.4,2.3,6.3c3,6.3,2.3,3.9-2.1-7.1 c0.7,4.5,2.3,8.8,4.7,12.6l4.1,4.9l-3-3.5c4.2,4,5.6,7.7,10.9,10.5l-9.1-8.6c2.7,3.6,6,6.7,9.7,9.3c2,1.3,1.1,0.5-2.7-2.2 c1.5,1.6,3.3,2.9,5.4,3.8c9.2,5,5.6,1,2.4,1.1c1.7,1.3,3.7,2.1,5.9,2.5c2.2,0.5,4.4,0.7,6.7,0.6l-11.2-2.8c2.8,1.7,5.9,2.7,9.2,3 c3.5,0.4,3.8,0.4,0.9,0.1c-2.3-0.3-2.6-0.3-1.1-0.1c2.9,0.5,5.9,0.7,8.8,0.7c2.4-0.2,4.8-0.6,7.1-1.2l-3.9,0.9l5.7-1.2 c-5.3,0.8-4.8,1.9,2.2-0.6c0.7-0.3,1.4-0.5,2.1-0.9l5.1-2.9l-3.4,2.1c-4.1,2.6,10.9-6,4-2.5c-5,2.6,3.3-2,4-2.5 c1.7-1.4,3.3-3,4.7-4.8c-3.5,3.5-3.7,3.8-0.8,0.7c2.4-2.6,2.6-2.8,0.6-0.7c-3.7,4.3,2.7-2.8,3.1-3.5l2.7-5.3l-1.8,3.7 c2.1-4.4,3.6-7.5,4.2-12.2l-4.1,11.3c2.9-4.2,4-7.9,4.9-12.9c-1.3,6.3-1.2,5.7,0.5-1.8c0.2-2.5,0.2-4.9,0-7.4 c-0.1-2.5-0.1-1.2,0.1,3.8c0.5-2.4,0.4-5-0.3-7.4c-0.7-4.9-4.4-13.2-0.7-3.5c-0.6-4.6-2.2-8.9-4.8-12.8c3.3,6.5,3.1,6-0.8-1.6 c3.3,6.5,3,6-0.8-1.6c-1.5-1.9-3.1-3.8-4.8-5.7c-6.2-4.5-6.7-4.9-1.4-1.1c-0.4-0.4-0.8-0.8-1.3-1.2c-2.1-2.1-4.6-3.8-7.2-5.2 c-3.4-2-7.3-2.9-11.3-2.8c4.2,0.7,5.3,0.7,3.1,0c-7.1-0.8-7.7-0.8-1.8,0c-2.2-0.5-4.4-0.7-6.7-0.6c-2.8,0.2-5.7,0.8-8.3,1.8 c-2.9,1-11,6.3-3.2,1.6c-3.4,2.1-4.7,2.4-7,4.7c-5,5.3-5.3,5.6-0.9,1c-1.8,1.2-3.2,2.7-4.3,4.5c-3.4,6.5-3.6,7-0.7,1.6 c-1.3,1.9-2.4,3.9-3,6.1c-0.6,2.3-1.1,4.6-1.6,6.9c0.1,8,0.1,8.6,0,1.8c-2.2,11.5,6.2,24.4,16.6,28.6c9.8,4.1,21.1-0.5,25.2-10.4 c0.2-0.4,0.3-0.9,0.5-1.3c0.5-1.2,0.8-2.5,1-3.8c1-4.4,0.9-4-0.4,1.3l-1.9,3.7c1.3-1.9,2.3-4,3-6.2l-6.7,9.5 c0.3-0.2,0.5-0.3,0.8-0.5l4-4.2l-2.9,2.8c2.3-1.8-2.9,1.2-3,1.3c0.8-0.4,8.8-5.2,4.1-2.2c-3.6,2.3,1.3,0.4-2.8,1.3 c-1.6,0.3-10-0.5-3.1,0.2c3.6,0.4,3.8,0.4,0.9,0.1c-2.1-0.4-2.7-0.4-1.6-0.1c1.3,0.9,5.5,0.7,7.1,0.8l-11.3-2.8 c3.4,1.8-4.9-4.6-1.7-1.3c2.1,1.9,4.3,3.6,6.7,5.1l-9.2-8.6l-2.2-4.5c3.5,6.9,4.2,8.1,2,3.8c-3.2-6.3,1.9,3.8,2.5,4.6l-4.8-12.8 c0.1,2.9,1.3,5.6,1.9,8.4c-1.2-3.1-1.6-6.4-1.1-9.6c0,2.3,0,4.6,0.1,6.9c0.1,3.8,0.5,0.6,1-9.4c-2,7.5-1.9,8,0.2,1.6 c2.5-6.2,2.1-5.9-1.1,0.9c-0.7,2.3-1.2,4.6-1.5,7l4.1-11.3c-1.6,1.7-2.7,3.8-3.3,6c6.1-7.8,7.1-9.5,3.2-5.2 c-2.9,3.1-2.6,2.8,0.8-0.8c-4.4,4.7-5.3,5.6-2.6,2.8c1.3-1.6,3-2.8,5-3.3c-2.2,0.7-4.1,1.9-5.8,3.5l3.4-2.1 c-6.3,3.5-6.8,3.8-1.6,0.9c-1.5,0.5-1.1,0.5,1.1,0c3.9-0.7,2.6-0.5-3.7,0.8c5.9-1.2,5.3-1.1-1.8,0.4l4-0.8c-3.8,0.6,0.8,0.6,2.2,0.7 c-2.8-0.2-5.6-0.9-8.4-0.8l11.2,2.8c-3.9-2.4-8.4-3.5-13-3.2l11.2,2.8c-2.7-1.9-12.3-6.2-3-0.8s0.4-0.3-2.5-2.1l9.1,8.6 c-1.5-1.9-3.1-3.8-4.7-5.6c-6.1-4.8-6.6-4.9-1.3-0.3c8,7.4,0.8-0.5-1.7-3l8.8,17.6c-1.2-5.5-2.5-10.5-5.8-15.1l4.7,12.6 c0-1.4-0.3-2.9-0.9-4.2c-1.2-4.9-1.1-4.4,0.5,1.5l-1.3,12.4c1.2-5,2.3-9,1.3-14.2l-1.3,12.4c0.5-1.2,0.9-2.5,1-3.8 c1.5-6,0.7-4-2.3,5.7c1.9-1.4,4.9-9.5,2.3-4.1c-0.4,1.3-1.1,2.4-2.2,3.3c-1.6,1.6-1.8,1.9-0.6,1c0.8-0.4,1.6-0.9,2.2-1.5l-10.7,4 c4.4-0.6,8.6-2.2,12.4-4.6l-10.7,4c0.6,0,1.2,0,1.8,0c-2.7,0.3-5.4-0.3-7.8-1.6c10,7,24.8,0.5,28.4-10.6 c4.3-13.4-1.5-25.6-12.4-33.4L1554.1,1787.8z"></path> <path class="st3" d="M2298.4,1327.2c-7.3-3.5-14.9-5-22.8-2.3l5.6-1.1c-5.1,0.4-9.9,2.2-13.9,5.4l5-2.8c-4.9,2-7.8,4.6-11,8.6 l3.9-4.1c-6.2,6.1-10.1,12.8-11.2,21.6c-1.1,11.2,2.8,22.2,10.8,30.1c1.8,1.7,3.7,3.3,5.8,4.6c-8.9-5.8,0.7,0.5,2.3,1.3 c3.6,1.9,7.6,3.1,11.7,3.6c7.6,0.8,15.1-0.5,21.3-5.2l-5.1,2.9c3.7-1.7,7.1-4.1,9.8-7.2c2.2-2,3.9-4.5,4.7-7.4l-2,3.7 c2.1-4.4,3.6-7,4.6-12.1c0.6-3.3,0.7-6.7,0.4-10c-1.9-7.4-2.2-8.8-1-4.2s0.9,3.2-1-4.2c-1-2.8-5.5-10.8-2.2-4.7 c3.4,6.3-1.8-3.8-2.4-4.6c-0.4-0.6-0.9-1.2-1.3-1.8c-3.1-4.3-5.7-5.8-9.4-9c4.5,3.1,4.9,3.3,1.2,0.7c-1-0.9-2.1-1.7-3.3-2.3 c-2.7-1.7-5.6-3-8.6-3.8c-5.6-1.2-9.5-0.8-15,0.4l5.7-1.2c-2.5,0.1-5.1,0.6-7.4,1.6c-11.6,5.4-16.3,19.5-11.4,31.3 c4.8,11.6,16.2,20.4,29.1,16.3l0.9-0.3l-5.7,1.2c0.6,0.1,1.2,0.1,1.8,0l-5.8-0.6c0.6,0.1,1.2,0.2,1.8,0.3c3.3,0.3-4.9-2.2-2.6-1.1 c0.9,0.4,2.9,2-0.7-0.6c-5.1-3.6,3.2,2.4,3.9,2.9l-9.2-8.6c0.4,0.6,0.8,1.3,1.3,1.8c0.8,1,0.5,0.4-0.9-1.9c-2.2-4.3-1.6-3,1.9,3.8 l-3.9-10.2l1.6,6.6c-2.5-8.6-1.2-14.1-1.9-8.7l4.1-11.3c-1.5,2.5-2.8,5-4,7.6l6.7-9.5c-1.8,1.7-3.5,3.6-5.2,5.5l4-4.2l-0.7,0.6 l5.1-2.9c-2.3,1-4.5,2.3-6.6,3.8l5.1-2.9c-0.9,0.3-1.6,0.7-2.5,0.9l5.7-1.2c-1.5,0.1-2.9,0.2-4.4,0.3l5.7,0.6 c-1.4-0.4-2.8-0.8-4.2-1.4l10.4,5.8c-1-0.8-2.1-1.6-3.2-2.3c-3.6-2.7-3.3-2.4,1.1,0.8c3.4,2.8,5.6,6.8,6.2,11.2 c0.6,2.7,0.7,3.2,0.3,1.6l0.1,4.6c0.3-2.3,0.1-1.2-0.8,3.3c1-3.3-3.2,4.8-0.8,2l-3.9,4.2c1.8-1.8,3.5-3.6,5.1-5.6l-3.9,4.2l0.7-0.6 l-5,2.8c2.3-1,4.5-2.2,6.6-3.8l-5,2.8c0.5-0.3,1.1-0.6,1.6-0.8l-5.6,1.1c2.5-0.2,5-0.8,7.4-1.6l-5.6,1.1c0.9,0,1.8-0.1,2.7,0 l-5.6-0.6c2.2,0.5,1.2,0-2.8-1.3c5.4,2.4,10.8,3.8,16.6,1.6c5.4-2.2,9.5-6.5,11.5-12C2314.3,1348.7,2310,1332.9,2298.4,1327.2 L2298.4,1327.2z"></path> <path class="st3" d="M2062.2,1640.2c5.7-1,5.1-0.9-1.8,0.5l-5,2.8c-1.5,1.1-2.9,2.3-4.2,3.7c-2.8,3-2.6,2.8,0.7-0.7 c-2.3,1.7-4.2,4.1-5.3,6.8c-4.8,9.3,2.9-5.8-1.3,2.4c-2,3.8-1.8,3.5,0.5-1c-2.3,3.3-3.7,7.2-4.1,11.2l-0.2,0.9 c1.4-6.2,1.3-5.6-0.4,1.8c-0.4,3.7-0.3,7.4,0.4,11c0.9,5.2,2.5,8.7,4.8,13.5c-5.7-11.8,1,2.2,1.2,2.5c1.9,3.1,4.3,5.9,7,8.3 c6.1,4.5,6.6,4.8,1.4,1.1l5,3.6c6.8,2.7,7.3,2.9,1.6,0.7l0.8,0.4c-3-1.9,12,5,5.2,2c-3.7-1.6-2.5-1.2,3.6,1.4 c2.2,0.5,4.4,0.7,6.6,0.6l-11.2-2.8c7.8,3.2,12.6,3.8,20.4,1.7l-11.5,0.6c15.7,3.1,30.6-7.9,35.9-22.3c0.8-2.4,1.5-4.8,2-7.3 c-2.1,9.7,0.1,0.7,0.4-2.7c0.7-5.6,0.2-11.4-1.4-16.8c3.4,11.6-0.1-0.5-0.8-2.6c-0.7-2.8-2-5.5-3.6-7.9c-2.9-4.7-6.9-8.6-11.5-11.5 l9.2,8.7c-3-4.2-6.9-7.7-11.3-10.3c-2.1-1.2-5-1.6-6.7-2.8c-1.1-0.2-0.6,0,1.5,0.7c3.8,1.5,2.6,1.1-3.6-1.4 c-1.3-0.3-5.4-1.2-6.7-0.6c5,0.5,5.4,0.5,1.1,0.1c-1.1-0.3-2.2-0.4-3.4-0.3c-2.1,0.1-4.2,0.5-6.2,1.2l4-0.8c-2.4,0.4-4.7,0.9-7,1.7 c-0.7,0.3-1.4,0.5-2,0.9l-5.1,2.9l3.6-1.9c-3,1.7-5.6,2.9-7.9,5.4c-2.9,3.1-2.7,2.8,0.8-0.8l-4,4.2l-2.7,5.3c1.9-3.9,2.5-5,1.6-3.4 c-1.3,2.1-2.4,4.2-3.3,6.5c-0.8,2.2-1.4,4.5-1.7,6.9c-0.3,2-0.2,14.1,0,2.7c-0.2,12.3,5.9,27.3,19.5,30c12.8,2.5,23.2-6.2,24.6-19 c0.5-4.8-1,2.9-1.8,4.4c-1.2,2.1-1.3,2.5-0.5,1.1c1.1-2,2.1-4,3.1-6.1l-6.7,9.6c2.1-1.5,3.9-3.4,5.2-5.5l-9.1,7.1 c2.4-1.1,4.4-2.6,6.7-3.7c-3.9,1.7-4.9,2.3-3.2,1.8c0.4-0.1,0.9-0.3,1.2-0.5l-4,0.8c8.7-1.4,7.7-1.7-3.2-0.8c2.5,0.5,5,0.7,7.6,0.6 l-11.4-2.8c2.5,1.4,5.3,2.4,8.1,3l-10.6-5.9c2.4,1.8,4.8,3.5,7.3,5.2l-9.2-8.7c2.9,3.9,6.4,7.3,10.6,9.9l-9.2-8.7 c2.8,4.7-2.1-4.8-1.2-2.5c0.6,2.1,0.2,0.6-1-4.5c0.6,2.5,1.2,5.1,1.9,7.6l-1.7-13.2c0,0.4,0,3.5-0.3,3.6l1-4.3 c-1.7,7.5-1.8,8.1-0.4,1.8c-1.2,3.6,3-5.3,1.1-2c-0.4,0.4-0.8,0.9-1.1,1.5c2.9-2.9,3.7-3.8,2.4-2.6c-0.7,0.4-1.6,1.9-2.5,1.9 c0.9-0.1,5.7-2.9,1.8-1.6c10.8,0.2,11.8-0.1,3.1-0.8l-5.7,1.2c2.6-1,5.3-1.2,8-0.6c-2.2-0.5-4.4-0.7-6.6-0.6l11.2,2.8 c-2.6-1.1-5.5-1.8-8-3c8.3,4-0.1-0.3-3.2-1.4l10.4,5.8c-1.8-1.5-3.7-2.9-5.6-4.2l3.6,2.5c-1.3-1.1-1-0.6,0.8,1.2 c1.2,1.1,2.1,2.5,2.7,4c1.2,2.3,1.5,2.9,1,1.8c-0.4-2.2-2.6-5.3-3.7-7.2l4.7,12.6c-0.1-1.2-0.3-2.4-0.6-3.6 c-1.5,11.6-1.4,12.9,0.4,3.7c0-0.6,0.1-1.2,0.2-1.8l-4.1,11.2c1.1-2,2.1-4,3.1-6l-1.8,3.6c1-1.9,2-3.7,2.9-5.6 c0.5-1,0.3-0.5-0.6,1.4c-0.4,1.3-1.1,2.4-2.1,3.3c-2.1,2.8-0.9,1.2,0.2,0.3l-10.7,4c2.5-0.3,5-0.9,7.4-1.7 c11.8-4.7,15.9-19.8,11.3-31c-4.6-11-16.3-20.8-28.8-16.1L2062.2,1640.2z"></path> <path class="st4" d="M388.4,1576.3c3.4-4.8,7-9.5,10.8-14c23.1-27.5,54.6-49.4,92.6-53.2s82.5,13.5,105.7,47.9 c7.2,10.7,12.3,23.6,9.5,34.8s-15.7,18.9-27.1,13.2c-9.1-4.5-14.1-15.7-13-25s6.9-16.7,13.9-22.2c24.8-19.7,65.5-17.8,95.9,2.7 s49.1,57.3,48.5,91"></path> <path class="st4" d="M2256.6,1437.9c-42.4-27-89.4-46-138.7-56.1c-45.7-9.3-97.4-9.5-134,19.3c-11,8.7-20.3,20.2-23,33.9 s2.8,29.5,15.1,36s30.6-0.3,33.3-14c3.5-18-18.4-30.7-36.7-31.2c-50.4-1.2-92.1,44.7-103.8,93.8"></path> <path class="st4" d="M-4.1,1019.2c49.5,8.8,100.2,8.5,149.6-0.9c45.8-8.7,93.7-28.2,116.5-68.9c6.8-12.2,11.1-26.4,8.4-40.1 s-13.8-26.3-27.7-27.5s-28.2,11.9-25.4,25.6c3.6,18,28.7,21.4,45.8,14.9c47.1-18,68.2-76.4,60.3-126.2"></path> <path class="st4" d="M1318.5,424.3c22.7,26.5,51.2,49.4,84.8,58.8s72.9,3.1,97.6-21.5c6.8-6.8,12.6-17,8.4-25.6 c-3.6-7.2-13.4-9.8-21.1-7.3s-13.6,8.8-18.1,15.5c-20.3,29.9-19,72.7,3.1,101.3s63.1,40.8,97.2,28.9"></path> <path class="st4" d="M685,210.5c-1.7,12.6-13.6,11-15.3,23.7s10.2,14.2,8.5,26.8s-13.6,11-15.3,23.7s10.2,14.2,8.5,26.8 s-13.6,11-15.3,23.7s10.2,14.2,8.5,26.8s-13.6,11-15.3,23.7s10.2,14.2,8.5,26.8"></path> <path class="st4" d="M2274.4,524.6c-28.6-2.9-27.4-14.8-56.1-17.7s-29.8,9.1-58.4,6.2s-27.4-14.8-56.1-17.7s-29.8,9.1-58.4,6.2 s-27.4-14.8-56-17.7s-29.8,9.1-58.5,6.2s-27.4-14.8-56.1-17.7s-29.8,9.1-58.5,6.2"></path> <path class="st4" d="M1462,1324.6c-20.2,3.5-22.3-8.3-42.5-4.8s-18.2,15.3-38.4,18.8s-22.3-8.3-42.5-4.8s-18.2,15.3-38.4,18.8 s-22.3-8.3-42.5-4.8s-18.2,15.3-38.4,18.8s-22.3-8.3-42.5-4.8s-18.2,15.3-38.4,18.8"></path> </svg> 