<?xml version="1.0" encoding="UTF-8"?> <!-- Generator: Adobe Illustrator 25.0.1, SVG Export Plug-In . SVG Version: 6.00 Build 0) --> <svg xmlns="http://www.w3.org/2000/svg" xmlns:xlink="http://www.w3.org/1999/xlink" version="1.1" id="Layer_1" x="0px" y="0px" viewBox="0 0 2427.9 1905.9" style="enable-background:new 0 0 2427.9 1905.9;" xml:space="preserve"> <style type="text/css"> .st0{fill:#E679A6;} .st1{fill:#1D1D1B;} .st2{fill:#FFFFFF;} .st3{fill:#AEC8F1;} .st4{fill:none;stroke:#F7B821;stroke-width:24;stroke-miterlimit:10;} .st5{fill:none;stroke:#DC0C18;stroke-width:24;stroke-miterlimit:10;} .st6{fill:none;stroke:#0154D5;stroke-width:24;stroke-miterlimit:10;} </style> <path class="st0" d="M327.9,5.6c0,0-324.8,0.2-324.6,324.1l0.7,1248c0,0,0.2,323.8,325,323.7l1771.1-1c0,0,324.8-0.2,324.6-324.1 l-0.7-1248c0,0-0.2-323.8-325-323.6L327.9,5.6z"></path> <path class="st1" d="M265.6,734.5c0,0,132.4-90.9,258.7-85.1s161.1,93.8,166.8,131.3s-12.3,111-135.6,212s-140.6,106.8-140.6,106.8 l275.4,26l-2.9,147.2l-519.3-5.8l14.4-176c0,0,295.5-207.8,329.9-239.5c36.9-34,5.7-83.7-51.6-51.9L369,854.2L265.6,734.5z"></path> <path class="st1" d="M2097,655.9c-42.3-14.9-143.8-0.3-187.1,48.8c0,0,27.3-79.2,95.1-127.7c66.1-47.3,108-53.8,108-53.8 l-73.8-133.4c0,0-55.5,12.1-126.1,62.1c-87,61.6-178.3,186.7-170.8,366.3c6.4,155.6,132.2,210.7,180.5,220.4 C2196.1,1093.5,2305.5,729.4,2097,655.9z M2020.4,903.3c-35.7,11.9-72.3-1.7-81.7-30.3s11.9-61.5,47.7-73.3s72.3,1.7,81.7,30.3 S2056.1,891.4,2020.4,903.3L2020.4,903.3z"></path> <path class="st2" d="M1811.3,1094.4c2.1,0.7,4.2,1.3,6.4,1.6c16.5,3.8,33,7.5,49.5,11.3l59.6,13.5l74.6,17l91.2,20.7l98,22.3 l15.1,3.4l0.4,0.1c0,0.5-0.4,0.7-0.6,0.9c-15,14.8-29.9,29.6-44.9,44.3c-5.2,5.1-10.4,10.2-15.6,15.3l-41.8,41.3 c-4.6,4.5-9.2,9-13.7,13.6c-0.4,0.5-1.1,0.8-1.8,0.6c-19.2-4.2-38.4-8.4-57.5-12.6l-66.3-14.5l-56.5-12.4l-64.2-14l-58.6-12.8 l-76.4-16.7c-1.4-0.3-2.8-0.6-4.4-1l2.5-2.9l55.2-62.9l48.3-55.2c0.2-0.3,0.4-0.6,0.7-0.8L1811.3,1094.4z"></path> <path class="st2" d="M2105,1445.7c-1.3-0.8-2.9-0.8-4.3-1.1c-22.2-4.8-44.5-9.6-66.7-14.4l-57.2-12.3l-61.1-13.2l-79.8-17.1 c-21.4-4.6-42.8-9.2-64.1-13.8l-72.9-15.7l-12.5-2.7c-0.3-0.1-0.6-0.2-1-0.3l7.9-9.9c5.6-7.1,11.3-14.2,16.9-21.4 c0.4-0.7,1.2-1,1.9-0.7c30.5,6.9,61.1,13.7,91.6,20.5l83.1,18.6l92,20.6c28.6,6.4,57.2,12.8,85.9,19.2c9.3,2.1,18.6,4.2,27.9,6.2 c0.7,0.1,1.3,0.4,1.8,0.9c1.3,1.2,2.6,2.3,3.8,3.4c0.4,0.4,0.7,0.5,1.1,0s0.9-1.1,1.4-1.6s0.7-0.9,1.4-0.6c0.4,0.2,0.6-0.1,0.6-0.5 c0.2-1.1,0.7-2,1.4-2.8c19.6-22,39.3-44,58.9-66c8.3-9.2,16.5-18.5,24.7-27.8c0.4-0.5,1-0.8,1.6-0.8c6.1-0.6,12,0.3,18,1.4 c4.2,0.7,8.5,1.4,12.8,2c0.2,0,0.5,0,0.6,0.2c-0.5,1.5-1.8,2.4-2.8,3.5c-3.9,4.6-7.9,9-11.9,13.5l-9.9,11.2 c-3.2,3.6-6.3,7.2-9.5,10.8s-6.6,7.5-9.9,11.2s-6.5,7.4-9.7,11.1l-9.7,11c-2.6,3-5.2,5.9-7.8,8.9l-7.9,9c-3.3,3.7-6.6,7.4-9.8,11.2 c-2.6,3-5.3,6-7.9,9s-5.3,6-7.9,9c-2.9,3.3-5.7,6.6-8.7,9.8c-0.2,0.2-0.4,0.3-0.6,0.4L2105,1445.7z"></path> <path class="st2" d="M1740.7,1320.5l-58.2-12.7c-0.1-0.4,0.2-0.6,0.3-0.7c9.4-10.8,18.9-21.5,28.3-32.3c0.3-0.5,0.9-0.7,1.4-0.5 c23.5,5.2,47,10.5,70.5,15.7l83,18.4c30.8,6.8,61.6,13.7,92.3,20.5l77.4,17.1c18.3,4.1,36.6,8.1,54.9,12.2c0.5,0.1,1,0.4,1.4,0.8 c1.1,1,2.2,2,3.3,3c1.3,1.2,1.3,1.2,2.5-0.1c8.9-9.6,17.7-19.3,26.6-28.9l31.6-34.4c7.6-8.2,15.1-16.4,22.6-24.6 c0.4-0.6,1.2-0.8,1.9-0.7c1.6,0.3,3.2,0.4,4.8,0.5c2.4,0.2,4.7,0.7,7,1.5c4.6,1.4,9.1,2.8,13.8,4.2c-0.5,0.8-1.2,1.6-1.9,2.3 c-13.5,15.2-27,30.3-40.5,45.5l-60.1,67.5c-1.6,1.8-3.3,3.6-4.9,5.5c-0.4,0.6-1.2,0.8-1.9,0.6c-12.3-2.8-24.7-5.6-37-8.3l-56.2-12.6 c-26-5.8-52-11.6-77.9-17.4c-24.5-5.5-49-11-73.5-16.4l-67.2-15.1l-43.1-9.6c-0.2,0-0.3,0-0.5,0s0.7-0.6-0.2-0.4 C1741.1,1320.8,1740.9,1320.7,1740.7,1320.5z"></path> <path class="st2" d="M2205,1232.7l-9.8,10.6l-44.9,48.9c-12.5,13.6-25.1,27.3-37.6,40.9c-5.1,5.5-10.2,11-15.2,16.6 c-0.5,0.7-1.4,0.9-2.1,0.7c-16.7-3.7-33.4-7.5-50.1-11.2l-71.1-15.7l-56.7-12.5l-83-18.4c-18.8-4.2-37.6-8.3-56.5-12.5l-83.3-18.5 c-1-0.2-1.9-0.4-3-0.7l7.1-8.1c6.7-7.7,13.4-15.3,20.1-23c0.6-0.9,1.7-1.3,2.7-1c25.4,5.6,50.8,11.2,76.1,16.7l81.8,17.9 c24.7,5.4,49.3,10.8,74,16.2c24,5.3,48,10.5,71.9,15.7l64.1,14c1.8,0.4,3.6,0.8,5.4,1.2c0.6,0.2,1,0.1,1.1-0.7 c0.3-1.7,0.8-3.3,1.1-5c0.1-0.7,0.4-1.3,0.9-1.7l29.3-28.9c8.5-8.4,17-16.8,25.6-25.2c7.5-7.3,14.9-14.7,22.3-22.1 c0.5-0.5,1.2-0.8,1.9-0.5c9,2.1,18.1,4,27.1,6.1C2204.4,1232.5,2204.7,1232.6,2205,1232.7z"></path> <path class="st3" d="M1740.7,1320.5l1.3,0.2l-0.6,0.4C1741,1321.2,1740.5,1321.2,1740.7,1320.5z"></path> <path class="st1" d="M983.1,635.8c0,0-254.6,6.5-257.9,350.1s251.4,314.5,251.4,314.5s199.8,20.3,209.5-343.6 C1186.1,956.8,1205.5,647.2,983.1,635.8z M967.9,1125.4c-116.1,3-80.8-184-77.9-227.6c2-30.1,21.8-67,49.5-76 c33.9-11,72.5-6.1,91.8,35.1C1058,914.3,1064.6,1122.9,967.9,1125.4z"></path> <path class="st1" d="M1487.6,639.2c0,0-254.6,6.5-257.9,350.1s251.4,314.4,251.4,314.4s199.9,20.2,209.5-343.6 C1690.6,960.1,1710,650.5,1487.6,639.2z M1472.4,1128.8c-116.1,3-80.8-184-77.9-227.6c2-30.1,21.8-67,49.5-76 c33.9-11,72.6-6.1,91.8,35.1C1562.5,917.7,1569.1,1126.3,1472.4,1128.8z"></path> <polyline class="st4" points="340,264.7 360.8,262.8 368.8,271.9 358.7,296.6 373.1,300.2 384.2,306.6 392.8,315.2 400.1,324.9 413.7,329.1 420.3,339.4 427.1,349.5 424.8,367.5 429,379.9 449.1,378.5 463.8,381.9 465.1,396.8 468.2,410 484.6,411.9 483.6,428.8 497.2,433 493.1,452.5 509.6,454.4 515.5,465.2 526.6,471.7 524.3,489.7 531.8,499.2 541.1,507.2 554.4,511.7 571.4,513 "></polyline> <polyline class="st5" points="37.1,434 48.2,438.9 54,452 63.5,459.3 85.9,447.2 85.2,470 102.2,466.1 113.7,470.4 119.9,482.7 124,498.2 144.5,489 146.3,508 162.8,504.8 169.1,517 187.1,511.5 186,535 197.7,539 214.9,534.8 215.1,556.1 224.9,563 235.9,568.2 254.6,561.7 264.8,568.1 266.6,587.1 286.9,578.1 296,586.1 294.6,609.9 309.1,609.8 313.3,625.2 "></polyline> <polyline class="st5" points="91.7,1508.7 107.8,1512.5 113.7,1498.7 134.2,1510.3 140.6,1497.4 148.8,1487.7 159.2,1481.7 175.1,1485.2 174.3,1459.9 193.6,1469.4 196.3,1450.1 217.2,1462.2 218.9,1441.4 237.5,1449.4 245.4,1439.2 248.5,1420.7 265.3,1425.7 279.1,1425.5 283.2,1408.8 297.3,1409.2 299.5,1389.1 314.8,1391.5 320.7,1377.8 334.1,1376.9 350.8,1381.8 "></polyline> <polyline class="st6" points="893,1732 894.1,1719.8 887,1705.4 893,1694.5 909.8,1686.5 897,1670.6 896.5,1657.9 901.3,1646.7 902.4,1634.5 927.7,1628.9 914.2,1612.7 913,1599.8 918.8,1588.9 920.9,1577 932.6,1567.7 932.3,1555.1 947.6,1546.7 948.8,1534.5 959.4,1524.9 963.3,1513.4 944.9,1495.9 966.8,1489.3 957.7,1474.4 958.2,1462 967.9,1452.1 "></polyline> <polyline class="st5" points="1234.1,1787.5 1247.2,1775.7 1237,1763.8 1260.4,1752.2 1251.4,1740.3 1246.6,1728.4 1246.7,1716.6 1259.4,1704.8 1234.1,1692.8 1254.6,1681.2 1237.2,1669.2 1261.3,1657.5 1241.8,1645.6 1260.6,1633.9 1255.1,1622 1238.6,1610 1253.4,1598.3 1261.2,1586.5 1247.2,1574.6 1255.7,1562.8 1237.3,1550.8 1248.5,1539.1 1238.5,1527.2 1245.4,1515.4 1259.9,1503.7 "></polyline> <polyline class="st4" points="1624.1,1812.5 1615.8,1802.3 1597.8,1795.2 1605.8,1780 1599.2,1769.4 1580.9,1762.3 1591.8,1746.2 1597.1,1731.9 1583.3,1723.4 1572.4,1714.1 1577.9,1699.7 1587.4,1684.1 1578.4,1674.2 1555.5,1668.5 1556,1655.7 1552,1644.2 1571,1625.7 1551.1,1619.1 1537,1610.7 1539.4,1597.3 1539.8,1584.5 1535.9,1573 1535.3,1560.5 1543.2,1545.3 1540.7,1533.4 1521.3,1526.7 1521.8,1513.8 1519.5,1501.8 "></polyline> <polyline class="st4" points="1557.1,94.7 1555.3,106.5 1551.5,117.8 1557.6,131.5 1552.7,142.5 1548.2,153.6 1529.4,161.3 1520.8,171.4 1537,187.6 1544.7,201.6 1531.6,210.7 1521.4,220.4 1531.8,235.1 1514.9,243.2 1521.1,257 1499.6,263.9 1510,278.7 1504.2,289.5 1506.2,302.2 1487.5,309.9 1484,321.2 1483.3,333.3 1488.9,346.9 1500.2,361.9 1477.5,368.5 1496.5,385.4 1476,392.6 1483.7,406.7 "></polyline> <polyline class="st6" points="1200.6,87.2 1193.2,99.2 1181.5,111.2 1201.9,123.5 1185.7,135.5 1198.4,147.7 1191.1,159.7 1206.7,171.9 1184.8,183.8 1188.1,196 1202.1,208.2 1182.9,220.1 1182.4,232.2 1184.2,244.3 1201.1,256.5 1201.3,268.6 1185.2,280.6 1205.4,292.9 1203.5,305 1181.2,316.9 1189.7,329 1178.3,341 1186.7,353.2 1202.6,365.4 1197.1,377.5 1180.1,389.5 "></polyline> <polyline class="st5" points="842.2,91.9 835,106.1 847.6,114.8 844.4,127.9 834.2,143 846.7,151.8 857,161.1 857.1,173.4 860.1,184.8 857.1,197.8 862.3,208.6 875.4,217.2 875.8,229.4 865.7,244.4 884.3,251.5 891,261.9 892.6,273.7 897.7,284.5 879.3,301.8 898.7,308.7 906,318.9 906.6,331 910.8,342 905.6,355.7 912,366.2 "></polyline> <polyline class="st4" points="380.3,1739.3 393.7,1735.6 389.4,1714.4 400.4,1708.3 408.1,1699 430,1703.7 424.2,1681 433.7,1673.5 455.8,1678.4 455,1660.6 464.1,1652.7 474.1,1645.6 490.4,1644.8 485.5,1623 501.2,1621.6 511.8,1615.1 507.5,1593.9 531.2,1600.4 526.9,1579.2 536.2,1571.4 553.2,1571.3 550.5,1551.7 559,1543 575.8,1542.7 577.7,1527.6 601.1,1533.9 603.7,1519.5 609.1,1507.8 617.6,1499.3 634.2,1498.8 626.4,1474 "></polyline> <polyline class="st5" points="2050.6,85.7 2046.4,97.7 2047.5,114 2040.8,124 2017.8,120.9 2011.9,131.5 2014.1,148.7 1998.6,151.7 2001.4,169.3 1980.7,168 1973.7,177.8 1966.7,187.6 1955.1,193.7 1964.9,216.9 1951.7,221.7 1948.4,234.4 1930.2,235.2 1927.1,248 1912.5,251.7 1923.4,275.8 1912.2,282.3 1905.9,292.6 1879.1,286.5 1892.1,312.3 1883.1,320.4 1856,314.1 1861.9,334.2 1853.3,342.7 1843.7,350.4 1825,350.7 1836.6,375.5 1818.7,376.5 1808.2,383.4 1819.1,407.6 1789.6,399.3 1800.5,423.5 1791.9,431.9 "></polyline> <polyline class="st6" points="2135.9,1770.4 2123.5,1766.8 2105.4,1770.3 2106.7,1749.5 2094.7,1745.4 2079,1745.9 2081,1724.1 2061.5,1729.4 2066.7,1703.7 2052.8,1701.9 2034.7,1705.5 2030.9,1691 2016.5,1689.9 2011,1677.6 1992.9,1681.1 1985.3,1671.5 1975.6,1664.4 1962.1,1662.2 1969.2,1634 1947.1,1642.6 1950.4,1619.2 1944.6,1607.2 1914.1,1626.5 1925.4,1593 1915.3,1586.4 1886.1,1603.9 1879.2,1593.3 1873.3,1581.6 1858.4,1581 1865.7,1552.7 1847.1,1556.8 1841.8,1544.2 1833.8,1535.1 1820,1533.2 1817.3,1517.3 1805.8,1512.6 1787,1517 1779.7,1506.9 1778.7,1488.9 "></polyline> </svg> 