<?xml version="1.0" encoding="UTF-8"?> <!-- Generator: Adobe Illustrator 25.0.1, SVG Export Plug-In . SVG Version: 6.00 Build 0) --> <svg xmlns="http://www.w3.org/2000/svg" xmlns:xlink="http://www.w3.org/1999/xlink" version="1.1" id="Layer_1" x="0px" y="0px" viewBox="0 0 2427.9 1905.9" style="enable-background:new 0 0 2427.9 1905.9;" xml:space="preserve"> <style type="text/css"> .st0{fill:#F0BC00;} .st1{fill:#1D1D1B;} .st2{fill:#049DFF;} .st3{fill:#E9E7C4;} .st4{fill:#008B3F;} .st5{fill:#DC0816;} .st6{fill:none;stroke:#0154D5;stroke-width:24.06;stroke-miterlimit:10;} .st7{fill:none;stroke:#008B3F;stroke-width:24;stroke-miterlimit:10;} .st8{fill:none;stroke:#DC0816;stroke-width:24;stroke-miterlimit:10;} </style> <path class="st0" d="M327.8,5.6c0,0-324.8,0.2-324.6,324.1l0.7,1248c0,0,0.2,323.8,325,323.6l1771.1-1.1c0,0,324.8-0.2,324.6-324.1 l-0.7-1248c0,0-0.2-323.8-325-323.6L327.8,5.6z"></path> <path class="st1" d="M411.5,543.6c0,0,122.3-83.5,238.9-78.2S799.2,551.5,804.5,586s-11.3,102-125.3,194.7s-129.9,98-129.9,98 l254.4,23.9l-2.7,135.2l-479.7-5.3l13.2-161.7c0,0,273-190.8,304.8-220c34.1-31.3,5.3-76.8-47.7-47.7L507,653.5L411.5,543.6z"></path> <path class="st1" d="M1067.7,577.4c0,0-235.2,6-238.2,321.5s232.2,288.8,232.2,288.8s184.6,18.6,193.5-315.6 C1255.3,872.2,1273.1,587.8,1067.7,577.4z M1053.7,1027.1c-107.2,2.7-74.6-169-72-209c1.8-27.6,20.1-61.5,45.8-69.8 c31.3-10.1,67-5.6,84.8,32.3C1136.9,833.2,1143,1024.8,1053.7,1027.1z"></path> <polygon points="1633.3,905.1 1604.8,1159.1 1469.7,1153.9 1483.8,571.8 1650,567.1 "></polygon> <polyline points="1488.9,717.1 1482.5,716.3 1305.2,694.5 1306.1,559.4 1650.5,564.7 1642.2,730.2 "></polyline> <path class="st1" d="M2071.9,533.2c-213.7-153.4-435.4,135-283.6,280.6c30.8,29.5,122.5,54.7,176.8,26.8c0,0-51.3,61.4-126.1,79.7 c-73.1,17.8-111.1,7.8-111.1,7.8l-4.9,151.8c0,0,72.3,7.1,150.2-11.4c96-22.8,217.9-101.6,274.9-267.1 C2197.5,657.8,2109.7,560.3,2071.9,533.2z M2010.8,688c-2.1,29.5-31.9,51.2-66.5,48.4s-61.1-29-59-58.5s31.9-51.2,66.5-48.4 S2012.9,658.5,2010.8,688z"></path> <path class="st2" d="M1256.6,827.8c-1,0.3-2,0-2.6-0.8h2.6C1256.5,827.3,1256.5,827.6,1256.6,827.8z"></path> <path class="st2" d="M197.3,955.5c0.3-1.7,1.4-2.5,2.2-3.4c29.4-34.3,58.7-68.7,88.1-103c2-2.3,3.7-3.1,6.8-2.5 c24.3,4.8,48.6,9.4,72.9,14l77.9,14.9l82.1,15.7l86.7,16.6l39.2,7.5c0.5,0.1,1.1,0,1.6,0.8c-2.2,3.2-5.2,5.8-7.9,8.6 c-20.2,21.1-40.3,42.2-60.6,63.2c-10.4,10.8-20.8,21.7-31,32.6c-1.6,2-4.2,2.8-6.6,2.1c-21.5-4.2-43-8.3-64.6-12.4l-90.9-17.3 c-27.8-5.3-55.6-10.6-83.4-15.9c-31.9-6.1-63.7-12.1-95.5-18.2C208.6,957.7,203,956.6,197.3,955.5z"></path> <path class="st2" d="M1122.1,1005.5c-7.6,8.1-14.6,15.5-21.6,22.9l-68.4,72.2c-5.1,5.3-10.2,10.6-15.2,16.1c-1.1,1.4-3,2-4.8,1.5 c-15.3-3-30.5-6-45.8-8.9c-28.3-5.6-56.6-11.1-85-16.7c-25.3-4.9-50.5-9.9-75.8-14.8c-28.5-5.6-56.9-11.1-85.4-16.7 c-25.3-4.9-50.5-9.9-75.8-14.9c-4-0.8-8.2-0.7-12.1-1.9c-1.5-0.5-2.3,0.6-3.2,1.5c-11.7,12.4-23.3,24.7-35,37 c-10.6,11.2-21.3,22.3-31.8,33.7c-1.9,2-3.7,2-6,1.6c-20.5-4.1-41.1-8.2-61.6-12.3l-91.6-18.2l-108.6-21.7l-100.7-20.1 c-5.6-1.1-11.3-2.3-16.8-3.4c-0.2-1.4,0.6-1.9,1.1-2.5c5.2-6.2,10.6-12.2,15.7-18.5c1.1-1.6,3.2-2.4,5.1-1.8 c26.5,5.2,53,10.4,79.5,15.6c26.9,5.3,53.9,10.5,80.8,15.7c29.8,5.8,59.7,11.7,89.5,17.5c28.2,5.5,56.4,11,84.6,16.5l22.9,4.4 c0.7,0.1,1.3,0.5,2,0.5c1.2,0.1,1.8,2.3,3.2,1.3c1-0.8,1.9-1.7,2.7-2.7l52.8-56c4.5-4.7,9-9.5,13.4-14.3c1.6-1.7,3.1-2.2,5.5-1.7 c46.1,9,92.2,18,138.3,26.8c40.1,7.8,80.3,15.6,120.4,23.4c35.8,6.9,71.7,13.9,107.5,20.8c3.5,0.7,7.4,0.6,10.3,2.3 c3.7,2.1,5.2,0.6,7.5-1.8c18.5-19.6,37-39.1,55.6-58.5c8.7-9.1,17.4-18.2,26.1-27.4c1-1.1,2-2,3.7-1.5 C1110.6,1002.1,1116,1003.7,1122.1,1005.5z"></path> <path class="st2" d="M1150,982.1c1.5-1.9,2.6-3.4,3.7-4.8c5.9-7.2,11.9-14.4,17.7-21.8c1.1-1.8,3.3-2.6,5.4-2 c13.7,2.8,27.5,5.5,41.2,8.2c35.5,7,71.1,14,106.6,20.9c29.3,5.8,58.6,11.7,87.8,17.4c33.7,6.7,67.5,13.3,101.2,19.9 c1.1,0.1,2.2,0.3,3.3,0.8c2.9,1.8,4.4,0.1,6.3-1.9c22.5-24.2,45.1-48.4,67.8-72.6c1.9-2,3.5-2.7,6.2-2c7,1.7,14.1,3,21.4,4.5 c-1.7,3.1-4.2,5.2-6.4,7.5c-29.9,31.9-59.9,63.8-89.8,95.7c-1.6,2-4.2,2.8-6.6,2.1c-28.2-5.7-56.3-11.2-84.5-16.7 c-32.3-6.4-64.7-12.7-97-19c-28.3-5.6-56.7-11.1-85-16.7c-31.2-6.1-62.5-12.2-93.7-18.3C1153.9,983,1152.3,982.7,1150,982.1z"></path> <path class="st2" d="M198.4,1142c3.7-4.3,6.9-8.1,10.1-11.9c3.5-4.1,7.2-8,10.4-12.3c1.9-2.5,3.8-3.1,6.8-2.5 c16.8,3.3,33.6,6.5,50.4,9.7c26.3,5,52.5,10,78.8,15c28.9,5.5,57.8,11,86.7,16.6c30.6,5.8,61.1,11.7,91.7,17.4c12,2.3,24,4.2,35.8,7 c3.6,0.9,5.2-0.1,7.3-2.3c21-22.6,42.2-45.1,63.2-67.7c2.3-2.5,4.4-3.2,7.7-2.5c5.9,1.4,11.9,2.3,17.9,3.5c1,0.2,1.9,0.6,3.2,1 c-3.4,3.6-6.5,7.1-9.7,10.4c-23.8,25.3-47.6,50.5-71.4,75.8c-4.4,4.6-8.8,9.2-13.1,13.9c-1.1,1.3-2.8,1.9-4.5,1.4 c-21.8-4.3-43.6-8.5-65.4-12.8l-76.6-15c-30-5.9-60-11.7-89.9-17.6c-32.8-6.4-65.5-12.7-98.3-19.1 C226.1,1147.5,212.6,1144.8,198.4,1142z"></path> <path class="st2" d="M1176.7,1075.9l-35.8-7.3l9.3-12.1c2-2.6,4.1-5.1,5.9-7.8c1.5-2.2,3.2-2.7,5.8-2.2c10.7,2.1,21.4,4.1,32.1,6.2 l77.9,15l95.8,18.4c28.6,5.5,57.2,11,85.8,16.4c22.4,4.3,44.7,8.5,67.1,12.8c1.4,0.2,2.7,0.9,3.6,2c1.3,1.7,2.4,1.4,3.7-0.1 c4-4.4,8.2-8.7,12.2-13l68.9-72.7c2.2-2.4,4.5-4.7,6.7-7.1c0.9-1.1,2.3-1.6,3.7-1.3c4.9,0.8,9.8,1.4,15.2,2.1 c-4.5,6.5-10.1,11.5-14.4,17.6c-2.8,5.8-7.8,9.8-11.8,14.7c-5.4,6.6-11,13.2-16.8,19.5c-1.3,1.2-1.6,3.1-0.7,4.6 c-9.8,10.6-19.7,21.1-29.5,31.7c-9.6,10.2-19.1,20.5-28.6,30.8c-1.1,1.5-3,2.1-4.8,1.7c-21.1-4.1-42.2-8.1-63.3-12.1l-87.1-16.6 c-38.2-7.3-76.4-14.6-114.5-21.9c-27.2-5.2-54.4-10.4-81.7-15.6c-1.1-0.2-2.2-0.6-3.3-0.8 C1177.7,1077.8,1177.7,1076.6,1176.7,1075.9z"></path> <path class="st2" d="M1624.2,992.8c-5.1,5.4-9.6,10.2-14.2,15l-64.6,68.2c-6.8,7.2-13.7,14.4-20.4,21.6c-1.3,1.7-3.5,2.4-5.5,1.9 c-27.9-5.5-55.8-10.8-83.7-16.2c-35.8-6.9-71.7-13.7-107.5-20.6l-100.8-19.4c-10.6-2-21.2-3.7-31.7-6.1 c-18.2-4.2-36.5-7.5-54.8-11.4c-1-0.2-1.9-0.5-2.8-0.8c-0.1-1.1,0.7-1.6,1.2-2.3c5.9-6.9,11.8-13.8,17.6-20.7c1.1-1.5,3-2.2,4.7-1.6 c19.4,3.9,38.9,7.6,58.3,11.4l85.3,16.8c32.5,6.4,64.9,12.8,97.4,19.2l106.2,20.8c3.6,0.7,7.2,1.7,10.8,2c1.8,0.2,2.8,3,4.8,1.6 c1.4-1.2,2.7-2.5,3.9-3.9l72.7-77.4c0.5-0.5,1-1,1.5-1.5c1.3-1.9,2.9-2.2,5.1-1.5C1612.9,989.5,1618.2,991,1624.2,992.8z"></path> <path class="st2" d="M1591,1081.6l-3-1.6l6.1-7.1c7.8-9.1,15.7-18.3,23.5-27.4c0.8-1,1.8-1.8,2.7-2.7l5.7,1.4 c-5.9,6.7-11.7,12.8-17.4,18.9L1591,1081.6z"></path> <path class="st2" d="M628.2,1100.1c-0.9-0.2-2-0.2-3-1.4c2.8-3.3,5.7-6.7,8.7-9.9c1.6-1.8,3.6-0.8,5.5-0.1 C635.3,1092.2,632.4,1096.9,628.2,1100.1z"></path> <path class="st2" d="M669.1,1094.7c6.4,0.8,12.7,2.4,19.1,3.5c2.4,0.4,1.2,1.6,1,2.6c-6.2-1.1-12.5-2.3-18.7-3.4 C668.9,1097.1,667.5,1096.6,669.1,1094.7z"></path> <path class="st2" d="M1176.7,1075.9c2.7,0.5,2.7,0.5,1.6,2.9C1175.6,1078.5,1175.6,1078.5,1176.7,1075.9z"></path> <path class="st2" d="M1113.1,968.5c0.1-0.1,0.2-0.2,0.3-0.2c0.9-0.2,1.8-0.5,2.4,0.5c0.1,0.2-0.3,0.8-0.6,0.9 C1114,970.2,1113.5,969.4,1113.1,968.5z"></path> <path class="st2" d="M1114.6,924.8c-0.6-0.2-1-0.7-0.5-1.2s1-0.1,1.4,0.3C1115.4,924.4,1114.9,924.5,1114.6,924.8z"></path> <path class="st2" d="M1623.1,950.6c-0.2-0.2-0.5-0.4-0.5-0.6c0-0.5,0.5-0.5,0.8-0.4c0.2,0.2,0.3,0.4,0.3,0.7 C1623.7,950.7,1623.4,950.8,1623.1,950.6z"></path> <path class="st2" d="M1114.6,924.8c0.1-0.5,0.5-0.7,0.9-0.9c0.1,0.2,0.4,0.5,0.4,0.6C1115.6,925,1115.1,925,1114.6,924.8z"></path> <path class="st2" d="M628.2,1100.1c-4.9,6.1-10.5,11.5-15.8,17.2c-14.2,15.2-28.4,30.4-42.5,45.7c-1.1,1.3-2.8,1.9-4.5,1.4 c-27-5.2-53.9-10.3-80.8-15.4l-92.1-17.6l-90.4-17.2c-21.8-4.2-43.6-8.3-65.4-12.5c-1-0.2-1.9-0.5-2.8-0.8c-1-1.7-2.7-1.8-4.4-2.2 c-3.9-0.8-7.7-1.5-11.6-2.3c-1.5-0.3-3.2-0.2-4-1.9l-35.8-7.2l12.3-15.9c1.6-2.1,3.5-4.2,4.9-6.4s3.3-2.6,5.8-2.1 c22.7,4.6,45.5,9.2,68.2,13.7l92,18.4c36.6,7.3,73.3,14.7,109.9,22c27.7,5.5,55.5,11,83.3,16.5c3.2,0.6,6.5,1,8.6,4.4 c4-3.3,7-7,10.3-10.4c20-21,39.9-42.1,59.8-63.3c2.7-2.8,5.1-3.4,8.9-2.7c37,7.4,74.1,14.5,111.2,21.8 c35.4,6.9,70.8,13.9,106.2,20.9c45.5,8.9,91.1,17.8,136.6,26.7c5.8,1.1,11.7,2.1,17.5,3.5c2.1,0.5,3.1,0,4.2-1.4 c7.3-8.7,14.7-17.3,22.1-25.8c3.8-4.4,7.6-8.8,11.3-13.3c1.3-1.6,2.6-2.5,4.7-1.6c0.6,0.3,1.4,0.1,2.1,0.4c2,0.8,3.3,0.2,4.8-1.4 c9-9.6,18.1-19.2,27.1-28.7c5.7-6.1,11.6-12.1,17.2-18.2c1.3-1.7,3.6-2.3,5.6-1.5c6.1,1.7,12.3,3.1,18.5,4.7 c0.9,0.1,1.7,0.6,2.2,1.3l-46.3,49.1c0.5,1.5,1.6,1.3,2.5,1.4c19.5,4.1,39,8.2,58.5,12.4c2.7,0.6,4.1-0.1,5.7-2.2 c3.5-4.6,7.3-9,10.8-13.7c1.8-2.4,3.6-3,6.4-2.4c15.3,3,30.6,5.9,45.9,8.8l91.7,17.5l95.5,18.2l92.1,17.5c11.8,2.2,23.7,4.1,35.4,7 c4.1,1,5.9-0.2,8.3-2.8c22.4-24,44.8-48,67.3-72c1.1-1.2,2-2.7,4.2-2.2c7.6,1.7,15.2,3.2,22.9,4.9c-0.2,1.7-1.3,2.4-2.1,3.3 c-31.5,33.4-62.9,66.8-94.4,100.2c-1.4,1.8-3.7,2.5-5.9,1.9c-45.4-9-90.8-17.9-136.2-26.7c-46.5-9.1-93-18.2-139.5-27.2l-104.1-20.3 c-1.5-0.3-3-0.4-4.9-0.7c-0.9,4.4-1.7,8.7-2.6,12.9c-0.4,2,0.7,2.4,2.3,2.7c6,1.1,12,2.3,17.9,3.5c31.5,6.2,63,12.3,94.6,18.5 c32.8,6.4,65.5,12.7,98.3,19.1c25.1,4.9,50.2,9.8,75.4,14.8c30,5.9,60,11.7,90,17.5c4,0.8,8,1.6,12.1,2.4c0.6,0.1,1.1,0.2,1.7,0.3 c1.2,0.3,1.8,2.2,3.2,1.5c1.1-0.7,2-1.6,2.8-2.6c22.1-23.5,44.3-47,66.4-70.5c3.2-3.4,6.5-6.7,9.6-10.2c1.3-1.5,2.4-1.9,4.4-1.3 c5.4,1.7,10.8,3.2,16.6,4.9c-1,2.2-2.8,3.6-4.3,5.1c-25.5,27-51,53.9-76.6,80.8c-6,6.4-12.2,12.7-18.1,19.1 c-1.2,1.6-3.3,2.2-5.2,1.7c-15.9-3.3-31.9-6.5-47.8-9.7c-30.5-6.1-61-12.2-91.6-18.2c-34.7-6.9-69.4-13.8-104.1-20.8l-96.2-19.2 l-49.1-9.8c-3.8-0.8-3.8-0.8-4.5,2.8c-0.6,3.1-1.2,6.1-1.8,9.2c-0.4,1.9,0,2.7,2.1,3.1c11.1,2.1,22.2,4.4,33.3,6.7 c33.3,6.7,66.6,13.3,99.9,19.9c32.2,6.4,64.4,12.8,96.6,19.3l108.6,21.7c17.6,3.5,35.2,7.1,52.9,10.4c3.1,0.6,5.9,2,8.2,4.1 c6.6-6.9,13-13.6,19.5-20.4c14.9-15.7,29.8-31.5,44.7-47.2c8.3-8.7,16.6-17.4,24.8-26.2c1.2-1.6,3.2-2.3,5.2-1.8 c4.6,0.8,9.2,1.4,13.8,2.1c0.1,1.6-1,2.2-1.6,3c-33,38.4-65.9,76.7-98.9,115.1c-1.9,2.2-3.6,2.8-6.5,2.2 c-27.7-5.7-55.5-11.1-83.2-16.7c-3.9-0.8-6.5-0.5-9.4,2.9c-38.3,44.3-76.7,88.4-115.2,132.4c-1.3,1.5-2.9,2.7-3.6,4.7h-2.6 c-0.6-0.6-1.3-0.4-1.9-0.4c-0.5,0-1.1,0.1-1.5-0.4c-9.7-2-19.4-4-29.1-5.9c-32.2-6.4-64.4-12.8-96.6-19.2 c-36.5-7.2-73-14.5-109.5-21.7c-27.6-5.5-55.2-11-82.8-16.5c-20.7-4.1-41.3-8.2-62-12.3c-1.4-0.3-2.7-0.6-4.1-0.9 c-0.1-1.6,1.1-2.4,1.8-3.4c4.8-6.3,9.8-12.5,14.5-18.9c1.7-2.4,3.4-2.7,6.1-2.2c17.5,3.6,34.9,7.1,52.4,10.6l91.6,18.2l108.7,21.7 l92,18.3c2.8,0.6,5.5,1.2,8.3,1.7c3.4,0.6,6.8,1,9,4.7c37.2-39.2,74.1-78.2,111.3-117.5c-5.8-1.2-11.1-2.2-16.3-3.4 c-2-0.4-2.8,0.9-3.9,2c-5.8,6-11.5,12.1-17.2,18.2l-56.2,59.2c-5.9,6.3-11.9,12.5-17.7,18.9c-2.1,2.3-4.1,3.2-7.4,2.5 c-53.1-10.7-106.2-21.4-159.4-32c-49.1-9.8-98.2-19.5-147.4-29.3c-22.9-4.5-45.8-9.1-68.7-13.7c-10.7-4.3-22-5.5-33.2-7.8 c-40.8-8.2-81.6-16.2-122.4-24.4l-70-14c-21.5-4.3-43-8.5-64.5-12.9c-2.6-0.5-3.6,0.8-4.9,2.3c-16.7,19.5-33.4,38.9-50.2,58.3 c-3.9,4.5-7.9,8.9-11.6,13.6c-1.8,2.3-3.5,2.6-6.2,2c-19.1-3.9-38.3-7.8-57.4-11.6c-29.1-5.8-58.3-11.6-87.4-17.3l-70.4-14 l-96.6-19.2c-24.4-4.9-48.9-9.7-73.3-14.6c-0.3-0.1-0.5-0.2-0.7-0.4c-0.2-1.3,0.9-2,1.6-2.8c5.1-6.6,10.2-13.2,15.3-19.9 c0.9-1.6,2.8-2.3,4.6-1.8c34.1,6.9,68.2,13.8,102.4,20.5c47.1,9.4,94.1,18.8,141.1,28.2c37.6,7.5,75.2,14.9,112.8,22.3 c2.3,0.5,4.5,1.7,6.1,3.4c4.1-3.8,8.3-7.4,12.1-11.3c20-21,40-42.1,59.8-63.3c1.9-2.1,3.8-2.4,6.3-1.9c27.8,5.6,55.5,11.1,83.3,16.6 c32.3,6.4,64.7,12.7,97,19.1c28,5.5,56.1,11.1,84.1,16.6c1.5,0.3,3.1,0.6,4.6,0.9s3.1,0.2,3.1,2.6c0,1.3,1.5,1.1,2.4,1.2 c14.3,2.8,28.6,5.6,42.9,8.4c27.1,5.3,54.2,10.6,81.2,15.9c31.1,6.1,62.2,12.1,93.3,18.2c32.6,6.4,65.3,12.7,97.9,19.1l72.1,14 c0.8,0.1,1.7,0.3,2.5,0.6c3.5,1.3,3.4,1.4,6-1.3c22.4-23.8,44.9-47.6,67.3-71.4c1.2-1.2,2.3-2.5,3.7-4.1c-5.6-1.8-11-2.3-16.3-3.6 c-1.5-0.4-2.3,0.7-3.2,1.7c-9.2,9.8-18.4,19.6-27.7,29.4c-9.5,10.1-19.1,20.2-28.5,30.4c-2,2.2-4,2.6-6.8,2 c-43.3-8.5-86.7-17-130-25.4c-32.8-6.4-65.5-12.8-98.3-19.3c-44.4-8.7-88.9-17.3-133.3-25.9c-2.2-0.4-4.4-1-6.6-1.4 c-0.5-0.1-1.4-0.3-1.1-0.9c1.5-2.9-1.2-2.3-2.3-2.5c-17.5-3.5-35-6.9-52.5-10.3c-28.2-5.6-56.4-11.1-84.5-16.7l-96.6-19 c-19.3-3.8-38.6-7.5-57.9-11.4c-3.2-0.9-6.5,0.2-8.7,2.7c-21.4,22.7-42.8,45.3-64.2,67.9c-0.7,0.7-1.4,1.4-2.1,2.1 c-1.2,1.8-2.7,1.7-4.5,1.4c-27.2-5.5-54.4-10.9-81.6-16.3c-30.5-6.1-61-12.2-91.5-18.3c-27.7-5.6-55.5-11.1-83.3-16.6l-100.8-20 c-7.7-1.5-15.5-3.1-23.1-4.7c-0.4-1.5,0.7-2,1.3-2.8c5-5.9,10.2-11.8,15.1-17.8c1.8-2.2,3.4-2.6,6.1-2.1c23.9,4.8,47.8,9.3,71.7,14 c25.7,5,51.4,10,77.1,15.1c29.8,5.8,59.7,11.7,89.5,17.5c32.8,6.4,65.5,12.8,98.3,19.1l18.8,3.7c2.2,0.4,4.4,0.8,6.2,2.7 c5.8-6.1,11.5-12.1,17.1-18.1c17.8-18.9,35.5-37.8,53.2-56.7c1.9-2,3.6-2.5,6.3-1.9c36.5,7.3,73,14.6,109.5,21.8 c26.2,5.2,52.5,10.4,78.7,15.7l100.8,20c7.5,1.5,15,3.1,22.5,4.4c28.9,4.7,57.5,10.8,86.3,16.1c27.3,5.1,54.5,10.3,81.7,15.6 c33.5,6.4,67,12.8,100.5,19.2c27.2,5.2,54.5,10.4,81.7,15.5c4,2.4,6.4,0.3,9.1-2.7c9.4-10.4,19.1-20.5,28.7-30.8 c0.2-0.3,0.5-0.7,0.7-1c-0.2-1.2-1.2-1.2-1.9-1.3c-4-0.8-8.1-1.5-12.1-2.5c-1.9-0.6-4,0.1-5.2,1.6c-5.4,6-11.1,11.8-16.4,17.8 c-1.9,2.1-3.7,3-6.6,2.4c-31.5-6.1-63.1-12.2-94.7-18.2l-74.2-14.1c-28.9-5.5-57.8-11-86.7-16.6c-30.6-5.8-61.1-11.6-91.7-17.5 c-29.9-5.7-59.7-11.4-89.6-17.4c-30.7-6.2-61.3-12.2-92-18.2l-78.7-15.6c-15.1-3-30.3-6-45.4-9c-1.1-0.1-2.2-0.4-3.2-1 c0.2-1.5,1.5-2.3,2.4-3.4c5.7-6.7,11.5-13.3,17.1-20.1c1.7-2.1,3.2-2.8,6.1-2.2c41.3,8.1,82.5,16,123.8,23.8 c39.3,7.5,78.7,15,118,22.5c19.2,3.7,38.4,7.3,57.5,11.1c2.4,0.5,3.9,0.1,5.4-1.8c2.9-3.7,6-7.1,9.2-10.9c-3.9-1.6-7.7-1.9-11.4-2.6 c-39.9-7.7-79.7-15.4-119.6-23c-49.6-9.5-99.2-19-148.9-28.4c-8.5-1.6-17-3.3-25.4-5c-2.2-2.8-5.6-2.2-8.5-3 c-3.8-1.1-8.1-0.6-11.5-3.1c-9.9-2.4-19.8-4.4-29.9-6c-6.4,0.1-8.6,5.5-12,9.3C626.5,1098.8,627.9,1099.4,628.2,1100.1z"></path> <path class="st2" d="M1256.6,827.8c18.7,4,37.3,7.9,56,11.9l123.3,26l127.5,26.8c14.9,3.2,29.9,6.3,44.8,9.5 c0.5,0.2,1.1,0.4,1.6,0.6c0,1.4-1.1,2-1.8,2.7c-30.2,32.3-60.3,64.5-90.5,96.8c-2.1,2.2-4,2.1-6.4,1.6c-20.8-4.2-41.6-8.3-62.4-12.4 c-27.8-5.5-55.5-10.9-83.3-16.4c-32.6-6.4-65.2-12.9-97.8-19.3c-30.9-6.1-61.9-12.2-92.9-18.2c-0.8,0-1.6-0.5-2-1.2 c3.4-4.6,6.9-9.4,10.4-14.1l67.8-92c0.8-1,1.4-2.1,2.2-3.2h0.8C1254.7,827.8,1255.9,827.1,1256.6,827.8z"></path> <path class="st2" d="M654.2,952.5c7-8.2,13.8-16.2,20.6-24.2c22.6-26.4,45.1-52.8,67.7-79.2c2.3-2.7,4.3-3.2,7.5-2.5 c56.5,12,112.9,23.9,169.4,35.8l177.3,37.4c1.5,0.3,3,0.7,4.6,1.1c0.2,1.7-1.3,2.4-2.2,3.4c-16.8,18.2-33.7,36.3-50.6,54.5 c-12.7,13.7-25.5,27.3-38.1,41.2c-2.3,2.5-4.5,3.1-7.7,2.4c-40.9-8.2-81.8-16.4-122.8-24.5c-40.7-8.1-81.3-16.2-121.9-24.3 c-33.3-6.6-66.6-13.2-99.9-19.8C656.8,953.6,655.4,953.1,654.2,952.5z"></path> <path class="st2" d="M183.4,1000.3c0.3-1.7,1.6-2.5,2.5-3.5c6-7,12-14,17.9-21c1.6-2,3.1-2.7,5.8-2.1c38.2,7.4,76.4,14.6,114.6,21.9 c40.7,7.8,81.4,15.6,122.2,23.4c35,6.7,70,13.3,105.1,20c0.4,0,0.8,0.1,1.2,0.3c4.1,2.4,6.4,0,9.1-2.8 c16.7-17.7,33.7-35.2,50.5-52.8c5.7-5.9,11.5-11.8,17-17.9c2.2-2.5,4.4-3.2,7.4-2.2c2,0.6,4.1,0.9,6.2,1.4c1.3,0.3,2.7,0.2,3.4,2 c0.5,1.2,2.3,1,3.5,1.2c14.7,3,29.4,5.8,44.1,8.8l95.8,19l100.7,20.1l91.6,18.2c8.6,1.7,17.3,3,25.8,5.3c4.1,1.1,6.2,0,8.7-2.8 c22.1-24,44.3-47.8,66.4-71.7c1.9-2,3.5-2.5,6.2-1.9c7.5,1.8,15.2,3.2,23.4,4.9c-2.1,2.3-3.8,4.2-5.7,6.1l-86.8,91 c-0.7,0.7-1.4,1.4-2.1,2.1c-2.1,2.1-3.7,5.3-6.4,6c-2.5,0.6-5.5-0.7-8.3-1.2c-27-5.2-53.9-10.5-80.8-15.8 c-31.4-6.1-62.8-12.2-94.2-18.2c-28.5-5.5-57-11-85.4-16.6c-26.8-5.2-53.6-10.4-80.4-15.6c-10.7-2.1-21.4-4.2-32-6.5 c-1.9-0.6-3.9,0-5.2,1.5c-21.7,23.2-43.5,46.2-65.1,69.4c-2.3,2.4-4.4,3.2-7.7,2.5c-45-8.9-90-17.7-135-26.4 c-47.2-9.2-94.4-18.5-141.6-27.7c-29.7-5.8-59.4-11.6-89.2-17.3C185.5,1001,184.4,1000.6,183.4,1000.3z"></path> <path class="st2" d="M1834.3,884.5c5.6,1.6,11.4,2.6,17.1,3.8c16.5,3.6,33,7.1,49.5,10.6c15,3.2,30.1,6.2,45.1,9.4 c16.6,3.5,33.2,7.1,49.7,10.6c17.7,3.7,35.4,7.4,53.1,11.1c15.9,3.3,31.8,6.8,47.7,10.2c17.7,3.7,35.4,7.4,53.1,11.1 c13.2,2.8,26.5,5.7,39.7,8.5c0.5,0.1,1,0.1,1.5,0.1c0.3,0.8-0.4,1.1-0.7,1.4c-7.4,7.9-14.8,15.7-22.2,23.6 c-10.5,11.2-21.1,22.5-31.6,33.7c-6.2,6.6-12.4,13.2-18.5,19.8c-6.8,7.3-13.7,14.6-20.4,22.1c-1,1.2-2.5,1.7-4,1.2 c-7.7-1.5-15.3-3.2-23-4.6s-15.7-2.8-23.5-4.3c-7-1.3-14-2.8-21-4.2c-7.2-1.4-14.5-2.6-21.7-3.9c-5.3-1-10.6-2.2-16-3.2 c-6.5-1.2-13.1-2.4-19.7-3.6c-5.4-1-10.7-2.2-16.1-3.2c-6.5-1.2-13.1-2.3-19.6-3.6c-6.1-1.2-12.1-2.5-18.1-3.6 c-6.6-1.2-13.1-2.4-19.7-3.6c-5.3-1-10.6-2.2-16-3.2c-6.6-1.2-13.2-2.6-19.8-3.7c-5.5-0.9-10.8-2.3-16.3-3.3 c-7.2-1.4-14.5-2.4-21.7-3.9c-5.2-1.1-10.4-2-15.6-3c-6.7-1.3-13.3-2.7-20.1-3.8c-5.3-0.9-10.6-2.1-15.9-3.2 c-4.9-1-9.8-1.9-14.7-2.8c-4.7-0.9-9.4-2.1-14.2-2.6c-0.5,0-0.9-0.4-0.4-1c2.4-2.9,4.9-5.7,7.3-8.6c2.9-3.4,5.8-6.9,8.8-10.3 s5.9-6.9,8.9-10.3s5.9-7,8.9-10.5s6-6.8,8.9-10.3s5.9-7,8.9-10.5s5.8-6.7,8.6-10s5.9-7,8.9-10.5c2.3-2.7,4.7-5.4,7-8 c0.4-1.7,1.8-2.7,2.8-3.9c4.1-4.8,8.3-9.6,12.3-14.5c0.6-0.7,1.3-1.3,2.1-1.7L1834.3,884.5z"></path> <path class="st2" d="M1920.6,1453.7c-2.7-1.4-5.7-1.5-8.5-2c-15.5-3.2-31-6.3-46.6-9.3c-8.2-1.6-16.4-3.3-24.6-4.8 c-11.5-2.1-22.9-4.5-34.3-6.8c-14.2-2.9-28.3-5.7-42.5-8.5c-10.4-2-20.8-3.9-31.2-6c-8.9-1.8-17.7-3.8-26.6-5.5 c-7.6-1.4-15.1-3-22.7-4.3c-8.9-1.6-17.6-3.7-26.5-5.4c-10.3-2.1-20.6-4-31-6.1c-5.9-1.2-11.9-2.5-17.8-3.7 c-7.6-1.5-15.3-2.8-22.9-4.3c-9.6-1.9-19.1-4-28.6-5.9c-7.3-1.5-14.6-2.9-21.9-4.3l-2.9-0.6c2.5-3.3,4.9-6.5,7.3-9.7 c3.6-4.7,7.3-9.2,10.8-14c0.6-1,1.9-1.5,3-1.1c17.3,3.5,34.6,7,51.9,10.5c14.3,2.9,28.5,5.7,42.8,8.5c14.8,2.9,29.5,5.8,44.3,8.7 c0.2,0,0.4,0.1,0.6,0.2l29.2,5.8l28.7,5.7l30.7,6.1l31.3,6.2l35,7l31.2,6.2l34.2,6.8c1.4,0.3,2.1,1.4,3,2.3c1.1,1,1.5,0.6,2.3-0.2 c2-1.8,3.5-4,5.4-5.9c4.9-4.8,9.3-10,14-14.9c4.1-4.2,8.1-8.6,12.1-13c5.2-5.7,10.4-11.2,15.6-16.8c4.7-5,9.2-10,14-14.9 c4.1-4.2,8-8.5,12-12.8s7.8-8.4,11.8-12.6s8-8.7,12.1-12.9s7.9-8.4,11.8-12.7c2.7-3,5.8-5.7,8.2-9c0.7-1.1,2-1.6,3.3-1.2 c8.1,1.7,16.2,3.3,24.3,5l32.9,6.6c7.3,1.4,14.7,2.9,22,4.3c1.4,0.3,2.2,1.4,3.1,2.4s1.5,1.6,2.2-0.1c0.4-0.6,0.9-1.1,1.4-1.6 c4.5-4.2,8.5-8.8,12.8-13.3c5.4-5.6,10.7-11.2,16-16.8c5-5.3,10-10.5,14.9-15.8c4.3-4.7,8.8-9.3,13.2-14c3.4-3.6,6.9-7.2,10.4-10.8 c5.3-5.5,10.4-11.2,15.9-16.7c1.2-1.2,2.4-2.6,3.4-4c1.5-2,3.3-1.9,5.4-1.6c4.7,0.7,9.4,1.4,14.4,2.2c-2.5,2.9-4.9,5.8-7.4,8.7 c-6.7,7.9-13.5,15.7-20.2,23.6c-5.6,6.6-11.4,13.1-17,19.7c-6.5,7.5-12.9,15.1-19.4,22.6c-5.6,6.6-11.3,13.1-17,19.7 c-6.7,7.8-13.5,15.6-20.1,23.5c-2,2.4-3.9,3.1-6.9,2.4c-16.2-3.6-32.6-6.8-48.9-9.9c-11.8-2.3-23.6-4.8-35.4-7.1 c-2.1-0.4-4.2-0.8-6.2-1.2c-1.4-0.3-2.8,0.2-3.6,1.4c-4.1,5.1-8.4,10.1-12.7,15.1l-17.5,20.7c-5.1,6-10.2,12-15.3,18.1l-17.3,20.5 l-15.4,18.2c-5.7,6.8-11.5,13.5-17.2,20.3c-3.7,4.4-7.4,8.9-11,13.3L1920.6,1453.7z"></path> <path class="st2" d="M1551.6,1083.3c6.5-7.5,13-15.1,19.5-22.6c10.7-12.4,21.3-24.8,31.9-37.3c0.3-0.4,0.8-0.6,0.8-1.2 c5.6-6.5,11.2-13,16.8-19.4c2.4-2.7,4.6-5.6,7-8.3c0.6-0.8,1.7-1.1,2.7-0.8c11.9,2.6,23.9,5.1,35.8,7.6c13,2.7,26.1,5.4,39.1,8.2 c12.6,2.7,25.1,5.3,37.7,8c0.9,0.4,2-0.1,2.4-1c0.8-1.5,2.2-2.5,3.2-3.8c0.8-1.1,2.1-0.6,3.2-0.4c11,2.1,22,4.2,32.9,6.3 c12.3,2.4,24.5,4.8,36.8,7.2c14.5,2.8,29,5.4,43.5,8.1c10,1.9,20,3.9,30,5.8c11.5,2.2,22.9,4.3,34.4,6.5c10.1,1.9,20.1,3.9,30.2,5.9 c10.7,2,21.4,4,32.1,6c1.2,0.4,2.5,0.5,3.8,0.3c-0.9,1.2-1.4,1.9-2,2.6c-5.4,5.7-10.8,11.4-16.1,17.1 c-10.5,11.2-21.1,22.5-31.6,33.7c-5.8,6.3-11.7,12.5-17.5,18.8l-31.4,33.6c-1.3,1.3-2.5,2.6-3.7,4.1c-1.8,2.6-4.1,2.7-6.7,2 c-5.1-1.3-10.2-2.1-15.3-3c-5.4-0.9-10.7-2.2-16.1-3.2c-7.2-1.4-14.4-2.6-21.7-4c-5.3-1-10.6-2.2-16-3.2c-6.6-1.2-13.2-2.5-19.9-3.7 c-5.3-1-10.6-2-15.9-3.1c-4.8-1-9.7-1.9-14.5-2.8c-7.7-1.5-15.5-3-23.2-4.4c-6.6-1.2-13.2-2.5-19.9-3.7c-5.3-1-10.6-2-16-3.1 c-6.5-1.3-13.1-2.4-19.6-3.6c-5.3-1-10.6-2.2-15.9-3.1c-7.3-1.3-14.6-3-22.1-4.1c-2-0.3-4-0.8-6-1.3c-2.5,0.4-4.8-0.5-7.1-0.9 c-18-3.4-36.1-6.9-54.1-10.3c-0.9-0.2-1.7-0.6-2.5-1c-6.5-1.2-13.1-2.5-19.6-3.7s-13.1-2.4-19.7-3.6c-2.1-0.4-4.1-0.9-6.4-1.5 c2-2.4,3.9-4.6,5.7-6.8c3.3-3.9,6.6-7.7,9.9-11.6C1550.9,1083.9,1551.2,1083.6,1551.6,1083.3z"></path> <path class="st2" d="M1677.9,1317.2c-2.6-0.6-5.1-1.2-7.7-1.7c-6.9-1.4-13.9-2.7-20.8-4c-4.7-0.9-9.4-1.8-14.2-2.8 c-6.9-1.4-13.9-2.7-20.8-4.1c-4.7-0.9-9.4-1.8-14.1-2.7c-6.9-1.4-13.8-2.8-20.8-4.1c-4.6-0.9-9.3-1.8-13.9-2.7c-7-1.4-14-2.7-21-4.2 c-2.6-0.5-5.3-0.7-8-1.7c3.1-3.5,6-6.9,8.9-10.3s5.7-6.7,8.5-10c1.8-2.2,3.7-4.3,5.6-6.5c0.5-0.6,1-0.4,1.5-0.3 c15,2.9,30,5.9,45,8.7c11.9,2.2,23.7,4.4,35.6,6.8c4.4,0.9,8.8,1.6,13.2,2.3l27.7,5.4c7.8,1.5,15.6,3.1,23.4,4.6 c8.5,1.6,17,3.2,25.5,4.8c9.3,1.8,18.6,3.6,28,5.4c8.5,1.6,17,3.2,25.6,4.8c10.1,1.9,20.1,3.9,30.2,5.8c8.4,1.6,16.9,3.2,25.3,4.8 c10.2,1.9,20.3,3.9,30.4,5.9s20,3.8,30.1,5.6c2.6,0.5,5.2,1,7.8,1.5c1.5,0.3,2.5,0.4,2.4-1.6c-0.1-2.5,1.7-4.1,3.2-5.8 c4.1-4.6,8.3-9.1,12.4-13.7c3.8-4.3,7.5-8.7,11.3-12.9c2.9-3.3,6-6.5,8.9-9.8c2.7-3,5.2-6.2,7.9-9.2s5.5-6.1,8.3-9.2 s5.6-6.4,8.4-9.6s6.4-6.2,8.8-9.9c3.1-4.8,6.9-2.2,10.3-1.7c7.9,1.3,15.8,3,23.7,4.6c0.6,0.1,1.1,0.3,1.8,0.5 c-1,1.1-1.8,2.2-2.8,3.2c-8.5,8.9-16.9,17.9-25.4,26.8c-9.2,9.7-18.3,19.4-27.5,29.2l-20.2,21.5c-9.6,10.2-19.2,20.5-28.8,30.8 c-1,1.1-2,0.7-3,0.5c-8.5-1.6-17-3.2-25.5-4.8c-4.4-0.8-8.9-1.9-13.3-2.7c-6.6-1.2-13-2.8-19.6-3.8c-5.2-0.8-10.3-2.3-15.5-3.1 c-6.4-1.1-12.8-2.7-19.2-3.7c-5.3-0.8-10.4-2.3-15.7-3.2c-6.4-1-12.8-2.7-19.2-3.6c-5.1-0.8-10.2-2.1-15.3-3 c-6.6-1.2-13-2.8-19.6-3.8c-5.2-0.8-10.3-2.2-15.5-3.1c-6.4-1.1-12.8-2.7-19.2-3.7c-5.3-0.8-10.5-2.2-15.7-3.2s-10.8-2.1-16.2-3.2 C1678.6,1317.2,1678.2,1317.2,1677.9,1317.2z"></path> <path class="st2" d="M1630.7,1169.3c-7.7-1.5-15.4-3.2-23.2-4.5c-6.4-1.1-12.7-2.7-19.2-3.6c-5.1-0.7-10.2-2.1-15.3-3 c-6.5-1.2-13-2.8-19.6-3.8c-5.2-0.8-10.3-2.1-15.5-3.2c-4.8-1-9.7-1.9-14.5-2.8c-0.7-0.1-1.7-0.3-1.9-0.7c-0.3-0.7,0.6-1.2,1-1.7 c4-4.7,7.9-9.3,11.9-14c3.1-3.6,6.4-7.2,9.5-10.9c0.3-0.5,1-0.7,1.6-0.5c11.2,2.2,22.4,4.4,33.7,6.6c0.7,0.1,1.4,0.1,2.1,0.1 c6,0.2,11.8,1.8,17.7,2.9c9.9,1.8,19.8,3.7,29.7,5.6c1,0.2,2.1,0.2,2.9,1.1c4.4,0.9,8.8,1.8,13.1,2.6c8.6,1.7,17.1,3.4,25.7,5 c10,1.9,20,3.7,30.1,5.6c7.8,1.5,15.6,3,23.4,4.5c8.5,1.6,17,3.2,25.6,4.8c10.1,1.9,20.1,3.9,30.2,5.8c8.5,1.6,17,3.2,25.5,4.8 c9.3,1.8,18.7,3.6,28,5.4c8.5,1.6,17,3.2,25.5,4.8c10.1,1.9,20.1,3.9,30.2,5.8c2.1,0.4,4.3,0.3,6.2,1.6c0.6,0.4,1-0.5,1.4-1 c4.7-4.9,9.3-10,14-14.9c5-5.1,9.7-10.4,14.6-15.5c4.2-4.3,8.2-8.7,12.3-13.1s8.3-8.8,12.4-13.2s8.2-8.7,12.2-13.1s7.8-8.6,12-12.7 c0.5-0.6,1.4-0.9,2.2-0.6c8.1,1.7,16.3,3.2,24.8,4.8c-4.1,4.3-8,8.4-11.8,12.5c-9.5,10.1-19,20.1-28.5,30.2 c-6,6.4-11.9,12.8-17.9,19.2c-10,10.6-20,21.2-30,31.8c-5,5.3-10.2,10.6-14.9,16.2c-2,2.4-4.1,2.6-6.6,1.8 c-4.7-1.4-9.6-1.8-14.3-2.9c-7.1-1.6-14.2-2.9-21.4-4.3c-5.2-1-10.5-2-15.8-3c-6.9-1.3-13.9-2.7-20.8-4.1l-13.9-2.7 c-6.9-1.3-13.9-2.7-20.8-4c-7.9-1.5-15.7-3.2-23.7-4.5c-5.2-0.8-10.3-2.3-15.5-3.1c-6.4-1.1-12.8-2.7-19.2-3.7 c-5.2-0.8-10.3-2.2-15.6-3.1c-6.5-1.1-12.9-2.7-19.4-3.7c-5.2-0.8-10.3-2.1-15.5-3.2c-4.5-0.9-9-1.8-13.5-2.7 c-0.8,0.3-1.7,0.3-2.5,0c-8.8-1.8-17.6-3.4-26.4-5.2C1632,1170,1631.3,1169.8,1630.7,1169.3z"></path> <path class="st2" d="M1667.7,1267.1c-2.3-1-4.9-1.2-7.3-1.7c-5-1-10-1.9-15-2.8l-16.6-3.2l-21.2-4l-14.6-2.8l-14.4-2.8 c-2.3-0.4-4.6-0.8-6.8-1.2c0-0.3-0.1-0.4-0.1-0.5c1-1.1,2.5-2-0.6-2.5c-6.1-0.9-12-2.4-18-3.6l-20.5-4.1l-16.4-3.2 c2.7-3.6,5.3-7,7.9-10.4c3.2-4.2,6.5-8.3,9.7-12.5c1.2-1.5,2.2-2.2,4.4-1.7c12.4,2.6,24.9,4.9,37.3,7.4c20.3,4,40.5,8.1,60.8,12.2 c6.4,1.3,12.9,2.6,19.3,3.9c0.6,0.1,1.1,0.1,1.7,0.1c1.4,0,2.8-0.2,3.9,0.8c3.9,1.2,7.9,1.7,11.8,2.5c10.4,2.2,20.8,4.2,31.2,6.3 c8.7,1.8,17.5,3.5,26.2,5.2c11.2,2.2,22.3,4.4,33.5,6.6c11,2.2,21.9,4.4,32.9,6.6c11.1,2.2,22.2,4.5,33.2,6.7 c10.2,2,20.5,4,30.8,6.1c7.4,1.5,14.8,3,22.3,4.5c4.5,0.9,8.9,1.9,13.4,2.6c1.8,0.3,2.6,1.5,3.8,2.4c1,0.8,1.4,0.7,2.2-0.1 c4.4-4.6,8.7-9.2,13.2-13.7c4.7-4.6,9.1-9.5,13.7-14.2c3.4-3.5,7-6.9,10.3-10.6c3.1-3.6,6.7-6.7,9.8-10.2s6.7-6.7,9.8-10.2 s6.7-6.7,9.8-10.2s6.9-6.9,10.1-10.5s6.6-7,10-10.3c0.8-0.8,1.5-1.7,2.1-2.6c1.4-2.3,3.4-2,5.6-1.7c4,0.8,8,1.3,12,1.5 c0.2,0.6,1.4-0.4,1.3,0.8c-3.1,3.5-6.2,6.9-9.2,10.4c-4.1,4.7-8,9.4-12.1,14.1c-5.7,6.7-11.4,13.4-17.2,20.1 c-4.6,5.3-9.2,10.7-13.8,16c-5.9,6.9-11.9,13.8-17.8,20.7c-4.6,5.3-9.1,10.6-13.7,15.8c-5.9,6.9-12,13.7-17.7,20.8 c-2,2.5-4.3,2.3-6.6,1.8c-5.8-1.2-11.6-2.2-17.4-3.3c-7.7-1.5-15.3-3-23-4.5c-6.6-1.2-13.1-2.3-19.7-3.6c-5.3-1-10.6-2.1-15.9-3.2 c-4.8-1-9.7-1.9-14.5-2.8l-21.2-4l-14.5-2.8c-4.8-0.9-9.6-1.8-14.4-2.7c-6.6-1.2-13.1-2.4-19.7-3.6c-5.4-1-10.7-2.2-16.1-3.2 c-6.5-1.2-13.1-2.3-19.6-3.6c-5.4-1-10.7-2.2-16.1-3.2c-6.9-1.3-13.7-2.7-20.6-4C1668.8,1267,1668.3,1267,1667.7,1267.1z"></path> <path class="st2" d="M1669.8,1220.4c-5.7-1.1-11.3-2.1-16.9-3.2c-6-1.2-12.1-2.5-18.1-3.7c-6.8-1.4-13.6-2.7-20.4-4.1l-22.5-4.5 c-8.1-1.6-16.2-3.3-24.3-4.9c-6.2-1.2-12.4-2.3-18.6-3.6c-6-1.2-12-2.5-18-3.7c-4.6-0.9-9.2-1.8-13.9-2.7c-0.8-0.2-2-0.1-2.3-0.9 s0.8-1.4,1.3-2c3-3.6,6-7.1,9-10.7c2.7-3.2,5.5-6.3,8.2-9.5c0.6-0.6,1.5-0.9,2.3-0.6l32.1,6.3c12,2.4,23.9,4.8,35.9,7.1 c4.3,0.8,8.7,1.5,13,2.3c10.2,1,20,3.7,30.1,5.4c0.9,0,1.7,0.4,2.3,0.9c3.8,1.2,7.9,1.7,11.8,2.5c5.5,1.2,11,2.1,16.5,3.2 c9.1,1.8,18.2,3.6,27.3,5.4c8.4,1.7,16.8,3.3,25.2,5c9,1.8,18.1,3.5,27.2,5.2c7.7,1.5,15.3,3,23,4.5c9,1.8,18.1,3.5,27.2,5.2 c8.3,1.6,16.7,3.3,25,4.9c9,1.8,18.1,3.5,27.2,5.3c8.4,1.6,16.8,3.3,25.2,5c3.9,0.8,7.8,1.5,11.7,2.2c0.3,0,0.7,0.1,1,0.2 c0.8,0.3,1.3,1.9,2.1,1.4c1.2-0.7,2.3-1.7,3.1-2.8c0.7-1,1.5-2,2.5-2.9c3.8-3.5,7.1-7.5,10.7-11.2c4.8-4.9,9.4-9.9,14.1-14.9 c4.5-4.7,8.8-9.4,13.3-14.1c4.8-5,9.5-10,14.2-15c4.5-4.8,9-9.5,13.4-14.3c3.8-4.2,7.9-8.2,11.6-12.5c0.8-1.1,2.3-1.6,3.6-1.2 c6.6,1.5,13.3,2.6,20.3,4c-5.2,5.4-10.2,10.5-15.2,15.7c-10.5,10.9-21,21.8-31.4,32.7c-6.4,6.7-12.8,13.4-19.2,20.1 c-10,10.5-20,20.9-30.1,31.4c-3.7,3.9-7.4,7.8-11,11.7c-0.9,1-2.1,0.6-3,0.4c-14.1-2.9-28.2-5.7-42.4-8.4 c-11.1-2.1-22.1-4.5-33.2-6.7c-10.2-2-20.5-3.9-30.8-6c-9.6-1.9-19.2-4-28.8-6c-11-2.2-22-4.2-33-6.4c-9.5-1.9-18.9-4-28.4-5.8 c-7.6-1.5-15.3-2.9-22.9-4.3c-0.5-0.1-0.9-0.2-1.3-0.4C1673.5,1221.2,1671.5,1221.7,1669.8,1220.4z"></path> <path class="st2" d="M1705.1,1366.2c-2.6-1.1-5.3-1.2-8-1.8c-6-1.3-11.9-2.4-17.9-3.6c-6.8-1.4-13.6-2.8-20.4-4.2 c-8.1-1.6-16.2-3.2-24.3-4.8c-8.2-1.6-16.5-3.3-24.8-5c-7.6-1.5-15.1-3.1-22.7-4.6c-6.7-1.3-13.4-2.6-20.1-3.9s-13.3-2.6-19.9-4 c-5.4-1.1-10.7-2.2-16.1-3.4c-0.3-0.1-0.6-0.2-0.9-0.3l6-7c3.9-4.6,7.8-9.2,11.8-13.8c1.2-1.4,2.2-2.2,4.4-1.8 c13.7,2.9,27.3,5.5,41,8.2c16.4,3.2,32.8,6.3,49.2,9.4c7.7,1.5,15.5,3,23.2,4.6c10,2,20,4,30,6c11.2,2.2,22.5,4.3,33.8,6.5 c12,2.3,24,4.8,36,7.1c11.2,2.2,22.5,4.3,33.7,6.5c12,2.3,24,4.8,35.9,7.1c10.6,2.1,21.1,4,31.7,6.1c11.2,2.2,22.5,4.5,33.7,6.7 c3.8,0.8,7.7,1.5,11.5,2.2c0.7,0.1,1.3,0.4,1.8,0.9c1.1,1.3,2,1.1,2.8-0.3c0.2-0.4,0.4-0.7,0.7-1c4.1-3.8,7.8-8.1,11.7-12.2 c4.1-4.3,8-8.7,12.1-12.9c5.4-5.6,10.5-11.4,16-16.9c4.6-4.6,8.9-9.5,13.4-14.3c4.7-5,9.4-9.9,14-14.9c4.8-5.2,9.8-10.3,14.5-15.6 c0.4-0.4,1-0.6,1.5-0.4c5.7,1.1,11.5,2.2,17.2,3.4c0.4,0.2,0.8,0.3,1.2,0.6c-3.9,4.2-7.7,8.3-11.6,12.4 c-10.6,11.3-21.2,22.6-31.7,33.9c-5.8,6.2-11.6,12.4-17.3,18.6c-10.1,10.8-20.2,21.6-30.2,32.4c-4.4,4.7-8.8,9.4-13,14.2 c-1.7,1.9-3.5,0.6-5.1,0.3c-8.1-1.5-16.1-3.3-24.1-4.9c-9.7-1.9-19.4-3.7-29.1-5.6c-8.1-1.6-16.2-3.4-24.3-5 c-8.9-1.8-17.8-3.5-26.7-5.2c-8.2-1.6-16.3-3.3-24.5-5c-8.8-1.8-17.6-3.5-26.4-5.2c-7.6-1.5-15.2-3.1-22.8-4.6 c-6-1.2-12.1-2.3-18.1-3.5c-2.5-0.5-4.9-1.1-7.4-1.6C1706.1,1366.2,1705.6,1366.2,1705.1,1366.2z"></path> <path class="st2" d="M2215.5,1147.8c-3.3,3.5-6.4,6.8-9.5,10.1c-10,10.6-20.1,21.3-30.1,31.9c-6.8,7.2-13.7,14.5-20.5,21.8 c-9.2,9.8-18.4,19.5-27.6,29.3c-3.5,3.8-7.1,7.5-10.5,11.3c-0.9,1.1-2.4,1.6-3.8,1.1c-9.4-1.9-18.8-3.7-28.2-5.5 c-8.3-1.5-16.5-3.4-24.8-5s-16.8-3.1-25.2-4.7c-9-1.7-17.9-3.7-26.8-5.4c-4.2-0.8-8.5-1.6-12.9-2.6c1.5-1.8,2.8-3.3,4.2-4.9 c4-4.4,8.2-8.7,11.9-13.2c2.5-3.1,5.5-5.8,7.8-9c0.5-0.8,1.5-1.1,2.3-0.8c8.6,1.7,17.2,3.3,25.7,5c10.1,1.9,20.1,3.9,30.2,5.8 s20,3.7,30,5.7c2.7,0.5,5.6,0.5,8,2.1c0.5,0.3,0.9-0.1,1.3-0.5c3.7-4.3,7.8-8.3,11.6-12.5c3.4-3.7,6.9-7.4,10.4-11.1 c4.9-5.3,9.8-10.6,14.9-15.8c4.2-4.3,8.2-8.8,12.4-13.2s8.3-8.8,12.4-13.2c3.3-3.7,6.9-7,10-10.8c0.5-0.7,1.4-1,2.3-0.7 C2198.9,1144.6,2207,1146.1,2215.5,1147.8z"></path> <path class="st2" d="M2199.8,1006.3c-1.9,2.1-3.6,3.9-5.2,5.7c-8.2,8.7-16.5,17.5-24.8,26.2c-9.3,9.9-18.6,19.7-27.9,29.6 c-6.9,7.3-13.8,14.6-20.6,21.9c-6,6.4-12.1,12.7-17.9,19.2c-1.8,2.4-4.8,3.4-7.6,2.5c-8-1.7-16-3.3-24-4.7 c-10.4-1.9-20.7-4.2-31.1-6.3c-7.6-1.5-15.2-2.9-22.8-4.3c-10-1.9-19.9-3.9-29.9-5.9c-0.1,0-0.2-0.1-0.3-0.2c-0.1-0.7,0.5-1,0.9-1.3 c3.6-3.3,6.7-7.1,10.1-10.6c4.2-4.4,8.2-9.1,12.6-13.3c0.5-0.5,0.6-0.8,0-1.3c-0.7-0.6-1.2-1.6-2-2.2c3.4,0.6,6.8,1.2,10.2,1.8 c9.4,1.8,18.8,3.6,28.2,5.4c10.1,2,20.1,3.9,30.2,5.8c6.4,1.2,12.8,2.4,19.2,3.5c0.6,0,1.1,0.2,1.6,0.4c2.4,1.8,3.6-0.3,4.8-1.7 c0.6-0.8,1.2-1.5,1.9-2.2c3.5-3.3,6.6-7,9.9-10.4c4.2-4.4,8.4-8.9,12.6-13.3s8.3-8.8,12.4-13.2s8.4-9,12.7-13.5s8.2-8.7,12.2-13.1 c2.5-2.8,5.5-5.2,7.6-8.4c0.9-1.3,1.9-1.4,3.4-1C2183.7,1003,2191.6,1004.6,2199.8,1006.3z"></path> <path class="st2" d="M2000,1181.7c0.9-0.7,1.8-1.4,2.6-2.2c5.6-5.2,10.3-11.2,16-16.3c1.4-1.4,2.8-2.9,4-4.6c0.8-1,2.1-1.4,3.3-1 c12.5,2.5,24.9,5,37.4,7.5c12.9,2.6,25.8,5.1,38.7,7.7c1.9,0.4,3,2.2,4.6,3.4c4.9-5.2,9.8-10.5,14.8-15.6c3.7-3.8,7.3-7.6,11-11.4 c5.2-5.4,10.3-10.8,15.4-16.2s10.4-10.9,15.5-16.4l15.5-16.4c5.1-5.4,10.4-10.7,15.3-16.3c2.5-2.8,4.5-3.4,8-2.5 c6.4,1.6,13,2.6,19.8,3.9l-9.8,10.5c-10.5,11.2-21,22.4-31.4,33.6c-5.1,5.5-10.2,11.1-15.4,16.6c-11.8,12.7-23.7,25.4-35.6,38.1 c-5.3,5.7-10.9,11.3-15.9,17.3c-2.3,2.8-4.7,2-7.2,1.5c-6.7-1.2-13.4-2.5-20-3.8c-5.3-1-10.6-2-15.9-3.1c-6.6-1.3-13.2-2.4-19.8-3.7 c-6-1.1-11.9-2.4-17.9-3.5c-6.6-1.2-13.2-2.7-19.9-3.7c-4.3-0.7-8.5-1.8-12.8-2.6L2000,1181.7z"></path> <path class="st2" d="M2204.8,1050.1c-2.1,2.3-4,4.4-6,6.5c-7.3,7.6-14.6,15.2-21.8,22.9c-7.9,8.2-15.7,16.5-23.5,24.8 c-7.7,8.1-15.4,16.2-23,24.3c-8.5,9-17,18-25.4,27c-1.1,1.3-2.8,1.8-4.4,1.2c-7.1-1.5-14.2-2.9-21.3-4.2c-8.2-1.5-16.3-3.4-24.4-5.1 c-8.8-1.8-17.7-3.3-26.6-5.1c-9.5-1.9-19.1-3.9-28.6-5.9l-3.2-0.6c1.5-1.7,2.7-3.3,4.1-4.7c5.3-5.6,10.7-11.2,15.9-16.9 c1.3-1.6,3.3-2.2,5.3-1.7c12.3,2.4,24.5,4.8,36.8,7.3c13.5,2.7,27,5.2,40.6,7.8c1.6,0.3,3.2,0.4,4.4,1.8c0.9,1,1.4-0.1,1.8-0.6 c5.6-5.8,11-11.7,16.6-17.4c5.4-5.5,10.5-11.3,16-16.9c4.6-4.6,8.9-9.5,13.4-14.3c4.7-5,9.3-9.9,14-14.9c4.5-4.8,9-9.7,13.6-14.4 c1.7-1.8,3.3-3.7,4.9-5.5c0.6-0.8,1.8-1.2,2.8-0.7C2192.7,1046.6,2198.6,1048.3,2204.8,1050.1z"></path> <path class="st2" d="M2119.8,1272c5.1-5.5,10.1-10.9,15.2-16.1c5.5-5.7,10.9-11.6,16.4-17.3c4.7-4.8,9.2-9.7,13.8-14.6 s9.2-9.9,13.9-14.7s9-9.5,13.4-14.3c2.6-2.8,5.5-5.5,7.9-8.4c0.7-0.8,1.1-0.3,1.6-0.2c6.1,1.7,12.2,3.5,18.2,5.3 c0,0.8-0.6,1.1-1,1.5c-7.1,7.5-14.3,14.9-21.4,22.4c-7.7,8.1-15.5,16.3-23.2,24.5c-7.7,8.2-15.4,16.3-23,24.3 c-7.9,8.3-15.8,16.6-23.6,24.9c-2.5,2.6-5.1,5.1-7.4,7.9c-0.9,1.3-2.6,1.9-4.1,1.4c-7.4-1.5-14.8-3.2-22.2-4.6 c-6.7-1.4-13.5-2.5-20.2-3.9c-7.4-1.5-14.8-3-22.1-4.5s-15-3-22.5-4.5c-5.2-1-10.4-2-15.6-3c-1.2-0.2-1.8-0.8-0.7-1.9 c4.2-3.9,7.9-8.2,11.8-12.4c2.9-3.1,6.1-5.8,8.6-9.3c0.4-0.6,0.9-0.7,1.8-0.6c7.7,1.6,15.5,3,23.2,4.5c8.4,1.6,16.9,3.3,25.3,5 c9.9,2,19.7,3.9,29.6,5.8C2115.7,1269.6,2118.3,1269.3,2119.8,1272z"></path> <path class="st2" d="M1631.6,1136.9c-13.7-2.6-27.5-5.2-41.2-7.8c-3-0.6-6.1-1.2-9.1-1.9c2.3-0.8,3.4-2.8,5.1-4.4 c2.8-2.6,2.7-2.7,0-5.4c-1.9-2-3.8-4-5.8-5.9c9.9,1.9,19.8,3.7,29.8,5.6c11.1,2.1,22.2,4.2,33.3,6.3c0.3,0.1,0.5,0.2,0.8,0.3 c-3.3,3.9-7.1,7.2-10.6,10.9C1633,1135.4,1632.3,1136.2,1631.6,1136.9z"></path> <path class="st2" d="M1649,1188.4c-7.1-1.3-14.2-2.6-21.2-4c-3.7-0.7-7.4-1.6-11.2-2.3c0.8,0.1,1.6-0.1,2.2-0.6c4-4.1,8-8.1,12-12.2 c6.4,1.2,12.8,2.4,19.3,3.6c3.9,0.8,7.8,1.6,11.8,2.4c-3.7,3.8-7.4,7.5-11.1,11.2C1650.1,1187.2,1649.5,1187.8,1649,1188.4z"></path> <path class="st2" d="M1669.8,1220.4c1.9,0.2,3.8,0.6,5.6,1.2c-0.8-0.1-1.6,0.1-2.2,0.6c-4,4.1-7.9,8.1-11.9,12.2 c-1.3,0-2.7-0.3-3.9-0.8c4.3-3.8,8.2-8.1,12.3-12C1670,1221.3,1670.1,1220.8,1669.8,1220.4 C1669.8,1220.4,1669.8,1220.4,1669.8,1220.4z"></path> <path class="st2" d="M2010.3,1191.8c-0.1-0.8-1-0.4-1.3-0.8C2009.5,1191.2,2010.6,1190.4,2010.3,1191.8z"></path> <path class="st3" d="M2216.6,456.8c-0.6-22.6-15.3-41.6-32.8-54.6c-19.7-14.6-44.9-24.8-69.8-22.7c-21.2,1.7-42.3,13.1-52.4,32.2 c-9.3,17.5-7.5,40.6,5.2,56c12.2,14.5,32.9,18.5,49.5,9.4c19.3-10.3,22.7-32.7,13.5-51.4c-19.2-39.3-70-57-111.2-49.6 c-47.6,8.5-86,49.1-94.2,96.4c-0.8,4.9,7.3,9.3,8.7,3.5c8.7-35.1,31.5-66.9,65.2-81.7c33.4-14.7,75.1-10.1,103.6,13.2 c13,10.6,29.7,30.6,20.5,48.5c-6.6,12.9-24.9,18-37.9,12.7c-15.4-6.2-21.3-25.2-18.1-40.4c3.8-18,20.1-30.5,37.1-35.3 c23.6-6.8,49,1.5,69,14.2c17.6,11.1,33.6,28.3,34.6,50.1C2207.6,463.8,2216.8,463.8,2216.6,456.8L2216.6,456.8z"></path> <path class="st4" d="M261.8,564.3c-19.7-13.3-45-11.7-66.5-4c-21.3,7.7-41.9,21.2-54.3,40.5s-16.1,45.2-5.7,66.3 c9.1,18.4,29.8,31.8,50.7,29.3c19.2-2.3,33.5-18.3,35.4-37.4c2.1-21.9-13.8-38.7-34.8-42.2c-41.9-6.9-84.2,22.3-103.1,58.2 c-23.7,44.9-13.5,104.2,22.2,139.9c2,2,5.2,2.1,7.3,0.1c0.2-0.2,0.3-0.4,0.5-0.6c2.2-2.9,0.8-6.5-1.2-8.9 C88,776.8,76,736.8,87.2,700.2c10.2-33.2,38.3-60.2,72.2-68.3c14.8-3.5,38.2-4.3,47,10.9c7.1,12.2-0.3,29.4-11.8,36.1 c-14.2,8.3-33,2.1-43.3-9.4c-12.6-14-11.8-35.5-4.5-51.8c8.8-19.8,28.1-33.7,47.5-41.8c19.9-8.4,44.1-12.2,63.3,0 c2.8,1.8,6.4,0.1,7.5-2.8C266.4,569.8,264.6,566.2,261.8,564.3L261.8,564.3z"></path> <path class="st5" d="M1485.7,400.4c-8.1-20.7-26.8-33.7-47.2-40.6c-22.5-7.7-49-9-71.6-0.6c-20,7.5-37.4,24-42.9,45 c-5.3,20.2,1.6,43.1,18.4,55.9c16.3,12.5,39,11.5,53.7-3.2c15.9-16,13.8-38.9-0.8-55s-37.2-23.8-58.3-25.8c-21.9-1.9-44,2.6-63.4,13 c-43.5,23.7-68.1,76.7-59.2,125.3c1.4,7.5,11.9,8,11.1-0.5c-3.5-36.2,7.8-74.2,35.5-98.8c27.2-24.2,68.1-32.5,102.3-19.2 c14.1,5.5,34.5,18.3,31.7,36.2c-2.3,14.8-19.9,25.5-34.2,22.4c-15.7-3.4-26.4-19.6-26.3-35.2c0.2-17.8,12.6-33.5,27.4-42.2 c20.2-11.9,46.1-11.6,68.1-5.8c18.2,4.8,37.5,14.8,45.1,33.1C1478.4,412,1488.8,408.2,1485.7,400.4L1485.7,400.4z"></path> <path class="st4" d="M2145.1,1433.6c19.9,13,45.1,11.1,66.6,3.1c21.2-7.9,41.6-21.8,53.8-41.2c12.2-19.6,15.5-45.4,4.9-66.4 c-9.2-18.2-30.2-31.4-51-28.6c-19.2,2.6-33.3,18.7-34.9,37.9c-1.8,21.9,14.2,38.6,35.3,41.8c42.2,6.3,83.8-23.6,102.4-59.8 c23-45.1,11.9-104.3-24.3-139.3c-2-2-5.2-2.1-7.3-0.1c-0.2,0.2-0.3,0.4-0.5,0.6c-2.1,2.8-0.8,6.5,1.2,8.9 c24.6,28.3,37.4,68,26.7,104.9c-9.7,33.4-37.3,60.8-71.1,69.4c-14.7,3.7-38.1,5-47.2-10.1c-7.3-12.1-0.2-29.3,11.1-36.3 c14-8.6,32.9-2.7,43.5,8.6c12.9,13.8,12.4,35.2,5.4,51.7c-8.5,20-27.5,34.1-46.9,42.6c-19.7,8.7-44,12.9-63.3,1 C2142.2,1417.6,2139.2,1429.7,2145.1,1433.6L2145.1,1433.6z"></path> <path class="st3" d="M659.4,1534.1c5.2-23.5-6-46.7-21.2-64.1s-36.2-32.3-59.5-36.2c-20.5-3.4-43.1,1.8-57.8,17.1 c-14,14.6-18.4,37.8-9.7,56.2c8.3,17.4,27.4,26.1,46.1,21.8c20.9-4.8,29.8-25.5,25.7-45.4c-8.7-43-53-72.4-94.5-76.3 c-48.5-4.6-96.8,25.9-116.4,69.9c-2,4.4,5.1,10.9,7.9,5.8c17.4-32.4,48.1-58.2,85.2-63.7c35.4-5.2,73.7,9.4,95.2,38.4 c10.1,13.7,20.9,36.8,7.8,52c-9.5,11-28.4,11.7-39.8,3.3c-13.7-10-14.2-30.8-6.8-44.7c8.7-16.3,27.8-24.2,45.5-24.4 c22.4-0.2,43,11.9,58.5,27.2c15.9,15.6,29.1,37.4,24.4,60.5C648.8,1537.8,657.9,1540.8,659.4,1534.1L659.4,1534.1z"></path> <polyline class="st6" points="652,356.9 651.4,387.6 682.7,392.1 661.5,439.8 697.9,440.1 690.5,476.4 727.3,476.5 "></polyline> <polyline class="st6" points="2366.5,518.6 2335.9,525.1 2339.9,557.1 2287,547 2296.4,583 2258.5,584.1 2268.4,620.4 "></polyline> <polyline class="st6" points="1706.1,428.4 1685.4,462.9 1722.5,473.1 1716.9,501.3 1742.1,516.5 "></polyline> <polyline class="st7" points="1527.6,1374 1549.4,1383.7 1561.2,1402.9 1597,1399.3 1589.7,1436.5 1625.8,1432.8 "></polyline> <polyline class="st7" points="960.1,1426.1 954.9,1448.9 947.9,1470.6 913.4,1476.4 911.9,1501.3 895.9,1517.8 "></polyline> <polyline class="st7" points="1006.4,374.1 1001,396.8 993.8,418.4 960.2,424.7 958.3,449.4 942.5,466 "></polyline> <polyline class="st8" points="437.1,411.2 435.3,435.8 419.5,452.5 437,488.3 394.8,489.7 412.6,525.8 "></polyline> <polyline class="st6" points="144.4,1360.7 98.8,1346.3 118.3,1314.5 106.7,1291.1 93.6,1268 "></polyline> <polyline class="st8" points="126.4,942.8 144.9,983.1 111.1,993.3 102.3,1017.8 94.7,1043.1 "></polyline> <polyline class="st8" points="1865.6,1513.3 1872.3,1486.7 1890.9,1468.4 1881.1,1430.2 1922.3,1427.7 "></polyline> <polyline class="st8" points="1310.5,1527 1268,1528 1269.8,1493.8 1250.4,1476.4 1229.9,1459.8 "></polyline> <polyline class="st8" points="2384.7,896.5 2342.1,897.5 2343.9,863.3 2324.6,845.9 2304.1,829.4 "></polyline> </svg> 