<?xml version="1.0" encoding="UTF-8"?> <!-- Generator: Adobe Illustrator 25.0.1, SVG Export Plug-In . SVG Version: 6.00 Build 0) --> <svg xmlns="http://www.w3.org/2000/svg" xmlns:xlink="http://www.w3.org/1999/xlink" version="1.1" id="Layer_1" x="0px" y="0px" viewBox="0 0 2427.9 1905.9" style="enable-background:new 0 0 2427.9 1905.9;" xml:space="preserve"> <style type="text/css"> .st0{fill:#028B3F;} .st1{fill:#1D1D1B;} .st2{fill:#E9E7C4;} .st3{fill:none;stroke:#F0BC00;stroke-width:12;stroke-miterlimit:10;} </style> <path class="st0" d="M327.7,5.7c0,0-324.8,0.2-324.6,324.1l0.9,1248c0,0,0.2,323.8,325,323.6l1771.1-1.3c0,0,324.8-0.2,324.6-324.1 l-0.9-1248c0,0-0.2-323.8-325-323.6L327.7,5.7z"></path> <path class="st1" d="M220.5,732.7c0,0,130.5-86.3,254.8-80.8S634,741,639.6,776.6S627.5,882.1,506,978.1s-138.5,101.4-138.5,101.4 l271.3,24.7L636,1244l-511.6-5.5l14.1-167.2c0,0,291.1-197.4,325-227.5c36.4-32.3,5.7-79.5-50.9-49.3l-90.5,52.1L220.5,732.7z"></path> <path class="st1" d="M981.6,537.3c0,0-250.9,6.2-254,332.7s247.7,298.8,247.7,298.8s196.9,19.2,206.4-326.5 C1181.6,842.3,1200.7,548.1,981.6,537.3z M966.7,1002.5c-114.3,2.8-79.6-174.8-76.7-216.2c2-28.6,21.5-63.6,48.8-72.2 c33.4-10.5,71.5-5.8,90.4,33.4C1055.4,802,1061.9,1000.2,966.7,1002.5z"></path> <path class="st1" d="M1523.2,447.4c0,0-250.9,6.2-254,332.6s247.7,298.8,247.7,298.8s196.9,19.2,206.4-326.5 C1723.2,752.3,1742.3,458.1,1523.2,447.4z M1508.2,912.5c-114.3,2.8-79.6-174.8-76.8-216.2c2-28.6,21.5-63.6,48.8-72.2 c33.4-10.5,71.5-5.8,90.4,33.4C1597,712,1603.5,910.2,1508.2,912.5z"></path> <path class="st1" d="M2019.8,349.6c0,0,0.5,0,1.5,0.1s1.5-0.1,1.5-0.1H2019.8z"></path> <path class="st1" d="M2267.2,789.1c-5.6-124-133.4-159.1-133.4-159.1c69.5-62,66.7-124,66.7-124c7.9-143.3-161.8-155.5-179.2-156.3 c-17.4,0.8-187.2,13-179.2,156.3c0,0-2.8,62,66.7,124c0,0-127.9,35-133.4,159.1s130.5,191.5,233.5,196.8 C2097.7,991.3,2272.7,913.1,2267.2,789.1z M2026,457.4c29.3,0,53.1,18.4,53.1,41s-23.8,41-53.1,41s-53.1-18.4-53.1-41 S1996.7,457.4,2026,457.4z M2028.6,856.8c-38.7,0-70-24.2-70-54.1s31.3-54.1,70-54.1c38.7,0,70,24.2,70,54.1 S2067.2,856.8,2028.6,856.8L2028.6,856.8z"></path> <path class="st2" d="M1315,1119c5.6,1.7,11.3,2.5,17,3.6c33.1,6.7,66.2,13.4,99.3,20l99.6,20l87.5,17.6l79,15.9 c0.8,0.2,1.6,0.4,2.8,0.6c-4.4,4.3-8.6,8.5-12.8,12.6l-56.9,56.2c-11.6,11.5-23.2,23-34.8,34.5c-0.9,1-2.3,1.4-3.5,1 c-32.6-6.2-65.1-12.4-97.7-18.6c-27-5.1-54-10.3-81-15.5c-31.7-6-63.4-12.1-95.2-18.1c-29.4-5.6-58.8-11.2-88.2-16.8 c-4.3-0.8-8.7-1.6-13.3-2.5c2.7-3.1,5.2-6,7.7-8.9c29.2-33.2,58.3-66.4,87.5-99.7c0.7-0.7,1.3-1.4,2-2.2L1315,1119z"></path> <path class="st2" d="M1609.8,1448.1c-0.4-0.8-1.2-0.7-1.8-0.8c-31.7-6-63.4-12.1-95.1-18.1l-91.2-17.3l-90.5-17.1l-90.5-17.2 c-14.9-2.8-29.9-5.7-44.8-8.5c-0.2,0-0.4-0.1-0.8-0.3c3.3-4.2,6.5-8.2,9.7-12.3c4.2-5.3,8.5-10.7,12.7-16c0.6-0.9,1.7-1.3,2.7-1 c31,6.3,62,12.6,93.1,18.8c41.5,8.3,83,16.7,124.6,25c33.1,6.7,66.2,13.4,99.3,20.1c20.9,4.2,41.8,8.4,62.8,12.6 c1.9,0.3,3.6,1.2,4.9,2.5c1,1.1,1.6,1.1,2.7-0.1c18.3-20.3,36.6-40.5,55-60.7c11-12.1,22-24.3,32.9-36.4c1-1.2,2.6-1.8,4.1-1.5 c7.4,1,14.8,1.9,22.3,2.9v0.5c-2.1,3.6-5.3,6.5-8,9.6c-7.3,8.3-14.5,16.6-21.8,24.8c-6.9,7.8-13.8,15.5-20.6,23.3 c-9.8,11.3-19.8,22.4-29.7,33.7c-8,9.2-16,18.3-24.2,27.3c-2,2.2-3.4,4.8-6.1,6.3H1609.8z"></path> <path class="st2" d="M1700.3,1242.8c-1.8,2.1-3.5,3.9-5.2,5.7c-30.1,32.6-60.2,65.3-90.3,97.9c-1.1,1-2.1,2.1-3,3.3 c-2.1,3.3-4.8,3.6-8.5,2.8c-31.6-6.4-63.3-12.6-95-18.8c-48.9-9.6-97.8-19.3-146.7-28.9c-40.2-7.9-80.5-15.8-120.7-23.7 c-9.3-1.8-18.5-3.7-27.8-5.5c-0.3-0.8,0.4-1.1,0.8-1.5c7.2-8.2,14.4-16.5,21.6-24.7c0.7-0.9,1.9-1.3,3-1c40,7.7,80,15.3,119.9,22.8 c30,5.7,60,11.4,90,17.2c31.1,5.9,62.2,11.8,93.3,17.7c21.3,4.1,42.5,8.1,63.8,12.2c0.4,0.1,0.9,0,1.2,0.2c2.3,2.4,3.4,0.2,4.7-1.1 c18.1-17.9,36.3-35.8,54.4-53.8l23.9-23.6c0.5-0.5,0.9-1.1,2-0.9C1687.8,1240.4,1693.9,1241.6,1700.3,1242.8z"></path> <path class="st2" d="M1703.9,1287.2l-22.9,25.3c-25.8,28.5-51.5,56.9-77.3,85.4c-0.9,1.3-2.6,1.9-4.2,1.5c-29.3-6-58.6-11.8-88-17.7 c-31.6-6.4-63.3-12.8-94.9-19.2l-127.3-25.6l-91.7-18.4l-1.5-0.3c2.4-2.7,4.5-5.2,6.7-7.7c4.2-4.8,8.4-9.5,12.6-14.4 c0.8-1,2.1-1.4,3.3-1c30.6,6,61.2,12.1,91.8,18.1l85.7,16.8l91.8,18l78.6,15.5c11.1,2.2,22.2,4.4,33.4,6.5c0.6,0.1,1.4,0.2,1.7,0.6 c1.6,2,2.5,0.9,3.8-0.4c26.1-28.4,52.2-56.7,78.3-85.1c1.7-1.8,3.3-2.4,5.5-1.9C1694,1284.4,1698.8,1285.8,1703.9,1287.2z"></path> <path class="st2" d="M671,1316l19.5-22.2c25.7-29.3,51.4-58.7,77.1-88c2.1-2.4,3.9-3.2,7.3-2.5c33.8,7,67.7,13.7,101.6,20.5 c39.8,8,79.6,16,119.5,24.1c33.2,6.7,66.4,13.3,99.6,20c18.1,3.7,36.3,7.3,54.4,11c2,0.4,1.7,0.8,0.6,2 c-20.4,21.2-40.8,42.4-61.1,63.7c-12.5,13-24.9,26-37.4,39c-0.8,1-2.2,1.5-3.4,1.2c-44.6-8.2-89.2-16.3-133.8-24.4 c-46.8-8.5-93.6-17-140.4-25.5c-33.7-6.1-67.4-12.2-101.1-18.4C672.6,1316.4,672,1316.3,671,1316z"></path> <path class="st2" d="M1161.3,1327.3l-33.6,34.8c-23.6,24.4-47.1,48.9-70.7,73.3c-1,1.2-2.6,1.7-4.1,1.3c-27.5-5.2-55-10.3-82.4-15.4 c-28.6-5.3-57.1-10.6-85.7-15.9c-28.4-5.3-56.8-10.6-85.2-15.9c-30-5.6-60.1-11.2-90.1-16.7c-17.2-3.2-34.4-6.4-51.6-9.6 c-1.8-0.3-1.5-0.8-0.6-1.8c7.5-8.5,15-17,22.4-25.6c0.8-1,2.1-1.4,3.3-1c42.8,7.8,85.7,15.6,128.5,23.4 c48.4,8.8,96.9,17.6,145.3,26.5c31.6,5.8,63.2,11.5,94.9,17.2c0.6,0,1.1,0.1,1.6,0.4c2.6,2,3.7-0.2,5.1-1.7 c24.7-25.7,49.3-51.4,74-77.2c0.8-0.8,1.4-1.5,2.8-1.2C1143.8,1323.8,1152.4,1325.5,1161.3,1327.3z"></path> <path class="st2" d="M1168.6,1373.1l-12.4,13.6c-29.8,32.7-59.6,65.4-89.3,98.1c-2,2.2-3.7,3.1-6.9,2.5 c-32.2-6.4-64.5-12.5-96.7-18.7c-9.8-1.9-19.7-3.7-29.4-5.7c-42.9-8.9-86.1-16.8-129.1-25.2c-52-10.2-104.1-20.1-156.1-30.1 c-0.1,0-0.2-0.1-0.2-0.1c-0.3-0.8,0.5-1.2,0.9-1.7c6.6-7.5,13.2-15,19.7-22.6c0.8-1,2.1-1.4,3.3-1c36,6.7,72,13.4,108,20.1 c37.4,7,74.8,13.9,112.2,20.9c44.1,8.2,88.3,16.4,132.4,24.6c10.5,2,21,3.9,31.6,5.9c0.6,0.1,1.3,0.2,1.7,0.7 c1.6,2.2,2.6,0.8,3.9-0.4c24.5-25.4,49.1-50.9,73.6-76.2c3.1-3.2,6.1-6.4,9.2-9.6c0.5-0.5,0.9-1.3,1.9-1 C1153.9,1369,1161.1,1371,1168.6,1373.1z"></path> <path class="st2" d="M115.9,1390c7.9-9,15.5-17.7,23.1-26.4c25-28.5,50-57,75-85.6c0.9-1.2,2.4-1.6,3.8-1.2 c42.3,8.5,84.6,17.1,126.9,25.6c40.6,8.2,81.2,16.4,121.8,24.6c37.7,7.6,75.3,15.2,113,22.7c5.6,1.1,11.2,2.3,17.3,3.5 c-2.9,3-5.5,5.8-8.1,8.6l-74.4,77.5c-5.9,6.2-11.9,12.3-17.7,18.5c-0.7,0.8-1.8,1.2-2.9,0.9c-24.1-4.4-48.2-8.8-72.3-13.2 l-84.6-15.4c-29.9-5.4-59.8-10.9-89.7-16.3l-90-16.4L115.9,1390z"></path> <path class="st2" d="M619.5,1394.4c-1.6,1.8-3.4,3.6-5.2,5.1c-12.7,12.2-25.3,24.4-38,36.6c-23.9,23.1-47.8,46.1-71.7,69.2 c-2.1,2-4,2.5-6.8,1.9c-29.8-5.9-59.7-11.6-89.5-17.4l-94.1-18.2l-86.7-16.7l-96.5-18.6l-23.6-4.5c-0.3-0.8,0.3-1,0.6-1.4 c6-6.9,12.1-13.8,18.1-20.7c0.7-0.9,1.9-1.3,3-1c34.2,6.3,68.5,12.5,102.7,18.7c34.1,6.2,68.2,12.4,102.2,18.7 c31.7,5.8,63.4,11.5,95.1,17.2l68.3,12.4c0.2,0,0.5,0.1,0.7,0.2c2.7,2.1,4,0,5.6-1.7c27.2-28.4,54.4-56.7,81.5-85.1 c0.9-0.9,1.7-1.6,3.2-1.3c10.2,2.1,20.4,4.1,30.6,6.1C619.1,1394,619.2,1394.2,619.5,1394.4z"></path> <path class="st2" d="M1898,999.3c3.7,1.5,7.7,1.9,11.6,2.7c31.1,6.4,62.3,12.8,93.4,19.1l104.6,21.4l95.5,19.6l72.8,14.9 c0.8,0.2,1.5,0.3,2.5,0.6c-5.2,5.4-10.1,10.6-15.2,15.8c-25.3,26.2-50.6,52.4-75.9,78.6c-3.1,3.2-6.2,6.3-9.2,9.6 c-0.8,1-2.2,1.5-3.5,1.2c-36.8-6.9-73.5-13.7-110.3-20.5c-34.4-6.4-68.8-12.7-103.1-19c-35.2-6.5-70.3-13-105.4-19.6 c-18.7-3.5-37.3-6.9-56-10.3c-0.7-0.1-1.4-0.3-2.4-0.5l100.1-113.4L1898,999.3z"></path> <path class="st2" d="M2209.8,1476c-5.9-1.7-12-2.5-18-3.7c-36.2-7-72.3-14-108.5-21c-30.5-5.9-60.9-11.7-91.4-17.6l-82.3-15.9 l-89.3-17.2l-26.1-5l4.4-5.6c5-6.3,10.1-12.6,15-18.9c0.6-1,1.9-1.5,3-1.1c41.8,8.1,83.6,16.2,125.5,24.3 c43.1,8.3,86.3,16.7,129.4,25.1c42.4,8.2,84.9,16.4,127.3,24.5c1.9,0.4,3.7,1.3,4.9,2.8c1.1,1.2,1.6,0.9,2.6-0.1 c14.4-14.8,28.8-29.6,43.3-44.3c17-17.4,34.1-34.9,51.1-52.3c0.9-1.1,2.3-1.5,3.7-1.2c5.4,0.8,10.8,1.5,16.6,2.3 c-2.6,3-5,5.7-7.4,8.4l-103.3,116.4c0,0.1-0.1,0.1-0.1,0.2L2209.8,1476z"></path> <path class="st2" d="M1798.8,1305.8c2.7-3.1,5.2-5.9,7.7-8.7c6-6.7,12-13.4,17.9-20.2c1-1.3,2.6-1.9,4.2-1.4 c41.7,8.1,83.5,16.2,125.2,24.2c40.8,7.9,81.6,15.8,122.4,23.7c39.3,7.6,78.5,15.1,117.8,22.7c1.3,0.2,2.7,0.2,3.7,1.2 c0.8,0.9,1.2,0,1.6-0.4c9.2-9.5,18.3-19,27.5-28.5c16.3-16.9,32.7-33.9,49-50.8c0.5-0.6,1-1.1,2-0.9c8.6,1.8,17.1,3.5,25.7,5.2 c0.1,0,0.2,0.2,0.5,0.4c-4.3,4.4-8.5,8.8-12.8,13.2l-75.8,78.1c-5.3,5.5-10.6,10.9-15.9,16.4c-0.9,1.1-2.3,1.6-3.7,1.2 c-45.2-8.7-90.5-17.2-135.8-25.8c-42.5-8-85.1-16.1-127.6-24.1c-34.3-6.5-68.7-13-103-19.6 C1819.4,1309.6,1809.3,1307.8,1798.8,1305.8z"></path> <path class="st2" d="M1782.7,1159.2c8.1-9.2,16.1-18.2,24-27.2c0.6-0.7,1.7-0.9,2.5-0.6c56.6,10.5,113.2,21,169.8,31.5 c48.5,9,97.1,17.9,145.6,26.9c18,3.3,36.1,6.7,54.1,10c0.3,0.1,0.7,0,0.9,0.2c2.2,2,3.3,0.2,4.6-1.2l55-57 c6.6-6.9,13.3-13.7,19.9-20.6c0.7-0.9,1.8-1.2,2.9-0.9c8.4,1.7,16.8,3.4,25.5,5.2c-2.1,2.5-4.3,4.9-6.7,7.1 c-28.4,29.3-56.8,58.5-85.2,87.7c-4.3,4.4-8.6,8.8-12.8,13.2c-0.8,1-2.1,1.3-3.3,1c-36.3-6.9-72.6-13.8-108.8-20.6 c-32.8-6.2-65.6-12.4-98.4-18.7c-31.2-5.9-62.3-11.8-93.5-17.6l-95.2-18C1783.3,1159.5,1783,1159.4,1782.7,1159.2z"></path> <path class="st2" d="M1777.9,1249.2c0.2-1.2,1-1.7,1.5-2.4c5.9-7.4,11.8-14.8,17.6-22.2c0.6-1,1.8-1.4,2.9-1 c21.9,4.3,43.7,8.5,65.6,12.7l99,19.1l98.4,19c39.9,7.7,79.9,15.4,119.9,23.2c1.7,0.4,3.2,1.3,4.2,2.7c1.1,1.1,1.6,0.8,2.6-0.1 c15.2-15.6,30.5-31.2,45.7-46.8c16.1-16.5,32.2-33,48.3-49.5c0.9-1.2,2.4-1.7,3.8-1.3c7.8,1.7,15.6,3.2,23.4,4.7 c-0.3,1.4-1.6,2.1-2.4,3c-34.4,35.7-68.8,71.3-103.2,107c-3.4,3.6-7,7.1-10.4,10.7c-0.8,1-2.2,1.5-3.5,1.1 c-49.7-9.6-99.4-19.2-149.1-28.7c-40.8-7.9-81.6-15.8-122.4-23.7c-43.6-8.4-87.2-16.9-130.8-25.3 C1785.4,1250.6,1781.7,1249.9,1777.9,1249.2z"></path> <path class="st2" d="M2293.1,1170.8c-7.5,7.7-14.7,15.1-21.9,22.5c-20.6,21.1-41.3,42.2-61.9,63.3c-7.7,7.9-15.4,15.8-23.1,23.7 c-0.8,1-2.1,1.4-3.2,1c-48.2-9.4-96.4-18.7-144.7-28c-52.3-10.1-104.7-20.2-157-30.4l-103.4-20c-0.7-0.1-1.4-0.3-2-0.5 c0-0.8,0.7-1.2,1.1-1.7c6.1-6.9,12.2-13.8,18.3-20.8c0.7-1,2-1.4,3.2-1.1c40.3,7.7,80.6,15.3,120.9,22.9 c45.7,8.7,91.4,17.3,137.2,26c41.6,7.9,83.2,15.7,124.9,23.6c0.8,0.2,2,0.2,2.4,0.7c2,2.3,3.2,0.9,4.7-0.6 c27.5-28.4,55-56.7,82.6-85.1c0.6-0.7,1.1-1.4,2.3-1C2279.7,1167.1,2286.2,1168.8,2293.1,1170.8z"></path> <path class="st2" d="M2309.7,1317.2c-5.4,5.5-10.4,10.8-15.5,16l-61.9,63.3c-9.7,9.9-19.3,19.8-29,29.7c-1,1.3-2.7,1.9-4.3,1.5 c-51.4-10-102.8-20-154.2-29.9c-38.3-7.4-76.5-14.8-114.8-22.3l-112.9-21.8l-24.1-4.7c-0.3-0.1-0.6-0.2-0.8-0.4 c1.8-2.1,3.6-4.1,5.4-6.1c4.7-5.3,9.5-10.7,14.1-16.1c0.8-1.1,2.1-1.6,3.4-1.2c27.9,5.3,55.8,10.6,83.8,15.9 c31.2,5.9,62.5,11.8,93.8,17.7c25.3,4.8,50.6,9.6,75.9,14.4c32.8,6.2,65.6,12.4,98.4,18.6c10.7,2,21.3,4,32,6c0.8,0,1.5,0.4,2.1,0.9 c1.1,1.5,1.8,1.1,3-0.1c27.9-28.8,55.8-57.5,83.7-86.3c0.5-0.8,1.5-1.1,2.4-0.8C2296.6,1313.6,2302.9,1315.3,2309.7,1317.2z"></path> <line class="st3" x1="1904.8" y1="336.5" x2="1885.1" y2="301"></line> <line class="st3" x1="1952.4" y1="330.7" x2="1942.1" y2="295.4"></line> <line class="st3" x1="2003.4" y1="329.1" x2="1998.9" y2="292.5"></line> <line class="st3" x1="2059.5" y1="334" x2="2057.3" y2="293.4"></line> <line class="st3" x1="2112.5" y1="328.4" x2="2112.2" y2="292"></line> <line class="st3" x1="2169.5" y1="333.7" x2="2184.4" y2="300.5"></line> <line class="st3" x1="1210.8" y1="864.2" x2="1250.4" y2="854.7"></line> <line class="st3" x1="1203.6" y1="911.5" x2="1240.4" y2="911.2"></line> <line class="st3" x1="1191.3" y1="961.1" x2="1227.8" y2="966.6"></line> <line class="st3" x1="1171.4" y1="1013.7" x2="1211.1" y2="1022.6"></line> <line class="st3" x1="1162.5" y1="1066.3" x2="1197.7" y2="1075.8"></line> <line class="st3" x1="1142" y1="1119.8" x2="1170" y2="1143.1"></line> <line class="st3" x1="682.8" y1="1160.1" x2="722.8" y2="1172"></line> <line class="st3" x1="676.9" y1="1113.2" x2="714.8" y2="1108.4"></line> <line class="st3" x1="660.8" y1="1075.7" x2="687.6" y2="1045.1"></line> <line class="st3" x1="619.5" y1="1062.7" x2="614.7" y2="1024.3"></line> <line class="st3" x1="578.7" y1="1079.7" x2="557.4" y2="1051"></line> <line class="st3" x1="191.5" y1="795.3" x2="151.4" y2="783.3"></line> <line class="st3" x1="197.4" y1="842.1" x2="159.4" y2="846.9"></line> <line class="st3" x1="213.4" y1="879.6" x2="186.7" y2="910.3"></line> <line class="st3" x1="254.7" y1="892.6" x2="259.5" y2="931"></line> <line class="st3" x1="295.5" y1="875.7" x2="316.8" y2="904.3"></line> <line class="st3" x1="1786.7" y1="872.7" x2="1732" y2="853.7"></line> <line class="st3" x1="1794.8" y1="946.9" x2="1742.9" y2="954.5"></line> <line class="st3" x1="1816.7" y1="1006.5" x2="1780.2" y2="1055.1"></line> <line class="st3" x1="1873" y1="1027.1" x2="1879.6" y2="1088"></line> <line class="st3" x1="1928.7" y1="1000.2" x2="1957.8" y2="1045.6"></line> </svg> 