<?xml version="1.0" encoding="UTF-8"?> <!-- Generator: Adobe Illustrator 25.0.1, SVG Export Plug-In . SVG Version: 6.00 Build 0) --> <svg xmlns="http://www.w3.org/2000/svg" xmlns:xlink="http://www.w3.org/1999/xlink" version="1.1" id="Layer_1" x="0px" y="0px" viewBox="0 0 2427.9 1905.9" style="enable-background:new 0 0 2427.9 1905.9;" xml:space="preserve"> <style type="text/css"> .st0{fill:#0154D5;} .st1{fill:#1D1D1B;} .st2{fill:#DC0816;} .st3{fill:#FFFFFF;} .st4{fill:#E9E7C4;} .st5{fill:none;stroke:#DC0816;stroke-width:24;stroke-miterlimit:10;} </style> <path class="st0" d="M329,4.6c0,0-324.8-0.2-325,323.7l-0.8,1248c0,0-0.2,323.8,324.6,324l1771.1,1c0,0,324.8,0.2,325-323.7 l0.8-1248c0,0,0.2-323.8-324.6-324L329,4.6z"></path> <path class="st1" d="M304.5,683c0,0,132.4-94.7,258.7-88.7s161,97.7,166.8,136.8s-12.3,115.7-135.6,221s-140.6,111.3-140.6,111.3 l275.4,27.1l-2.9,153.4l-519.2-6l14.3-183.4c0,0,295.5-216.6,329.9-249.6c36.9-35.5,5.7-87.2-51.6-54.1l-91.8,57.1L304.5,683z"></path> <path class="st1" d="M1013.1,571.6c0,0-254.6,6.8-257.8,364.9s251.4,327.7,251.4,327.7s199.8,21.1,209.5-358.1 C1216.2,906,1235.5,583.4,1013.1,571.6z M998,1081.8c-116,3.1-80.8-191.7-77.9-237.2c2-31.3,21.8-69.8,49.5-79.2 c33.9-11.5,72.5-6.4,91.8,36.6C1088,861.8,1094.7,1079.2,998,1081.8z"></path> <path class="st1" d="M1318.9,683c0,0,132.4-94.7,258.6-88.7s161,97.7,166.8,136.8s-12.3,115.7-135.6,221s-140.6,111.3-140.6,111.3 l275.4,27.1l-2.9,153.4l-519.2-6l14.3-183.4c0,0,295.5-216.5,329.9-249.6c36.9-35.5,5.7-87.2-51.6-54.1l-91.8,57.1L1318.9,683z"></path> <path class="st2" d="M2027.5,571.6c0,0-254.6,6.8-257.8,364.9s251.4,327.7,251.4,327.7s199.8,21.1,209.5-358.1 C2230.6,906,2249.9,583.4,2027.5,571.6z"></path> <ellipse class="st3" cx="1980.8" cy="912.5" rx="134.5" ry="141"></ellipse> <ellipse class="st2" cx="2016.9" cy="915.1" rx="111.8" ry="117.2"></ellipse> <polygon class="st3" points="2165,964.5 2119.3,953.5 2084.7,986.8 2080.6,937.8 2039.8,913.6 2082.9,894.3 2092.2,846.2 2123,883.2 2169.6,877.6 2145.5,919.8 "></polygon> <path class="st4" d="M2214.5,401.8c-0.6-22.6-15.3-41.6-32.8-54.6c-19.7-14.6-44.9-24.8-69.7-22.7c-21.2,1.7-42.3,13.1-52.4,32.2 c-9.3,17.5-7.5,40.6,5.3,56c12.1,14.5,32.9,18.5,49.5,9.4c19.3-10.3,22.7-32.7,13.5-51.4c-19.3-39.3-70-57-111.2-49.6 c-47.6,8.5-86,49.1-94.2,96.4c-0.8,4.9,7.3,9.3,8.7,3.5c8.7-35.1,31.5-66.9,65.2-81.7c33.4-14.7,75.1-10.1,103.6,13.2 c13,10.6,29.7,30.6,20.6,48.5c-6.6,12.9-24.9,18-37.9,12.7c-15.4-6.2-21.3-25.2-18.1-40.4c3.8-18,20.1-30.5,37.1-35.3 c23.6-6.8,49,1.5,69,14.2c17.6,11.1,33.6,28.3,34.6,50.1C2205.5,408.8,2214.7,408.8,2214.5,401.8L2214.5,401.8z"></path> <path class="st4" d="M259.4,510.4c-19.5-13-44.4-11.4-65.6-3.9s-41.6,21-53.9,40.1s-15.8,44.3-5.6,65c8.8,17.9,29.1,30.8,49.4,28.3 c18.7-2.2,32.6-17.9,34.4-36.4c2.1-21.2-13.5-37.3-33.8-40.6c-41.5-6.9-83.3,22.3-102,57.8c-23.4,44.5-13.1,102.6,21.9,138.1 c1.6,1.7,4.2,1.7,5.9,0.1c0.2-0.2,0.3-0.3,0.4-0.5c1.7-2.3,0.7-5.3-1-7.2C84.7,722.4,72.7,681.7,84,644.5 c10.2-33.5,38.7-60.8,72.8-68.9c15.4-3.7,39.1-4.3,48.4,11.5c7.5,12.8,0.1,30.8-12,37.9c-14.6,8.7-34,2.3-44.8-9.5 c-13.1-14.4-12.4-36.5-4.9-53.3c9-20.1,28.4-34.2,48.2-42.5c20.1-8.5,44.8-12.3,64.1,0.2C261.7,523.6,264.1,513.7,259.4,510.4 L259.4,510.4z"></path> <path class="st4" d="M1482.7,345.7c-8-20.3-26.3-32.9-46.4-39.8c-22.3-7.6-48.6-9-70.9-0.7c-19.7,7.3-36.9,23.6-42.3,44.3 c-5.1,19.6,1.7,41.9,18,54.3c15.8,12.3,38.2,10.9,52.3-3.4c15.4-15.4,13.2-37.4-0.8-52.9c-14.3-15.9-36.7-23.5-57.5-25.4 c-21.8-1.9-43.8,2.6-63.1,13c-43.2,23.5-67,75.8-58.6,124c1.1,6.1,9.7,6.4,9-0.4c-3.8-36.6,7.9-75.1,35.8-100 c27.5-24.5,68.7-32.7,103.2-19.4c14.8,5.8,35.6,19,32.7,37.8c-2.4,15.5-20.5,26.7-35.5,23.4c-16.4-3.6-27.4-20.4-27.3-36.6 c0.1-18.2,12.8-34.2,27.8-43.2c20.4-12.1,46.7-11.9,69-6c18.7,4.9,38.2,15.3,46,34c2.6,6.3,11.1,3.2,8.6-3.2L1482.7,345.7z"></path> <path class="st4" d="M2143.4,1377.5c19.7,12.8,44.6,10.8,65.7,2.9s41.3-21.6,53.3-40.9s15.2-44.5,4.7-65.1 c-9-17.8-29.6-30.4-49.8-27.7c-18.6,2.5-32.4,18.3-33.9,36.8c-1.7,21.2,13.9,37.1,34.3,40.2c41.7,6.3,82.9-23.4,101.1-59.1 c22.9-44.7,11.7-102.9-23.8-137.8c-4.9-4.9-9.1,3.3-5.3,7.6c25.2,28.6,38,69,27.2,106.4c-9.8,33.7-37.7,61.4-71.8,70 c-15.4,3.9-39,4.9-48.6-10.7c-7.8-12.6-0.6-30.8,11.3-38.1c14.4-9,34-2.9,44.9,8.8c13.3,14.2,13,36.3,5.8,53.2 c-8.7,20.2-27.8,34.6-47.5,43.2c-20,8.8-44.6,13-64.1,0.8C2141,1364.4,2138.6,1374.3,2143.4,1377.5L2143.4,1377.5z"></path> <path class="st4" d="M657.3,1479c5.2-23.5-6-46.7-21.2-64.1s-36.2-32.3-59.5-36.2c-20.5-3.4-43.1,1.8-57.8,17.1 c-14,14.6-18.4,37.8-9.7,56.2c8.3,17.4,27.4,26.1,46.1,21.8c20.8-4.8,29.8-25.5,25.7-45.4c-8.7-43-53-72.4-94.5-76.3 c-48.5-4.6-96.8,25.9-116.4,69.9c-2,4.4,5.1,10.9,7.9,5.8c17.4-32.4,48.1-58.2,85.2-63.7c35.4-5.2,73.7,9.4,95.2,38.4 c10.1,13.7,20.9,36.8,7.8,52c-9.5,11-28.4,11.7-39.8,3.4c-13.7-10-14.2-30.8-6.8-44.7c8.7-16.3,27.8-24.2,45.5-24.4 c22.4-0.2,43,11.9,58.5,27.2c15.9,15.6,29.1,37.4,24.4,60.5C646.7,1482.7,655.8,1485.7,657.3,1479L657.3,1479z"></path> <polyline class="st5" points="649.9,301.9 649.3,332.6 680.6,337.1 659.4,384.8 695.8,385.1 688.5,421.4 725.3,421.4 "></polyline> <polyline class="st5" points="2364.4,463.6 2333.9,470.1 2337.8,502.1 2285,492 2294.4,528 2256.4,529 2266.3,565.4 "></polyline> <polyline class="st5" points="1704,373.4 1683.3,407.9 1720.4,418.1 1714.8,446.2 1740,461.5 "></polyline> <polyline class="st5" points="1525.5,1319 1547.3,1328.7 1559.1,1347.8 1594.9,1344.3 1587.6,1381.5 1623.7,1377.8 "></polyline> <polyline class="st5" points="958,1371.1 952.8,1393.8 945.8,1415.6 911.3,1421.4 909.8,1446.3 893.8,1462.8 "></polyline> <polyline class="st5" points="1004.3,319.1 998.9,341.8 991.7,363.4 958.1,369.7 956.2,394.4 940.5,411 "></polyline> <polyline class="st5" points="435.1,356.2 433.2,380.8 417.4,397.5 434.9,433.3 392.8,434.7 410.5,470.7 "></polyline> <polyline class="st5" points="142.3,1305.7 96.7,1291.3 116.2,1259.5 104.6,1236 91.5,1213 "></polyline> <polyline class="st5" points="124.3,887.8 142.8,928.1 109,938.3 100.2,962.8 92.6,988.1 "></polyline> <polyline class="st5" points="1863.5,1458.3 1870.2,1431.7 1888.9,1413.4 1879,1375.2 1920.3,1372.7 "></polyline> <polyline class="st5" points="1308.4,1472 1265.9,1473 1267.7,1438.8 1248.3,1421.4 1227.8,1404.8 "></polyline> <polyline class="st5" points="2382.6,841.5 2340.1,842.5 2341.9,808.3 2322.5,790.9 2302,774.4 "></polyline> </svg> 