<?xml version="1.0" encoding="UTF-8"?> <!-- Generator: Adobe Illustrator 25.0.1, SVG Export Plug-In . SVG Version: 6.00 Build 0) --> <svg xmlns="http://www.w3.org/2000/svg" xmlns:xlink="http://www.w3.org/1999/xlink" version="1.1" id="Layer_1" x="0px" y="0px" viewBox="0 0 2427.9 1905.9" style="enable-background:new 0 0 2427.9 1905.9;" xml:space="preserve"> <style type="text/css"> .st0{fill:#0154D5;} .st1{fill:#1D1D1B;} .st2{fill:none;stroke:#E9E7C4;stroke-width:7.98;stroke-miterlimit:10;} .st3{fill:none;stroke:#F0BC00;stroke-width:24;stroke-miterlimit:10;} .st4{fill:none;stroke:#028B3F;stroke-width:24;stroke-miterlimit:10;} .st5{fill:none;stroke:#DC0816;stroke-width:24;stroke-miterlimit:10;} .st6{fill:none;stroke:#EE8019;stroke-width:24;stroke-miterlimit:10;} .st7{fill:none;stroke:#E679A6;stroke-width:24;stroke-miterlimit:10;} .st8{fill:none;stroke:#000000;stroke-width:12.58;stroke-miterlimit:10;} </style> <path class="st0" d="M330,4.1c0,0-324.8-0.4-325.1,323.5l-1.3,1248c0,0-0.3,323.8,324.5,324.2l1771.1,1.8c0,0,324.8,0.3,325.1-323.5 l1.3-1248c0,0,0.3-323.8-324.5-324.2L330,4.1z"></path> <ellipse class="st1" cx="1549.5" cy="729.2" rx="112.4" ry="114.3"></ellipse> <path class="st1" d="M292.7,742.9c0,0,127.4-88.3,248.8-82.7s155,91.2,160.5,127.6s-11.8,107.9-130.5,206.1 s-135.2,103.8-135.2,103.8l265,25.2l-2.8,143.1l-499.6-5.6l13.8-171.1c0,0,284.3-202,317.4-232.8c35.5-33.1,5.5-81.3-49.7-50.5 l-88.3,53.3L292.7,742.9z"></path> <path class="st1" d="M974.5,639c0,0-245,6.3-248.1,340.3S968.3,1285,968.3,1285s192.3,19.7,201.6-334 C1169.9,951,1188.5,650,974.5,639z M960,1115c-111.7,2.9-77.7-178.8-75-221.2c1.9-29.2,21-65.1,47.6-73.9 c32.6-10.7,69.8-6,88.3,34.2C1046.6,909.7,1053,1112.5,960,1115L960,1115z"></path> <path class="st1" d="M1328.6,710.3c-134.3,97-244.3,580.4,215.2,596.8c460.3,16.5,360.8-489.9,229.7-596.8l-63.1,59.2 c85.7,69,163.4,435.7-163.4,435.7c-262.1,0-258.8-348.5-161.8-434L1328.6,710.3z"></path> <path class="st1" d="M1419.2,802.4L1526,912.5l1.6,241.7c0,0-140.8-8.2-173.1-167.7C1331.7,874,1419.2,802.4,1419.2,802.4z"></path> <path class="st1" d="M1571.3,910.9l108.4-108.5c0,0,110,115.1,58.2,226.9s-163.4,126.6-163.4,126.6L1571.3,910.9z"></path> <line class="st2" x1="1251" y1="920" x2="1281.3" y2="924"></line> <line class="st2" x1="1244.6" y1="984.1" x2="1274.2" y2="980.1"></line> <line class="st2" x1="1250.8" y1="1062.7" x2="1282.4" y2="1047.9"></line> <line class="st2" x1="1277" y1="1124.4" x2="1306.1" y2="1105.8"></line> <line class="st2" x1="1319.9" y1="1176" x2="1338.9" y2="1156.8"></line> <line class="st2" x1="1367.7" y1="1218.9" x2="1382.9" y2="1195.1"></line> <line class="st2" x1="1417.6" y1="1245" x2="1429.5" y2="1221.6"></line> <line class="st2" x1="1475.8" y1="1263.1" x2="1487.7" y2="1239.6"></line> <line class="st2" x1="1542.1" y1="1241.1" x2="1546.5" y2="1267.2"></line> <line class="st2" x1="1609.4" y1="1235.4" x2="1616.3" y2="1264.4"></line> <line class="st2" x1="1670.2" y1="1221.8" x2="1684.2" y2="1248.2"></line> <line class="st2" x1="1722.8" y1="1195.7" x2="1742.3" y2="1219.9"></line> <line class="st2" x1="1771" y1="1152.9" x2="1797.7" y2="1162.9"></line> <line class="st2" x1="1809.1" y1="1101.5" x2="1835.7" y2="1110"></line> <line class="st2" x1="1822.1" y1="1038.2" x2="1845.8" y2="1046"></line> <line class="st2" x1="1827.9" y1="979.6" x2="1855.3" y2="981.8"></line> <line class="st2" x1="1821.6" y1="928" x2="1852.7" y2="923.1"></line> <path class="st1" d="M1949.9,787.6c0,0,118.1,9.9,118.1,51c0,69.1-100.5,74-124.6,74L1924,1026c0,0,172.9,11.7,161.8,82.2 c-12.9,82.2-187.7,77.3-187.7,77.3l-21,97c203.8,39.4,350.3-62,345.4-176.8s-117.9-147.2-117.9-147.2 c61.4-57.4,58.9-114.8,58.9-114.8c8-156.3-216.9-151.3-216.9-151.3"></path> <path class="st3" d="M163.2,691.4c10.2-10.2,18.7-1.7,28.9-11.9s1.7-18.7,11.9-28.9s18.7-1.7,28.9-11.9s1.7-18.7,11.9-28.9 s18.7-1.7,28.9-11.9s1.7-18.7,11.9-28.9s18.7-1.7,28.9-11.9s1.7-18.7,11.9-28.9"></path> <path class="st4" d="M1770.7,400.6c-35.7-24.9-77.2-43.6-120.7-44.3s-88.8,19.1-110.9,56.6c-6.1,10.3-9.9,24.4-2.1,33.5 c6.6,7.6,19.2,7.6,27.7,2.2s13.6-14.9,17-24.4c15.1-42.4,0.1-93.6-35.5-121.2s-88.9-29.4-126.2-4.4"></path> <path class="st5" d="M1913.4,1706.1c-5-67.3,4.1-138.1,41-194.6s105.8-95.2,172.1-82.7c8.9,1.7,18.2,4.5,24.4,11.2s8.3,18,2.2,24.8 c-5.6,6.3-15.8,6.4-23.7,3.4c-22.5-8.3-33.9-36-28.8-59.5s23.4-42.3,44.5-53.9c50-27.6,118.4-16.1,156.6,26.3"></path> <path class="st6" d="M534.9,372c22.3,49.4,57.2,90.8,100.4,119.2c37.4,24.6,82.8,39.5,129.4,30.7s93.7-45.5,109.1-94.8 c4.8-15.3,6.2-32.6-1-45s-25.4-17-37.1-6.1c-9.3,8.6-11.2,23.8-6.7,34.4s14.2,17.5,24.5,21.6c36.6,14.7,84.5-2.1,113.5-37.3 s38.3-85.9,25.5-125.8"></path> <path class="st7" d="M792.7,1810c38.5-43.8,62.6-98.3,69.2-156.2c3.6-32.6,1.4-66.6-11.7-96.7s-38-56-69.5-65.3s-69,0.1-88.7,26.4 c-10.1,13.5-12.2,37.4,3.5,43.3c8.7,3.3,18.9-1.4,24.3-9s6.8-17.3,6.6-26.6c-0.6-31.7-18.8-62.4-46.3-78.2s-63.2-16.1-90.9-0.7"></path> <line class="st8" x1="1601.4" y1="1473.8" x2="1589.1" y2="1543.3"></line> <line class="st8" x1="1504.3" y1="1449.5" x2="1489.2" y2="1518.1"></line> <line class="st8" x1="1401" y1="1428.8" x2="1374.9" y2="1488.3"></line> <line class="st8" x1="1311" y1="1380.4" x2="1259" y2="1438.4"></line> <line class="st8" x1="1241.8" y1="1300.3" x2="1173" y2="1319.1"></line> <line class="st8" x1="1223.2" y1="1205.8" x2="1149.3" y2="1209"></line> </svg> 