<?xml version="1.0" encoding="UTF-8"?> <!-- Generator: Adobe Illustrator 25.0.0, SVG Export Plug-In . SVG Version: 6.00 Build 0) --> <svg xmlns="http://www.w3.org/2000/svg" xmlns:xlink="http://www.w3.org/1999/xlink" version="1.1" id="Layer_1" x="0px" y="0px" viewBox="0 0 683.5 533.7" style="enable-background:new 0 0 683.5 533.7;" xml:space="preserve"> <style type="text/css"> .st0{fill:#0154D5;} .st1{clip-path:url(#SVGID_2_);} .st2{stroke:#DC0816;stroke-width:12.33;stroke-miterlimit:10;} .st3{stroke:#000000;stroke-width:7.65;stroke-miterlimit:10;} .st4{fill:#1026B0;} .st5{fill:none;stroke:#E49924;stroke-width:2.28;stroke-miterlimit:10;} .st6{fill:#0491FF;stroke:#000000;stroke-width:7.77;stroke-miterlimit:10;} .st7{fill:none;stroke:#000000;stroke-width:7.97;stroke-miterlimit:10;} .st8{fill:#DC0816;} .st9{fill:none;stroke:#000000;stroke-width:7.77;stroke-miterlimit:10;} .st10{fill:none;stroke:#F0BC00;stroke-width:8.53;stroke-miterlimit:10;} .st11{fill:none;stroke:#F0BC00;stroke-width:11.38;stroke-miterlimit:10;} .st12{fill:none;stroke:#E679A6;stroke-width:10;stroke-miterlimit:10;} .st13{fill:none;stroke:#DC0816;stroke-width:12.33;stroke-miterlimit:10;} .st14{fill:#EE8019;stroke:#DC0816;stroke-width:10;stroke-miterlimit:10;} .st15{fill:none;stroke:#E7E5C2;stroke-width:5;stroke-miterlimit:10;} .st16{fill:#E7E5C2;} .st17{fill:none;stroke:#E679A6;stroke-width:5;stroke-miterlimit:10;} </style> <g id="Layer_1_1_"> <path class="st0" d="M93.3,0c0,0-91.4,0-91.4,91.2v351.4c0,0,0,91.2,91.4,91.2H592c0,0,91.5,0,91.5-91.2V91.2c0,0,0-91.2-91.5-91.2 H93.3z"></path> <g> <defs> <path id="SVGID_1_" d="M91.4,0C91.4,0,0,0,0,91.2v351.4c0,0,0,91.2,91.4,91.2h498.7c0,0,91.5,0,91.5-91.2V91.2 c0,0,0-91.2-91.5-91.2H91.4z"></path> </defs> <clipPath id="SVGID_2_"> <use xlink:href="#SVGID_1_" style="overflow:visible;"></use> </clipPath> <g class="st1"> <circle class="st2" cx="173.6" cy="220.4" r="33.6"></circle> <path class="st3" d="M187.7,145.5c0,0-15.8-7.6-7.7-23.2c0,0-9.2-20,12.2-28c0,0,1.4-17.7,24.8-12.8c0,0,4.1-21.6,20.4-13.8 c0,0,8.5-13.9,23-8.1c0,0,12-19.2,31.5-6.5c0,0,10.5-16.5,29-3.2c0,0,11.5-12.6,25.5,0.5c0,0,12.9-12.4,27.6,1.4 c0,0,19.8-5.3,24.6,10.4c0,0,18.8-1.2,17.7,19c0,0,20,0.2,19.3,18.6c0,0,14.2,5.7,8.3,20.6c0,0,20.7,6.5,15.2,24.9 c0,0,19,6.6,11,22.9c0,0,17,10.6,7.3,27.3c0,0,15.8-6,22.1,11.5c0,0,15.2-16.6,26.8,7.3c0,0,26.9-4.3,26.9,17.4 c0,0,24-0.2,21.1,21.3c0,0,23.5,8,8.3,25.3c0,0,20.8,10.6,7,28.4c0,0,13.8,13.8,2.4,26.6c0,0,10.7,18-4.1,31.8 c0,0,20.3,22.1-0.7,32.8c0,0,2.6,19.9-19.4,24.9c0,0-6.1,25.8-39.3,31.4l-187.8-45.2l-118-148.2L187.7,145.5z"></path> <path class="st4" d="M-15.9,655.6c4.9-17.8,23.3-54.7,52.4-91.5c39.8-50.3,87.2-103.6,117.1-115.7c9.2-3.7,38.7-18.9,51.2-23.4 c9,6.4,18.5,12.3,28,18.7c18.9,12.7,48.1,14.2,70.7,17.5c23.5,3.7,48.1,0.5,71.6-3.9c24.8-4.5,49.2-10.9,73-19 c5.2-1.8,10.5-3.1,15.9-4c4.1-0.9,8.7-15.5,12.3-14.6c7.7,1.8,49.6,22.4,54.1,28.8c4,5.9,36.2,30.2,41.7,35.4 c50.2,46.2,80.7,155.3,84.2,164"></path> <path d="M465.5,431c8.8-8.7,23.7-8.6,34.7-2.7c3.7,2,7.3,4.9,8,9c1.2,7.1-6.7,12.1-13.4,14.9c-23.7,9.7-47.9,18.1-72.5,25 c-11.8,3.3-23.8,6.3-35.9,7.7c-15,1.7-30.2,4.5-45.4,5c-13.7,0.5-27.4-1.5-41-2.1c-16.6-0.7-33.2-4.6-49.4-8.5 c-22.2-5.3-52.2-17-67.4-34c-4.1-4.5-10.6-2.6-9.1-8.5c1.9-7.6,21.1-13.3,28.8-11.7s14.2,6.6,20.9,10.6 c13.6,8.2,29,12.8,44.2,17.3c9.5,2.8,19.1,5.7,28.9,7.3c24.9,4.1,50.3,0.3,75.2-4c15.9-2.8,31.8-5.8,47.2-10.7 c16-5.1,31.3-12.4,47.8-15.5"></path> <line class="st5" x1="369.2" y1="284.6" x2="197.8" y2="129.4"></line> <path class="st6" d="M206.9,423.4l66.1-25.3c0-2-16.8-37.5-24.1-43.9c-10.5-9.1-48.9-3.1-48.9-3.1c-26.3-4.2-16.8-40.8-16.8-40.8 c-16.6-2.5-5.6-15.5-5.6-15.5c-10.7-14.9,4.4-18.9,4.4-18.9l1.8-13c-14.2,0.9-22.3-1-22.3-1c10.1-21.5,23.1-63.5,23.1-63.5 l-10.8-18.4c5.6-30.9,28.5-53.7,28.5-53.7s51.1,25.4,104.6,30.4c0,0-9.1,42,29.3,76.6c0,0,8.6-8.7,14.3-10.8 c19.5-7.3,38.3,5.6,43.5,23.7c1.7,5.8,2.5,11.8,2.2,17.8c-0.6,8.7-3.5,17.2-7,25.1l29.5,111.3c0,0,43.9,9.3,64.6,21.5 C483.5,421.6,312.2,511.3,206.9,423.4z"></path> <path d="M197.7,246.3c3.1,0.5,5.9,2,8,4.3c0.7,0.8,1.2,1.7,1.5,2.6c0.2,0.5,0.3,1.1,0.4,1.6c0.1,0.6,0.1,1.2,0,1.8 c-0.1,1-0.4,2.1-0.9,3c-0.5,0.9-1.1,1.7-1.8,2.4c-1.2,1.1-2.7,1.9-4.4,2.3c-1.1,0.3-2.2,0.3-3.3,0.1c-0.4-0.1-0.8-0.2-1.2-0.3 c1.3-0.4,2.6-1.1,3.7-1.8c1.1-0.7,2-1.6,2.8-2.6c0.4-0.5,0.7-1.1,1-1.7c0.3-0.6,0.4-1.3,0.5-2c0.1-0.2,0-0.5,0.1-0.8 s-0.1-0.6-0.2-0.9c-0.2-0.6-0.4-1.2-0.8-1.8c-0.7-1.1-1.5-2.2-2.4-3.2C199.1,247.6,197.8,246.3,197.7,246.3"></path> <path class="st7" d="M287.5,223.5c-38.6,22.4-48.8,58.2-44,98.5"></path> <path class="st7" d="M348.5,240.9c0,0,15.9-12.4,26.5-3.8c5.9,4.8,7.7,12.1,6.5,19.5c-0.6,3.9-2.1,7.6-4.4,10.9 c-2.2,3.2-4.4,6.8-4.9,10.8c-0.3,2.8,0.6,5.9,0.3,8.8c-0.2,2.1-0.9,4.2-2.2,5.9c-5,6.3-15.3,5.2-20.4-0.5"></path> <path class="st8" d="M316.2,275.2c-0.1,14.2-11.6,25.6-25.7,25.5s-25.6-11.6-25.5-25.7c0.1-14.2,11.6-25.6,25.7-25.5c0,0,0,0,0,0 C304.8,249.5,316.2,261.1,316.2,275.2z"></path> <path d="M208.4,202.3c0,0,22.5-10.7,68.3,2.9c0,0-16.9-36-69.3-16.8C207.4,188.4,197.1,196.7,208.4,202.3z"></path> <path class="st7" d="M333.2,273.2c0,0-2.1,55.8-68.3,76"></path> <path d="M244.3,432.5c7.3,1.9,14.7,3.4,22,4.7c7.3,1.3,14.8,2.4,22.2,3.3s14.9,1.6,22.3,2s14.9,0.7,22.4,0.7s14.9-0.2,22.4-0.6 c7.5-0.4,14.9-1.2,22.3-2c14.9-1.9,29.7-4.6,44.3-8c-14.1,5.7-28.7,9.8-43.6,12.5c-3.8,0.6-7.5,1.3-11.3,1.7 c-1.9,0.2-3.8,0.5-5.7,0.7l-5.7,0.6c-7.6,0.6-15.2,1-22.8,1s-15.2-0.4-22.8-1c-7.6-0.6-15.1-1.6-22.6-3c-7.5-1.4-14.9-3-22.2-5 C258.4,438.1,251.2,435.5,244.3,432.5z"></path> <path class="st9" d="M177.7,294.7c4.4,1.5,9.5,0.9,15,0.4c4.7-0.4,11-1.4,16.4-3.9 M183.8,311.3c0,0,21.1-1.9,29.3-20.9 c0,0-19.2-8-30.7-17.3"></path> <polyline class="st10" points="191.3,428.1 201.4,452.8 229.3,447.5 242.6,473.3 269.3,457 289.8,486.5 312.3,463.3 338.5,487.6 358.9,462 387.1,481.9 404.3,454.3 432.5,470.1 443.8,440.4 472.2,456 483.5,424.1 "></polyline> <path class="st9" d="M483.5,421.6c0,0-171.3,89.7-276.5,1.8"></path> <path class="st9" d="M479,419.6c58.7,25.7,147.3,87.1,177.3,228.1"></path> <path class="st11" d="M381,307.9c0,13.2-10.7,23.9-23.9,23.9c-13.2,0-23.9-10.7-23.9-23.9c0-13.2,10.7-23.9,23.9-23.9 c1.6,0,3.2,0.2,4.8,0.5"></path> <path class="st12" d="M183.5,508.1c12.3-4.9,26.3,1.1,31.2,13.4c4.5,11.3-0.1,24.1-10.8,29.9"></path> <path class="st12" d="M146.6,558.6c-7-11.3-3.5-26.1,7.8-33c11.3-7,26.1-3.5,33,7.8c0.5,0.9,1,1.8,1.5,2.7"></path> <path class="st12" d="M395,568.6c-12.5,4.4-26.2-2.1-30.6-14.6c-4.4-12.5,2.1-26.2,14.6-30.6c1-0.3,1.9-0.6,2.9-0.8"></path> <path class="st12" d="M504.9,566c-12.5,4.4-26.2-2.1-30.6-14.6s2.1-26.2,14.6-30.6c1-0.3,1.9-0.6,2.9-0.8"></path> <path class="st12" d="M308.5,508.5c12.3-4.9,26.3,1.2,31.1,13.5c4.5,11.3-0.2,24.1-10.8,29.9"></path> <path class="st12" d="M360.2,501.8c9-9.7,24.2-10.2,33.9-1.2c8.9,8.3,10.2,21.9,3,31.7"></path> <path class="st12" d="M94.1,504.6c11.6-6.4,26.2-2.1,32.6,9.5s2.1,26.2-9.5,32.6c-0.9,0.5-1.8,0.9-2.7,1.3"></path> <path class="st12" d="M266.2,508.7c-6.8,11.4-21.5,15.2-32.9,8.4c-11.4-6.8-15.2-21.5-8.4-32.9c0.5-0.8,1.1-1.7,1.7-2.4"></path> <path class="st12" d="M170.4,491.8c-8,10.6-23.1,12.6-33.6,4.6c-9.8-7.4-12.4-21.1-6-31.6"></path> <path class="st12" d="M311.7,532.1c-12.3,5-26.3-1-31.2-13.3c-4.6-11.3,0.1-24.2,10.8-30.1"></path> <path class="st12" d="M429.2,530.7c-9.4-9.4-9.3-24.6,0-33.9c8.5-8.5,22-9.4,31.6-2.1"></path> <path class="st12" d="M523.1,514.1c-10.5-8-12.6-23.1-4.5-33.6c8-10.5,23.1-12.6,33.6-4.5c0.9,0.7,1.7,1.4,2.5,2.2"></path> <path class="st12" d="M448.3,525.1c5.9,11.9,1.1,26.3-10.7,32.2c-11.9,5.9-26.3,1.1-32.2-10.7c-0.4-0.9-0.8-1.8-1.2-2.7"></path> <path class="st12" d="M477.6,461.5c12.7,3.8,19.9,17.2,16,29.9c-3.5,11.6-15.2,18.8-27.2,16.7"></path> <path class="st12" d="M535.4,495.8c10.7,7.9,12.9,22.9,5.1,33.6c-7.9,10.7-22.9,12.9-33.6,5.1c-0.7-0.5-1.3-1.1-2-1.6"></path> <path class="st12" d="M596.8,532.8c-11.7,6.2-26.2,1.8-32.4-10c-5.7-10.7-2.5-24,7.4-30.9"></path> <path class="st12" d="M156.2,569.7c7.8-10.7,22.8-13.1,33.5-5.3c10.7,7.8,13.1,22.8,5.3,33.5c-0.6,0.8-1.2,1.5-1.9,2.3"></path> <path class="st12" d="M299.5,550.7c2.5,13-6.1,25.6-19.1,28.1c-13,2.5-25.6-6.1-28.1-19.1c-0.2-1-0.3-2-0.4-3"></path> <path class="st12" d="M234.5,567.1c-5-12.3,0.8-26.3,13.1-31.3c12.3-5,26.3,0.8,31.3,13.1c0.4,0.9,0.7,1.8,0.9,2.8"></path> <path class="st12" d="M158.8,480.6c1.6-13.2,13.6-22.5,26.8-20.9c12.1,1.5,21.1,11.7,21.1,23.9"></path> <path class="st9" d="M172.6,439.1c146.1,116.6,341.9,1.1,341.9,1.1"></path> <path class="st9" d="M235.4,412.5c0,0-159.7,31.1-251.3,243.1"></path> <path d="M224.6,217.6c0.3,4.8,4.4,8.5,9.2,8.3c4.8-0.3,8.5-4.4,8.3-9.2c-0.3-4.7-4.2-8.3-8.9-8.3 C228.3,208.5,224.4,212.7,224.6,217.6C224.6,217.6,224.6,217.6,224.6,217.6"></path> <circle class="st2" cx="236.3" cy="220.4" r="33.6"></circle> <line class="st13" x1="202.7" y1="220.4" x2="178.6" y2="220.8"></line> <path class="st9" d="M161.5,261.8c10.1-21.5,23.1-63.5,23.1-63.5"></path> <path class="st13" d="M269.5,218.6l108.6,11.5c0,0,19.1,2.2,19.4,35.9"></path> <line class="st7" x1="163.1" y1="127.4" x2="139.1" y2="133.4"></line> <line class="st7" x1="161.3" y1="102.7" x2="140.5" y2="96.7"></line> <line class="st7" x1="176.5" y1="79.4" x2="159.9" y2="67.4"></line> <line class="st7" x1="201.9" y1="59.6" x2="189.2" y2="42"></line> <line class="st7" x1="230.8" y1="46.7" x2="225.9" y2="26.2"></line> <line class="st7" x1="559.6" y1="205" x2="562.4" y2="182.1"></line> <line class="st7" x1="581.5" y1="215.6" x2="591.7" y2="195.8"></line> <line class="st7" x1="599.5" y1="233.9" x2="618.9" y2="224"></line> <line class="st7" x1="609.2" y1="264" x2="632.6" y2="262.5"></line> <line class="st7" x1="616.4" y1="300.2" x2="637.2" y2="299.5"></line> <line class="st7" x1="616.8" y1="327.4" x2="638.3" y2="334.1"></line> <line class="st7" x1="420.6" y1="52.6" x2="426.3" y2="34.9"></line> <line class="st7" x1="440.4" y1="69.5" x2="454.8" y2="53.3"></line> <line class="st7" x1="460.8" y1="86.4" x2="476.7" y2="76.2"></line> <line class="st7" x1="473.5" y1="112.2" x2="491.9" y2="104.1"></line> <line class="st7" x1="485.2" y1="140.8" x2="502.1" y2="128.8"></line> <line class="st7" x1="503.5" y1="179.2" x2="507" y2="155.2"></line> <line class="st7" x1="529.6" y1="185.9" x2="537.8" y2="164.4"></line> <line class="st7" x1="267.2" y1="37" x2="260.1" y2="16.9"></line> <line class="st7" x1="300.3" y1="28.6" x2="296.1" y2="10.9"></line> <line class="st7" x1="334" y1="27" x2="332.1" y2="8.8"></line> <line class="st7" x1="366.6" y1="30" x2="369.1" y2="10.9"></line> <line class="st7" x1="393.8" y1="37.8" x2="402.6" y2="15.9"></line> <path class="st14" d="M439.3,475.3c-13.1,0-27.2-4.1-42.8-12.4c-7.7-4.1-13.8-9.5-19.7-14.7c-5.9-5.2-11.8-10.4-18.3-13.1 c-14.7-6-30.6-8.1-46.3-6.1c-4.6,0.8-9.1,1.8-13.5,3.2c-11.8,3.3-25.1,7-37.2,2.5c-14.7-5.7-24.9-19.2-26.4-34.9 c-1.2-15.4,3.9-30,17.4-37.7l11.4,19.1c-6.5,3.7-8.6,9.5-8,17c0.8,7.7,5.7,14.2,12.9,17.1c5.7,2.1,15.5-0.6,24.2-3.1 c5.4-1.7,10.9-2.9,16.5-3.8c19.3-2.5,39,0.1,57,7.5c9.8,4,17.1,10.5,24.2,16.8c5.2,4.6,10.2,9,15.7,11.9 c15.7,8.3,28.7,11.4,40,9.3c9.8-1.8,19-7.5,28.6-13.6l2.4-1.5c18.8-11.8,39.4-22.4,62.4-20.4c8.4,0.7,16.2,3.1,23.7,5.5 c7.7,2.4,14.9,4.6,21.9,4.7c6.5,0.1,13.6-1.7,21-5.4c5-2.5,11.5-6.6,13.5-12.1c2.4-6.5-0.4-15.3-9-27.8 c-10.3-15-19.2-22.1-28-22.4c-6-0.2-12.5,2.9-19.3,6.1l-3.3,1.6c-24.7,11.3-46.3,13.1-64.2,5.6c-5.3-2.4-10.4-5.3-15.2-8.7 c-2.5-1.7-4.9-3.2-7.3-4.6c-4.4-2.5-10.8-5.2-15.8-3.8c-3.4,1-7,4-10.7,7.3c-1.8,1.5-3.6,3.1-5.6,4.7 c-9.9,7.6-17.1,10.6-25.7,11.9l-6-20.6c6.9-0.8,13.4-3.5,18.9-7.8c1.5-1.2,3-2.5,4.6-3.9c5-4.4,10.8-9.4,18.7-11.6 c9.7-2.7,20.4-0.8,31.9,5.8c3,1.7,5.7,3.5,8.4,5.3c3.8,2.6,7.8,5,11.9,6.9c15.3,6.5,34.2,0.7,47.4-5.3l3.2-1.5 c8.4-3.9,17.8-8.3,28.8-8c21.1,0.6,35.5,18.2,44.6,31.4c8,11.7,17.9,29.3,11.3,46.9c-3.6,9.6-11.7,17.5-23.9,23.6 c-10.4,5.1-20.6,7.6-30.5,7.5c-10-0.1-19.1-2.9-27.8-5.6c-6.7-2.1-13.1-4.1-19.3-4.6c-16.8-1.5-33.8,7.5-49.5,17.3l-2.4,1.5 c-11,6.9-22.3,14-36,16.5C446.4,475,442.8,475.3,439.3,475.3z"></path> <path class="st9" d="M271.1,392.8c-1.5-3.7-3.2-7.4-5-11"></path> <path class="st6" d="M273.1,398.1c0-2-16.8-37.5-24.1-43.9"></path> <line class="st9" x1="415.8" y1="388.7" x2="389.3" y2="288.9"></line> </g> </g> <path class="st15" d="M525.7,102.3c8.5,6.1,1.4,15.8,9.9,22s15.5-3.6,24,2.5s1.4,15.9,9.9,22s15.5-3.6,24,2.5s1.4,15.8,9.9,22 s15.5-3.6,24,2.5s1.4,15.8,9.9,22s15.5-3.6,24,2.5"></path> <path class="st15" d="M36.8,257.9c8.5,6.1,1.4,15.9,9.9,22s15.5-3.6,24,2.5s1.4,15.8,9.9,22s15.5-3.6,24,2.5s1.4,15.8,9.9,22 s15.5-3.6,24,2.5s1.4,15.8,9.9,22s15.5-3.6,24,2.5"></path> <path class="st15" d="M94.8,238.2c9.6-14.8,12.9-32.8,9.1-50.1c-1.2-5.6-3.5-11.4-8.2-14.6c-2.6-1.7-5.8-2.3-8.8-1.7 c-2.9,0.6-7.5,3.6-3.6,6.4c8.4,6,17.5-3.9,20.3-11.2c3.4-8.8,1.1-28.6-2-37.5c-4.9-14.3-11.9-18.3-23.2-28.3c-2.8-2.5-6.2-4.9-10-5 s-7.9,2.8-7.8,6.6c0.2,4.9,7.4,6.9,11.4,4s5.3-8.2,5.6-13.1c1.1-18.6-6.7-36.6-21.1-48.4"></path> <path class="st15" d="M494.2,46.1c14.4-8.3,31.8-9.4,48.4-9.2c18.5,0.3,37.8,2.3,53.3,12.4s25.7,30.5,18.7,47.7 c-1.4,3.4-4.4,7.1-8,6.2c-3.3-0.8-4.4-5.3-2.8-8.3s4.9-4.6,8.1-5.6c18.9-5.8,39,4.9,44.7,23.8c1.5,4.9,1.9,10.1,1.3,15.2"></path> <path class="st15" d="M147.7,391.7c-17.3-2.4-35.7-1.3-50.9,7.2s-26.3,25.6-24.2,42.9c0.3,2.3,0.8,4.8,2.4,6.5s4.5,2.4,6.3,1 s1.9-4,1.3-6.1c-1.8-6-8.7-9.4-14.8-8.4s-11.3,5.3-14.7,10.5c-8,12.4-6.2,30.2,4.1,40.8"></path> <path class="st15" d="M650.5,351.7c10.2,13,15.7,29.4,16.8,45.9s-1.8,33.1-7.1,48.7c-2.7,8-6.2,16.1-12.3,21.9s-15.8,8.7-23.4,5 c-3.1-1.5-5.9-4.4-5.4-7.8c0.5-4.1,6-6.2,9.8-4.5s6,5.8,7,9.8c3.6,14.9-7.5,31.7-22.6,34.1"></path> <path d="M384.5,346.1c2.2,6.2,4.5,12.3,7,18.3c2.9,12.7,6.3,25.2,10.4,37.6c-5.4-11.9-10.2-24-14.5-36.4 C386.2,359,385.3,352.5,384.5,346.1z"></path> <path class="st16" d="M419.7,335.2c-2.3-4.4-4.4-8.9-6.4-13.5c-1.9-9.7-3-19.5-3.4-29.3c1.8,9.6,4.3,19,7.5,28.2 C418,325.5,418.8,330.3,419.7,335.2z"></path> <path class="st16" d="M551.3,242.3c4.6-3.2,10.9-2,14,2.6c0.3,0.4,0.5,0.8,0.7,1.2c0.7,1.4,1.2,2.8,1.2,4.4c0,1.5-0.1,3-0.5,4.5 c-0.3,1.2-0.5,2.4-0.6,3.6c0,0.9,0.2,1.8,0.8,2.5c0.2,0.3,0.4,0.5,0.7,0.6c0.4,0.2,0.9,0.3,1.3,0.4c0.6,0.1,1.2,0.1,2,0.2 c0.8,0.1,1.6,0.2,2.4,0.5c3.1,1,5.6,3.3,6.9,6.4c0.6,1.5,0.9,3,0.9,4.6c-0.1,1.5-0.5,3-1.2,4.4c-1.2,2.6-2.8,4.8-3.3,7.2 c-0.3,1.1-0.2,2.3,0.1,3.5c0.5,1.1,1.3,2,2.4,2.5c0.6,0.3,1.2,0.7,1.8,1.1c0.6,0.4,1.2,0.9,1.7,1.4c1,1.1,1.7,2.3,2.2,3.7 c0.5,1.4,0.5,2.9,0.2,4.3c-0.4,1.4-1.2,2.6-2.4,3.5c-1.1,0.7-2.2,1.6-3.1,2.6c-0.4,0.5-0.7,1.1-0.8,1.8c-0.1,0.7,0,1.4,0.4,1.9 c-0.4-0.5-0.6-1.3-0.5-1.9c0.1-0.7,0.3-1.4,0.7-1.9c0.9-1.1,1.9-2,3-2.8c1-0.8,1.7-1.9,2-3.2c0.2-1.3,0.1-2.6-0.4-3.8 c-0.5-1.2-1.2-2.3-2.1-3.1c-1-0.8-2.1-1.5-3.3-2c-0.7-0.3-1.3-0.8-1.9-1.2c-0.6-0.5-1.1-1.2-1.4-1.9c-0.6-1.4-0.8-3-0.6-4.6 c0.2-1.4,0.7-2.8,1.3-4.2c0.6-1.3,1.2-2.5,1.6-3.7c0.5-1.1,0.7-2.3,0.7-3.5c0-1.1-0.3-2.2-0.8-3.2c-1-2-2.8-3.5-5-4.1 c-0.5-0.1-1.1-0.2-1.6-0.2c-0.6,0-1.3,0-2.1-0.1c-0.9,0-1.8-0.2-2.6-0.6c-1-0.4-1.8-1.1-2.4-1.9c-0.9-1.6-1.3-3.4-1-5.2 c0.2-1.5,0.6-2.9,1.2-4.3c0.5-1.1,0.8-2.3,0.9-3.5c0.1-1.2-0.1-2.4-0.5-3.5c-0.9-2.4-2.7-4.3-5.1-5.1 C556.6,240.8,553.7,241,551.3,242.3z"></path> <path class="st16" d="M370.3,64.3c2.3-2.7,5.8-4.2,9.3-4c4.7,0.4,8.8,3.5,10.5,7.9c0.3,0.9,0.5,1.8,0.7,2.7c0.3,1.8,0.5,3.5,0.9,5 c0.2,1.2,0.9,2.4,1.9,3.1c1.1,0.4,2.3,0.4,3.3-0.1c1.4-0.4,3.1-1.1,5-1.5c1.1-0.2,2.2-0.3,3.3-0.1c1.2,0.2,2.3,0.7,3.2,1.4 c1.6,1.4,2.7,3.3,3.1,5.4c0.4,1.8,0.6,3.7,0.5,5.5c-0.1,1.6,0,3.2,0.3,4.8c0.2,1.4,0.8,2.8,1.8,3.8c1,0.9,2.4,1.3,3.8,1.1 c1.5-0.1,3.2-0.6,5-0.9c1-0.1,1.9-0.1,2.9,0.1c1,0.2,1.9,0.7,2.7,1.3c1.4,1.3,2.3,3.1,2.5,5c0.2,1.7,0.3,3.5,0.2,5.3 c-0.1,1.7,0,3.3,0.3,4.9c0.4,1.6,1.4,3,2.7,3.9c1.4,1,2.9,1.8,4.4,2.6c1.6,0.8,2.9,2,3.9,3.4c0.5,0.7,0.8,1.5,1,2.4 c0.1,0.9,0,1.7-0.5,2.5c0.4-0.8,0.5-1.6,0.3-2.5c-0.2-0.8-0.5-1.6-1.1-2.3c-1-1.3-2.4-2.4-3.9-3.1c-1.6-0.7-3.1-1.5-4.6-2.4 c-1.5-1-2.7-2.5-3.2-4.2c-1.1-3.5-0.3-7.1-1-10.2c-0.3-1.5-1-2.9-2.1-3.9c-1.2-0.8-2.7-1.1-4.1-0.8c-1.6,0.3-3.2,0.9-5,1.1 c-1,0.2-2,0.1-3-0.1c-1.1-0.2-2-0.7-2.8-1.4c-1.5-1.4-2.5-3.2-2.8-5.2c-0.4-1.8-0.6-3.6-0.6-5.4c0-1.6-0.2-3.1-0.7-4.7 c-0.3-1.3-1-2.5-2-3.3c-1-0.6-2.2-0.7-3.3-0.3c-1.4,0.4-2.9,1.1-4.7,1.7c-1,0.3-2.1,0.4-3.2,0.3c-1.2-0.1-2.4-0.5-3.4-1.2 c-1-0.7-1.7-1.6-2.2-2.7c-0.4-0.9-0.7-1.9-0.8-2.9c-0.5-3.7,0-7-1.5-9.7c-1.5-2.9-4.3-4.9-7.5-5.4C376.1,60.9,372.7,62,370.3,64.3z "></path> <path class="st16" d="M205.9,107.4c-2.1-1.9-3.2-4.8-3-7.6c0.3-3,2-5.8,4.6-7.4c1.3-0.8,2.8-1.3,4.4-1.5c1.4-0.1,2.9-0.1,4.3-0.1 c1.2,0.1,2.4-0.1,3.6-0.4c0.9-0.3,1.6-0.9,2.1-1.7c0.7-0.9,1.1-1.9,1.4-3c0.4-1.2,0.6-2.5,0.9-3.9c0.3-1.5,0.8-2.9,1.4-4.3 c0.2-0.4,0.4-0.7,0.6-1.1c0.3-0.4,0.5-0.7,0.8-1c0.3-0.3,0.7-0.6,1.1-0.9c0.4-0.2,0.8-0.4,1.2-0.6c1.6-0.6,3.4-0.6,5,0 c1.4,0.5,2.7,1.1,4,1.8c1.1,0.7,2.3,1.2,3.5,1.8c1,0.5,2.2,0.6,3.3,0.4c1.1-0.3,2-1,2.5-2c0.6-1.2,1.1-2.4,1.5-3.7 c0.4-1.4,1.1-2.7,2-3.9c1-1.1,2.3-2,3.8-2.3c2.8-0.6,5.8-0.1,8.2,1.5c2.3,1.6,4.3,3.4,6.1,5.5c-1.9-2-4.1-3.7-6.4-5.1 c-2.3-1.4-5.1-1.7-7.6-1c-1.2,0.4-2.2,1.1-3,2.1c-0.7,1.1-1.3,2.3-1.6,3.6c-0.3,1.4-0.8,2.7-1.4,4c-0.7,1.5-2,2.7-3.5,3.2 c-1.6,0.5-3.2,0.4-4.8-0.2c-1.3-0.5-2.7-1-3.9-1.7c-1.2-0.6-2.4-1-3.6-1.4c-1-0.3-2-0.3-3,0.1c-0.9,0.4-1.5,1.2-1.9,2.1 c-0.4,1.1-0.7,2.3-0.9,3.6c-0.2,1.3-0.4,2.7-0.7,4.2c-0.3,1.6-0.9,3.2-1.9,4.5c-0.6,0.7-1.3,1.3-2.1,1.8c-0.8,0.5-1.6,0.8-2.5,0.9 c-1.5,0.2-3.1,0.2-4.6-0.1c-1.3-0.2-2.6-0.4-3.9-0.4c-1.2,0-2.4,0.2-3.5,0.7c-2.3,1.1-4,3.2-4.5,5.7 C203.5,102.6,204.2,105.4,205.9,107.4z"></path> <path class="st16" d="M327.6,208.8c-3.9-3.6-7.3-7.8-9.9-12.4c-3.4-10.1-3.7-21-0.8-31.2c-1.5,10.1,0.2,20.4,4.7,29.6 C322.8,199.8,324.9,204.5,327.6,208.8z"></path> <path d="M215.2,147.4c6.1,2.3,12.3,4.1,18.6,5.6c11.9,5,24.4,8.5,37.2,10.4c-13.1-0.5-26.1-2.6-38.6-6.4 C226.5,154.2,220.7,151,215.2,147.4z"></path> <line class="st17" x1="374.1" y1="212.4" x2="373" y2="194.2"></line> <line class="st17" x1="390.9" y1="215.8" x2="397.6" y2="201.3"></line> <line class="st17" x1="403.9" y1="227.3" x2="416.9" y2="218"></line> <line class="st17" x1="412.5" y1="243.7" x2="427.3" y2="238.1"></line> <line class="st17" x1="414.8" y1="257.5" x2="431.8" y2="261.5"></line> </g> </svg> 