<?xml version="1.0" encoding="UTF-8"?> <!-- Generator: Adobe Illustrator 25.0.0, SVG Export Plug-In . SVG Version: 6.00 Build 0) --> <svg xmlns="http://www.w3.org/2000/svg" xmlns:xlink="http://www.w3.org/1999/xlink" version="1.1" id="Layer_1" x="0px" y="0px" viewBox="0 0 681.6 533.7" style="enable-background:new 0 0 681.6 533.7;" xml:space="preserve"> <style type="text/css"> .st0{fill:#E679A6;} .st1{fill:#028B3F;} .st2{fill:#E7E5C2;} .st3{stroke:#000000;stroke-width:9.98;stroke-miterlimit:10;} .st4{fill:#E7E5C2;stroke:#000000;stroke-width:9.98;stroke-miterlimit:10;} .st5{fill:none;stroke:#000000;stroke-width:9.98;stroke-miterlimit:10;} .st6{fill:#025BC7;stroke:#000000;stroke-width:9.98;stroke-miterlimit:10;} .st7{fill:#1026B0;stroke:#000000;stroke-width:9.98;stroke-miterlimit:10;} .st8{fill:none;stroke:#000000;stroke-width:11.79;stroke-miterlimit:10;} .st9{fill:none;stroke:#000000;stroke-width:10;stroke-miterlimit:10;} .st10{fill:#EDBCD2;} .st11{fill:none;stroke:#DC0816;stroke-width:6;stroke-miterlimit:10;} .st12{fill:none;stroke:#000000;stroke-width:22.63;stroke-miterlimit:10;} </style> <g id="Layer_1_1_"> <path class="st0" d="M91.4,0C91.4,0,0,0,0,91.2v351.4c0,0,0,91.2,91.4,91.2h498.7c0,0,91.5,0,91.5-91.2V91.2c0,0,0-91.2-91.5-91.2 H91.4z"></path> <path d="M575.5,286.5l35.6-19.8c2.3,3.8,4.4,7.2,6.4,10.6c7.2,12.4,14.3,24.8,21.5,37.1c3.3,5.7,7,11.3,10.3,17 c5.3,9,10.6,18,15.7,27.1c0.6,1.3,0.9,2.7,0.8,4.1c-0.2,6-0.7,12-0.9,17.9c0,1.8-1.1,3.5-2.8,4.1c-15.4,8.1-30.7,16.4-46,24.6 c-5.7,3-11.3,5.9-17,8.9c-3.9,2-4.3,1.6-6.1-1.4c-5.4-9-11-17.8-16.5-26.8c-7-11.6-14-23.1-20.9-34.8c-4.3-7.2-8.7-14.5-12.9-21.8 c-0.9-1.5-1.4-3.2-1.5-5c-0.2-6.1,0-12.3-0.2-18.4c-0.3-2.1,0.8-4.1,2.7-5.1c5.1-3,10.1-5.9,15.2-8.9c3.3-1.9,6.6-3.8,10.1-5.8 c-0.7-3-1.1-5.8-2-8.4c-3-8.6-6.1-17.1-11.2-24.8c-4.3-6.6-9.7-11.8-16.9-15.1c-6.7-3.1-13.3-2.7-20,0.1c-4,1.7-8,3.4-11.2,6.4 c-12.5,11.6-16.7,26.2-14.3,42.7c0.6,4.4,3,8.7,5,12.8c2.8,5.7,6.2,11.2,9.1,16.9c4.8,9.4,8.8,19,8.6,29.8 c-0.2,7.4-1,14.6-6.5,20.3c-1.3,1.4-2.6,2.7-4.2,4.3l-4.2-3.6c0.7-0.7,1.6-1.8,2.7-2.8c5.7-4.9,6-11.4,5.4-18.2 c-0.9-9.8-4.5-18.5-8.9-27.1c-4.4-8.2-8.1-16.8-11-25.7c-0.9-3-2.3-5.9-3-9c-2.1-9.4-0.3-18.5,3.3-27.3c2.1-5.2,4.3-10.3,8.1-14.7 c5.6-6.5,12.1-11.3,20.7-12.9c1.9-0.4,3.8-0.8,5.6-1.3c6.5-1.5,13.4-0.4,19.2,3c9.8,5.5,16.5,13.7,21.9,23.3 C569.7,267.7,572.5,276.9,575.5,286.5z M564.2,307.6l-6.5,4.3l41.5,69.6c14.6-10,30.5-17.5,45.5-26.5c-12.8-23.7-25.5-47-38.2-70.4 l-5.9,3.1c2.6,7.5,7.3,13.8,8.9,21.3c-1,0.7-1.7,1.3-2.4,1.8c-8.2,4.8-16.3,9.6-24.5,14.3c-5.7,3.3-5.7,3.2-9.1-2.4 C570.5,317.7,567.4,312.8,564.2,307.6z M659.2,357.2l0.5-0.7c-15.9-27.7-31.8-55.4-48.1-83.6c-1,4-1.8,7.3-2.5,10.7 c0,0.9,0.2,1.7,0.7,2.5c1.9,3.6,3.9,7.2,5.9,10.7c10.1,18.2,20.3,36.4,30.5,54.5c0.8,1.4,2,2.6,3.5,3.3 C652.8,355.6,656,356.5,659.2,357.2L659.2,357.2z M660.5,360.8c-2.7-1-5.2-1.8-7.6-2.9c-3.1-1.5-5.8-0.8-8.6,0.8 c-14.6,8.3-29.2,16.4-44.2,24.9c-0.2,4-0.4,8.5-0.6,13.7L660.5,360.8z M546.5,309.2l-0.6,0.6l50.5,88c0.6-2.5,0.3-4.9,0.7-7.3 c0.8-5.2-0.8-9.5-3.7-13.9c-6.6-10.2-12.6-20.7-18.8-31.1c-5.7-9.5-11.7-18.9-17-28.6C554.9,312.2,550.5,311.2,546.5,309.2 L546.5,309.2z M609.1,271.2l-19.1,10.3c2.4,1.2,3.8,1.7,5.1,2.5c1.3,0.9,2.9,1.4,4.5,1.4 M563.2,305.1c-2.7-1.2-4.9-2.3-7.2-3.3 c-0.6-0.2-1.2-0.2-1.8,0c-2.5,1.3-5.3,2.1-7.6,4.3l9.7,4.2L563.2,305.1z"></path> <path class="st1" d="M564.2,307.6c3.2,5.2,6.3,10.1,9.4,15.1c3.4,5.5,3.4,5.6,9.1,2.4c8.2-4.7,16.3-9.5,24.5-14.3 c0.8-0.5,1.4-1,2.4-1.8c-1.6-7.5-6.3-13.8-8.9-21.3l5.8-3.1c12.7,23.4,25.3,46.7,38.2,70.4c-15,9-30.9,16.4-45.5,26.5l-41.5-69.6 L564.2,307.6z"></path> <path class="st2" d="M659.2,357.2c-3.2-0.7-6.4-1.5-9.5-2.6c-1.5-0.7-2.7-1.8-3.5-3.3c-10.2-18.1-20.4-36.3-30.5-54.5 c-2-3.6-4-7.1-5.9-10.7c-0.5-0.7-0.7-1.6-0.7-2.5c0.7-3.3,1.5-6.6,2.5-10.7c16.2,28.2,32.2,55.9,48.1,83.6L659.2,357.2z"></path> <path class="st2" d="M660.5,360.8l-61,36.4c0.2-5.2,0.4-9.7,0.6-13.7c15-8.5,29.6-16.6,44.2-24.9c2.8-1.6,5.5-2.3,8.6-0.8 C655.2,359,657.8,359.8,660.5,360.8z"></path> <path class="st2" d="M546.5,309.2c4,2,8.4,3,11,7.7c5.4,9.7,11.3,19.1,17,28.6c6.2,10.4,12.3,20.9,18.8,31.1 c2.8,4.4,4.5,8.7,3.7,13.9c-0.3,2.3,0,4.8-0.7,7.3l-50.5-88L546.5,309.2z"></path> <path class="st2" d="M589.9,281.5l19.1-10.3c-0.3,3.3-2.2,8.6-3.4,11.4c0,0-3.4,1.5-6.2,2.9"></path> <path class="st2" d="M563.1,305.1l-6.9,5.1l-9.7-4.2c2.3-2.1,5.1-3,7.6-4.3c0.6-0.2,1.2-0.2,1.8,0 C558.2,302.8,560.5,303.9,563.1,305.1z"></path> <polygon class="st3" points="128.3,89.7 114.2,190.8 111.8,403.2 241.9,507.8 292.5,497.2 284.1,442.5 199.4,291.5 188.6,100.6 "></polygon> <polygon class="st4" points="479.6,102.6 476.9,335.7 176.6,354.3 179.3,116.1 138.6,87.7 439.8,74 "></polygon> <polygon class="st4" points="476.9,335.7 590.8,442.6 566.5,475.2 251.9,506.8 273.9,477.9 176.6,354.3 "></polygon> <line class="st5" x1="590.8" y1="442.6" x2="273.9" y2="477.9"></line> <path class="st6" d="M219.4,322.6L435,310.6c5.9,0.1,10.7-4.7,10.8-10.5c0,0,0,0,0,0l1.8-156c0.1-5.9-4.7-10.7-10.5-10.8l-215.5,11 c-5.9-0.1-10.7,4.7-10.8,10.6l-1.9,157.1C208.8,317.7,213.5,322.6,219.4,322.6C219.4,322.6,219.4,322.6,219.4,322.6z"></path> <polygon class="st7" points="473,371.3 507.9,409.7 476,412.7 486.3,432.8 359.4,446.7 352.3,429.3 308.9,434.1 301.1,419.1 284.3,420.3 255.9,387.3 "></polygon> <path class="st1" d="M147.7,86.5c-1.6,0.4-2.2,2.6-1.6,4.1c0.8,1.5,1.9,2.7,3.4,3.5l20.4,14.6c2.8,2,5.7,4.1,9.1,5.1 s6.7,0.9,10.1,0.7l82-3l63-2.3l137.6-5.1c1.2,0,2.5-0.2,3.2-1.1c1.1-1.4,0-3.4-1.2-4.8c-4.8-5.7-10.3-10.5-16.6-14.5 c-4.8-3.1-10.1-5.5-15.5-7.2c-12.5-3.7-25.7-2.9-38.7-2.2l-145.8,8.9c-13.2,0.8-26.5,1.6-39.7,2.2c-23.7,1-47.5,1.2-71.2,0.7"></path> <line class="st5" x1="172" y1="86.5" x2="207.5" y2="114.6"></line> <line class="st5" x1="213.1" y1="85.7" x2="246.7" y2="112.4"></line> <line class="st5" x1="250.5" y1="82" x2="287.3" y2="111.3"></line> <line class="st5" x1="291" y1="80.7" x2="328.2" y2="110.4"></line> <line class="st5" x1="332" y1="78.8" x2="368.2" y2="107.6"></line> <line class="st5" x1="372" y1="78.3" x2="406.7" y2="105.9"></line> <line class="st5" x1="412.5" y1="76.4" x2="447.2" y2="104"></line> <polygon class="st5" points="479.6,102.6 476.9,335.7 176.6,355.2 179.3,116.1 138.6,87.7 439.8,74 "></polygon> <line class="st5" x1="479.6" y1="102.6" x2="179.3" y2="116.1"></line> <polyline class="st8" points="177.5,355.2 147.2,355.9 111.8,403.2 "></polyline> <line class="st9" x1="412.6" y1="61.4" x2="405.9" y2="31.3"></line> <line class="st9" x1="445.4" y1="59.4" x2="451.5" y2="32"></line> <line class="st9" x1="471.8" y1="70.9" x2="491" y2="42.6"></line> <line class="st9" x1="493.7" y1="91" x2="520.6" y2="80.6"></line> <line class="st9" x1="499.3" y1="127.7" x2="526.6" y2="124.7"></line> <line class="st9" x1="497.7" y1="166.4" x2="528.9" y2="168.7"></line> <line class="st9" x1="378.6" y1="63.9" x2="365.4" y2="36.8"></line> <path class="st10" d="M84.8,183.1l11.5,11.2l-6.8,10.1c-4.4-2.8-8.1-6.2-12.5-8.7c-3.8,5.3-8.4,8.7-15,7.1c-4.4-1.1-8-4-9.8-12.6 c-7.5,3.4-13.8,1.9-18.5-4.7c-2.3-3.2-2.6-9.5,2.5-15c-0.7-1.2-1.3-2.4-1.8-3.6c-1-3.1-0.7-6.4,0.9-9.3c1.4-2.8,3.6-5.1,6.3-6.8 c3.7-2.5,8.7-2.1,11.9,1c0.4,0.3,0.8,0.6,1.2,0.9c4.2-3.1,8.6-3.3,13.3-1.2s7.6,5.2,7.5,10.8c4.7,0.6,8.8,3.5,10.9,7.8 C88.5,174.5,88.4,178.9,84.8,183.1z"></path> <path class="st10" d="M68.6,259l15.9,2.6c0.1,4.1,0.2,8.1,0.3,12.1c-5.2,0.2-10.2-0.4-15.3,0c0,6.5-1.8,11.9-8.2,14.3 c-4.2,1.6-8.9,1.3-15.4-4.7c-4.1,7.1-10.2,9.4-17.9,6.7c-3.8-1.3-7.6-6.3-6.7-13.7c-1.3-0.6-2.5-1.2-3.6-1.9 c-2.6-1.9-4.3-4.9-4.7-8.1c-0.4-3.1,0-6.3,1.2-9.2c1.6-4.2,5.9-6.7,10.3-6c0.5,0.1,1,0.1,1.6,0.1c1.6-4.9,5.1-7.6,10.2-8.6 s9.2-0.1,12.4,4.6c4.2-2.2,9.3-2.2,13.5,0.2C66.6,249.9,69,253.6,68.6,259z"></path> <path class="st10" d="M70.5,344.3l14.7-6.7l7.1,9.8c-4.2,3-8.7,5.4-12.6,8.5c3.7,5.4,5.2,10.8,1.4,16.4c-2.6,3.7-6.6,6.1-15.4,4.7 c0.6,8.1-3.1,13.4-11,15.5c-3.9,1-9.8-0.9-13.3-7.5c-1.3,0.3-2.7,0.4-4.1,0.4c-3.3-0.2-6.3-1.6-8.5-4.1c-2.1-2.3-3.5-5.2-4.1-8.2 c-1.1-4.3,1.1-8.8,5.1-10.7c0.5-0.2,0.9-0.5,1.3-0.8c-1.5-5-0.1-9.2,3.5-12.7s7.6-5.2,12.9-3.1c2.2-4.2,6.4-7,11.2-7.4 C63.7,337.9,67.8,339.6,70.5,344.3z"></path> <path class="st11" d="M164.1,51.2c10.4-1.3,11.9,10.6,22.3,9.2s8.8-13.3,19.1-14.6s11.9,10.6,22.3,9.2c10.4-1.3,8.8-13.2,19.1-14.6 c10.4-1.3,11.9,10.5,22.3,9.2c10.3-1.3,8.8-13.3,19.1-14.6c10.4-1.3,11.9,10.5,22.3,9.2c10.4-1.4,8.8-13.2,19.2-14.6"></path> <path class="st11" d="M556.6,134.1c6.2,8.4-3.5,15.5,2.7,23.9s15.8,1.3,22,9.7s-3.5,15.5,2.7,23.9s15.8,1.3,22,9.7 s-3.4,15.6,2.7,23.9s15.8,1.3,22,9.7s-3.5,15.5,2.7,23.9s15.9,1.3,22,9.7"></path> <path class="st11" d="M455.2,509.5c10.4-1.2,11.7,10.8,22.1,9.6s9-13.1,19.4-14.2s11.7,10.8,22.1,9.6s9-13.1,19.4-14.2 s11.7,10.8,22.1,9.6s9-13.1,19.4-14.2s11.7,10.8,22.1,9.6s9.1-13.1,19.4-14.2"></path> <path class="st11" d="M174.5,517.3c-5.1-19-14.4-37.6-30-49.6s-38.2-16-55.3-6.2c-2.3,1.3-4.6,3-5.7,5.4s-0.6,5.7,1.8,7 c2.2,1.2,5,0.2,6.9-1.3c5.4-4.5,5.9-13.2,2.2-19.1S83.9,444,77,442.8c-16.4-2.8-34.1,6.9-40.6,22.3"></path> <path class="st11" d="M575.4,25.9C566.3,38.4,561,53.2,560,68.6c-0.8,13,2.1,26.7,11.1,37.1s25.1,17,39.8,13.8 c4.6-1,9.1-3.2,11.2-6.8c2-3.4,0.8-7.7-2.6-9.7c-0.4-0.2-0.8-0.4-1.3-0.6c-3.6-0.9-7.4,0.4-9.7,3.3c-2,2.7-2.3,6.1-1.9,9.3 c1.6,11.4,12.8,21,25.9,23.2s27.2-2.8,35.5-11.9"></path> <line class="st9" x1="627.2" y1="419.4" x2="621.2" y2="453.9"></line> <line class="st9" x1="644.7" y1="415.2" x2="655.8" y2="443.1"></line> <line class="st9" x1="653.2" y1="400.7" x2="671.8" y2="409"></line> <path class="st11" d="M145.2,16.1c-7.2,26.2-28.8,48-54.9,55.5c-5.1,1.4-10.7,2.3-15.5,0s-7.4-9.2-4-13.2c3-3.5,9-2.8,12.3,0.3 s4.5,7.9,4.9,12.5c1,16.5-6.9,32.2-20.8,41.2c-14.1,8.6-31.7,9-46.1,0.9"></path> <path class="st2" d="M401.7,149.8c3.4-1,6.9-1.7,10.4-2.2c1.8-0.3,3.5-0.5,5.3-0.6c1.8-0.2,3.7-0.3,5.5-0.2c2,0.3,3.9,1,5.6,2.1 c1.7,1.2,3.1,2.8,4,4.6c0.8,1.7,1.3,3.5,1.6,5.4c0.3,1.8,0.5,3.6,0.5,5.4c0.3,7.1-0.7,14.1-1.7,21c0.3-7,0.6-14-0.4-20.8 c-0.5-3.4-1.2-6.8-2.9-9.4c-0.7-1.3-1.8-2.3-3.1-3c-1.3-0.6-2.8-1-4.3-1.1c-1.6-0.4-3.3-0.7-5-0.8c-1.7-0.2-3.4-0.4-5.2-0.4 C408.7,149.5,405.2,149.5,401.7,149.8z"></path> <path class="st2" d="M601.9,368.1c2.8-2.1,5.5-4.2,8.4-6.3c6.5-2.2,13.1-4.3,19.7-6.2c-6,3.3-12,6.6-17.9,10.1 C608.7,366.4,605.3,367.2,601.9,368.1z"></path> <path class="st2" d="M227.6,170.8c1,4.9,1.9,9.9,2.7,14.8c-0.5,10-1.4,19.9-2.6,29.8c-0.2-9.9-0.7-19.9-1.6-29.7 C226.7,180.7,227.1,175.8,227.6,170.8z"></path> <polyline class="st12" points="380.2,181.3 363.2,271.8 362.3,271.8 331.2,225.7 330.5,225.7 300.2,271.7 299.5,271.7 277.1,181.8 "></polyline> <line class="st12" x1="252.1" y1="191.3" x2="303.7" y2="179.2"></line> <line class="st12" x1="351.6" y1="175" x2="406.8" y2="183.1"></line> <line class="st12" x1="275.9" y1="281.8" x2="321.4" y2="282.2"></line> <line class="st12" x1="342.9" y1="284.9" x2="387.3" y2="277.9"></line> <line class="st9" x1="399.1" y1="218.4" x2="424.8" y2="210.9"></line> <line class="st9" x1="401.7" y1="238.5" x2="423.3" y2="239.2"></line> <line class="st9" x1="397.6" y1="256.3" x2="416.9" y2="269.8"></line> <line class="st9" x1="259.2" y1="232.2" x2="234.6" y2="221.7"></line> <line class="st9" x1="255.9" y1="248.5" x2="233.1" y2="250"></line> <line class="st9" x1="262.9" y1="266.9" x2="238.3" y2="282"></line> </g> </svg> 