<?xml version="1.0" encoding="UTF-8"?> <!-- Generator: Adobe Illustrator 25.0.1, SVG Export Plug-In . SVG Version: 6.00 Build 0) --> <svg xmlns="http://www.w3.org/2000/svg" xmlns:xlink="http://www.w3.org/1999/xlink" version="1.1" id="Layer_1" x="0px" y="0px" viewBox="0 0 681.6 533.7" style="enable-background:new 0 0 681.6 533.7;" xml:space="preserve"> <style type="text/css"> .st0{fill:#E679A6;} .st1{fill:none;stroke:#DC0816;stroke-width:6;stroke-miterlimit:10;} .st2{fill:#025BC7;stroke:#000000;stroke-width:8.78;stroke-miterlimit:10;} .st3{fill:#028B3F;stroke:#000000;stroke-width:8.78;stroke-miterlimit:10;} .st4{fill:none;stroke:#000000;stroke-width:8.78;stroke-miterlimit:10;} .st5{fill:none;stroke:#000000;stroke-width:9.75;stroke-miterlimit:10;} </style> <g id="Layer_1_1_"> <path class="st0" d="M91.4,0C91.4,0,0,0,0,91.2v351.4c0,0,0,91.2,91.4,91.2h498.7c0,0,91.5,0,91.5-91.2V91.2c0,0,0-91.2-91.5-91.2 H91.4z"></path> <path class="st1" d="M505.3,24.4c7.9,6.9,0,15.9,7.9,22.8s15.8-2.2,23.6,4.7s0,15.9,7.9,22.8s15.8-2.2,23.6,4.7s0,15.9,7.9,22.8 s15.8-2.2,23.6,4.7s0,15.9,7.9,22.8s15.8-2.2,23.6,4.7"></path> <path class="st1" d="M84.8,176.4c-2.9,10-14.4,6.7-17.4,16.7s8.6,13.4,5.7,23.4s-14.4,6.7-17.4,16.7c-2.9,10,8.6,13.4,5.7,23.4 s-14.4,6.7-17.4,16.7s8.6,13.4,5.7,23.4s-14.4,6.7-17.4,16.7s8.6,13.4,5.7,23.4"></path> <path class="st1" d="M653.6,400.6c-19.6-1.5-40.2,1-56.7,11.7s-27.9,30.7-24.3,50c0.5,2.6,1.3,5.3,3.2,7.1s5.2,2.4,7.2,0.7 s1.9-4.6,1-6.9c-2.4-6.6-10.5-9.9-17.3-8.4s-12.4,6.8-15.8,12.9c-8.1,14.5-4.8,34.5,7.5,45.7"></path> <path class="st1" d="M84.9,365.7c-12.7,8.7-22.7,20.8-28.9,35c-5.1,12-7,25.8-2,38.7s18,24.5,32.9,26.3c4.7,0.6,9.7,0.1,12.8-2.6 c3-2.5,3.3-7,0.8-10c-0.3-0.4-0.6-0.7-1-1c-3.1-2.1-7.1-2.1-10.2-0.1c-2.8,1.9-4.2,5-4.9,8.1c-2.3,11.3,5.1,24.1,16.7,30.5 s26.6,6.4,37.4,0.7"></path> <path class="st1" d="M156.9,22.6c-7.2,26.2-28.8,48-54.9,55.5c-5.1,1.4-10.7,2.3-15.5,0s-7.4-9.2-4-13.2c3-3.5,9-2.8,12.3,0.3 s4.6,7.9,4.9,12.5c1,16.5-6.9,32.2-20.8,41.2c-14.1,8.6-31.7,9-46.1,0.9"></path> <circle class="st2" cx="340" cy="269.4" r="205.5"></circle> <path class="st3" d="M409.7,258.2l-17.8-15.4l-12.6-48.8l-31.2-6.5l-15.2,10.3l-8.9-4.1l-3.7-11.3l-33.7,6l-10-8.4l-25.5,46 l2.8,15.1l-6.6,9l28,33.9l36.9-6.9l10.4,13.5l-5.1,12.5l9.3,19.4l-5.4,23.1l13.8,41.1l34.4-1.9c0,0,14.5-35.1,15-35.5l17.3-12.6 l2.2-17l-7.2-15.1l26.7-29.2l0.7-24.4L409.7,258.2z"></path> <polygon class="st3" points="439.2,337.8 424.3,340.4 420.7,363.4 412.3,378.4 436.1,378.4 445,358.1 "></polygon> <path class="st3" d="M375.1,66.8l-9.6,12.8h-29.6l-12,21.2l-39.8,9.7l-15-9.7l-10.6,22.1h-21.2l-5.3,26.5l31,15l15.9-18.6 l21.2-11.5l22.1,8.9l13.7-8.9l16.3,3.6l4.4,20.3l22.7,4.4V194h17.1l15.9,39.6l27.5-10.6l5.2-15l26.6-20.3l-14.2-15.9l-28.8,5.3 l-16.3-24.8l6.2-14.2l26.5,14.1l26.6-8l31,35.7l3.1,58.1l18.1,12.4l11.8-44.3C535.6,206,508,91.6,375.1,66.8z"></path> <path class="st3" d="M135.5,291l38-40.7l-13.6-23.9l9.1-27.4l-13.1-7.2c-2.8-1.5-6.2-0.2-7.2,2.8 C143.6,209.2,131.2,250.1,135.5,291z"></path> <path class="st3" d="M447.1,444.9l-18.5-14.2l-31.3,14.1h-34.5l-33.6,11.3l-33.6-6l-26.7,12.1C268.8,462.2,363.1,497.2,447.1,444.9 z"></path> <path class="st3" d="M224.8,439.6l12.4-8.9l-5.3-16.8l21.2-9.7L231.9,375l-32.7,3.5l-4.4-30l-21.2-10.7l-9.7-30l-23,12.2 C140.8,320,163.9,400.8,224.8,439.6z"></path> <circle class="st4" cx="340" cy="269.4" r="205.5"></circle> <line class="st5" x1="193.1" y1="102.1" x2="173.5" y2="85"></line> <line class="st5" x1="217" y1="84.3" x2="201.4" y2="63.8"></line> <line class="st5" x1="243.9" y1="68.3" x2="231.9" y2="46.6"></line> <line class="st5" x1="279.5" y1="57.4" x2="271.8" y2="34.6"></line> <line class="st5" x1="315.4" y1="49.4" x2="311.4" y2="26.6"></line> <line class="st5" x1="347" y1="46" x2="345.9" y2="23.3"></line> <line class="st5" x1="383.7" y1="50.9" x2="389.1" y2="28"></line> <line class="st5" x1="420.3" y1="59.2" x2="428.6" y2="39.5"></line> <line class="st5" x1="454" y1="74.1" x2="467.5" y2="51.6"></line> <line class="st5" x1="484.2" y1="91.9" x2="500.1" y2="74.1"></line> <line class="st5" x1="506.3" y1="115.1" x2="525.2" y2="100.3"></line> <line class="st5" x1="525.2" y1="140.2" x2="544" y2="128.9"></line> <line class="st5" x1="541.9" y1="167" x2="563.3" y2="158.6"></line> <line class="st5" x1="552.6" y1="196.4" x2="573.5" y2="193.2"></line> <line class="st5" x1="559.3" y1="229.1" x2="584" y2="229.1"></line> <line class="st5" x1="563" y1="263.3" x2="585.4" y2="263.3"></line> <line class="st5" x1="563" y1="296.6" x2="587.2" y2="298.4"></line> <line class="st5" x1="559.3" y1="323.1" x2="581.8" y2="331.1"></line> <line class="st5" x1="550.2" y1="354.3" x2="574.2" y2="366.3"></line> <line class="st5" x1="538.2" y1="380.1" x2="560.8" y2="398.2"></line> <line class="st5" x1="516.8" y1="408.8" x2="538.6" y2="427.3"></line> <line class="st5" x1="495.8" y1="430.7" x2="509.6" y2="452.2"></line> <line class="st5" x1="469.3" y1="452.2" x2="483.8" y2="473.7"></line> <line class="st5" x1="434.4" y1="473.7" x2="447.1" y2="494.8"></line> <line class="st5" x1="400.3" y1="484.2" x2="407.6" y2="505.7"></line> <line class="st5" x1="365.1" y1="489" x2="366.2" y2="510.4"></line> <line class="st5" x1="324.5" y1="486.4" x2="324.1" y2="510.4"></line> <line class="st5" x1="287.8" y1="484.2" x2="282.4" y2="505.7"></line> <line class="st5" x1="256.6" y1="473.7" x2="244.3" y2="495"></line> <line class="st5" x1="222.8" y1="455.2" x2="202.2" y2="477.7"></line> <line class="st5" x1="168.8" y1="122.8" x2="145.9" y2="107.7"></line> <line class="st5" x1="144.8" y1="153.2" x2="122.3" y2="137.3"></line> <line class="st5" x1="129.9" y1="182.3" x2="107.8" y2="171.4"></line> <line class="st5" x1="123" y1="217.5" x2="96.9" y2="214.2"></line> <line class="st5" x1="118.9" y1="253.4" x2="94.4" y2="257.4"></line> <line class="st5" x1="120.1" y1="291" x2="99.4" y2="297.3"></line> <line class="st5" x1="126.3" y1="330.4" x2="101.6" y2="337.8"></line> <line class="st5" x1="137.6" y1="364.5" x2="116.5" y2="373.7"></line> <line class="st5" x1="156.4" y1="400.4" x2="137.9" y2="413.1"></line> <line class="st5" x1="183.3" y1="430.7" x2="163" y2="452.2"></line> <path class="st1" d="M604.8,174.4c26.5,6.9,41.3,36.4,42.4,63.7c0.5,13.2-3.2,28.9-15.5,33.7c-3.7,1.5-8.7,1.3-10.8-2.1 c-2.6-4.3,2.1-10.1,7.2-10.2s9.4,3.5,12.7,7.4c20.3,23.8,17.5,59.5-6.3,79.8c-8.3,7.1-18.5,11.6-29.4,13.1"></path> </g> </svg> 